<svg width="128" height="128" viewBox="0 0 128 128" fill="none" xmlns="http://www.w3.org/2000/svg">
<path d="M120 64C120 78.8521 114.1 93.0959 103.598 103.598C93.0959 114.1 78.8521 120 64 120C49.1479 120 34.9041 114.1 24.402 103.598C13.9 93.0959 8 78.8521 8 64C8 62.1435 8.7375 60.363 10.0503 59.0502C11.363 57.7375 13.1435 57 15 57C16.8565 57 18.637 57.7375 19.9497 59.0502C21.2625 60.363 22 62.1435 22 64C22 72.3068 24.4633 80.4271 29.0783 87.3339C33.6933 94.2408 40.2528 99.6241 47.9273 102.803C55.6018 105.982 64.0466 106.814 72.1938 105.193C80.341 103.572 87.8247 99.5723 93.6985 93.6985C99.5723 87.8247 103.572 80.341 105.193 72.1938C106.814 64.0466 105.982 55.6018 102.803 47.9273C99.6241 40.2528 94.2408 33.6933 87.3339 29.0783C80.4271 24.4633 72.3068 22 64 22C62.1435 22 60.363 21.2625 59.0502 19.9497C57.7375 18.637 57 16.8565 57 15C57 13.1435 57.7375 11.363 59.0502 10.0503C60.363 8.7375 62.1435 8 64 8C78.8472 8.01606 93.0817 13.9212 103.58 24.4198C114.079 34.9183 119.984 49.1528 120 64ZM40.6667 64C40.6667 65.8565 41.4042 67.637 42.7169 68.9497C44.0297 70.2625 45.8101 71 47.6667 71H57.8867C59.6596 72.5605 61.9604 73.3873 64.3211 73.3122C66.6818 73.237 68.9254 72.2656 70.5955 70.5955C72.2656 68.9254 73.237 66.6818 73.3122 64.3211C73.3873 61.9604 72.5605 59.6596 71 57.8867V38.3333C71 36.4768 70.2625 34.6963 68.9497 33.3836C67.637 32.0708 65.8565 31.3333 64 31.3333C62.1435 31.3333 60.363 32.0708 59.0502 33.3836C57.7375 34.6963 57 36.4768 57 38.3333V57H47.6667C45.8101 57 44.0297 57.7375 42.7169 59.0502C41.4042 60.363 40.6667 62.1435 40.6667 64ZM39.4533 30.8387C40.8378 30.8387 42.1912 30.4281 43.3423 29.659C44.4935 28.8898 45.3907 27.7965 45.9205 26.5175C46.4503 25.2384 46.5889 23.8309 46.3188 22.473C46.0487 21.1152 45.382 19.8679 44.4031 18.8889C43.4241 17.91 42.1768 17.2433 40.819 16.9732C39.4611 16.7031 38.0536 16.8417 36.7745 17.3715C35.4955 17.9013 34.4022 18.7985 33.633 19.9497C32.8639 21.1008 32.4533 22.4542 32.4533 23.8387C32.4533 25.6952 33.1908 27.4757 34.5036 28.7884C35.8163 30.1012 37.5968 30.8387 39.4533 30.8387ZM21.594 48.8333C22.9785 48.8333 24.3318 48.4228 25.483 47.6536C26.6341 46.8845 27.5313 45.7912 28.0612 44.5121C28.591 43.233 28.7296 41.8256 28.4595 40.4677C28.1894 39.1098 27.5227 37.8626 26.5437 36.8836C25.5648 35.9046 24.3175 35.2379 22.9596 34.9678C21.6018 34.6977 20.1943 34.8364 18.9152 35.3662C17.6361 35.896 16.5429 36.7932 15.7737 37.9443C15.0045 39.0955 14.594 40.4489 14.594 41.8333C14.594 43.6898 15.3315 45.4703 16.6443 46.7831C17.957 48.0958 19.7375 48.8333 21.594 48.8333Z" fill="url(#paint0_linear_904_101)" stroke="url(#paint1_linear_904_101)" stroke-width="2"/>
<defs>
<linearGradient id="paint0_linear_904_101" x1="14.7357" y1="88.5057" x2="117.813" y2="63.0837" gradientUnits="userSpaceOnUse">
<stop stop-color="#F5F013"/>
<stop offset="1" stop-color="#F9A60D"/>
</linearGradient>
<linearGradient id="paint1_linear_904_101" x1="14.7357" y1="88.5057" x2="117.813" y2="63.0837" gradientUnits="userSpaceOnUse">
<stop stop-color="#F5F013"/>
<stop offset="1" stop-color="#F9A60D"/>
</linearGradient>
</defs>
</svg>
