<svg width="128" height="128" viewBox="0 0 128 128" fill="none" xmlns="http://www.w3.org/2000/svg">
<path d="M64 8C52.9243 8 42.0972 11.2843 32.8881 17.4377C23.6789 23.5911 16.5013 32.3371 12.2628 42.5697C8.02426 52.8024 6.91528 64.0621 9.07605 74.925C11.2368 85.788 16.5703 95.7662 24.402 103.598C32.2338 111.43 42.212 116.763 53.075 118.924C63.9379 121.085 75.1976 119.976 85.4303 115.737C95.6629 111.499 104.409 104.321 110.562 95.1119C116.716 85.9028 120 75.0757 120 64C119.984 49.1528 114.079 34.9183 103.58 24.4198C93.0817 13.9212 78.8472 8.01606 64 8V8ZM66.3333 105.883V99.8867C66.3333 94.7008 64.2733 89.7273 60.6063 86.0604C56.9393 82.3934 51.9659 80.3333 46.78 80.3333H46.7334C44.8066 80.3334 42.8988 79.9539 41.1188 79.2164C39.3387 78.4789 37.7215 77.398 36.3594 76.0353L22.112 61.7787C22.4926 54.365 24.8346 47.1852 28.8987 40.973C32.9628 34.7609 38.6033 29.739 45.2438 26.4207C51.8843 23.1023 59.2868 21.6064 66.6947 22.0858C74.1027 22.5652 81.2506 25.0028 87.408 29.1493C86.1723 30.0562 84.6801 30.5465 83.1473 30.5493H76.4553C75.5012 30.5493 74.5564 30.7375 73.6751 31.103C72.7938 31.4686 71.9932 32.0044 71.3192 32.6797C70.6451 33.355 70.1109 34.1567 69.747 35.0387C69.3832 35.9207 69.1968 36.8659 69.1987 37.82V42.6827C69.1987 44.6073 68.4341 46.453 67.0733 47.8139C65.7124 49.1748 63.8666 49.9393 61.942 49.9393V49.9393C60.9875 49.9369 60.0419 50.1228 59.1593 50.4863C58.2767 50.8499 57.4745 51.3841 56.7987 52.0581C56.1229 52.7322 55.5867 53.533 55.2208 54.4147C54.855 55.2963 54.6667 56.2415 54.6667 57.196V62.0587C54.6667 63.9832 55.4312 65.829 56.7921 67.1899C58.153 68.5508 59.9988 69.3153 61.9233 69.3153H81.318C83.2426 69.3153 85.0884 70.0799 86.4492 71.4408C87.8101 72.8016 88.5747 74.6474 88.5747 76.572V83.6653C88.5747 84.6188 88.7627 85.5629 89.1278 86.4438C89.493 87.3246 90.0281 88.1248 90.7027 88.7987L94.59 92.686C87.2244 100.563 77.1012 105.291 66.3333 105.883Z" fill="url(#paint0_linear_905_67)"/>
<defs>
<linearGradient id="paint0_linear_905_67" x1="64" y1="120" x2="64" y2="8" gradientUnits="userSpaceOnUse">
<stop stop-color="#A93AFF"/>
<stop offset="1" stop-color="#FF81FF"/>
</linearGradient>
</defs>
</svg>
