<svg width="64" height="64" viewBox="0 0 64 64" fill="none" xmlns="http://www.w3.org/2000/svg">
<path fill-rule="evenodd" clip-rule="evenodd" d="M39.7644 45.482C39.562 47.1399 39.5025 48.7712 39.05 50.4588C38.3297 52.8641 36.4455 54.3352 34.4124 54.2758C33.448 54.2996 32.0906 53.7123 31.1768 52.9442L20.5173 44.2868H14.5789C11.7183 44.2868 9.78644 42.3352 9.3965 39.1202C8.84284 35.1637 8.89344 28.016 9.3965 23.9794C9.78644 21.1915 11.7183 18.9938 14.5789 18.9938H20.5173L30.9565 10.4847C31.8703 9.71057 33.448 8.98096 34.4124 9.00173C36.4455 8.94241 38.3297 10.4164 39.05 12.8188C39.4519 14.3551 39.562 16.1406 39.7644 17.7985C40.2496 21.6749 40.2496 41.6056 39.7644 45.482Z" stroke="url(#paint0_linear_833_17)" stroke-width="8" stroke-linecap="round" stroke-linejoin="round"/>
<path d="M50.646 16.2839C53.3666 20.1971 54.9996 25.4467 54.9996 31.2895C54.9996 37.1323 53.3666 42.3788 50.646 46.292" stroke="url(#paint1_linear_833_17)" stroke-width="8" stroke-linecap="round" stroke-linejoin="round"/>
<defs>
<linearGradient id="paint0_linear_833_17" x1="40.1283" y1="33.997" x2="14.75" y2="33.7694" gradientUnits="userSpaceOnUse">
<stop stop-color="#FFCD1A"/>
<stop offset="1" stop-color="#FD9C0C"/>
</linearGradient>
<linearGradient id="paint1_linear_833_17" x1="54.9996" y1="32.8509" x2="10.3266" y2="33.3272" gradientUnits="userSpaceOnUse">
<stop stop-color="#FFCD1A"/>
<stop offset="1" stop-color="#FD9C0C"/>
</linearGradient>
</defs>
</svg>
