<svg width="64" height="64" viewBox="0 0 64 64" fill="none" xmlns="http://www.w3.org/2000/svg">
<path fill-rule="evenodd" clip-rule="evenodd" d="M33.0296 44.8839C32.8451 46.3944 32.7909 47.8806 32.3787 49.4182C31.7224 51.6097 30.0057 52.95 28.1535 52.8959C27.2748 52.9176 26.0382 52.3825 25.2056 51.6826L15.4941 43.7949H10.0838C7.47488 43.7949 5.71754 42.0168 5.36228 39.0876C4.85514 35.4828 4.90396 28.9705 5.36228 25.2928C5.71754 22.7527 7.47488 20.7504 10.0838 20.7504H15.4941L25.0049 12.9977C25.8375 12.2924 27.2748 11.6277 28.1535 11.6466C30.0057 11.5925 31.7224 12.9355 32.3787 15.1243C32.7448 16.5241 32.8451 18.1508 33.0296 19.6614C33.4716 23.1932 33.4716 41.3521 33.0296 44.8839Z" stroke="url(#paint0_linear_831_7)" stroke-width="8" stroke-linecap="round" stroke-linejoin="round"/>
<path fill-rule="evenodd" clip-rule="evenodd" d="M54.5798 9.28759C53.6339 7.92727 51.7643 7.59131 50.404 8.53719C49.0437 9.48308 48.7077 11.3526 49.6536 12.7129C53.0379 17.58 55.1525 24.2427 55.1525 31.8018C55.1525 39.3612 53.0378 46.0264 49.6536 50.8933C48.7077 52.2536 49.0437 54.1232 50.404 55.0691C51.7643 56.0149 53.6339 55.679 54.5798 54.3187C58.7397 48.3361 61.1525 40.4444 61.1525 31.8018C61.1525 23.1591 58.7396 15.2699 54.5798 9.28759ZM45.7344 17.1787C44.7886 15.8183 42.9191 15.4822 41.5587 16.428C40.1984 17.3739 39.8623 19.2434 40.8081 20.6038C42.7615 23.4134 44.0175 27.3174 44.0175 31.8033C44.0175 36.2888 42.7617 40.1903 40.8081 43.0002C39.8623 44.3606 40.1984 46.2301 41.5587 47.1759C42.9191 48.1217 44.7886 47.7856 45.7344 46.4252C48.463 42.5007 50.0175 37.373 50.0175 31.8033C50.0175 26.2338 48.4632 21.1035 45.7344 17.1787Z" fill="url(#paint1_linear_831_7)"/>
<defs>
<linearGradient id="paint0_linear_831_7" x1="1.67798" y1="31.8816" x2="53.8129" y2="11.8959" gradientUnits="userSpaceOnUse">
<stop stop-color="#F9D423"/>
<stop offset="0.515624" stop-color="#FF4E50"/>
<stop offset="0.991304" stop-color="#8A2387"/>
</linearGradient>
<linearGradient id="paint1_linear_831_7" x1="1.43259" y1="31.882" x2="61.1524" y2="31.882" gradientUnits="userSpaceOnUse">
<stop stop-color="#F9D423"/>
<stop offset="0.515624" stop-color="#FF4E50"/>
<stop offset="0.991304" stop-color="#8A2387"/>
</linearGradient>
</defs>
</svg>
