<svg width="64" height="64" viewBox="0 0 64 64" fill="none" xmlns="http://www.w3.org/2000/svg">
<path d="M31.7558 4C24.9067 4.02013 18.3011 6.54286 13.1823 11.0934L10.0719 7.98304C9.74557 7.65681 9.32985 7.43466 8.87729 7.34467C8.42473 7.25468 7.95565 7.30088 7.52934 7.47745C7.10304 7.65401 6.73866 7.95301 6.48226 8.33664C6.22586 8.72026 6.08896 9.1713 6.08886 9.63272V20.3335C6.08886 20.9523 6.33469 21.5458 6.77228 21.9834C7.20987 22.421 7.80337 22.6668 8.42221 22.6668H19.123C19.5844 22.6667 20.0354 22.5298 20.4191 22.2734C20.8027 22.017 21.1017 21.6527 21.2782 21.2264C21.4548 20.8 21.501 20.331 21.411 19.8784C21.321 19.4258 21.0989 19.0101 20.7727 18.6838L18.1243 16.0354C21.2148 13.3953 25.0051 11.7089 29.0353 11.1806C33.0655 10.6524 37.1624 11.3051 40.8289 13.0596C44.4954 14.814 47.574 17.5948 49.6911 21.0646C51.8082 24.5343 52.8729 28.544 52.756 32.6069C52.6059 37.8567 50.4941 42.8596 46.8373 46.6291C43.1804 50.3987 38.2438 52.6612 33.0011 52.9705C27.7583 53.2798 22.59 51.6134 18.5152 48.3C14.4405 44.9866 11.7552 40.2666 10.9889 35.071C10.8795 34.2262 10.4677 33.4496 9.82979 32.8851C9.19188 32.3205 8.37103 32.0062 7.5192 32.0003V32.0003C7.02492 31.9939 6.53496 32.093 6.08206 32.2911C5.62916 32.4892 5.22374 32.7817 4.89289 33.149C4.56205 33.5163 4.31338 33.9499 4.16352 34.421C4.01365 34.8921 3.96603 35.3897 4.02384 35.8806C4.99501 42.7546 8.48145 49.024 13.8085 53.4757C19.1356 57.9273 25.9246 60.2448 32.8618 59.9795C39.8799 59.6414 46.5205 56.7016 51.4888 51.7333C56.4571 46.765 59.3969 40.1244 59.735 33.1063C59.8797 29.34 59.2633 25.5833 57.9227 22.0608C56.5822 18.5382 54.545 15.3222 51.9331 12.605C49.3211 9.88787 46.188 7.72536 42.7211 6.24683C39.2542 4.7683 35.5248 4.00413 31.7558 4V4Z" fill="url(#paint0_linear_906_20)"/>
<path d="M30.5899 20.3325C29.6616 20.3325 28.7714 20.7013 28.115 21.3577C27.4586 22.014 27.0898 22.9043 27.0898 23.8325V33.8496C27.0901 35.0872 27.582 36.274 28.4572 37.149L32.6409 41.3327C33.301 41.9702 34.1851 42.323 35.1028 42.315C36.0205 42.3071 36.8984 41.939 37.5473 41.29C38.1962 40.6411 38.5643 39.7633 38.5723 38.8456C38.5803 37.9279 38.2275 37.0438 37.5899 36.3836L34.0899 32.8836V23.8325C34.0899 22.9043 33.7211 22.014 33.0648 21.3577C32.4084 20.7013 31.5181 20.3325 30.5899 20.3325Z" fill="url(#paint1_linear_906_20)"/>
<defs>
<linearGradient id="paint0_linear_906_20" x1="31.8778" y1="60" x2="31.8778" y2="4" gradientUnits="userSpaceOnUse">
<stop stop-color="#FDA700"/>
<stop offset="1" stop-color="#FFDE00"/>
</linearGradient>
<linearGradient id="paint1_linear_906_20" x1="32.8311" y1="42.3152" x2="32.8311" y2="20.3325" gradientUnits="userSpaceOnUse">
<stop stop-color="#FDA700"/>
<stop offset="1" stop-color="#FFDE00"/>
</linearGradient>
</defs>
</svg>
