<svg width="64" height="64" viewBox="0 0 64 64" fill="none" xmlns="http://www.w3.org/2000/svg">
<path fill-rule="evenodd" clip-rule="evenodd" d="M16 17.9737C16 15.4677 16.8042 14.2192 17.7721 13.4778C18.9035 12.6112 20.8399 12 23.7782 12H39.4098C42.267 12 44.2493 12.574 45.4284 13.4195C46.4168 14.1282 47.188 15.2626 47.188 17.5226V51.6371L34.0684 44.4938L34.0583 44.4883C32.4782 43.6347 30.5744 43.6347 28.9943 44.4883L28.9763 44.4981L16 51.607V17.9737ZM9.00049 53.5132C9.01625 54.4602 9.25336 55.3903 9.69284 56.2293C9.71266 56.2672 9.73307 56.3045 9.75405 56.3413C11.3283 59.1185 14.8198 60.1545 17.6554 58.6808C17.678 58.669 17.7006 58.657 17.723 58.6447L31.5288 51.0814L45.4278 58.6491C45.4529 58.6628 45.4782 58.6761 45.5036 58.6892C46.3447 59.1207 47.2738 59.353 48.2189 59.368C48.2374 59.3683 48.2559 59.3684 48.2744 59.3684C49.8428 59.3684 51.3469 58.7454 52.4559 57.6364C53.5649 56.5274 54.188 55.0233 54.188 53.4549V17.5226C54.188 13.2863 52.5456 9.90936 49.5076 7.73089C46.6604 5.6892 43.0036 5 39.4098 5H23.7782C20.0623 5 16.3597 5.74217 13.5155 7.92067C10.5078 10.2244 9 13.7127 9 17.9737V53.4549C9 53.4743 9.00016 53.4937 9.00049 53.5132ZM22.5376 21.1277C20.6046 21.1277 19.0376 22.6947 19.0376 24.6277C19.0376 26.5607 20.6046 28.1277 22.5376 28.1277H40.515C42.448 28.1277 44.015 26.5607 44.015 24.6277C44.015 22.6947 42.448 21.1277 40.515 21.1277H22.5376Z" fill="url(#paint0_linear_833_73)"/>
<defs>
<linearGradient id="paint0_linear_833_73" x1="8.34684" y1="5.53498" x2="63.7561" y2="52.997" gradientUnits="userSpaceOnUse">
<stop stop-color="#F9D423"/>
<stop offset="0.515624" stop-color="#FF4E50"/>
<stop offset="0.991304" stop-color="#8A2387"/>
</linearGradient>
</defs>
</svg>
