<svg width="64" height="64" viewBox="0 0 64 64" fill="none" xmlns="http://www.w3.org/2000/svg">
<path fill-rule="evenodd" clip-rule="evenodd" d="M45.9441 19.0675C50.0991 20.2234 53.7469 22.7387 56.3044 26.2115C57.8296 28.2812 58.9178 30.6397 59.5028 33.1433C60.0878 35.6469 60.1574 38.2433 59.7073 40.7746C59.2614 43.3211 58.2923 45.7475 56.8612 47.9005C55.43 50.0535 53.5679 51.8862 51.3924 53.283C50.8552 53.6159 50.2385 53.7987 49.6066 53.8122C48.9748 53.8257 48.3508 53.6695 47.7999 53.3598C47.2489 53.0501 46.7911 52.5984 46.4741 52.0516C46.1571 51.5048 45.9926 50.8829 45.9977 50.2509C45.9962 49.6706 46.1391 49.099 46.4135 48.5876C46.688 48.0762 47.0853 47.6411 47.5697 47.3215C48.9267 46.459 50.0919 45.3267 50.993 43.9951C51.8941 42.6635 52.512 41.1608 52.8082 39.5805C53.0946 37.9766 53.0521 36.3313 52.6833 34.7444C52.3144 33.1575 51.6269 31.6621 50.6624 30.349C49.6954 29.0379 48.4754 27.934 47.0745 27.1023C45.6736 26.2707 44.1203 25.7283 42.5062 25.5071C41.7423 25.401 41.0345 25.0467 40.4917 24.4988C39.9489 23.951 39.6012 23.2399 39.5021 22.475C39.0615 19.2825 37.3721 16.3953 34.8048 14.4471C32.7121 12.8627 30.1573 12.009 27.5326 12.0168C26.54 12.0185 25.5509 12.1335 24.5845 12.3597C22.5461 12.8527 20.6743 13.8758 19.1588 15.3254C17.6432 16.7749 16.5379 18.5994 15.9548 20.6138C15.4246 22.4143 15.3194 24.3132 15.6476 26.1611C15.9759 28.0091 16.7285 29.7556 17.8463 31.2633C18.1878 31.7237 18.4109 32.261 18.4961 32.8279C18.5812 33.3948 18.5257 33.9739 18.3345 34.5143C18.1433 35.0547 17.8223 35.5399 17.3996 35.9271C16.9769 36.3144 16.4655 36.5918 15.9105 36.735C15.0736 36.9516 14.2881 37.3323 13.5995 37.8548C12.9109 38.3773 12.3328 39.0314 11.8989 39.779C11.465 40.5267 11.1838 41.353 11.0717 42.2102C10.9596 43.0673 11.0188 43.9382 11.2458 44.7723C11.679 46.1819 12.5622 47.4108 13.7601 48.2709C14.9581 49.131 16.4048 49.575 17.879 49.5349H23.8404C24.7683 49.5349 25.6582 49.9035 26.3143 50.5596C26.9704 51.2157 27.339 52.1056 27.339 53.0334C27.339 53.9613 26.9704 54.8512 26.3143 55.5073C25.6582 56.1634 24.7683 56.532 23.8404 56.532H17.879C14.8427 56.5907 11.8736 55.6348 9.44194 53.8157C7.01025 51.9966 5.25494 49.4182 4.45399 46.4889C3.72542 43.7527 3.87674 40.8566 4.88648 38.2113C5.89623 35.5659 7.71315 33.3056 10.0796 31.7508C8.94702 29.1802 8.39649 26.391 8.4674 23.5829C8.53831 20.7747 9.2289 18.0169 10.4898 15.5067C11.7507 12.9965 13.5507 10.796 15.7611 9.06253C17.9715 7.32905 20.5376 6.10545 23.276 5.47925C28.0776 4.38265 33.1172 5.18426 37.3416 7.71654C41.566 10.2488 44.6482 14.3158 45.9441 19.0675ZM38.2146 42.9181V55.746C38.2146 56.6739 37.846 57.5638 37.1899 58.2199C36.5338 58.876 35.6439 59.2445 34.7161 59.2445C33.7882 59.2445 32.8984 58.876 32.2423 58.2199C31.5862 57.5638 31.2176 56.6739 31.2176 55.746V42.9181H27.3389C26.8777 42.918 26.4268 42.7812 26.0434 42.5249C25.6599 42.2686 25.361 41.9044 25.1846 41.4783C25.0081 41.0522 24.9619 40.5833 25.0518 40.1309C25.1418 39.6785 25.3638 39.263 25.6899 38.9368L33.0671 31.5596C33.5045 31.1224 34.0976 30.8767 34.7161 30.8767C35.3345 30.8767 35.9277 31.1224 36.3651 31.5596L43.7422 38.9368C44.0683 39.263 44.2904 39.6785 44.3803 40.1309C44.4703 40.5833 44.4241 41.0522 44.2476 41.4783C44.0711 41.9044 43.7723 42.2686 43.3888 42.5249C43.0053 42.7812 42.5545 42.918 42.0933 42.9181H38.2146Z" fill="url(#paint0_linear_906_20)"/>
<defs>
<linearGradient id="paint0_linear_906_20" x1="32" y1="59.2446" x2="32" y2="5" gradientUnits="userSpaceOnUse">
<stop stop-color="#5570FF"/>
<stop offset="1" stop-color="#4DD3FF"/>
</linearGradient>
</defs>
</svg>
