<svg width="64" height="64" viewBox="0 0 64 64" fill="none" xmlns="http://www.w3.org/2000/svg">
<path d="M59.943 38.856C59.7791 40.9874 59.2327 43.0717 58.3299 45.0094C57.9362 45.8504 57.2245 46.5006 56.3513 46.8169C55.4782 47.1332 54.5152 47.0897 53.6741 46.6959C52.8331 46.3022 52.1829 45.5904 51.8666 44.7173C51.5503 43.8442 51.5938 42.8811 51.9876 42.0401C52.534 40.8638 52.8638 39.5985 52.961 38.3051C53.1957 35.2314 52.2436 32.1845 50.3005 29.7912C48.3575 27.3979 45.5713 25.8401 42.5148 25.4383C41.7531 25.3371 41.0459 24.9881 40.5021 24.4452C39.9584 23.9023 39.6083 23.1955 39.5059 22.434C39.297 20.8599 38.7766 19.3432 37.975 17.9724C37.1734 16.6017 36.1067 15.4044 34.8372 14.4506C33.5466 13.4783 32.075 12.7735 30.5085 12.3775C28.942 11.9815 27.3122 11.9022 25.7146 12.1443C23.2815 12.5104 21.0237 13.6284 19.2577 15.3417C17.4917 17.055 16.3057 19.2777 15.8661 21.6987C15.3519 24.3133 15.7265 27.0248 16.9305 29.402C17.6527 30.7548 17.8096 32.3386 17.3668 33.8068C16.9241 35.275 15.9178 36.508 14.5682 37.236C13.249 37.8939 12.195 38.9838 11.5817 40.3243C10.9684 41.6648 10.8328 43.1749 11.1974 44.6032C11.6469 46.0179 12.5451 47.2476 13.7561 48.106C14.9671 48.9645 16.4249 49.4049 17.9086 49.3606H23.8168C24.7455 49.3606 25.6361 49.7295 26.2927 50.3861C26.9494 51.0428 27.3183 51.9334 27.3183 52.8621C27.3183 53.7907 26.9494 54.6813 26.2927 55.338C25.6361 55.9946 24.7455 56.3636 23.8168 56.3636H17.9086C14.8721 56.4228 11.9015 55.4742 9.46117 53.6662C7.02087 51.8581 5.2484 49.2925 4.42082 46.3703C3.71551 43.6168 3.90031 40.7107 4.94871 38.0687C5.99711 35.4267 7.85525 33.1846 10.2567 31.664C8.54588 27.8193 8.16298 23.5147 9.16827 19.4284C10.1736 15.3421 12.5099 11.7065 15.8092 9.09434C19.1084 6.48221 23.183 5.0421 27.391 5.00091C31.5989 4.95972 35.7009 6.31981 39.0507 8.86685C42.3904 11.4008 44.8076 14.9594 45.9323 18.9979C50.2149 20.158 53.9582 22.7768 56.5161 26.4022C59.074 30.0277 60.286 34.4324 59.943 38.856V38.856ZM47.3072 47.0262H43.6586V36.5217C43.6586 35.5931 43.2897 34.7024 42.6331 34.0458C41.9764 33.3891 41.0858 33.0202 40.1571 33.0202C39.2285 33.0202 38.3379 33.3891 37.6812 34.0458C37.0245 34.7024 36.6556 35.5931 36.6556 36.5217V47.0262H33.0071C32.5598 47.0257 32.1225 47.158 31.7504 47.4063C31.3784 47.6545 31.0884 48.0076 30.9171 48.4208C30.7459 48.834 30.7012 49.2887 30.7886 49.7274C30.876 50.166 31.0916 50.5688 31.4081 50.8849L38.5581 58.0349C38.7678 58.2454 39.017 58.4124 39.2914 58.5264C39.5658 58.6403 39.86 58.699 40.1571 58.699C40.4543 58.699 40.7485 58.6403 41.0228 58.5264C41.2972 58.4124 41.5464 58.2454 41.7562 58.0349L48.9062 50.8849C49.2227 50.5688 49.4383 50.166 49.5257 49.7274C49.6131 49.2887 49.5684 48.834 49.3971 48.4208C49.2259 48.0076 48.9359 47.6545 48.5639 47.4063C48.1918 47.158 47.7545 47.0257 47.3072 47.0262Z" fill="url(#paint0_linear_906_20)"/>
<defs>
<linearGradient id="paint0_linear_906_20" x1="32" y1="58.6989" x2="32" y2="5" gradientUnits="userSpaceOnUse">
<stop stop-color="#02AA93"/>
<stop offset="1" stop-color="#67FF80"/>
</linearGradient>
</defs>
</svg>
