<svg width="32" height="32" viewBox="0 0 32 32" fill="none" xmlns="http://www.w3.org/2000/svg">
<path fill-rule="evenodd" clip-rule="evenodd" d="M3.88144 14.6582C5.0844 15.8612 6.71543 16.5378 8.41667 16.5397C10.1179 16.5378 11.7489 15.8612 12.9519 14.6582C14.1548 13.4553 14.8315 11.8242 14.8333 10.123C14.8333 9.18032 14.5463 7.50615 12.0613 3.89182C11.6499 3.30734 11.104 2.83037 10.4695 2.50112C9.83513 2.17187 9.13085 2 8.41608 2C7.70132 2 6.99704 2.17187 6.36262 2.50112C5.72821 2.83037 5.18226 3.30734 4.77083 3.89182C2.287 7.50615 2 9.18032 2 10.123C2.00185 11.8242 2.67849 13.4553 3.88144 14.6582ZM7.98513 5.57899C8.11817 5.50932 8.2665 5.47397 8.41667 5.47615C8.56655 5.47393 8.71462 5.50915 8.84744 5.57862C8.98027 5.64809 9.09366 5.74961 9.17733 5.87399C11.2727 8.92365 11.3333 10.0063 11.3333 10.123C11.3333 10.8965 11.026 11.6384 10.4791 12.1854C9.93208 12.7324 9.19021 13.0397 8.41667 13.0397C7.64312 13.0397 6.90125 12.7324 6.35427 12.1854C5.80729 11.6384 5.5 10.8965 5.5 10.123C5.5 10.0098 5.56067 8.92365 7.65483 5.87515C7.73855 5.75047 7.85209 5.64867 7.98513 5.57899ZM16.062 27.5813C17.593 29.1122 19.6686 29.9735 21.8337 29.9763C23.9987 29.9735 26.0744 29.1122 27.6053 27.5813C29.1362 26.0503 29.9975 23.9747 30.0003 21.8096C30.0003 19.5615 28.2807 16.4663 24.8903 12.6105C24.5058 12.18 24.0347 11.8356 23.5078 11.5999C22.981 11.3641 22.4103 11.2422 21.8331 11.2422C21.2559 11.2422 20.6852 11.3641 20.1583 11.5999C19.6315 11.8356 19.1604 12.18 18.7758 12.6105C15.3867 16.4663 13.667 19.5615 13.667 21.8096C13.6698 23.9747 14.5311 26.0503 16.062 27.5813ZM21.5978 14.779C21.6719 14.7455 21.7524 14.7285 21.8337 14.7291C21.9151 14.729 21.9955 14.7465 22.0694 14.7806C22.1434 14.8146 22.209 14.8643 22.2618 14.9263C25.3873 18.4753 26.5003 20.8098 26.5003 21.8096C26.5003 23.0473 26.0087 24.2343 25.1335 25.1095C24.2583 25.9846 23.0713 26.4763 21.8337 26.4763C20.596 26.4763 19.409 25.9846 18.5338 25.1095C17.6587 24.2343 17.167 23.0473 17.167 21.8096C17.167 20.8098 18.28 18.4753 21.4043 14.9228C21.4577 14.8615 21.5237 14.8124 21.5978 14.779Z" fill="url(#paint0_linear_928_44)"/>
<defs>
<linearGradient id="paint0_linear_928_44" x1="16.0002" y1="29.9763" x2="16.0002" y2="2" gradientUnits="userSpaceOnUse">
<stop stop-color="#5570FF"/>
<stop offset="1" stop-color="#4DD3FF"/>
</linearGradient>
</defs>
</svg>
