<svg width="16" height="16" viewBox="0 0 16 16" fill="none" xmlns="http://www.w3.org/2000/svg">
<path d="M13.3199 1C12.8744 1.00007 12.4471 1.17711 12.1321 1.49219L10.2456 3.37863C10.0504 3.5739 9.73383 3.5739 9.53856 3.37863L9.19348 3.03355C8.99822 2.83829 8.68164 2.83829 8.48638 3.03355L8.07348 3.44645C7.87822 3.64171 7.87822 3.95829 8.07348 4.15355L8.09044 4.17051C8.2857 4.36577 8.2857 4.68235 8.09044 4.87762L3.30337 9.66469C2.88709 10.081 2.67993 10.6308 2.67993 11.1806V11.9929C2.67993 12.1255 2.62725 12.2527 2.53348 12.3464L1.35348 13.5264C1.15822 13.7217 1.15822 14.0383 1.35348 14.2336L1.76638 14.6464C1.96164 14.8417 2.27822 14.8417 2.47348 14.6464L3.65348 13.4664C3.74725 13.3727 3.87443 13.32 4.00704 13.32H4.81931C5.36913 13.32 5.91896 13.1128 6.33524 12.6966L11.1223 7.90949C11.3175 7.71423 11.6341 7.71423 11.8294 7.90949L11.8463 7.92645C12.0416 8.12171 12.3582 8.12171 12.5535 7.92645L12.9663 7.51355C13.1616 7.31829 13.1616 7.00171 12.9663 6.80645L12.6213 6.46137C12.426 6.2661 12.426 5.94952 12.6213 5.75426L14.5077 3.86781C14.8228 3.5528 14.9998 3.12554 14.9999 2.68V2.12C14.9999 1.50144 14.4985 1 13.8799 1H13.3199ZM8.88231 5.66949C9.07758 5.47423 9.39416 5.47423 9.58942 5.66949L10.3304 6.41051C10.5257 6.60577 10.5257 6.92235 10.3304 7.11762L7.6345 9.81355C7.54073 9.90732 7.41356 9.96 7.28095 9.96H5.79891C5.35346 9.96 5.13038 9.42143 5.44536 9.10645L8.88231 5.66949Z" fill="url(#paint0_linear_929_57)"/>
<defs>
<linearGradient id="paint0_linear_929_57" x1="8.10348" y1="14.7929" x2="8.10348" y2="1" gradientUnits="userSpaceOnUse">
<stop stop-color="#A5A5A5"/>
<stop offset="0.9973" stop-color="#DCDCDC"/>
</linearGradient>
</defs>
</svg>
