<svg width="64" height="64" viewBox="0 0 64 64" fill="none" xmlns="http://www.w3.org/2000/svg">
<path fill-rule="evenodd" clip-rule="evenodd" d="M15.3967 5.5C8.82632 5.5 3.5 10.8263 3.5 17.3967C3.5 23.9714 8.82739 29.2934 15.3967 29.2934C21.9661 29.2934 27.2934 23.9714 27.2934 17.3967C27.2934 10.8263 21.9671 5.5 15.3967 5.5ZM11.5 17.3967C11.5 15.2446 13.2446 13.5 15.3967 13.5C17.5488 13.5 19.2934 15.2446 19.2934 17.3967C19.2934 19.551 17.5499 21.2934 15.3967 21.2934C13.2435 21.2934 11.5 19.551 11.5 17.3967ZM33.6611 17.3966C33.6611 15.1874 35.452 13.3966 37.6611 13.3966H57.4997C59.7089 13.3966 61.4997 15.1874 61.4997 17.3966C61.4997 19.6057 59.7089 21.3966 57.4997 21.3966H37.6611C35.452 21.3966 33.6611 19.6057 33.6611 17.3966ZM45.7056 46.5439C45.7056 44.3897 47.4491 42.6472 49.6023 42.6472C51.7555 42.6472 53.499 44.3897 53.499 46.5439C53.499 48.6961 51.7544 50.4407 49.6023 50.4407C47.4502 50.4407 45.7056 48.6961 45.7056 46.5439ZM49.6023 34.6472C43.033 34.6472 37.7056 39.9692 37.7056 46.5439C37.7056 53.1143 43.0319 58.4407 49.6023 58.4407C56.1727 58.4407 61.499 53.1143 61.499 46.5439C61.499 39.9692 56.1716 34.6472 49.6023 34.6472ZM7.50146 42.544C5.29233 42.544 3.50146 44.3349 3.50146 46.544C3.50146 48.7532 5.29233 50.544 7.50146 50.544H27.3368C29.546 50.544 31.3368 48.7532 31.3368 46.544C31.3368 44.3349 29.546 42.544 27.3368 42.544H7.50146Z" fill="url(#paint0_linear_905_43)" stroke="url(#paint1_linear_905_43)" stroke-width="2"/>
<defs>
<linearGradient id="paint0_linear_905_43" x1="30.0213" y1="56.5457" x2="35.3827" y2="9.48906" gradientUnits="userSpaceOnUse">
<stop stop-color="#8D01A2"/>
<stop offset="1" stop-color="#FF33DB"/>
</linearGradient>
<linearGradient id="paint1_linear_905_43" x1="30.0213" y1="56.5457" x2="35.3827" y2="9.48906" gradientUnits="userSpaceOnUse">
<stop stop-color="#8D01A2"/>
<stop offset="1" stop-color="#FF33DB"/>
</linearGradient>
</defs>
</svg>
