<svg width="64" height="64" viewBox="0 0 64 64" fill="none" xmlns="http://www.w3.org/2000/svg">
<path fill-rule="evenodd" clip-rule="evenodd" d="M47.1667 4H16.8333C13.431 4.00432 10.1694 5.35779 7.76357 7.76357C5.35779 10.1694 4.00432 13.431 4 16.8333V37.8333C4.00432 41.2356 5.35779 44.4973 7.76357 46.9031C10.1694 49.3089 13.431 50.6623 16.8333 50.6667H20.1887L29.7553 58.6653C30.3849 59.1916 31.1794 59.4799 32 59.4799C32.8206 59.4799 33.6151 59.1916 34.2447 58.6653L43.8113 50.6667H47.1667C50.569 50.6623 53.8306 49.3089 56.2364 46.9031C58.6422 44.4973 59.9957 41.2356 60 37.8333V16.8333C59.9957 13.431 58.6422 10.1694 56.2364 7.76357C53.8306 5.35779 50.569 4.00432 47.1667 4ZM53 37.8333C53 39.3804 52.3854 40.8642 51.2915 41.9581C50.1975 43.0521 48.7138 43.6667 47.1667 43.6667H42.5397C41.7188 43.6673 40.9243 43.9563 40.295 44.4833L32 51.418L23.705 44.4833C23.0757 43.9563 22.2812 43.6673 21.4603 43.6667H16.8333C15.2862 43.6667 13.8025 43.0521 12.7085 41.9581C11.6146 40.8642 11 39.3804 11 37.8333V16.8333C11 15.2862 11.6146 13.8025 12.7085 12.7085C13.8025 11.6146 15.2862 11 16.8333 11H47.1667C48.7138 11 50.1975 11.6146 51.2915 12.7085C52.3854 13.8025 53 15.2862 53 16.8333V37.8333ZM21.5 25H28.5C29.4283 25 30.3185 24.6313 30.9749 23.9749C31.6313 23.3185 32 22.4283 32 21.5C32 20.5717 31.6313 19.6815 30.9749 19.0251C30.3185 18.3687 29.4283 18 28.5 18H21.5C20.5717 18 19.6815 18.3687 19.0251 19.0251C18.3687 19.6815 18 20.5717 18 21.5C18 22.4283 18.3687 23.3185 19.0251 23.9749C19.6815 24.6313 20.5717 25 21.5 25ZM19.0251 30.6916C19.6815 30.0353 20.5717 29.6665 21.5 29.6665H42.5C43.4283 29.6665 44.3185 30.0353 44.9749 30.6916C45.6312 31.348 46 32.2382 46 33.1665C46 34.0948 45.6312 34.985 44.9749 35.6414C44.3185 36.2978 43.4283 36.6665 42.5 36.6665H21.5C20.5717 36.6665 19.6815 36.2978 19.0251 35.6414C18.3687 34.985 18 34.0948 18 33.1665C18 32.2382 18.3687 31.348 19.0251 30.6916Z" fill="url(#paint0_linear_906_20)"/>
<defs>
<linearGradient id="paint0_linear_906_20" x1="32" y1="25" x2="33" y2="57.5" gradientUnits="userSpaceOnUse">
<stop stop-color="#FFE600"/>
<stop offset="0.81623" stop-color="#FCF39F"/>
</linearGradient>
</defs>
</svg>
