<svg width="16" height="16" viewBox="0 0 16 16" fill="none" xmlns="http://www.w3.org/2000/svg">
<path fill-rule="evenodd" clip-rule="evenodd" d="M9 4.54528C9 4.32437 9.17909 4.14528 9.4 4.14528H9.5908C9.90498 4.14528 10.0965 3.7997 9.93 3.53328L8.4642 1.188C8.30753 0.937333 7.94247 0.937333 7.7858 1.188L6.32 3.53328C6.15349 3.7997 6.34502 4.14528 6.6592 4.14528H6.85C7.07091 4.14528 7.25 4.32437 7.25 4.54528V8.12028C7.25 8.3412 7.07091 8.52028 6.85 8.52028H5.025C4.80409 8.52028 4.625 8.3412 4.625 8.12028V7.64178C4.625 7.49887 4.70354 7.36964 4.81682 7.28252C4.87655 7.23658 4.93357 7.18658 4.98744 7.13272C5.31563 6.80453 5.5 6.35941 5.5 5.89528C5.5 5.43115 5.31563 4.98603 4.98744 4.65784C4.65925 4.32966 4.21413 4.14528 3.75 4.14528C3.28587 4.14528 2.84075 4.32966 2.51256 4.65784C2.18437 4.98603 2 5.43115 2 5.89528C2 6.35941 2.18437 6.80453 2.51256 7.13272C2.56643 7.18658 2.62345 7.23658 2.68318 7.28252C2.79646 7.36964 2.875 7.49887 2.875 7.64178V8.52028C2.875 8.52028 2.875 8.52028 2.875 8.52028C2.875 8.52028 2.875 10.2703 4.625 10.2703H6.85C7.07091 10.2703 7.25 10.4494 7.25 10.6703V11.1488C7.25 11.2917 7.17146 11.4209 7.05818 11.508C6.99845 11.554 6.94143 11.604 6.88756 11.6578C6.55937 11.986 6.375 12.4312 6.375 12.8953C6.375 13.3594 6.55937 13.8045 6.88756 14.1327C7.21575 14.4609 7.66087 14.6453 8.125 14.6453C8.58913 14.6453 9.03425 14.4609 9.36244 14.1327C9.69063 13.8045 9.875 13.3594 9.875 12.8953C9.875 12.4312 9.69063 11.986 9.36244 11.6578C9.30857 11.604 9.25155 11.554 9.19182 11.508C9.07854 11.4209 9 11.2917 9 11.1488V10.6703C9 10.4494 9.17909 10.2703 9.4 10.2703H11.625C13.375 10.2703 13.375 8.52028 13.375 8.52028C13.375 8.52028 13.375 8.52028 13.375 8.52028V8.04528C13.375 7.82437 13.5602 7.64607 13.7632 7.55881C13.9971 7.45825 14.25 7.24074 14.25 6.77028V5.02028C14.25 4.14528 13.375 4.14528 13.375 4.14528C13.375 4.14528 13.375 4.14528 13.375 4.14528H11.625C11.625 4.14528 11.625 4.14528 11.625 4.14528C11.625 4.14528 10.75 4.14528 10.75 5.02028V6.77028C10.75 7.24074 11.0029 7.45825 11.2368 7.55881C11.4398 7.64607 11.625 7.82437 11.625 8.04528V8.12028C11.625 8.3412 11.4459 8.52028 11.225 8.52028H9.4C9.17909 8.52028 9 8.3412 9 8.12028V4.54528Z" fill="url(#paint0_linear_622_46)"/>
<defs>
<linearGradient id="paint0_linear_622_46" x1="8.125" y1="14.6453" x2="8.125" y2="1" gradientUnits="userSpaceOnUse">
<stop stop-color="#FDA700"/>
<stop offset="1" stop-color="#FFDE00"/>
</linearGradient>
</defs>
</svg>
