<svg width="64" height="64" viewBox="0 0 64 64" fill="none" xmlns="http://www.w3.org/2000/svg">
<path d="M56.3881 8.11641C54.826 6.5543 52.2934 6.5543 50.7313 8.1164L23.778 35.0697C22.2159 36.6318 19.6832 36.6318 18.1211 35.0697L13.2017 30.1503C11.6396 28.5882 9.10695 28.5882 7.54485 30.1503L2.82881 34.8663C1.2667 36.4284 1.2667 38.9611 2.82879 40.5232L10.5767 48.2711L18.1889 55.8833C19.751 57.4454 22.2836 57.4454 23.8457 55.8833L31.3903 48.3388L61.172 18.5571C62.7341 16.9951 62.7341 14.4624 61.172 12.9003L56.3881 8.11641Z" fill="url(#paint0_linear_911_49)"/>
<defs>
<linearGradient id="paint0_linear_911_49" x1="42" y1="23.5" x2="25" y2="52" gradientUnits="userSpaceOnUse">
<stop stop-color="#A5FF13"/>
<stop offset="1" stop-color="#8FFFB6"/>
</linearGradient>
</defs>
</svg>
