<svg width="64" height="64" viewBox="0 0 64 64" fill="none" xmlns="http://www.w3.org/2000/svg">
<path d="M57 22.3925V48.25C56.996 51.8955 55.5461 55.3906 52.9683 57.9683C50.3905 60.5461 46.8955 61.996 43.25 62H20.75C17.1045 61.996 13.6094 60.5461 11.0317 57.9683C8.4539 55.3906 7.00397 51.8955 7 48.25V15.75C7.00397 12.1045 8.4539 8.60948 11.0317 6.03171C13.6094 3.45395 17.1045 2.00402 20.75 2.00005H36.6075C38.4139 1.99517 40.2033 2.34863 41.8721 3.03995C43.541 3.73127 45.0562 4.74673 46.33 6.02755L52.9725 12.67C54.2533 13.9438 55.2687 15.459 55.9601 17.1279C56.6514 18.7967 57.0048 20.5862 57 22.3925ZM49.5 48.25V24.5H39.5C38.1739 24.5 36.9021 23.9732 35.9644 23.0356C35.0268 22.0979 34.5 20.8261 34.5 19.5V9.50004H20.75C19.0924 9.50004 17.5027 10.1585 16.3306 11.3306C15.1585 12.5027 14.5 14.0924 14.5 15.75V48.25C14.5 49.9076 15.1585 51.4973 16.3306 52.6694C17.5027 53.8415 19.0924 54.5 20.75 54.5H43.25C44.9076 54.5 46.4973 53.8415 47.6694 52.6694C48.8415 51.4973 49.5 49.9076 49.5 48.25Z" fill="url(#paint0_linear_906_20)"/>
<path d="M38.0106 38.7929L40.9027 35.9027C41.251 35.5544 41.5273 35.1409 41.7159 34.6857C41.9044 34.2306 42.0014 33.7428 42.0014 33.2502C42.0014 32.7576 41.9044 32.2698 41.7159 31.8147C41.5273 31.3596 41.251 30.9461 40.9027 30.5977C40.5544 30.2494 40.1408 29.9731 39.6857 29.7846C39.2306 29.5961 38.7428 29.499 38.2502 29.499C37.7576 29.499 37.2698 29.5961 36.8147 29.7846C36.3596 29.9731 35.946 30.2494 35.5977 30.5977L32.7076 33.4899C32.317 33.8807 31.6834 33.8807 31.2929 33.4899L28.4027 30.5977C27.6992 29.8942 26.7451 29.499 25.7502 29.499C24.7553 29.499 23.8012 29.8942 23.0977 30.5977C22.3942 31.3012 21.999 32.2553 21.999 33.2502C21.999 34.2451 22.3942 35.1992 23.0977 35.9027L25.9899 38.7929C26.3807 39.1834 26.3807 39.817 25.9899 40.2076L23.0977 43.0977C22.3942 43.8012 21.999 44.7553 21.999 45.7502C21.999 46.7451 22.3942 47.6992 23.0977 48.4027C23.8012 49.1062 24.7553 49.5014 25.7502 49.5014C26.7451 49.5014 27.6992 49.1062 28.4027 48.4027L31.2929 45.5106C31.6834 45.1197 32.317 45.1197 32.7076 45.5106L35.5977 48.4027C36.3012 49.1062 37.2553 49.5014 38.2502 49.5014C39.2451 49.5014 40.1992 49.1062 40.9027 48.4027C41.6062 47.6992 42.0014 46.7451 42.0014 45.7502C42.0014 44.7553 41.6062 43.8012 40.9027 43.0977L38.0106 40.2076C37.6197 39.817 37.6197 39.1834 38.0106 38.7929Z" fill="url(#paint1_linear_906_20)"/>
<defs>
<linearGradient id="paint0_linear_906_20" x1="6.99268" y1="31.111" x2="56.9891" y2="31.111" gradientUnits="userSpaceOnUse">
<stop stop-color="#FD3A84"/>
<stop offset="1" stop-color="#FFA68D"/>
</linearGradient>
<linearGradient id="paint1_linear_906_20" x1="21.9961" y1="39.2038" x2="41.997" y2="39.2038" gradientUnits="userSpaceOnUse">
<stop stop-color="#FD3A84"/>
<stop offset="1" stop-color="#FFA68D"/>
</linearGradient>
</defs>
</svg>
