<svg width="64" height="64" viewBox="0 0 64 64" fill="none" xmlns="http://www.w3.org/2000/svg">
<path d="M61 23.125V44.875C60.9962 48.399 59.5946 51.7776 57.1027 54.2694C54.6109 56.7612 51.2323 58.1628 47.7083 58.1667H16.2917C12.7677 58.1628 9.38912 56.7612 6.89728 54.2694C4.40544 51.7776 3.00384 48.399 3 44.875L3 18.2917C3.00384 14.7677 4.40544 11.3891 6.89728 8.89728C9.38912 6.40544 12.7677 5.00384 16.2917 5H22.3333C22.8962 4.99966 23.4514 5.13039 23.9549 5.38183L32.0108 9.41085C32.5663 9.68869 33.1789 9.83333 33.8 9.83333H47.7083C51.2323 9.83717 54.6109 11.2388 57.1027 13.7306C59.5946 16.2225 60.9962 19.601 61 23.125ZM53.75 23.125V23.125C53.7493 22.4168 53.1183 21.9167 52.4101 21.9167H14.25C12.0409 21.9167 10.25 23.7075 10.25 25.9167V44.875C10.25 46.4773 10.8865 48.0141 12.0196 49.1471C13.1526 50.2801 14.6893 50.9167 16.2917 50.9167H47.7083C49.3107 50.9167 50.8474 50.2801 51.9804 49.1471C53.1135 48.0141 53.75 46.4773 53.75 44.875V23.125Z" fill="url(#paint0_linear_906_20)"/>
<defs>
<linearGradient id="paint0_linear_906_20" x1="32" y1="58.1667" x2="32" y2="5" gradientUnits="userSpaceOnUse">
<stop stop-color="#02AA93"/>
<stop offset="1" stop-color="#67FF80"/>
</linearGradient>
</defs>
</svg>
