<svg width="128" height="128" viewBox="0 0 128 128" fill="none" xmlns="http://www.w3.org/2000/svg">
<path d="M96.8358 47.7113V40.8737C96.8358 22.718 82.1178 8 63.9621 8C45.8065 8 31.0887 22.718 31.0887 40.8735V47.7111C22.4514 52.1189 17.0106 60.9927 17 70.6897V94.1709C17.0156 108.429 28.5705 119.985 42.8291 120H85.0951C99.3537 119.984 110.909 108.429 110.924 94.1709V70.6899C110.914 60.9929 105.473 52.1189 96.8358 47.7113ZM63.9621 22.0887C74.3367 22.0887 82.7469 30.4989 82.7469 40.8735V44.8606H45.1773V40.8735C45.1773 30.4989 53.5876 22.0887 63.9621 22.0887ZM96.8358 94.1709C96.8358 100.655 91.5794 105.911 85.0953 105.911H42.8294C36.3453 105.911 31.0889 100.655 31.0889 94.1709V70.6899C31.0889 64.2058 36.3453 58.9494 42.8294 58.9494H85.0953C91.5794 58.9494 96.8358 64.2058 96.8358 70.6899V94.1709V94.1709Z" fill="url(#paint0_linear_905_67)" stroke="url(#paint1_linear_905_67)" stroke-width="2"/>
<path d="M61.6146 73.0371H66.3108C70.2012 73.0371 73.3551 76.191 73.3551 80.0814C73.3551 83.9719 70.2012 87.1257 66.3108 87.1257H61.6146C57.7242 87.1257 54.5703 83.9719 54.5703 80.0814C54.5703 76.191 57.7242 73.0371 61.6146 73.0371Z" fill="url(#paint2_linear_905_67)"/>
<defs>
<linearGradient id="paint0_linear_905_67" x1="15.6424" y1="9.10207" x2="129.939" y2="107.885" gradientUnits="userSpaceOnUse">
<stop stop-color="#F9D423"/>
<stop offset="0.515624" stop-color="#FF4E50"/>
<stop offset="0.991304" stop-color="#8A2387"/>
</linearGradient>
<linearGradient id="paint1_linear_905_67" x1="15.6424" y1="9.10207" x2="129.939" y2="107.885" gradientUnits="userSpaceOnUse">
<stop stop-color="#F9D423"/>
<stop offset="0.515624" stop-color="#FF4E50"/>
<stop offset="0.991304" stop-color="#8A2387"/>
</linearGradient>
<linearGradient id="paint2_linear_905_67" x1="54.2988" y1="73.1757" x2="68.1254" y2="92.1751" gradientUnits="userSpaceOnUse">
<stop stop-color="#F9D423"/>
<stop offset="0.515624" stop-color="#FF4E50"/>
<stop offset="0.991304" stop-color="#8A2387"/>
</linearGradient>
</defs>
</svg>
