<svg width="64" height="64" viewBox="0 0 64 64" fill="none" xmlns="http://www.w3.org/2000/svg">
<path d="M57 22.3925V48.25C56.996 51.8955 55.5461 55.3906 52.9683 57.9683C50.3905 60.5461 46.8955 61.996 43.25 62H20.75C17.1045 61.996 13.6094 60.5461 11.0317 57.9683C8.4539 55.3906 7.00397 51.8955 7 48.25V15.75C7.00397 12.1045 8.4539 8.60948 11.0317 6.03171C13.6094 3.45395 17.1045 2.00402 20.75 2.00005H36.6075C38.4139 1.99517 40.2033 2.34863 41.8721 3.03995C43.541 3.73127 45.0562 4.74673 46.33 6.02755L52.9725 12.67C54.2533 13.9438 55.2687 15.459 55.9601 17.1279C56.6514 18.7967 57.0048 20.5862 57 22.3925ZM49.5 48.25V24.5H39.5C38.1739 24.5 36.9021 23.9732 35.9644 23.0356C35.0268 22.0979 34.5 20.8261 34.5 19.5V9.50004H20.75C19.0924 9.50004 17.5027 10.1585 16.3306 11.3306C15.1585 12.5027 14.5 14.0924 14.5 15.75V48.25C14.5 49.9076 15.1585 51.4973 16.3306 52.6694C17.5027 53.8415 19.0924 54.5 20.75 54.5H43.25C44.9076 54.5 46.4973 53.8415 47.6694 52.6694C48.8415 51.4973 49.5 49.9076 49.5 48.25Z" fill="url(#paint0_linear_906_20)"/>
<path d="M35.75 34.7499L35.7515 30.6612C35.7515 30.1686 35.6544 29.6808 35.4659 29.2257C35.2774 28.7705 35.0011 28.357 34.6528 28.0087C34.3044 27.6603 33.8909 27.384 33.4358 27.1955C32.9807 27.007 32.4929 26.91 32.0003 26.91C31.5077 26.91 31.0199 27.007 30.5647 27.1955C30.1096 27.384 29.6961 27.6603 29.3478 28.0087C28.9994 28.357 28.7231 28.7705 28.5346 29.2257C28.3461 29.6808 28.2491 30.1686 28.2491 30.6612L28.2505 34.7499C28.2507 35.3024 27.8027 35.7504 27.2501 35.7502L23.1614 35.7488C22.1666 35.7488 21.2124 36.144 20.5089 36.8475C19.8055 37.551 19.4102 38.5051 19.4102 39.5C19.4102 40.4949 19.8055 41.449 20.5089 42.1525C21.2124 42.856 22.1666 43.2512 23.1614 43.2512L27.2501 43.2498C27.8027 43.2496 28.2507 43.6976 28.2505 44.2501L28.2491 48.3388C28.2491 49.3337 28.6443 50.2878 29.3478 50.9913C30.0513 51.6948 31.0054 52.09 32.0003 52.09C32.9951 52.09 33.9493 51.6948 34.6528 50.9913C35.3563 50.2878 35.7515 49.3337 35.7515 48.3388L35.75 44.2501C35.7499 43.6976 36.1978 43.2496 36.7504 43.2498L40.8391 43.2512C41.834 43.2512 42.7881 42.856 43.4916 42.1525C44.1951 41.449 44.5903 40.4949 44.5903 39.5C44.5903 38.5051 44.1951 37.551 43.4916 36.8475C42.7881 36.144 41.834 35.7488 40.8391 35.7488L36.7504 35.7502C36.1978 35.7504 35.7499 35.3024 35.75 34.7499Z" fill="url(#paint1_linear_906_20)"/>
<defs>
<linearGradient id="paint0_linear_906_20" x1="32" y1="62" x2="32" y2="2" gradientUnits="userSpaceOnUse">
<stop stop-color="#02AA93"/>
<stop offset="1" stop-color="#67FF80"/>
</linearGradient>
<linearGradient id="paint1_linear_906_20" x1="39.0722" y1="46.5719" x2="24.9283" y2="32.4281" gradientUnits="userSpaceOnUse">
<stop stop-color="#02AA93"/>
<stop offset="1" stop-color="#67FF80"/>
</linearGradient>
</defs>
</svg>
