<svg width="64" height="64" viewBox="0 0 64 64" fill="none" xmlns="http://www.w3.org/2000/svg">
<path d="M13.8779 20.8522C12.7667 20.8554 11.6659 20.638 10.6393 20.2129C9.6127 19.7877 8.68061 19.1631 7.897 18.3753L4.21181 15.1009C3.494 14.46 3.06019 13.5602 3.0058 12.5995C2.97888 12.1237 3.04591 11.6474 3.20308 11.1976C3.36025 10.7478 3.60448 10.3333 3.92182 9.97789C4.23917 9.62247 4.62341 9.33303 5.05261 9.12611C5.48181 8.91918 5.94756 8.79882 6.42328 8.77189C7.38403 8.71751 8.32704 9.04701 9.04484 9.68791L12.8726 13.1049C12.9972 13.2522 13.1508 13.3723 13.3237 13.4579C13.4966 13.5436 13.6852 13.5928 13.8779 13.6027C14.1977 13.6026 14.5045 13.4757 14.7309 13.2499L23.4618 4.93703C24.1628 4.30269 25.0839 3.96734 26.0287 4.00251C26.9735 4.03768 27.8671 4.44059 28.5191 5.1253C29.171 5.81001 29.5296 6.72233 29.5184 7.66769C29.5072 8.61305 29.1271 9.51663 28.4592 10.1857L19.7935 18.4357C19.0149 19.2078 18.0916 19.8188 17.0765 20.2334C16.0614 20.6481 14.9744 20.8584 13.8779 20.8522V20.8522ZM61 12.3944C61 11.4331 60.6181 10.5111 59.9383 9.83131C59.2585 9.15153 58.3366 8.76963 57.3752 8.76963H38.0431C37.0817 8.76963 36.1597 9.15153 35.48 9.83131C34.8002 10.5111 34.4183 11.4331 34.4183 12.3944C34.4183 13.3558 34.8002 14.2777 35.48 14.9575C36.1597 15.6373 37.0817 16.0192 38.0431 16.0192H57.3752C58.3366 16.0192 59.2585 15.6373 59.9383 14.9575C60.6181 14.2777 61 13.3558 61 12.3944ZM19.7935 37.7679L28.4592 29.5179C29.1271 28.8488 29.5072 27.9452 29.5184 26.9998C29.5296 26.0545 29.171 25.1422 28.5191 24.4574C27.8671 23.7727 26.9735 23.3698 26.0287 23.3347C25.0839 23.2995 24.1628 23.6348 23.4618 24.2692L14.7309 32.582C14.5043 32.8085 14.1971 32.9358 13.8767 32.9358C13.5563 32.9358 13.249 32.8085 13.0224 32.582L9.19225 28.7494C8.51226 28.0694 7.58998 27.6874 6.62833 27.6874C5.66667 27.6874 4.7444 28.0694 4.0644 28.7494C3.3844 29.4294 3.00239 30.3517 3.00239 31.3133C3.00239 32.275 3.3844 33.1973 4.0644 33.8773L7.897 37.7074C9.47248 39.282 11.6055 40.1715 13.8328 40.1828C16.0602 40.1941 18.2021 39.3263 19.7935 37.7679V37.7679ZM61 31.7266C61 30.7652 60.6181 29.8432 59.9383 29.1635C59.2585 28.4837 58.3366 28.1018 57.3752 28.1018H38.0431C37.0817 28.1018 36.1597 28.4837 35.48 29.1635C34.8002 29.8432 34.4183 30.7652 34.4183 31.7266C34.4183 32.6879 34.8002 33.6099 35.48 34.2897C36.1597 34.9694 37.0817 35.3513 38.0431 35.3513H57.3752C58.3366 35.3513 59.2585 34.9694 59.9383 34.2897C60.6181 33.6099 61 32.6879 61 31.7266ZM19.7935 57.1L28.4592 48.85C29.1271 48.1809 29.5072 47.2773 29.5184 46.332C29.5296 45.3866 29.171 44.4743 28.5191 43.7896C27.8671 43.1049 26.9735 42.702 26.0287 42.6668C25.0839 42.6316 24.1628 42.967 23.4618 43.6013L14.7309 51.9142C14.5045 52.14 14.1977 52.2669 13.8779 52.267C13.6852 52.2571 13.4966 52.2079 13.3237 52.1222C13.1508 52.0366 12.9972 51.9165 12.8726 51.7692L9.04484 48.3522C8.32704 47.7113 7.38403 47.3818 6.42328 47.4362C5.46252 47.4906 4.56273 47.9244 3.92182 48.6422C3.28092 49.36 2.95142 50.303 3.0058 51.2638C3.06019 52.2245 3.494 53.1243 4.21181 53.7652L7.89217 57.0396C9.46785 58.6156 11.6019 59.506 13.8304 59.5173C16.059 59.5286 18.2019 58.6599 19.7935 57.1ZM61 51.0587C61 50.0974 60.6181 49.1754 59.9383 48.4956C59.2585 47.8158 58.3366 47.4339 57.3752 47.4339H38.0431C37.0817 47.4339 36.1597 47.8158 35.48 48.4956C34.8002 49.1754 34.4183 50.0974 34.4183 51.0587C34.4183 52.0201 34.8002 52.942 35.48 53.6218C36.1597 54.3016 37.0817 54.6835 38.0431 54.6835H57.3752C58.3366 54.6835 59.2585 54.3016 59.9383 53.6218C60.6181 52.942 61 52.0201 61 51.0587Z" fill="url(#paint0_linear_906_20)"/>
<defs>
<linearGradient id="paint0_linear_906_20" x1="3.0085" y1="30.9361" x2="61.0096" y2="30.9361" gradientUnits="userSpaceOnUse">
<stop stop-color="#A93AFF"/>
<stop offset="1" stop-color="#FF81FF"/>
</linearGradient>
</defs>
</svg>
