<svg width="64" height="64" viewBox="0 0 64 64" fill="none" xmlns="http://www.w3.org/2000/svg">
<path d="M37.749 16.9996C38.7436 16.9996 39.6974 17.3947 40.4006 18.0979C41.1039 18.8011 41.4989 19.7549 41.4989 20.7495C41.4989 21.744 41.1039 22.6978 40.4006 23.401C39.6974 24.1043 38.7436 24.4994 37.749 24.4994H20.2495C19.255 24.4994 18.3012 24.1043 17.598 23.401C16.8947 22.6978 16.4996 21.744 16.4996 20.7495C16.4996 19.7549 16.8947 18.8011 17.598 18.0979C18.3012 17.3947 19.255 16.9996 20.2495 16.9996H37.749ZM57.901 60.9008C57.5527 61.2493 57.1392 61.5257 56.6841 61.7143C56.229 61.9029 55.7412 62 55.2485 62C54.7559 62 54.2681 61.9029 53.813 61.7143C53.3579 61.5257 52.9444 61.2493 52.5961 60.9008L47.5688 55.871C46.0674 56.6045 44.4199 56.9899 42.7489 56.9984C40.5239 56.9984 38.3489 56.3387 36.4989 55.1025C34.6489 53.8664 33.207 52.1094 32.3556 50.0538C31.5041 47.9982 31.2813 45.7363 31.7154 43.5541C32.1495 41.3718 33.2209 39.3673 34.7942 37.794C36.3675 36.2207 38.372 35.1493 40.5542 34.7152C42.7364 34.2812 44.9984 34.5039 47.054 35.3554C49.1096 36.2069 50.8665 37.6488 52.1027 39.4988C53.3388 41.3488 53.9986 43.5238 53.9986 45.7488C53.99 47.4197 53.6046 49.0672 52.8711 50.5686L57.901 55.596C58.2494 55.9442 58.5259 56.3577 58.7145 56.8128C58.9031 57.2679 59.0001 57.7558 59.0001 58.2484C59.0001 58.7411 58.9031 59.2289 58.7145 59.684C58.5259 60.1391 58.2494 60.5526 57.901 60.9008V60.9008ZM42.7489 49.4987C43.4906 49.4987 44.2156 49.2787 44.8322 48.8667C45.4489 48.4546 45.9295 47.869 46.2134 47.1838C46.4972 46.4986 46.5714 45.7446 46.4267 45.0172C46.2821 44.2898 45.9249 43.6216 45.4005 43.0972C44.876 42.5728 44.2079 42.2156 43.4805 42.0709C42.7531 41.9262 41.9991 42.0005 41.3139 42.2843C40.6287 42.5681 40.043 43.0488 39.631 43.6654C39.2189 44.2821 38.999 45.0071 38.999 45.7488C38.999 46.7433 39.3941 47.6971 40.0973 48.4003C40.8006 49.1036 41.7544 49.4987 42.7489 49.4987ZM27.7493 54.4985H17.7496C16.0921 54.4985 14.5024 53.8401 13.3303 52.668C12.1582 51.4959 11.4998 49.9062 11.4998 48.2487V15.7496C11.4998 14.0921 12.1582 12.5024 13.3303 11.3303C14.5024 10.1582 16.0921 9.49979 17.7496 9.49979H45.2488C45.5803 9.49979 45.8983 9.63148 46.1327 9.86589C46.3671 10.1003 46.4988 10.4182 46.4988 10.7498V28.2493C46.4988 29.2438 46.8939 30.1976 47.5971 30.9008C48.3004 31.6041 49.2542 31.9992 50.2487 31.9992C51.2432 31.9992 52.197 31.6041 52.9003 30.9008C53.6035 30.1976 53.9986 29.2438 53.9986 28.2493V10.7498C53.9986 8.42917 53.0767 6.20364 51.4358 4.56274C49.7949 2.92185 47.5694 2 45.2488 2H17.7496C14.1042 2.00397 10.6092 3.45386 8.03155 6.03155C5.45386 8.60924 4.00397 12.1042 4 15.7496V48.2487C4.00397 51.8941 5.45386 55.3891 8.03155 57.9667C10.6092 60.5444 14.1042 61.9943 17.7496 61.9983H27.7493C28.7439 61.9983 29.6977 61.6032 30.4009 60.9C31.1041 60.1967 31.4992 59.2429 31.4992 58.2484C31.4992 57.2539 31.1041 56.3001 30.4009 55.5968C29.6977 54.8936 28.7439 54.4985 27.7493 54.4985Z" fill="url(#paint0_linear_906_20)"/>
<defs>
<linearGradient id="paint0_linear_906_20" x1="3.20501" y1="2.59039" x2="64.988" y2="60.9577" gradientUnits="userSpaceOnUse">
<stop stop-color="#F9D423"/>
<stop offset="0.515624" stop-color="#FF4E50"/>
<stop offset="0.991304" stop-color="#8A2387"/>
</linearGradient>
</defs>
</svg>
