<svg width="128" height="128" viewBox="0 0 128 128" fill="none" xmlns="http://www.w3.org/2000/svg">
<path d="M96.6667 73.3342C93.2582 73.3469 89.8944 74.1107 86.8148 75.5715C83.9659 76.9228 81.4249 78.8398 79.3452 81.2028C79.0469 81.5418 78.5636 81.6564 78.152 81.4706L54.4536 70.7714C53.9941 70.5639 53.7633 70.0474 53.8933 69.5602C54.3775 67.7469 54.6375 65.8799 54.6667 64.0011C54.6405 62.1435 54.3895 60.2971 53.9197 58.502C53.7928 58.017 54.0229 57.5044 54.4793 57.2971L78.167 46.5381C78.5736 46.3534 79.0518 46.4624 79.3519 46.7931C82.838 50.6354 87.5177 53.2043 92.6467 54.0763C98.0241 54.9905 103.552 53.981 108.259 51.2251C112.966 48.4693 116.552 44.1432 118.386 39.0066C120.221 33.87 120.187 28.2512 118.291 23.1369C116.395 18.0226 112.758 13.7398 108.018 11.0405C103.278 8.34117 97.7392 7.39795 92.3731 8.37646C87.0071 9.35496 82.1573 12.1926 78.6754 16.3912C75.1935 20.5897 73.3021 25.8807 73.3333 31.335C73.3333 31.7565 73.39 32.1628 73.4456 32.5697C73.503 32.9895 73.2714 33.3887 72.8855 33.5639L46.3645 45.6012C46.0187 45.7582 45.6149 45.7042 45.3142 45.4723C41.3111 42.3853 36.3998 40.6939 31.3333 40.6682C25.1449 40.6682 19.21 43.1265 14.8342 47.5022C10.4583 51.878 8 57.8128 8 64.0011C8 70.1893 10.4583 76.1242 14.8342 80.4999C19.21 84.8757 25.1449 87.334 31.3333 87.334C36.3784 87.3133 41.2718 85.6408 45.2693 82.5815C45.5691 82.352 45.9704 82.2987 46.3146 82.4541L72.8835 94.4483C73.2704 94.6229 73.5029 95.0227 73.4452 95.4433C73.3897 95.8473 73.3333 96.2497 73.3333 96.6671C73.3333 101.282 74.7018 105.793 77.2657 109.63C79.8296 113.467 83.4738 116.458 87.7374 118.224C92.001 119.99 96.6925 120.452 101.219 119.552C105.745 118.651 109.903 116.429 113.166 113.166C116.429 109.903 118.651 105.745 119.552 101.219C120.452 96.693 119.99 92.0015 118.224 87.738C116.458 83.4745 113.467 79.8304 109.63 77.2665C105.793 74.7027 101.282 73.3342 96.6667 73.3342ZM96.6667 22.0019C98.5126 22.0019 100.317 22.5493 101.852 23.5748C103.387 24.6003 104.583 26.058 105.29 27.7634C105.996 29.4688 106.181 31.3454 105.821 33.1558C105.461 34.9663 104.572 36.6293 103.266 37.9346C101.961 39.2398 100.298 40.1287 98.4875 40.4889C96.677 40.849 94.8004 40.6642 93.0949 39.9578C91.3895 39.2513 89.9318 38.0551 88.9063 36.5203C87.8807 34.9854 87.3333 33.181 87.3333 31.335C87.3333 28.8597 88.3167 26.4858 90.067 24.7355C91.8173 22.9852 94.1913 22.0019 96.6667 22.0019ZM31.3333 73.3342C29.4874 73.3342 27.6829 72.7868 26.148 71.7613C24.6131 70.7358 23.4169 69.2781 22.7105 67.5727C22.004 65.8673 21.8192 63.9907 22.1793 62.1803C22.5395 60.3698 23.4284 58.7068 24.7337 57.4015C26.039 56.0963 27.702 55.2074 29.5125 54.8473C31.323 54.4871 33.1996 54.672 34.905 55.3784C36.6105 56.0848 38.0682 57.281 39.0937 58.8159C40.1193 60.3507 40.6667 62.1552 40.6667 64.0011C40.6667 66.4764 39.6833 68.8503 37.933 70.6006C36.1827 72.3509 33.8087 73.3342 31.3333 73.3342ZM96.6667 106C94.8207 106 93.0162 105.453 91.4813 104.427C89.9465 103.402 88.7502 101.944 88.0438 100.239C87.3374 98.5333 87.1525 96.6568 87.5127 94.8463C87.8728 93.0359 88.7617 91.3728 90.067 90.0676C91.3723 88.7623 93.0353 87.8734 94.8458 87.5133C96.6563 87.1532 98.5329 87.338 100.238 88.0444C101.944 88.7508 103.401 89.9471 104.427 91.4819C105.453 93.0167 106 94.8212 106 96.6671C106 99.1424 105.017 101.516 103.266 103.267C101.516 105.017 99.142 106 96.6667 106Z" fill="url(#paint0_linear_905_67)" stroke="url(#paint1_linear_905_67)" stroke-width="0.5"/>
<defs>
<linearGradient id="paint0_linear_905_67" x1="8" y1="120" x2="143.143" y2="61.0972" gradientUnits="userSpaceOnUse">
<stop stop-color="#0357D1"/>
<stop offset="1" stop-color="#27CDFC"/>
</linearGradient>
<linearGradient id="paint1_linear_905_67" x1="8" y1="120" x2="143.143" y2="61.0972" gradientUnits="userSpaceOnUse">
<stop stop-color="#0357D1"/>
<stop offset="1" stop-color="#27CDFC"/>
</linearGradient>
</defs>
</svg>
