<svg width="64" height="64" viewBox="0 0 64 64" fill="none" xmlns="http://www.w3.org/2000/svg">
<path d="M15.0813 4.38667C15.7653 3.86427 16.6787 4.08423 17.3116 4.55949C21.7681 7.50532 26.2033 10.4787 30.6469 13.4402C31.3351 13.9744 32.3505 14.1747 33.0854 13.5973C37.236 10.8871 41.3143 8.09056 45.4521 5.36861C46.1276 4.9287 46.7733 4.43773 47.5168 4.09601C48.12 3.80143 48.7148 4.25312 49.2033 4.53199C53.7192 7.5446 58.2351 10.5572 62.7723 13.5423V13.5423C63.543 14.0153 63.3954 15.0821 62.6561 15.6029C58.7303 18.3684 54.5806 20.8698 50.6469 23.62C49.5393 24.3945 49.5524 26.0189 50.6642 26.7873C54.7108 29.584 58.8971 32.2088 62.9804 34.9566V34.9566C63.6149 35.4099 63.5311 36.3282 62.9012 36.7878C62.7334 36.9101 62.5604 37.0266 62.3814 37.1365C57.8868 40.0548 53.4516 43.0517 48.9909 46.0211C48.3749 46.52 47.4445 46.4493 46.8455 45.9622C42.1342 42.8593 37.4569 39.7092 32.7498 36.6023C32.4493 36.3994 32.1274 36.323 31.7798 36.3712C31.5945 36.3968 31.4258 36.4855 31.2696 36.5883C26.4514 39.7598 21.6808 43.0007 16.8401 46.139C15.9097 46.7674 14.9496 45.9544 14.2062 45.4673C10.2426 42.7238 6.13087 40.1649 2.1796 37.4155C1.08298 36.6524 1.06552 35.0518 2.15565 34.2795C6.02159 31.5406 10.1448 29.0969 14.0165 26.3608C14.8565 25.7672 15.0396 24.6275 14.1792 24.0639C13.7354 23.7731 13.263 23.5099 12.8425 23.2047C9.11757 20.7202 5.32799 18.3136 1.65146 15.7707C0.756081 15.1514 0.61141 13.9723 1.52657 13.3827C1.69038 13.2771 1.85433 13.172 2.01367 13.0631C6.39363 10.2037 10.7141 7.2618 15.0813 4.38667ZM16.0337 9.71499C15.8301 9.71825 15.632 9.77856 15.461 9.88915C13.9567 10.8621 12.4864 11.8844 10.9906 12.8723C9.79807 13.6599 9.72805 15.4075 10.9157 16.2026C12.2481 17.0945 13.6035 17.958 14.9421 18.8438C15.622 19.2938 16.5062 19.298 17.186 18.8478C18.5179 17.9654 19.8557 17.0903 21.1863 16.206C22.3741 15.4167 22.357 13.6731 21.1701 12.8825C19.6711 11.8839 18.1777 10.8793 16.6647 9.89549C16.4774 9.77368 16.2571 9.71141 16.0337 9.71499V9.71499ZM47.8284 9.67043C47.6941 9.6874 47.574 9.75732 47.4602 9.83061C45.9267 10.8178 44.4247 11.8502 42.904 12.8561C41.7043 13.6496 41.6571 15.4155 42.8529 16.2149C44.1789 17.1013 45.5185 17.9719 46.8529 18.8493C47.524 19.2905 48.3938 19.2914 49.0644 18.8495C50.3967 17.9714 51.7302 17.0955 53.0571 16.2097C54.2461 15.416 54.2228 13.6677 53.0304 12.879C51.6935 11.9948 50.3635 11.1 49.0334 10.2037C48.6715 9.97607 48.29 9.61211 47.8284 9.67043ZM18.5606 23.6839C18.3622 23.8215 18.1539 23.9517 17.9474 24.0846C17.0799 24.6432 17.2556 25.7575 18.1026 26.3467C22.3671 29.313 26.7956 32.0808 31.1015 34.9998C32.1806 35.8011 33.2766 34.7248 34.1517 34.1867C38.1456 31.3994 42.3631 28.8715 46.314 26.0355C46.8988 25.6157 47.0254 24.687 46.4037 24.3241V24.3241C42.2957 21.6139 38.1961 18.8959 34.0923 16.1779C33.7061 15.8968 33.3049 15.6359 32.8894 15.3982C32.2978 15.0597 31.5698 15.1195 30.9975 15.4898C26.8262 18.1884 22.7321 20.9907 18.5606 23.6839ZM10.9651 34.1762C9.77383 34.9639 9.75695 36.7106 10.9443 37.5042C12.2726 38.392 13.6065 39.2736 14.9378 40.1581C15.6093 40.6041 16.4828 40.6052 17.155 40.1602C18.4906 39.276 19.8268 38.3939 21.1575 37.5052C22.349 36.7095 22.3291 34.954 21.1343 34.1634C19.8025 33.2821 18.4755 32.3943 17.1383 31.5222C16.4799 31.0927 15.6303 31.0955 14.973 31.5267C13.6336 32.4055 12.301 33.2929 10.9651 34.1762ZM42.885 34.167C41.6868 34.9559 41.6632 36.7133 42.856 37.5103C44.1785 38.3939 45.5059 39.2704 46.8318 40.1486C47.5064 40.5955 48.3834 40.5927 49.0577 40.1455C50.3936 39.2595 51.7387 38.3827 53.067 37.4861C54.2459 36.6902 54.1975 34.9526 53.0118 34.1669C51.6825 33.2861 50.3649 32.3899 49.0284 31.5172C48.3694 31.087 47.5186 31.0946 46.8626 31.5291C45.5364 32.4076 44.2142 33.2918 42.885 34.167Z" fill="url(#paint0_linear_911_34)"/>
<path d="M30.5999 39.5479C31.1861 39.2376 31.8701 38.4363 32.5626 39.0294C37.3503 42.0774 42.0234 45.2746 46.7772 48.3697C47.0605 48.5919 47.442 48.7785 47.6661 49.0578C47.8836 49.3289 47.7791 49.7208 47.528 49.9611C47.2101 50.2653 46.7903 50.4857 46.4331 50.746C41.9724 53.6604 37.5458 56.6102 33.1191 59.5717C32.5668 60.0077 31.7384 60.208 31.1521 59.6974C26.6192 56.7123 22.1203 53.6722 17.5705 50.7067C17.3608 50.5486 17.1229 50.4013 16.9005 50.2404C16.2606 49.7774 16.5397 48.9413 17.187 48.4887C21.5817 45.416 26.158 42.5644 30.5999 39.5479ZM26.8925 47.8106C25.7433 48.5769 25.6495 50.2452 26.788 51.0273C28.1351 51.9526 29.5317 52.8205 30.8994 53.7205C31.5844 54.1712 32.4741 54.177 33.157 53.7232C34.4607 52.8569 35.7705 51.9977 37.0726 51.1277C38.2772 50.3228 38.2319 48.5363 37.0248 47.7348C35.5648 46.7654 34.1246 45.7701 32.6429 44.8323C32.4979 44.7404 32.3412 44.6832 32.1707 44.6628V44.6628C31.9223 44.633 31.6648 44.6878 31.4514 44.8183C29.8991 45.7675 28.4052 46.8021 26.8925 47.8106Z" fill="url(#paint1_linear_911_34)"/>
<defs>
<linearGradient id="paint0_linear_911_34" x1="32" y1="46.3679" x2="32" y2="4" gradientUnits="userSpaceOnUse">
<stop stop-color="#5558FF"/>
<stop offset="1" stop-color="#00C0FF"/>
</linearGradient>
<linearGradient id="paint1_linear_911_34" x1="31.989" y1="59.9998" x2="31.989" y2="38.8165" gradientUnits="userSpaceOnUse">
<stop stop-color="#5558FF"/>
<stop offset="1" stop-color="#00C0FF"/>
</linearGradient>
</defs>
</svg>
