<svg width="16" height="16" viewBox="0 0 16 16" fill="none" xmlns="http://www.w3.org/2000/svg">
<path d="M6.20351 3C6.0844 3 5.97016 3.04732 5.88593 3.13155L1.26306 7.75442C0.912312 8.10517 0.912312 8.67385 1.26306 9.0246L5.88593 13.6475C5.97016 13.7317 6.0844 13.779 6.20351 13.779H14.1017H14.5509C14.7989 13.779 15 13.5779 15 13.3299V3.44913C15 3.20108 14.7989 3 14.5509 3H14.1017H6.20351ZM7.49816 6.01233C7.67355 5.83694 7.95792 5.83694 8.13332 6.01233L9.30343 7.18245C9.47883 7.35784 9.76319 7.35784 9.93862 7.18245L11.1087 6.01233C11.2841 5.83694 11.5685 5.83694 11.7438 6.01233L11.9982 6.26665C12.1736 6.44205 12.1736 6.72642 11.9982 6.90182L10.8281 8.07193C10.6526 8.24732 10.6526 8.53169 10.8281 8.70708L11.9982 9.8772C12.1736 10.0526 12.1736 10.337 11.9982 10.5123L11.7438 10.7666C11.5685 10.9421 11.2841 10.9421 11.1087 10.7666L9.93862 9.59657C9.76319 9.42118 9.47883 9.42118 9.30343 9.59657L8.13332 10.7666C7.95792 10.9421 7.67355 10.9421 7.49816 10.7666L7.24383 10.5123C7.06844 10.337 7.06844 10.0526 7.24383 9.8772L8.41395 8.70708C8.58934 8.53169 8.58934 8.24732 8.41395 8.07193L7.24383 6.90182C7.06844 6.72642 7.06844 6.44205 7.24383 6.26665L7.49816 6.01233Z" fill="url(#paint0_linear_911_51)"/>
<defs>
<linearGradient id="paint0_linear_911_51" x1="14.5271" y1="3.30809" x2="11.0989" y2="14.4883" gradientUnits="userSpaceOnUse">
<stop stop-color="#FE0F7C"/>
<stop offset="1" stop-color="#DF0066"/>
</linearGradient>
</defs>
</svg>
