<svg width="64" height="64" viewBox="0 0 64 64" fill="none" xmlns="http://www.w3.org/2000/svg">
<path fill-rule="evenodd" clip-rule="evenodd" d="M57.3334 14.5C57.3334 12.567 55.7664 11 53.8334 11H45.0227C43.5483 6.81717 39.6017 4.01422 35.1667 4H28.1667C23.7317 4.01422 19.7851 6.81717 18.3107 11H9.5C7.56702 11 6 12.567 6 14.5C6 16.433 7.56702 18 9.5 18H10.6667V47.1667C10.6667 54.2543 16.4124 60 23.5 60H39.8333C46.921 60 52.6667 54.2543 52.6667 47.1667V18H53.8334C55.7664 18 57.3334 16.433 57.3334 14.5ZM45.6667 47.1667C45.6667 50.3883 43.055 53 39.8334 53H23.5C20.2784 53 17.6667 50.3883 17.6667 47.1667V18H45.6667V47.1667ZM25.833 46C27.766 46 29.333 44.433 29.333 42.5V28.5C29.333 26.567 27.766 25 25.833 25C23.9 25 22.333 26.567 22.333 28.5V42.5C22.333 44.433 23.9 46 25.833 46ZM41 42.5C41 44.433 39.433 46 37.5 46C35.567 46 34 44.433 34 42.5V28.5C34 26.567 35.567 25 37.5 25C39.433 25 41 26.567 41 28.5V42.5Z" fill="url(#paint0_linear_906_20)"/>
<defs>
<linearGradient id="paint0_linear_906_20" x1="55.5992" y1="5.60064" x2="32.3752" y2="59.056" gradientUnits="userSpaceOnUse">
<stop stop-color="#FE0F7C"/>
<stop offset="1" stop-color="#DF0066"/>
</linearGradient>
</defs>
</svg>
