<svg width="64" height="64" viewBox="0 0 64 64" fill="none" xmlns="http://www.w3.org/2000/svg">
<path d="M45.3333 35.5001V21.6657C45.3411 19.6724 44.9533 17.6972 44.1923 15.8548C43.4313 14.0124 42.3122 12.3393 40.8999 10.9324L38.3916 8.43344C36.9848 7.02116 35.3117 5.9021 33.4692 5.1411C31.6268 4.3801 29.6517 3.99228 27.6583 4.00012H20.8333C17.4308 4.00382 14.1688 5.35709 11.7629 7.763C9.35697 10.1689 8.00371 13.431 8 16.8334V35.5001C8.00371 38.9025 9.35697 42.1646 11.7629 44.5705C14.1688 46.9764 17.4308 48.3297 20.8333 48.3334H32.4999C35.9024 48.3297 39.1645 46.9764 41.5704 44.5705C43.9763 42.1646 45.3295 38.9025 45.3333 35.5001V35.5001ZM15 35.5001V16.8334C15 15.2863 15.6146 13.8026 16.7085 12.7086C17.8025 11.6147 19.2862 11.0001 20.8333 11.0001H27.6676C28.1146 11.0071 28.5602 11.0508 29 11.1308V15.6668C29 16.9044 29.4916 18.0914 30.3668 18.9666C31.242 19.8418 32.4289 20.3334 33.6666 20.3334H38.2026C38.2825 20.7732 38.3262 21.2188 38.3333 21.6657V35.5001C38.3333 37.0471 37.7187 38.5309 36.6247 39.6248C35.5308 40.7188 34.047 41.3334 32.4999 41.3334H20.8333C19.2862 41.3334 17.8025 40.7188 16.7085 39.6248C15.6146 38.5309 15 37.0471 15 35.5001V35.5001ZM56.9999 23.8334V47.1667C56.9962 50.5692 55.6429 53.8312 53.237 56.2371C50.8311 58.643 47.5691 59.9963 44.1666 60H25.5C24.5717 60 23.6815 59.6312 23.0251 58.9749C22.3687 58.3185 22 57.4283 22 56.5C22 55.5718 22.3687 54.6815 23.0251 54.0251C23.6815 53.3688 24.5717 53 25.5 53H44.1666C45.7137 53 47.1974 52.3854 48.2914 51.2915C49.3853 50.1975 49.9999 48.7138 49.9999 47.1667V23.8334C49.9999 22.9052 50.3687 22.0149 51.025 21.3585C51.6814 20.7022 52.5716 20.3334 53.4999 20.3334C54.4282 20.3334 55.3184 20.7022 55.9748 21.3585C56.6311 22.0149 56.9999 22.9052 56.9999 23.8334Z" fill="url(#paint0_linear_906_20)"/>
<defs>
<linearGradient id="paint0_linear_906_20" x1="8" y1="60" x2="69.4231" y2="36.5749" gradientUnits="userSpaceOnUse">
<stop stop-color="#0357D1"/>
<stop offset="1" stop-color="#27CDFC"/>
</linearGradient>
</defs>
</svg>
