<svg width="64" height="64" viewBox="0 0 64 64" fill="none" xmlns="http://www.w3.org/2000/svg">
<path d="M22.1063 19.5189L28.5952 13.0277L28.6442 44.8353C28.6442 46.7683 30.2112 48.3353 32.1442 48.3353C34.0771 48.3353 35.6441 46.7683 35.6441 44.8353L35.5951 13.0674L42.0468 19.519C43.3897 20.9094 45.6054 20.9479 46.9957 19.605C48.3861 18.2621 48.4246 16.0464 47.0817 14.656C47.0535 14.6268 47.0248 14.5982 46.9957 14.57L39.5011 7.07542C35.4007 2.97488 28.7525 2.97488 24.6519 7.07531L24.6518 7.07542L17.1573 14.5699C15.8144 15.9603 15.8529 18.176 17.2433 19.5189C18.5996 20.8289 20.7499 20.8289 22.1063 19.5189Z" fill="url(#paint0_linear_906_20)"/>
<path d="M56.4995 37.8335C54.5665 37.8335 52.9995 39.4005 52.9995 41.3335V52.0456C52.9982 52.5722 52.5717 52.9987 52.0452 52.9999H11.9542C11.4277 52.9986 11.0011 52.5722 10.9999 52.0456V41.3335C10.9999 39.4005 9.43293 37.8335 7.49996 37.8335C5.567 37.8335 4 39.4005 4 41.3335V52.0456C4.00514 56.4365 7.5634 59.9947 11.9542 59.9998H52.0451C56.436 59.9947 59.9942 56.4364 59.9993 52.0456V41.3335C59.9994 39.4005 58.4324 37.8335 56.4995 37.8335Z" fill="url(#paint1_linear_906_20)"/>
<defs>
<linearGradient id="paint0_linear_906_20" x1="32.1195" y1="48.3353" x2="32.1195" y2="4" gradientUnits="userSpaceOnUse">
<stop stop-color="#5570FF"/>
<stop offset="1" stop-color="#4DD3FF"/>
</linearGradient>
<linearGradient id="paint1_linear_906_20" x1="31.9997" y1="59.9998" x2="31.9997" y2="37.8335" gradientUnits="userSpaceOnUse">
<stop stop-color="#5570FF"/>
<stop offset="1" stop-color="#4DD3FF"/>
</linearGradient>
</defs>
</svg>
