<svg width="64" height="64" viewBox="0 0 64 64" fill="none" xmlns="http://www.w3.org/2000/svg">
<path d="M52.2156 8.0343C49.7992 5.46508 46.4304 4.00569 42.9033 4H35.8333C29.2027 4.01039 23.6687 9.06417 23.0583 15.6667H21.8333C14.7489 15.6744 9.00766 21.4156 9 28.5V47.1667C9.00766 54.2511 14.7489 59.9922 21.8333 60H31.1666C38.251 59.9922 43.9922 54.2511 43.9999 47.1667V45.9417C50.6029 45.3323 55.6573 39.7978 55.6666 33.1667V16.7633C55.6713 13.5201 54.4368 10.3976 52.2156 8.0343ZM37 47.1667C37 50.3883 34.3883 53 31.1667 53H21.8333C18.6117 53 16 50.3883 16 47.1667V28.5C16 25.2784 18.6117 22.6667 21.8333 22.6667H23V33.1667C23.0077 40.2511 28.7489 45.9922 35.8333 46H37V47.1667ZM48.6666 33.1667C48.6666 36.3883 46.0549 39 42.8333 39H35.8333C32.6117 39 30 36.3883 30 33.1667V16.8333C30 13.6117 32.6117 11 35.8333 11H41.6666V13.3333C41.6666 15.9106 43.756 18 46.3333 18H48.6666V33.1667V33.1667Z" fill="url(#paint0_linear_906_20)"/>
<defs>
<linearGradient id="paint0_linear_906_20" x1="9" y1="60" x2="68.197" y2="38.4989" gradientUnits="userSpaceOnUse">
<stop stop-color="#0357D1"/>
<stop offset="1" stop-color="#27CDFC"/>
</linearGradient>
</defs>
</svg>
