<svg width="64" height="64" viewBox="0 0 64 64" fill="none" xmlns="http://www.w3.org/2000/svg">
<path d="M49.0833 9.30025V6.625C49.0833 5.66359 48.7014 4.74156 48.0216 4.06174C47.3418 3.38192 46.4197 3 45.4583 3C44.4969 3 43.5749 3.38192 42.8951 4.06174C42.2153 4.74156 41.8333 5.66359 41.8333 6.625V7.83333H35.7917V6.625C35.7917 5.66359 35.4097 4.74156 34.7299 4.06174C34.0501 3.38192 33.1281 3 32.1667 3C31.2053 3 30.2832 3.38192 29.6034 4.06174C28.9236 4.74156 28.5417 5.66359 28.5417 6.625V7.83333H22.5V6.625C22.5 5.66359 22.1181 4.74156 21.4383 4.06174C20.7584 3.38192 19.8364 3 18.875 3C17.9136 3 16.9916 3.38192 16.3117 4.06174C15.6319 4.74156 15.25 5.66359 15.25 6.625V9.30025C13.07 10.4127 11.2395 12.1055 9.96027 14.1919C8.68101 16.2784 8.00266 18.6776 8 21.125V47.7083C8.00384 51.2323 9.40544 54.6109 11.8973 57.1027C14.3891 59.5946 17.7677 60.9962 21.2917 61H43.0417C46.5655 60.9955 49.9436 59.5937 52.4353 57.102C54.927 54.6103 56.3289 51.2321 56.3333 47.7083V21.125C56.3307 18.6776 55.6523 16.2784 54.3731 14.1919C53.0938 12.1055 51.2633 10.4127 49.0833 9.30025V9.30025ZM49.0833 47.7083C49.0833 49.3107 48.4468 50.8474 47.3138 51.9804C46.1807 53.1135 44.644 53.75 43.0417 53.75H21.2917C19.6893 53.75 18.1526 53.1135 17.0196 51.9804C15.8865 50.8474 15.25 49.3107 15.25 47.7083V21.125C15.25 19.5227 15.8865 17.9859 17.0196 16.8529C18.1526 15.7199 19.6893 15.0833 21.2917 15.0833H43.0417C44.644 15.0833 46.1807 15.7199 47.3138 16.8529C48.4468 17.9859 49.0833 19.5227 49.0833 21.125V47.7083ZM44.25 23.5417C44.25 24.5031 43.8681 25.4251 43.1883 26.1049C42.5084 26.7847 41.5864 27.1667 40.625 27.1667H23.7083C22.7469 27.1667 21.8249 26.7847 21.1451 26.1049C20.4653 25.4251 20.0833 24.5031 20.0833 23.5417C20.0833 22.5803 20.4653 21.6582 21.1451 20.9784C21.8249 20.2986 22.7469 19.9167 23.7083 19.9167H40.625C41.5864 19.9167 42.5084 20.2986 43.1883 20.9784C43.8681 21.6582 44.25 22.5803 44.25 23.5417V23.5417ZM35.7917 35.625C35.7917 36.5864 35.4097 37.5084 34.7299 38.1883C34.0501 38.8681 33.1281 39.25 32.1667 39.25H23.7083C22.7469 39.25 21.8249 38.8681 21.1451 38.1883C20.4653 37.5084 20.0833 36.5864 20.0833 35.625C20.0833 34.6636 20.4653 33.7416 21.1451 33.0617C21.8249 32.3819 22.7469 32 23.7083 32H32.1667C33.1281 32 34.0501 32.3819 34.7299 33.0617C35.4097 33.7416 35.7917 34.6636 35.7917 35.625Z" fill="url(#paint0_linear_906_20)"/>
<defs>
<linearGradient id="paint0_linear_906_20" x1="30.0649" y1="59.4423" x2="37.8754" y2="7.38586" gradientUnits="userSpaceOnUse">
<stop stop-color="#8D01A2"/>
<stop offset="1" stop-color="#FF33DB"/>
</linearGradient>
</defs>
</svg>
