<svg width="64" height="64" viewBox="0 0 64 64" fill="none" xmlns="http://www.w3.org/2000/svg">
<path fill-rule="evenodd" clip-rule="evenodd" d="M18.8326 41.0195C15.8678 37.1459 14.1795 32.4476 14 27.5738V27.5704C14.0362 17.833 21.9577 9.96702 31.6958 10.0001C41.4358 10.0332 49.3048 17.9559 49.2718 27.6959L49.2717 27.7078V27.9127C49.1404 34.2435 45.5617 40.4429 40.6663 45.6122C37.9471 48.4344 34.918 50.9403 31.6369 53.0825C26.7139 49.8398 22.3891 45.7686 18.8548 41.0489L18.8326 41.0195ZM31.7196 3.00015C18.1136 2.95392 7.04625 13.9463 7.00002 27.5523H7V27.5642V27.636C7 27.6761 7.00069 27.7161 7.00206 27.7562C7.21999 34.0994 9.40826 40.2171 13.2626 45.2593C17.3043 50.6531 22.2541 55.3014 27.89 58.9964C30.0838 60.7227 33.1801 60.7243 35.3755 59.0013C39.1362 56.5556 42.6062 53.6892 45.7183 50.4576L45.7377 50.4372C51.2176 44.6543 56.104 36.8431 56.2711 28.0134L56.2716 27.9735L56.2717 27.9472V27.7139C56.3148 14.1105 45.3236 3.04637 31.7196 3.00015ZM28.0004 31.9006C28.0004 30.0924 29.4663 28.6266 31.2744 28.6266C33.0826 28.6266 34.5484 30.0924 34.5484 31.9006C34.5484 33.7088 33.0826 35.1746 31.2744 35.1746C29.4663 35.1746 28.0004 33.7088 28.0004 31.9006ZM31.2744 21.6266C25.6003 21.6266 21.0004 26.2264 21.0004 31.9006C21.0004 37.5747 25.6003 42.1746 31.2744 42.1746C36.9486 42.1746 41.5484 37.5747 41.5484 31.9006C41.5484 26.2264 36.9486 21.6266 31.2744 21.6266Z" fill="url(#paint0_linear_906_20)"/>
<defs>
<linearGradient id="paint0_linear_906_20" x1="6.28781" y1="3.56375" x2="64.9505" y2="55.5576" gradientUnits="userSpaceOnUse">
<stop stop-color="#F9D423"/>
<stop offset="0.515624" stop-color="#FF4E50"/>
<stop offset="0.991304" stop-color="#8A2387"/>
</linearGradient>
</defs>
</svg>
