<svg width="48" height="48" viewBox="0 0 48 48" fill="none" xmlns="http://www.w3.org/2000/svg">
<path fill-rule="evenodd" clip-rule="evenodd" d="M19.5556 9.2779C19.5556 7.58091 17.5752 6.65504 16.273 7.74326L6.75449 15.6981C5.31954 16.8973 5.31954 19.1028 6.75449 20.302L16.273 28.2568C17.5752 29.345 19.5556 28.4191 19.5556 26.7221V24.4436C19.5556 23.339 20.451 22.4436 21.5556 22.4436H29.5556C32.6667 22.4436 35.1111 24.888 35.1111 27.9991C35.1111 31.1102 32.6667 33.5547 29.5556 33.5547H29.2222C27.5654 33.5547 26.2222 34.8978 26.2222 36.5547V39.4436C26.2222 41.1004 27.5654 42.4436 29.2222 42.4436H29.5556C37.5556 42.4436 44 35.9991 44 27.9991C44 19.9991 37.5556 13.5547 29.5556 13.5547H21.5556C20.451 13.5547 19.5556 12.6593 19.5556 11.5547V9.2779Z" fill="url(#paint0_linear_905_67)"/>
<defs>
<linearGradient id="paint0_linear_905_67" x1="24" y1="42.4436" x2="24" y2="5" gradientUnits="userSpaceOnUse">
<stop stop-color="#5570FF"/>
<stop offset="1" stop-color="#4DD3FF"/>
</linearGradient>
</defs>
</svg>
