<svg width="48" height="48" viewBox="0 0 48 48" fill="none" xmlns="http://www.w3.org/2000/svg">
<path fill-rule="evenodd" clip-rule="evenodd" d="M28.4444 9.2779C28.4444 7.58091 30.4248 6.65504 31.727 7.74326L41.2455 15.6981C42.6805 16.8973 42.6805 19.1028 41.2455 20.302L31.727 28.2568C30.4248 29.345 28.4444 28.4191 28.4444 26.7221V24.4436C28.4444 23.339 27.549 22.4436 26.4444 22.4436H18.4444C15.3333 22.4436 12.8889 24.888 12.8889 27.9991C12.8889 31.1102 15.3333 33.5547 18.4444 33.5547H18.7778C20.4346 33.5547 21.7778 34.8978 21.7778 36.5547V39.4436C21.7778 41.1004 20.4346 42.4436 18.7778 42.4436H18.4444C10.4444 42.4436 4 35.9991 4 27.9991C4 19.9991 10.4444 13.5547 18.4444 13.5547H26.4444C27.549 13.5547 28.4444 12.6593 28.4444 11.5547V9.2779Z" fill="url(#paint0_linear_905_65)"/>
<defs>
<linearGradient id="paint0_linear_905_65" x1="24" y1="42.4436" x2="24" y2="5" gradientUnits="userSpaceOnUse">
<stop stop-color="#00B59C"/>
<stop offset="1" stop-color="#9CFFAC"/>
</linearGradient>
</defs>
</svg>
