<svg width="16" height="16" viewBox="0 0 16 16" fill="none" xmlns="http://www.w3.org/2000/svg">
<path d="M12.6667 1H3.33333C2.04467 1 1 2.04467 1 3.33333V12.6667C1 13.9553 2.04467 15 3.33333 15H12.6667C13.9553 15 15 13.9553 15 12.6667V3.33333C15 2.04467 13.9553 1 12.6667 1Z" fill="url(#paint0_linear_931_2)"/>
<path d="M7.33301 3.33301C7.05687 3.33301 6.83301 3.55687 6.83301 3.83301V5.16635C6.83301 5.44249 7.05687 5.66635 7.33301 5.66635H8.66635C8.94249 5.66635 9.16635 5.44249 9.16635 5.16635V3.83301C9.16635 3.55687 8.94249 3.33301 8.66635 3.33301H7.33301ZM7.33301 6.83301C7.05687 6.83301 6.83301 7.05687 6.83301 7.33301V12.1663C6.83301 12.4424 7.05687 12.6663 7.33301 12.6663H8.66635C8.94249 12.6663 9.16635 12.4424 9.16635 12.1663V7.33301C9.16635 7.05687 8.94249 6.83301 8.66635 6.83301H7.33301Z" fill="white"/>
<defs>
<linearGradient id="paint0_linear_931_2" x1="8" y1="15" x2="8" y2="1" gradientUnits="userSpaceOnUse">
<stop stop-color="#FD4C00"/>
<stop offset="1" stop-color="#FFB800"/>
</linearGradient>
</defs>
</svg>
