<svg width="192" height="192" viewBox="0 0 192 192" fill="none" xmlns="http://www.w3.org/2000/svg">
<path d="M57.0899 23.93C53.0299 20.37 56.3599 12.34 61.9599 13.68C72.3199 16.43 82.3499 20.32 92.5999 23.46C95.0799 24.41 98.2199 24.77 99.7199 27.25C101.21 29.34 100.35 31.99 100.28 34.34C95.3499 37.02 89.6299 36.42 84.2899 37.41C67.5999 40.08 52.5199 50.49 43.5799 64.75C37.8399 73.78 34.4899 84.36 34.1899 95.07C34.0299 96.84 34.2199 98.77 33.3699 100.41C31.3199 103.55 26.2099 104.12 23.6299 101.34C22.3199 99.92 22.4199 97.86 22.3399 96.07C21.9399 77.22 30.3099 58.77 43.4699 45.48C50.7399 38.01 59.9999 33.01 69.3499 28.63C65.2499 27.11 60.8199 26.26 57.0899 23.93Z" fill="url(#paint0_linear_906_6)" stroke="url(#paint1_linear_906_6)" stroke-width="4"/>
<path d="M155.39 95.9401C155.15 92.8901 157.02 89.6601 160.21 89.1601C163.32 88.5101 166.75 90.8101 167.08 94.0201C167.98 110.16 162.97 126.46 153.63 139.6C145.52 150.74 134.22 159.16 121.67 164.68C123.03 165.06 124.38 165.46 125.74 165.86C128.2 166.66 130.93 167.25 132.86 169.1C134.75 171.45 133.51 174.49 133.14 177.13C130.77 178.04 128.23 179.27 125.66 178.35C116.23 175.94 106.88 173.25 97.4897 170.69C94.4497 169.9 91.5297 168.71 88.7897 167.18C88.5397 163.94 88.9997 160.7 90.9897 158.03C106.47 157.99 122.24 153.33 133.99 142.97C147.63 131.46 155.22 113.67 155.39 95.9401Z" fill="url(#paint2_linear_906_6)" stroke="url(#paint3_linear_906_6)" stroke-width="4"/>
<path fill-rule="evenodd" clip-rule="evenodd" d="M116.32 26.3202C127.06 14.9502 145.48 12.7902 158.85 20.7502C165.22 24.7902 170.66 30.5302 173.31 37.6902C177.5 48.3702 176.18 61.1102 169.66 70.5902C164.16 78.4102 155.38 83.7702 145.9 85.0802C136.56 86.4902 126.83 83.6602 119.4 77.9002C117.15 76.0202 115.12 73.8802 113.26 71.6102C103.04 58.4202 104.46 38.0402 116.32 26.3202ZM152.65 31.1702C142.92 24.8902 128.94 28.0602 122.63 37.6802C115.92 46.7002 117.63 60.3202 126.03 67.6802C129.42 70.5302 133.53 72.6002 137.95 73.1802C148.97 74.9502 160.48 67.0802 163.1 56.2902C164.37 50.4002 163.77 43.8302 160.3 38.7602C158.33 35.7102 155.66 33.1802 152.65 31.1702Z" fill="url(#paint4_linear_906_6)" stroke="url(#paint5_linear_906_6)" stroke-width="4"/>
<path fill-rule="evenodd" clip-rule="evenodd" d="M15.6697 116.96C15.5097 113.87 17.3797 110.17 20.9697 110.57C28.9649 110.517 36.96 110.581 44.9552 110.645C53.43 110.714 61.9049 110.782 70.3797 110.71C71.0405 110.735 71.7191 110.731 72.4041 110.727C74.9951 110.711 77.6764 110.694 79.8197 112.26C81.3597 113.29 81.5297 115.28 81.5497 116.96C81.6613 126.762 81.6453 136.567 81.6292 146.374C81.618 153.265 81.6067 160.158 81.6397 167.05C81.6697 169.4 81.4597 171.74 81.0997 174.07C78.6197 175.34 75.9197 176.23 73.0897 176.05C65.4695 176.004 57.8472 176.011 50.2237 176.018C41.3801 176.027 32.5349 176.035 23.6897 175.96C21.8217 175.932 19.9622 175.708 18.1113 175.484C17.9607 175.466 17.8102 175.448 17.6597 175.43C17.5226 175.116 17.3798 174.802 17.2366 174.486C16.4501 172.755 15.6505 170.996 15.7097 169.05C15.5797 151.69 15.5097 134.32 15.6697 116.96ZM47.8002 122.213C41.0659 122.219 34.3311 122.226 27.5997 122.18C27.7085 133.014 27.6904 143.855 27.6722 154.696C27.6671 157.794 27.6619 160.892 27.6597 163.99C28.7583 163.999 29.8562 164.006 30.9537 164.012C33.7021 164.03 36.4483 164.047 39.1997 164.09C49.3397 164.14 59.4797 164.17 69.6197 164.08C69.5897 150.11 69.5697 136.14 69.6297 122.17C67.3997 122.2 65.1797 122.21 62.9497 122.22C57.9011 122.203 52.8508 122.208 47.8002 122.213Z" fill="url(#paint6_linear_906_6)" stroke="url(#paint7_linear_906_6)" stroke-width="4"/>
<defs>
<linearGradient id="paint0_linear_906_6" x1="28.3384" y1="103.13" x2="28.3384" y2="-61.9661" gradientUnits="userSpaceOnUse">
<stop stop-color="#02AA93"/>
<stop offset="1" stop-color="#67FF80"/>
</linearGradient>
<linearGradient id="paint1_linear_906_6" x1="28.3384" y1="103.13" x2="28.3384" y2="-61.9661" gradientUnits="userSpaceOnUse">
<stop stop-color="#02AA93"/>
<stop offset="1" stop-color="#67FF80"/>
</linearGradient>
<linearGradient id="paint2_linear_906_6" x1="94.7545" y1="178.675" x2="94.7545" y2="13.5309" gradientUnits="userSpaceOnUse">
<stop stop-color="#02AA93"/>
<stop offset="1" stop-color="#67FF80"/>
</linearGradient>
<linearGradient id="paint3_linear_906_6" x1="94.7545" y1="178.675" x2="94.7545" y2="13.5309" gradientUnits="userSpaceOnUse">
<stop stop-color="#02AA93"/>
<stop offset="1" stop-color="#67FF80"/>
</linearGradient>
<linearGradient id="paint4_linear_906_6" x1="111.748" y1="85.4378" x2="111.748" y2="-42.5132" gradientUnits="userSpaceOnUse">
<stop stop-color="#02AA93"/>
<stop offset="1" stop-color="#67FF80"/>
</linearGradient>
<linearGradient id="paint5_linear_906_6" x1="111.748" y1="85.4378" x2="111.748" y2="-42.5132" gradientUnits="userSpaceOnUse">
<stop stop-color="#02AA93"/>
<stop offset="1" stop-color="#67FF80"/>
</linearGradient>
<linearGradient id="paint6_linear_906_6" x1="20.6522" y1="176.073" x2="20.6522" y2="55.3218" gradientUnits="userSpaceOnUse">
<stop stop-color="#02AA93"/>
<stop offset="1" stop-color="#67FF80"/>
</linearGradient>
<linearGradient id="paint7_linear_906_6" x1="20.6522" y1="176.073" x2="20.6522" y2="55.3218" gradientUnits="userSpaceOnUse">
<stop stop-color="#02AA93"/>
<stop offset="1" stop-color="#67FF80"/>
</linearGradient>
</defs>
</svg>
