<svg width="32" height="32" viewBox="0 0 32 32" fill="none" xmlns="http://www.w3.org/2000/svg">
<path d="M28.0482 23.4489C28.8975 24.6553 30 26.0495 30 27.04C30 27.8135 29.6927 28.5554 29.1457 29.1024C28.5987 29.6494 27.8569 29.9567 27.0833 29.9567C26.3098 29.9567 25.5679 29.6494 25.0209 29.1024C24.4739 28.5554 24.1666 27.8135 24.1666 27.04C24.1666 26.1358 25.2878 24.6973 26.1406 23.4594C26.2475 23.306 26.3897 23.1804 26.5552 23.0934C26.7207 23.0064 26.9047 22.9604 27.0917 22.9594C27.2787 22.9584 27.4632 23.0023 27.6296 23.0875C27.7961 23.1727 27.9396 23.2967 28.0482 23.4489ZM27.0273 18.9537L17.9039 28.0771C16.6993 29.2782 15.0677 29.9526 13.3667 29.9526C11.6657 29.9526 10.0341 29.2782 8.82951 28.0771L3.87931 23.1269C2.67601 21.9236 2 20.2915 2 18.5897C2 16.888 2.67601 15.2559 3.87931 14.0525L8.33368 9.59817L4.84532 6.11098C4.51702 5.78268 4.33259 5.33742 4.33259 4.87313C4.33259 4.40885 4.51702 3.96359 4.84532 3.63529C5.17361 3.307 5.61888 3.12256 6.08316 3.12256C6.54744 3.12256 6.99271 3.307 7.321 3.63529L10.8082 7.12365L13.0027 4.92913C12.6984 4.59538 12.5349 4.15688 12.5464 3.70536C12.5579 3.25383 12.7436 2.82425 13.0646 2.50645C13.3855 2.18866 13.8169 2.00727 14.2685 2.00021C14.7201 1.99316 15.157 2.161 15.4877 2.46862L29.4878 16.4687C29.7955 16.7994 29.9633 17.2363 29.9562 17.6879C29.9492 18.1395 29.7678 18.5709 29.45 18.8919C29.1322 19.2129 28.7026 19.3985 28.2511 19.41C27.7996 19.4216 27.3611 19.2581 27.0273 18.9537V18.9537ZM24.5505 16.4816L15.4749 7.40599L13.2827 9.59817L17.8211 14.1354C18.1494 14.4637 18.3338 14.9089 18.3338 15.3732C18.3338 15.8375 18.1494 16.2828 17.8211 16.6111C17.4928 16.9393 17.0475 17.1238 16.5832 17.1238C16.119 17.1238 15.6737 16.9393 15.3454 16.6111L10.8082 12.0727L6.35383 16.5271C6.08291 16.7979 5.868 17.1195 5.72137 17.4734C5.57475 17.8273 5.49928 18.2066 5.49928 18.5897C5.49928 18.9728 5.57475 19.3522 5.72137 19.7061C5.868 20.06 6.08291 20.3816 6.35383 20.6524L11.304 25.6026C11.5749 25.8735 11.8964 26.0885 12.2504 26.2351C12.6043 26.3817 12.9836 26.4572 13.3667 26.4572C13.7498 26.4572 14.1291 26.3817 14.4831 26.2351C14.837 26.0885 15.1585 25.8735 15.4294 25.6026L24.5505 16.4816Z" fill="url(#paint0_linear_928_44)"/>
<defs>
<linearGradient id="paint0_linear_928_44" x1="1.59528" y1="2.27509" x2="30.4148" y2="32.0224" gradientUnits="userSpaceOnUse">
<stop stop-color="#F9D423"/>
<stop offset="0.515624" stop-color="#FF4E50"/>
<stop offset="0.991304" stop-color="#8A2387"/>
</linearGradient>
</defs>
</svg>
