<svg width="32" height="32" viewBox="0 0 32 32" fill="none" xmlns="http://www.w3.org/2000/svg">
<path d="M24.75 6.66667H20.0238C19.8833 5.38689 19.2765 4.20368 18.3191 3.3429C17.3617 2.48212 16.1208 2.00407 14.8333 2L7.25 2C5.85809 2.00154 4.52363 2.55516 3.53939 3.53939C2.55516 4.52363 2.00154 5.85809 2 7.25L2 28.25C2 28.7141 2.18437 29.1592 2.51256 29.4874C2.84075 29.8156 3.28587 30 3.75 30C4.21413 30 4.65925 29.8156 4.98744 29.4874C5.31563 29.1592 5.5 28.7141 5.5 28.25V18.3333H13.1428C13.2833 19.6131 13.8902 20.7963 14.8476 21.6571C15.805 22.5179 17.0459 22.9959 18.3333 23H24.75C26.1419 22.9985 27.4764 22.4448 28.4606 21.4606C29.4448 20.4764 29.9985 19.1419 30 17.75V11.9167C29.9985 10.5248 29.4448 9.19029 28.4606 8.20606C27.4764 7.22183 26.1419 6.66821 24.75 6.66667ZM5.5 7.25C5.5 6.78587 5.68437 6.34075 6.01256 6.01256C6.34075 5.68437 6.78587 5.5 7.25 5.5H14.8333C15.2975 5.5 15.7426 5.68437 16.0708 6.01256C16.399 6.34075 16.5833 6.78587 16.5833 7.25V13.0833C16.5833 13.5475 16.399 13.9926 16.0708 14.3208C15.7426 14.649 15.2975 14.8333 14.8333 14.8333H5.5V7.25ZM26.5 17.75C26.5 18.2141 26.3156 18.6592 25.9874 18.9874C25.6592 19.3156 25.2141 19.5 24.75 19.5H18.3333C17.9143 19.4983 17.5098 19.3462 17.1934 19.0716C16.877 18.7969 16.6696 18.4178 16.609 18.0032C17.6236 17.6398 18.5016 16.9724 19.1233 16.0921C19.745 15.2117 20.0802 14.1611 20.0833 13.0833V10.1667H24.75C25.2141 10.1667 25.6592 10.351 25.9874 10.6792C26.3156 11.0074 26.5 11.4525 26.5 11.9167V17.75Z" fill="url(#paint0_linear_928_44)"/>
<defs>
<linearGradient id="paint0_linear_928_44" x1="1.59528" y1="2.27552" x2="30.4609" y2="32.0243" gradientUnits="userSpaceOnUse">
<stop stop-color="#F9D423"/>
<stop offset="0.515624" stop-color="#FF4E50"/>
<stop offset="0.991304" stop-color="#8A2387"/>
</linearGradient>
</defs>
</svg>
