<svg width="32" height="32" viewBox="0 0 32 32" fill="none" xmlns="http://www.w3.org/2000/svg">
<path d="M2 12C2 12 1 12 1 13V29C1 30 2 30 2 30H20C20 30 21 30 21 29V22H17V26H5V18H9V12H2Z" fill="url(#paint0_linear_817_2)"/>
<path fill-rule="evenodd" clip-rule="evenodd" d="M12 2C11 2 11 3 11 3V19C11 20 12 20 12 20H30C30 20 31 20 31 19V3C31 2 30 2 30 2H12ZM15 8H27V16H15V8Z" fill="url(#paint1_linear_817_2)"/>
<defs>
<linearGradient id="paint0_linear_817_2" x1="0.997071" y1="20.7333" x2="20.9956" y2="20.7333" gradientUnits="userSpaceOnUse">
<stop stop-color="#FD3A84"/>
<stop offset="1" stop-color="#FFA68D"/>
</linearGradient>
<linearGradient id="paint1_linear_817_2" x1="10.7109" y1="2.17712" x2="29.1067" y2="23.2422" gradientUnits="userSpaceOnUse">
<stop stop-color="#F9D423"/>
<stop offset="0.515624" stop-color="#FF4E50"/>
<stop offset="0.991304" stop-color="#8A2387"/>
</linearGradient>
</defs>
</svg>
