<svg width="64" height="64" viewBox="0 0 64 64" fill="none" xmlns="http://www.w3.org/2000/svg">
<path fill-rule="evenodd" clip-rule="evenodd" d="M2 9C2 6.79088 3.79088 5 6 5H21.9844C21.9885 5 21.9925 5.00165 21.9954 5.00458V5.00458C21.9984 5.00751 21.9995 5.01198 22.0022 5.01512C22.0054 5.01886 22.0115 5.01972 22.0156 5.01564V5.01564C22.0198 5.01149 22.0254 5.00916 22.0312 5.00916V5.00916C22.0371 5.00916 22.0427 5.01148 22.0469 5.01562L28.8597 11.8284C29.6098 12.5786 30.6272 13 31.6881 13H46C48.2092 13 50 14.7909 50 17V24C50 24.5523 49.5523 25 49 25H47.688C46.6272 25 45.6096 24.5786 44.8596 23.8284L38.0469 17.0156C38.0427 17.0115 38.0371 17.0092 38.0312 17.0092V17.0092C38.0254 17.0092 38.0198 17.0115 38.0156 17.0156V17.0156C38.0115 17.0197 38.0054 17.0189 38.0022 17.0151C37.9995 17.012 37.9984 17.0075 37.9954 17.0046V17.0046C37.9925 17.0016 37.9885 17 37.9844 17H22C19.7909 17 18 18.7909 18 21V24C18 24.5523 17.5523 25 17 25H10C7.79088 25 6 26.7909 6 29V45C6 47.2092 7.79088 49 10 49H16C16.5523 49 17 49.4477 17 50V52C17 52.5523 16.5523 53 16 53H6C3.79088 53 2 51.2092 2 49V9ZM10 9C7.79088 9 6 10.7909 6 13V17C6 19.2091 7.79084 21 10 21H12.3119C13.3728 21 14.3902 20.5786 15.1403 19.8284L21.9531 13.0156C21.9573 13.0115 21.9629 13.0092 21.9688 13.0092V13.0092C21.9746 13.0092 21.9802 13.0115 21.9844 13.0156V13.0156C21.9885 13.0197 21.9946 13.0189 21.9978 13.0151C22.0005 13.012 22.0016 13.0075 22.0046 13.0046V13.0046C22.0075 13.0016 22.0115 13 22.0156 13H22.695C23.3144 13 23.6243 12.2508 23.1859 11.8132L20.9528 9.5844C20.5778 9.21016 20.0697 9 19.5399 9H10Z" fill="url(#paint0_linear_911_28)" stroke="url(#paint1_linear_911_28)" stroke-width="2"/>
<path d="M18 11C15.7909 11 14 12.7909 14 15V27V31V55C14 57.2092 15.7909 59 18 59H58C60.2092 59 62 57.2092 62 55V27V23C62 20.7909 60.2092 19 58 19H43.688C42.6272 19 41.61 18.5786 40.8596 17.8284L34.0469 11.0156C34.0427 11.0115 34.0371 11.0092 34.0312 11.0092V11.0092C34.0254 11.0092 34.0198 11.0115 34.0156 11.0156V11.0156C34.0115 11.0197 34.0054 11.0189 34.0022 11.0151C33.9995 11.012 33.9984 11.0075 33.9954 11.0046V11.0046C33.9925 11.0016 33.9885 11 33.9844 11H18ZM18 21C18 18.7909 19.7909 17 22 17H31.5399C32.0697 17 32.5778 17.2102 32.9528 17.5844L35.1859 19.8132C35.6243 20.2508 35.3144 21 34.695 21H34.0156C34.0115 21 34.0075 21.0016 34.0046 21.0046V21.0046C34.0016 21.0075 34.0005 21.012 33.9978 21.0151C33.9946 21.0189 33.9885 21.0197 33.9844 21.0156V21.0156C33.9802 21.0115 33.9746 21.0092 33.9688 21.0092V21.0092C33.9629 21.0092 33.9573 21.0115 33.9531 21.0156L27.1403 27.8284C26.3902 28.5786 25.3728 29 24.3119 29H22C19.7908 29 18 27.2091 18 25V21ZM18 35C18 32.7909 19.7909 31 22 31H54C56.2092 31 58 32.7909 58 35V51C58 53.2092 56.2092 55 54 55H22C19.7909 55 18 53.2092 18 51V35Z" fill="url(#paint2_linear_911_28)" stroke="url(#paint3_linear_911_28)" stroke-width="3"/>
<defs>
<linearGradient id="paint0_linear_911_28" x1="26" y1="53" x2="26" y2="5" gradientUnits="userSpaceOnUse">
<stop stop-color="#5570FF"/>
<stop offset="1" stop-color="#4DD3FF"/>
</linearGradient>
<linearGradient id="paint1_linear_911_28" x1="26" y1="53" x2="26" y2="5" gradientUnits="userSpaceOnUse">
<stop stop-color="#5570FF"/>
<stop offset="1" stop-color="#4DD3FF"/>
</linearGradient>
<linearGradient id="paint2_linear_911_28" x1="38" y1="59" x2="38" y2="11" gradientUnits="userSpaceOnUse">
<stop stop-color="#02AA93"/>
<stop offset="1" stop-color="#67FF80"/>
</linearGradient>
<linearGradient id="paint3_linear_911_28" x1="38" y1="59" x2="38" y2="11" gradientUnits="userSpaceOnUse">
<stop stop-color="#02AA93"/>
<stop offset="1" stop-color="#67FF80"/>
</linearGradient>
</defs>
</svg>
