<svg width="64" height="64" viewBox="0 0 64 64" fill="none" xmlns="http://www.w3.org/2000/svg">
<path d="M61 23.125V44.875C60.9962 48.399 59.5946 51.7776 57.1027 54.2694C54.6109 56.7612 51.2323 58.1628 47.7083 58.1667H16.2917C12.7677 58.1628 9.38912 56.7612 6.89728 54.2694C4.40544 51.7776 3.00384 48.399 3 44.875L3 18.2917C3.00384 14.7677 4.40544 11.3891 6.89728 8.89728C9.38912 6.40544 12.7677 5.00384 16.2917 5H22.3333C22.8962 4.99966 23.4514 5.13039 23.9549 5.38183L32.0108 9.41085C32.5663 9.68869 33.1789 9.83333 33.8 9.83333H47.7083C51.2323 9.83717 54.6109 11.2388 57.1027 13.7306C59.5946 16.2225 60.9962 19.601 61 23.125ZM53.75 23.125V23.125C53.7493 22.4168 53.1183 21.9167 52.4101 21.9167H14.25C12.0409 21.9167 10.25 23.7075 10.25 25.9167V44.875C10.25 46.4773 10.8865 48.0141 12.0196 49.1471C13.1526 50.2801 14.6893 50.9167 16.2917 50.9167H47.7083C49.3107 50.9167 50.8474 50.2801 51.9804 49.1471C53.1135 48.0141 53.75 46.4773 53.75 44.875V23.125Z" fill="url(#paint0_linear_906_20)"/>
<path d="M41.8133 38.9798C42.4931 38.2999 42.875 37.3779 42.875 36.4165C42.875 35.4551 42.4931 34.5331 41.8133 33.8532C41.1334 33.1734 40.2114 32.7915 39.25 32.7915H36.625C36.0727 32.7915 35.625 32.3438 35.625 31.7915V29.1665C35.625 28.2051 35.2431 27.2831 34.5633 26.6032C33.8834 25.9234 32.9614 25.5415 32 25.5415C31.0386 25.5415 30.1166 25.9234 29.4367 26.6032C28.7569 27.2831 28.375 28.2051 28.375 29.1665V31.7915C28.375 32.3438 27.9273 32.7915 27.375 32.7915H24.75C23.7886 32.7915 22.8666 33.1734 22.1867 33.8532C21.5069 34.5331 21.125 35.4551 21.125 36.4165C21.125 37.3779 21.5069 38.2999 22.1867 38.9798C22.8666 39.6596 23.7886 40.0415 24.75 40.0415H27.375C27.9273 40.0415 28.375 40.4892 28.375 41.0415V43.6665C28.375 44.6279 28.7569 45.5499 29.4367 46.2298C30.1166 46.9096 31.0386 47.2915 32 47.2915C32.9614 47.2915 33.8834 46.9096 34.5633 46.2298C35.2431 45.5499 35.625 44.6279 35.625 43.6665V41.0415C35.625 40.4892 36.0727 40.0415 36.625 40.0415H39.25C40.2114 40.0415 41.1334 39.6596 41.8133 38.9798Z" fill="url(#paint1_linear_906_20)"/>
<defs>
<linearGradient id="paint0_linear_906_20" x1="32" y1="58.1667" x2="32" y2="5" gradientUnits="userSpaceOnUse">
<stop stop-color="#02AA93"/>
<stop offset="1" stop-color="#67FF80"/>
</linearGradient>
<linearGradient id="paint1_linear_906_20" x1="32" y1="47.2915" x2="32" y2="25.5415" gradientUnits="userSpaceOnUse">
<stop stop-color="#02AA93"/>
<stop offset="1" stop-color="#67FF80"/>
</linearGradient>
</defs>
</svg>
