<svg width="128" height="128" viewBox="0 0 128 128" fill="none" xmlns="http://www.w3.org/2000/svg">
<path d="M64 8C52.9243 8 42.0972 11.2843 32.8881 17.4377C23.6789 23.5911 16.5013 32.3371 12.2628 42.5697C8.02426 52.8024 6.91528 64.0621 9.07605 74.9251C11.2368 85.788 16.5703 95.7662 24.402 103.598C32.2338 111.43 42.212 116.763 53.075 118.924C63.9379 121.085 75.1976 119.976 85.4303 115.737C95.663 111.499 104.409 104.321 110.562 95.1119C116.716 85.9028 120 75.0758 120 64C119.984 49.1528 114.079 34.9183 103.58 24.4198C93.0817 13.9212 78.8472 8.01606 64 8V8ZM64 106C55.6932 106 47.5729 103.537 40.6661 98.9217C33.7592 94.3067 28.376 87.7472 25.1971 80.0727C22.0182 72.3982 21.1865 63.9534 22.807 55.8062C24.4276 47.659 28.4277 40.1753 34.3015 34.3015C40.1753 28.4277 47.659 24.4276 55.8062 22.807C63.9534 21.1864 72.3982 22.0182 80.0727 25.1971C87.7472 28.3759 94.3067 33.7592 98.9217 40.6661C103.537 47.5729 106 55.6932 106 64C105.986 75.1349 101.557 85.8099 93.6835 93.6835C85.8099 101.557 75.1349 105.986 64 106V106Z" fill="url(#paint0_linear_902_2)" stroke="url(#paint1_linear_902_2)" stroke-width="2"/>
<path d="M61.8774 52.5447H60.4774C58.6432 52.4997 56.8585 53.1413 55.4729 54.3439C54.0873 55.5464 53.2008 57.2232 52.9873 59.0454C52.8652 60.8683 53.4607 62.6667 54.6465 64.0566C55.8324 65.4464 57.5146 66.3176 59.334 66.484V88.184C59.334 90.0405 60.0715 91.821 61.3843 93.1338C62.697 94.4465 64.4775 95.184 66.334 95.184C68.1906 95.184 69.9711 94.4465 71.2838 93.1338C72.5966 91.821 73.3341 90.0405 73.3341 88.184V64.0014C73.3341 60.9629 72.127 58.0488 69.9785 55.9003C67.8299 53.7517 64.9159 52.5447 61.8774 52.5447V52.5447Z" fill="url(#paint2_linear_902_2)" stroke="url(#paint3_linear_902_2)" stroke-width="2"/>
<path d="M63.2073 47.5097C64.7911 47.5097 66.3394 47.04 67.6563 46.1601C68.9732 45.2801 69.9996 44.0295 70.6057 42.5662C71.2118 41.1029 71.3704 39.4928 71.0614 37.9394C70.7524 36.386 69.9897 34.9591 68.8698 33.8391C67.7498 32.7192 66.3229 31.9565 64.7695 31.6475C63.2161 31.3385 61.606 31.4971 60.1427 32.1032C58.6794 32.7093 57.4288 33.7357 56.5488 35.0526C55.6689 36.3696 55.1992 37.9178 55.1992 39.5017C55.1986 40.5535 55.4053 41.5951 55.8075 42.5669C56.2098 43.5388 56.7996 44.4218 57.5434 45.1655C58.2871 45.9093 59.1701 46.4991 60.142 46.9013C61.1138 47.3036 62.1554 47.5103 63.2073 47.5097V47.5097Z" fill="url(#paint4_linear_902_2)" stroke="url(#paint5_linear_902_2)" stroke-width="2"/>
<defs>
<linearGradient id="paint0_linear_902_2" x1="63.9999" y1="120" x2="63.9999" y2="7.99999" gradientUnits="userSpaceOnUse">
<stop stop-color="#02AA93"/>
<stop offset="1" stop-color="#67FF80"/>
</linearGradient>
<linearGradient id="paint1_linear_902_2" x1="63.9999" y1="120" x2="63.9999" y2="7.99999" gradientUnits="userSpaceOnUse">
<stop stop-color="#02AA93"/>
<stop offset="1" stop-color="#67FF80"/>
</linearGradient>
<linearGradient id="paint2_linear_902_2" x1="63.1529" y1="95.184" x2="63.1529" y2="52.5425" gradientUnits="userSpaceOnUse">
<stop stop-color="#02AA93"/>
<stop offset="1" stop-color="#67FF80"/>
</linearGradient>
<linearGradient id="paint3_linear_902_2" x1="63.1529" y1="95.184" x2="63.1529" y2="52.5425" gradientUnits="userSpaceOnUse">
<stop stop-color="#02AA93"/>
<stop offset="1" stop-color="#67FF80"/>
</linearGradient>
<linearGradient id="paint4_linear_902_2" x1="63.2072" y1="47.5097" x2="63.2072" y2="31.4937" gradientUnits="userSpaceOnUse">
<stop stop-color="#02AA93"/>
<stop offset="1" stop-color="#67FF80"/>
</linearGradient>
<linearGradient id="paint5_linear_902_2" x1="63.2072" y1="47.5097" x2="63.2072" y2="31.4937" gradientUnits="userSpaceOnUse">
<stop stop-color="#02AA93"/>
<stop offset="1" stop-color="#67FF80"/>
</linearGradient>
</defs>
</svg>
