<svg width="128" height="128" viewBox="0 0 128 128" fill="none" xmlns="http://www.w3.org/2000/svg">
<path d="M55.1222 86.9577L45.3425 96.202C36.3395 105.076 21.7554 105.076 12.7522 96.202C3.74907 87.328 3.74945 72.9532 12.7522 64.0791L30.6796 46.4088C33.6537 43.4774 37.2385 41.5502 41.0269 40.5462C45.0602 39.4622 49.3377 39.5022 53.3704 40.6669C56.9961 41.6706 60.4179 43.598 63.2697 46.4088C65.2711 48.3816 66.8311 50.6311 67.9355 53.0327C68.7578 54.8208 67.9163 56.947 66.0039 57.4126C62.2304 58.3311 58.0714 57.3465 55.1222 54.4395C51.3337 50.7049 45.5487 50.1431 41.1494 52.7128C40.294 53.1543 39.5201 53.7565 38.8272 54.4395L20.8998 72.1101C16.4188 76.5269 16.4188 83.7547 20.8998 88.1719C25.3809 92.5882 32.7138 92.5882 37.1949 88.1719C42.1745 83.2217 45.1125 80.3149 46.7993 78.653C48.5811 76.8976 50.0975 78.2816 51.7518 80.1576C52.5106 81.018 53.1303 81.7267 53.8034 82.4218C55.1928 83.8562 56.5447 85.556 55.1222 86.9577Z" fill="url(#paint0_linear_904_63)" stroke="url(#paint1_linear_904_63)" stroke-width="4"/>
<path d="M56.8776 25.8998L66.6574 16.6555C75.6603 7.78169 90.2447 7.78131 99.2473 16.6555C108.251 25.5295 108.251 39.9043 99.2473 48.7785L81.3203 66.4488C78.3462 69.3802 74.7614 71.3073 70.973 72.3113C66.9397 73.3953 62.6622 73.3554 58.6295 72.1908C55.0038 71.187 51.582 69.2596 48.7302 66.4488C46.7287 64.4759 45.1688 62.2264 44.0644 59.825C43.2421 58.0368 44.0836 55.9106 45.996 55.445C49.7694 54.5264 53.9285 55.5112 56.8776 58.4181C60.6662 62.1527 66.4512 62.7144 70.8505 60.1447C71.7059 59.7033 72.4798 59.101 73.1727 58.4181L91.0999 40.7474C95.5809 36.3306 95.5809 29.1029 91.0999 24.6861C86.619 20.2693 79.286 20.2693 74.805 24.6861C69.8254 29.6358 66.8874 32.5427 65.2006 34.2046C63.4188 35.9599 61.9024 34.576 60.2481 32.7C59.4893 31.8395 58.8696 31.1308 58.1964 30.4358C56.807 29.0013 55.4552 27.3016 56.8776 25.8998Z" fill="url(#paint2_linear_904_63)" stroke="url(#paint3_linear_904_63)" stroke-width="4"/>
<path fill-rule="evenodd" clip-rule="evenodd" d="M91.4286 87.9525V77.2739C91.4286 74.0983 94.3707 71.5239 98 71.5239C101.629 71.5239 104.571 74.0983 104.571 77.2739V87.9525H115.25C118.426 87.9525 121 90.8946 121 94.5239C121 98.1532 118.426 101.095 115.25 101.095H104.571V111.774C104.571 114.95 101.629 117.524 98 117.524C94.3707 117.524 91.4286 114.95 91.4286 111.774V101.095H80.75C77.5744 101.095 75 98.1532 75 94.5239C75 90.8946 77.5744 87.9525 80.75 87.9525H91.4286Z" fill="url(#paint4_linear_904_63)" stroke="url(#paint5_linear_904_63)" stroke-width="4"/>
<defs>
<linearGradient id="paint0_linear_904_63" x1="37.5476" y1="102.857" x2="37.5476" y2="39.7622" gradientUnits="userSpaceOnUse">
<stop stop-color="#5570FF"/>
<stop offset="1" stop-color="#4DD3FF"/>
</linearGradient>
<linearGradient id="paint1_linear_904_63" x1="37.5476" y1="102.857" x2="37.5476" y2="39.7622" gradientUnits="userSpaceOnUse">
<stop stop-color="#5570FF"/>
<stop offset="1" stop-color="#4DD3FF"/>
</linearGradient>
<linearGradient id="paint2_linear_904_63" x1="74.4522" y1="9.99998" x2="74.4522" y2="73.0953" gradientUnits="userSpaceOnUse">
<stop stop-color="#5570FF"/>
<stop offset="1" stop-color="#4DD3FF"/>
</linearGradient>
<linearGradient id="paint3_linear_904_63" x1="74.4522" y1="9.99998" x2="74.4522" y2="73.0953" gradientUnits="userSpaceOnUse">
<stop stop-color="#5570FF"/>
<stop offset="1" stop-color="#4DD3FF"/>
</linearGradient>
<linearGradient id="paint4_linear_904_63" x1="98" y1="117.524" x2="98" y2="71.5239" gradientUnits="userSpaceOnUse">
<stop stop-color="#02AA93"/>
<stop offset="1" stop-color="#67FF80"/>
</linearGradient>
<linearGradient id="paint5_linear_904_63" x1="98" y1="117.524" x2="98" y2="71.5239" gradientUnits="userSpaceOnUse">
<stop stop-color="#02AA93"/>
<stop offset="1" stop-color="#67FF80"/>
</linearGradient>
</defs>
</svg>
