<svg width="64" height="64" viewBox="0 0 64 64" fill="none" xmlns="http://www.w3.org/2000/svg">
<path fill-rule="evenodd" clip-rule="evenodd" d="M10.5 22.9739C10.5 21.1592 11.0996 19.8548 11.9543 19.0089C12.8069 18.1652 14.1956 17.5 16.2897 17.5H32.6216C34.7007 17.5 36.092 18.1634 36.9503 19.0112C37.81 19.8603 38.4112 21.1658 38.4112 22.9739V29.7703C38.4097 29.8306 38.4097 29.891 38.4112 29.9514V34.2874C38.4097 34.3478 38.4097 34.4082 38.4112 34.4685V41.29C38.4112 43.0988 37.8105 44.3955 36.9552 45.237C36.0995 46.0788 34.7078 46.7402 32.6216 46.7402H16.2607C14.1787 46.7402 12.7969 46.08 11.9486 45.242C11.0993 44.403 10.5 43.1057 10.5 41.29V22.9739ZM45.4037 41.7632C45.2994 45.0171 44.1163 48.0115 41.8645 50.2269C39.5043 52.5489 36.2513 53.7402 32.6216 53.7402H16.2607C12.6321 53.7402 9.38357 52.5477 7.02913 50.2218C4.67574 47.897 3.5 44.7192 3.5 41.29V22.9739C3.5 19.5463 4.67546 16.3638 7.03065 14.0333C9.38796 11.7006 12.6442 10.5 16.2897 10.5H32.6216C36.2583 10.5 39.5119 11.7024 41.8694 14.031C44.1114 16.2455 45.2935 19.2333 45.4029 22.4763L50.4677 18.33L50.4721 18.3264C54.4746 15.0377 60.4999 17.9036 60.4999 23.0771V41.1617C60.4999 46.3488 54.4671 49.1907 50.4731 45.9133L50.4702 45.9109L45.4037 41.7632ZM45.4112 32.7229L53.4999 39.3447V24.8941L45.4112 31.516V32.7229Z" fill="url(#paint0_linear_906_20)"/>
<defs>
<linearGradient id="paint0_linear_906_20" x1="13.8312" y1="48.6354" x2="52.8046" y2="3.80944" gradientUnits="userSpaceOnUse">
<stop stop-color="#FE0844"/>
<stop offset="1" stop-color="#FEB302"/>
</linearGradient>
</defs>
</svg>
