<svg width="128" height="128" viewBox="0 0 128 128" fill="none" xmlns="http://www.w3.org/2000/svg">
<path d="M64 123.824C97.1371 123.824 124 97.224 124 64.4118C124 31.5996 97.1371 5 64 5C30.8629 5 4 31.5996 4 64.4118C4 97.224 30.8629 123.824 64 123.824Z" fill="url(#paint0_linear_911_53)"/>
<path fill-rule="evenodd" clip-rule="evenodd" d="M73.5917 27.9899L64.79 36.3098C63.5098 37.5715 64.7264 39.1011 65.9769 40.3923C66.5374 40.971 67.0568 41.5602 67.6722 42.2585L67.6729 42.2593L67.8234 42.43C69.3122 44.1184 70.677 45.3639 72.2806 43.7841C73.7987 42.2885 76.443 39.6723 80.9246 35.2175C84.9575 31.2423 91.5572 31.2423 95.59 35.2175C99.6229 39.1926 99.6229 45.6975 95.59 49.6727L77.6672 67.3468C77.0436 67.9615 76.3471 68.5036 75.5772 68.9008C71.6179 71.2136 66.4113 70.708 63.0017 67.3468C60.3474 64.7306 58.8961 64.6733 55.5 65.5C53.7788 65.919 52.0215 68.3326 52.7616 69.942C53.7555 72.1033 53.8676 72.7989 55.669 74.5745C58.2356 77.1043 61.3152 78.8389 64.5783 79.7423C68.2078 80.7905 72.0575 80.8264 75.6875 79.8507C79.097 78.9472 82.3234 77.2128 85 74.5745L102.923 56.9006C111.026 48.9139 111.026 35.9766 102.923 27.9899C94.8203 20.0032 81.6944 20.0035 73.5917 27.9899ZM54.4082 99.5816L63.21 91.2617C64.4902 90.0001 63.2736 88.4704 62.0231 87.1793C61.4629 86.6009 60.9439 86.0121 60.329 85.3145L60.1766 85.1416C58.6877 83.4532 57.323 82.2076 55.7194 83.7875C54.2012 85.2831 51.557 87.8993 47.0754 92.3544C43.0425 96.3292 36.4428 96.3292 32.4099 92.3544C28.3769 88.379 28.3769 81.874 32.4099 77.8988L51.4698 60.8242C52.0933 60.2095 52.7899 59.6675 53.5597 59.2702C57.5191 56.9574 62.7256 57.4631 66.1353 60.8242C68.7895 63.4405 71.1039 64.3267 74.5 63.5C76.2212 63.0809 77.7401 60.6094 77 59C76.0061 56.8386 75.2693 55.3721 73.468 53.5966C70.9014 51.0668 67.8218 49.3322 64.5587 48.4288C60.9292 47.3806 57.0794 47.3446 53.4495 48.3203C50.0399 49.2238 46.8136 50.9583 44.1369 53.5966L25.077 70.671C16.9745 78.6576 16.9742 91.5949 25.077 99.5816C33.1798 107.568 46.3056 107.568 54.4082 99.5816Z" fill="url(#paint1_linear_911_53)" stroke="url(#paint2_linear_911_53)" stroke-width="3"/>
<defs>
<linearGradient id="paint0_linear_911_53" x1="64" y1="123.824" x2="64" y2="5" gradientUnits="userSpaceOnUse">
<stop stop-color="#5570FF"/>
<stop offset="1" stop-color="#4DD3FF"/>
</linearGradient>
<linearGradient id="paint1_linear_911_53" x1="64.0001" y1="105.571" x2="64.0001" y2="22" gradientUnits="userSpaceOnUse">
<stop stop-color="#ADDCFF"/>
<stop offset="0.5028" stop-color="#EAF6FF"/>
<stop offset="1" stop-color="#EAF6FF"/>
</linearGradient>
<linearGradient id="paint2_linear_911_53" x1="64.0001" y1="105.571" x2="64.0001" y2="22" gradientUnits="userSpaceOnUse">
<stop stop-color="#ADDCFF"/>
<stop offset="0.5028" stop-color="#EAF6FF"/>
<stop offset="1" stop-color="#EAF6FF"/>
</linearGradient>
</defs>
</svg>
