<svg width="32" height="32" viewBox="0 0 32 32" fill="none" xmlns="http://www.w3.org/2000/svg">
<path d="M22.1153 4C20.9195 4.01157 19.7431 4.30304 18.6802 4.85107C17.6174 5.39909 16.6977 6.18843 15.9948 7.15586C15.2919 6.18843 14.3721 5.39909 13.3093 4.85107C12.2464 4.30304 11.07 4.01157 9.87424 4C7.70789 4.08651 5.66393 5.02729 4.18929 6.61662C2.71465 8.20596 1.92931 10.3145 2.00501 12.4813C2.00501 17.7881 7.45402 23.4691 12.031 27.3011C13.1424 28.2356 14.5479 28.748 16 28.748C17.4521 28.748 18.8576 28.2356 19.969 27.3011C24.5413 23.4691 29.995 17.7881 29.995 12.4813C30.0707 10.3128 29.2839 8.20268 27.807 6.61304C26.3301 5.02341 24.2835 4.08381 22.1153 4V4ZM17.7167 24.6209C17.2345 25.0269 16.6245 25.2495 15.9942 25.2495C15.3639 25.2495 14.7538 25.0269 14.2717 24.6209C8.6991 19.9483 5.50244 15.5241 5.50244 12.4813C5.42811 11.2423 5.84552 10.024 6.66404 9.09085C7.48256 8.15774 8.63611 7.58516 9.87424 7.49744C11.1124 7.58516 12.2659 8.15774 13.0844 9.09085C13.903 10.024 14.3204 11.2423 14.246 12.4813C14.246 12.9451 14.4303 13.3899 14.7582 13.7178C15.0862 14.0458 15.531 14.23 15.9948 14.23C16.4586 14.23 16.9033 14.0458 17.2313 13.7178C17.5592 13.3899 17.7435 12.9451 17.7435 12.4813C17.6692 11.2423 18.0866 10.024 18.9051 9.09085C19.7236 8.15774 20.8771 7.58516 22.1153 7.49744C23.3534 7.58516 24.507 8.15774 25.3255 9.09085C26.144 10.024 26.5614 11.2423 26.4871 12.4813C26.4871 15.5241 23.2904 19.9483 17.7167 24.6209Z" fill="url(#paint0_linear_929_60)"/>
<defs>
<linearGradient id="paint0_linear_929_60" x1="16" y1="28.748" x2="16" y2="4" gradientUnits="userSpaceOnUse">
<stop stop-color="#FD3A84"/>
<stop offset="1" stop-color="#FFA68D"/>
</linearGradient>
</defs>
</svg>
