<svg width="128" height="128" viewBox="0 0 128 128" fill="none" xmlns="http://www.w3.org/2000/svg">
<path d="M94.3333 13H33.6667C26.8617 13.0074 20.3376 15.714 15.5258 20.5258C10.714 25.3376 8.00741 31.8617 8 38.6667L8 90C8.00741 96.8049 10.714 103.329 15.5258 108.141C20.3376 112.953 26.8617 115.659 33.6667 115.667H94.3333C101.138 115.659 107.662 112.953 112.474 108.141C117.286 103.329 119.993 96.8049 120 90V38.6667C119.993 31.8617 117.286 25.3376 112.474 20.5258C107.662 15.714 101.138 13.0074 94.3333 13V13ZM94.3333 27C97.1635 27.0094 99.8918 28.0572 102.001 29.9447L71.6673 60.278C69.6071 62.2458 66.8677 63.3438 64.0187 63.3438C61.1697 63.3438 58.4303 62.2458 56.37 60.278L26.0367 29.9447C28.136 28.0657 30.8494 27.0185 33.6667 27H94.3333ZM94.3333 101.667H33.6667C30.5725 101.667 27.605 100.438 25.4171 98.2496C23.2292 96.0617 22 93.0942 22 90V45.746L46.4487 70.1947C48.7529 72.4999 51.4887 74.3285 54.4998 75.5761C57.5109 76.8238 60.7383 77.4659 63.9977 77.4659C67.257 77.4659 70.4844 76.8238 73.4955 75.5761C76.5067 74.3285 79.2425 72.4999 81.5467 70.1947L106 45.746V90C106 93.0942 104.771 96.0617 102.583 98.2496C100.395 100.438 97.4275 101.667 94.3333 101.667Z" fill="url(#paint0_linear_902_2)"/>
<defs>
<linearGradient id="paint0_linear_902_2" x1="6.38112" y1="14.0102" x2="111.547" y2="132.247" gradientUnits="userSpaceOnUse">
<stop stop-color="#F9D423"/>
<stop offset="0.515624" stop-color="#FF4E50"/>
<stop offset="0.991304" stop-color="#8A2387"/>
</linearGradient>
</defs>
</svg>
