<svg width="128" height="128" viewBox="0 0 128 128" fill="none" xmlns="http://www.w3.org/2000/svg">
<path d="M120 85V94.3333C119.993 101.138 117.286 107.662 112.474 112.474C107.662 117.286 101.138 119.993 94.3333 120H33.6667C26.8617 119.993 20.3376 117.286 15.5258 112.474C10.714 107.662 8.00741 101.138 8 94.3333L8 47.6667C8.00741 40.8617 10.714 34.3376 15.5258 29.5258C20.3376 24.7139 26.8617 22.0074 33.6667 22H61.6667C63.5232 22 65.3037 22.7375 66.6164 24.0503C67.9292 25.363 68.6667 27.1435 68.6667 29C68.6667 30.8565 67.9292 32.637 66.6164 33.9497C65.3037 35.2625 63.5232 36 61.6667 36H33.6667C31.5501 36.007 29.4756 36.5913 27.6665 37.6899C25.8574 38.7885 24.3823 40.3599 23.4 42.2347L55.7447 74.584C57.581 76.3639 59.9409 77.5062 62.4761 77.8423C65.0112 78.1784 67.5873 77.6906 69.824 76.4507C70.6207 75.991 71.5001 75.6928 72.412 75.5731C73.324 75.4533 74.2506 75.5143 75.1389 75.7527C76.0273 75.991 76.86 76.402 77.5895 76.9621C78.319 77.5223 78.931 78.2206 79.3907 79.0173C79.8503 79.814 80.1485 80.6934 80.2683 81.6054C80.388 82.5173 80.327 83.4439 80.0887 84.3322C79.8503 85.2206 79.4393 86.0533 78.8792 86.7828C78.319 87.5123 77.6207 88.1244 76.824 88.584C71.9254 91.3922 66.2401 92.5141 60.6419 91.7773C55.0437 91.0404 49.8424 88.4855 45.8373 84.5053L22 60.6307V94.3333C22 97.4275 23.2292 100.395 25.4171 102.583C27.605 104.771 30.5725 106 33.6667 106H94.3333C97.4275 106 100.395 104.771 102.583 102.583C104.771 100.395 106 97.4275 106 94.3333V85C106 83.1435 106.737 81.363 108.05 80.0502C109.363 78.7375 111.143 78 113 78C114.857 78 116.637 78.7375 117.95 80.0502C119.262 81.363 120 83.1435 120 85ZM110.667 8H87.3333C84.858 8 82.484 8.98333 80.7337 10.7337C78.9833 12.484 78 14.858 78 17.3333V62.3853C78.0004 63.5717 78.3357 64.7338 78.9675 65.738C79.5992 66.7422 80.5017 67.5476 81.5709 68.0615C82.6402 68.5754 83.8329 68.777 85.0116 68.6429C86.1904 68.5089 87.3074 68.0448 88.234 67.304L99 58.694L109.766 67.304C110.693 68.0448 111.81 68.5089 112.988 68.6429C114.167 68.777 115.36 68.5754 116.429 68.0615C117.498 67.5476 118.401 66.7422 119.033 65.738C119.664 64.7338 120 63.5717 120 62.3853V17.3333C120 14.858 119.017 12.484 117.266 10.7337C115.516 8.98333 113.142 8 110.667 8V8Z" fill="url(#paint0_linear_902_2)"/>
<defs>
<linearGradient id="paint0_linear_902_2" x1="6.38112" y1="9.10207" x2="121.844" y2="128.097" gradientUnits="userSpaceOnUse">
<stop stop-color="#F9D423"/>
<stop offset="0.515624" stop-color="#FF4E50"/>
<stop offset="0.991304" stop-color="#8A2387"/>
</linearGradient>
</defs>
</svg>
