<svg width="128" height="128" viewBox="0 0 128 128" fill="none" xmlns="http://www.w3.org/2000/svg">
<path d="M112.095 44.5277L81.5513 15.2677C76.9135 10.6312 70.6294 8.01846 64.0715 8.0001C57.5137 7.98174 51.215 10.5593 46.5513 15.1697L15.9053 44.5277C13.4105 46.9292 11.4248 49.8085 10.0666 52.9939C8.70845 56.1792 8.00561 59.6055 8 63.0684L8 94.335C8.00741 101.14 10.714 107.664 15.5258 112.476C20.3376 117.288 26.8617 119.994 33.6667 120.002H94.3333C101.138 119.994 107.662 117.288 112.474 112.476C117.286 107.664 119.993 101.14 120 94.335V63.0684C119.994 59.6055 119.292 56.1792 117.933 52.9939C116.575 49.8085 114.589 46.9292 112.095 44.5277V44.5277ZM56.3467 25.175C57.3629 24.1678 58.568 23.3711 59.8928 22.8307C61.2177 22.2902 62.6362 22.0167 64.067 22.0258C65.4978 22.0349 66.9127 22.3265 68.2306 22.8837C69.5485 23.4409 70.7433 24.2529 71.7467 25.273L96.8627 49.3344L72.2413 74.5857C70.0188 76.7081 67.0638 77.8924 63.9907 77.8924C60.9175 77.8924 57.9625 76.7081 55.74 74.5857L30.806 49.6424L56.3467 25.175ZM106 94.335C106 97.4292 104.771 100.397 102.583 102.585C100.395 104.773 97.4275 106.002 94.3333 106.002H33.6667C30.5725 106.002 27.605 104.773 25.4171 102.585C23.2292 100.397 22 97.4292 22 94.335V63.0684C22.0033 62.3268 22.0799 61.5875 22.2287 60.861L45.8513 84.4884C50.6897 89.2847 57.23 91.9707 64.0428 91.9593C70.8557 91.9479 77.387 89.2401 82.2093 84.4277L105.655 60.3897C105.875 61.2658 105.991 62.165 106 63.0684V94.335Z" fill="url(#paint0_linear_902_2)"/>
<defs>
<linearGradient id="paint0_linear_902_2" x1="64" y1="120.002" x2="64" y2="8" gradientUnits="userSpaceOnUse">
<stop stop-color="#FDA700"/>
<stop offset="1" stop-color="#FFDE00"/>
</linearGradient>
</defs>
</svg>
