<svg width="128" height="128" viewBox="0 0 128 128" fill="none" xmlns="http://www.w3.org/2000/svg">
<path d="M120 80.3333V94.3333C119.993 101.138 117.286 107.662 112.474 112.474C107.662 117.286 101.138 119.993 94.3333 120H33.6667C26.8617 119.993 20.3376 117.286 15.5258 112.474C10.714 107.662 8.00741 101.138 8 94.3333L8 47.6667C8.00741 40.8617 10.714 34.3376 15.5258 29.5258C20.3376 24.7139 26.8617 22.0074 33.6667 22H71C72.8565 22 74.637 22.7375 75.9497 24.0503C77.2625 25.363 78 27.1435 78 29C78 30.8565 77.2625 32.637 75.9497 33.9497C74.637 35.2625 72.8565 36 71 36H33.6667C31.5501 36.007 29.4756 36.5913 27.6665 37.6899C25.8574 38.7885 24.3823 40.3599 23.4 42.2347L55.7447 74.584C57.9683 76.7043 60.9229 77.8871 63.9953 77.8871C67.0678 77.8871 70.0224 76.7043 72.246 74.584C73.5662 73.3089 75.3344 72.6033 77.1698 72.6193C79.0052 72.6352 80.7609 73.3714 82.0587 74.6693C83.3566 75.9671 84.0928 77.7228 84.1087 79.5582C84.1247 81.3936 83.4191 83.1618 82.144 84.482C77.3156 89.2668 70.793 91.9512 63.9953 91.9512C57.1977 91.9512 50.6751 89.2668 45.8467 84.482L22 60.626V94.3333C22 97.4275 23.2292 100.395 25.4171 102.583C27.605 104.771 30.5725 106 33.6667 106H94.3333C97.4275 106 100.395 104.771 102.583 102.583C104.771 100.395 106 97.4275 106 94.3333V80.3333C106 78.4768 106.737 76.6963 108.05 75.3836C109.363 74.0708 111.143 73.3333 113 73.3333C114.857 73.3333 116.637 74.0708 117.95 75.3836C119.262 76.6963 120 78.4768 120 80.3333V80.3333ZM77.1787 45.3333C76.1049 45.3308 75.0546 45.6472 74.1608 46.2423C73.267 46.8374 72.57 47.6844 72.1582 48.6761C71.7463 49.6677 71.6382 50.7593 71.8474 51.8125C72.0566 52.8657 72.5737 53.8331 73.3333 54.592L90.488 71.7467C91.5063 72.7623 92.8858 73.3327 94.324 73.3327C95.7622 73.3327 97.1417 72.7623 98.16 71.7467L115.333 54.592C116.093 53.8331 116.61 52.8657 116.819 51.8125C117.028 50.7593 116.92 49.6677 116.508 48.6761C116.097 47.6844 115.4 46.8374 114.506 46.2423C113.612 45.6472 112.562 45.3308 111.488 45.3333H101.333V15C101.333 13.1435 100.596 11.363 99.2831 10.0503C97.9703 8.7375 96.1898 8 94.3333 8C92.4768 8 90.6963 8.7375 89.3836 10.0503C88.0708 11.363 87.3333 13.1435 87.3333 15V45.3333H77.1787Z" fill="url(#paint0_linear_902_2)"/>
<defs>
<linearGradient id="paint0_linear_902_2" x1="51.5" y1="68" x2="87" y2="39.5" gradientUnits="userSpaceOnUse">
<stop stop-color="#0072FF"/>
<stop offset="1" stop-color="#00E5A1"/>
</linearGradient>
</defs>
</svg>
