<svg width="128" height="128" viewBox="0 0 128 128" fill="none" xmlns="http://www.w3.org/2000/svg">
<path d="M120 80.3333V94.3333C119.993 101.138 117.286 107.662 112.474 112.474C107.662 117.286 101.138 119.993 94.3333 120H33.6667C26.8617 119.993 20.3376 117.286 15.5258 112.474C10.714 107.662 8.00741 101.138 8 94.3333L8 47.6667C8.00741 40.8617 10.714 34.3376 15.5258 29.5258C20.3376 24.7139 26.8617 22.0074 33.6667 22H43C44.8565 22 46.637 22.7375 47.9497 24.0503C49.2625 25.363 50 27.1435 50 29C50 30.8565 49.2625 32.637 47.9497 33.9497C46.637 35.2625 44.8565 36 43 36H33.6667C31.5501 36.007 29.4756 36.5913 27.6665 37.6899C25.8574 38.7885 24.3823 40.3599 23.4 42.2347L55.7447 74.584C57.555 76.342 59.8772 77.4792 62.376 77.8314C64.8747 78.1837 67.4208 77.7329 69.6467 76.544C71.2705 75.6436 73.1855 75.4251 74.9704 75.9367C76.7553 76.4482 78.2639 77.6478 79.1643 79.2717C80.0647 80.8955 80.2832 82.8105 79.7717 84.5954C79.2601 86.3803 78.0605 87.8889 76.4367 88.7893C71.5573 91.473 65.94 92.5042 60.4256 91.7286C54.9113 90.9529 49.7964 88.4122 45.8467 84.4867L22 60.6307V94.3333C22 97.4275 23.2292 100.395 25.4171 102.583C27.605 104.771 30.5725 106 33.6667 106H94.3333C97.4275 106 100.395 104.771 102.583 102.583C104.771 100.395 106 97.4275 106 94.3333V80.3333C106 78.4768 106.738 76.6963 108.05 75.3836C109.363 74.0708 111.143 73.3333 113 73.3333C114.857 73.3333 116.637 74.0708 117.95 75.3836C119.262 76.6963 120 78.4768 120 80.3333Z" fill="url(#paint0_linear_902_2)"/>
<path d="M68.9773 13.1796C67.1534 12.3979 65.3454 14.3153 66.2329 16.0902L75.937 35.4984C76.2369 36.0982 76.2369 36.804 75.937 37.4038L66.2329 56.8118C65.3454 58.5867 67.1534 60.5043 68.9773 59.7225L118.709 38.409C120.43 37.6713 120.43 35.2309 118.709 34.4931L68.9773 13.1796ZM75.2444 24.5939C74.3569 22.819 76.1647 20.9017 77.9887 21.6833L107.883 34.4931C109.604 35.2308 109.604 37.6714 107.883 38.4091L77.9887 51.2188C76.1647 52.0006 74.3569 50.083 75.2444 48.3081L80.6966 37.4038C80.9965 36.804 80.9965 36.0982 80.6966 35.4984L75.2444 24.5939Z" fill="url(#paint1_linear_902_2)" stroke="url(#paint2_linear_902_2)" stroke-width="8"/>
<defs>
<linearGradient id="paint0_linear_902_2" x1="51.5" y1="74.5" x2="83.1971" y2="45.4177" gradientUnits="userSpaceOnUse">
<stop stop-color="#0072FF"/>
<stop offset="1" stop-color="#00E5A1"/>
</linearGradient>
<linearGradient id="paint1_linear_902_2" x1="93" y1="59.9021" x2="93" y2="13" gradientUnits="userSpaceOnUse">
<stop stop-color="#02AA93"/>
<stop offset="1" stop-color="#67FF80"/>
</linearGradient>
<linearGradient id="paint2_linear_902_2" x1="93" y1="59.9021" x2="93" y2="13" gradientUnits="userSpaceOnUse">
<stop stop-color="#02AA93"/>
<stop offset="1" stop-color="#67FF80"/>
</linearGradient>
</defs>
</svg>
