<svg width="128" height="128" viewBox="0 0 128 128" fill="none" xmlns="http://www.w3.org/2000/svg">
<path d="M120 66.3333V94.3333C119.993 101.138 117.286 107.662 112.474 112.474C107.662 117.286 101.138 119.993 94.3333 120H33.6667C26.8617 119.993 20.3376 117.286 15.5258 112.474C10.714 107.662 8.00741 101.138 8 94.3333L8 47.6667C8.00741 40.8617 10.714 34.3376 15.5258 29.5258C20.3376 24.7139 26.8617 22.0074 33.6667 22H52.3333C54.1898 22 55.9703 22.7375 57.2831 24.0503C58.5958 25.363 59.3333 27.1435 59.3333 29C59.3333 30.8565 58.5958 32.637 57.2831 33.9497C55.9703 35.2625 54.1898 36 52.3333 36H33.6667C31.5501 36.007 29.4756 36.5913 27.6665 37.6899C25.8574 38.7885 24.3823 40.3599 23.4 42.2347L55.7447 74.584C57.9683 76.7043 60.9229 77.8871 63.9953 77.8871C67.0678 77.8871 70.0224 76.7043 72.246 74.584L77.958 68.5173C78.5892 67.8487 79.3459 67.311 80.185 66.9348C81.024 66.5587 81.9289 66.3515 82.848 66.3251C83.7672 66.2986 84.6825 66.4535 85.5417 66.7808C86.401 67.1081 87.1874 67.6014 87.856 68.2327C88.5246 68.8639 89.0623 69.6206 89.4385 70.4597C89.8146 71.2987 90.0218 72.2036 90.0483 73.1227C90.0747 74.0418 89.9198 74.9571 89.5925 75.8164C89.2652 76.6757 88.7719 77.4621 88.1407 78.1307L82.284 84.328C79.9013 86.7304 77.0688 88.6399 73.9481 89.9476C70.8275 91.2553 67.4798 91.9355 64.0963 91.9493C60.7127 91.9632 57.3596 91.3105 54.2283 90.0284C51.097 88.7464 48.2489 86.8601 45.8467 84.4773L22 60.6307V94.3333C22 97.4275 23.2292 100.395 25.4171 102.583C27.605 104.771 30.5725 106 33.6667 106H94.3333C97.4275 106 100.395 104.771 102.583 102.583C104.771 100.395 106 97.4275 106 94.3333V66.3333C106 64.4768 106.737 62.6963 108.05 61.3836C109.363 60.0708 111.143 59.3333 113 59.3333C114.857 59.3333 116.637 60.0708 117.95 61.3836C119.262 62.6963 120 64.4768 120 66.3333V66.3333ZM75.6667 40.6667H87.3333V52.3333C87.3333 54.1898 88.0708 55.9703 89.3836 57.2831C90.6963 58.5958 92.4768 59.3333 94.3333 59.3333C96.1898 59.3333 97.9703 58.5958 99.2831 57.2831C100.596 55.9703 101.333 54.1898 101.333 52.3333V40.6667H113C114.857 40.6667 116.637 39.9292 117.95 38.6164C119.262 37.3037 120 35.5232 120 33.6667C120 31.8102 119.262 30.0297 117.95 28.7169C116.637 27.4042 114.857 26.6667 113 26.6667H101.333V15C101.333 13.1435 100.596 11.363 99.2831 10.0503C97.9703 8.7375 96.1898 8 94.3333 8C92.4768 8 90.6963 8.7375 89.3836 10.0503C88.0708 11.363 87.3333 13.1435 87.3333 15V26.6667H75.6667C73.8101 26.6667 72.0297 27.4042 70.7169 28.7169C69.4042 30.0297 68.6667 31.8102 68.6667 33.6667C68.6667 35.5232 69.4042 37.3037 70.7169 38.6164C72.0297 39.9292 73.8101 40.6667 75.6667 40.6667V40.6667Z" fill="url(#paint0_linear_902_2)"/>
<defs>
<linearGradient id="paint0_linear_902_2" x1="63.9999" y1="120" x2="63.9999" y2="7.99999" gradientUnits="userSpaceOnUse">
<stop stop-color="#02AA93"/>
<stop offset="1" stop-color="#67FF80"/>
</linearGradient>
</defs>
</svg>
