<svg width="128" height="128" viewBox="0 0 128 128" fill="none" xmlns="http://www.w3.org/2000/svg">
<path opacity="0.4" d="M34.3486 69.3877C31.4583 69.3877 29.1186 71.7622 29.1186 74.6955L27.6768 100.336C27.6768 104.074 30.6653 107.101 34.3486 107.101C38.0318 107.101 41.0138 104.074 41.0138 100.336L39.5785 74.6955C39.5785 71.7622 37.2388 69.3877 34.3486 69.3877" fill="url(#paint0_linear_905_67)"/>
<path d="M41.4901 17.7713C41.4901 17.7713 39.9892 16.2282 39.0586 15.5564C37.7085 14.5188 36.0438 14 34.3857 14C32.5244 14 30.7942 14.5853 29.3851 15.6894C29.1295 15.9488 28.0416 16.9266 27.1437 17.8378C21.5074 23.1655 12.2862 37.0735 9.46806 44.3567C9.0224 45.4608 8.05898 48.2544 8 49.7509C8 51.1743 8.31458 52.5445 8.95686 53.8415C9.85473 55.4644 11.2638 56.7681 12.9285 57.4797C14.082 57.9387 17.5358 58.6504 17.6014 58.6504C21.3829 59.3687 27.5304 59.7545 34.3202 59.7545C40.7888 59.7545 46.6807 59.3687 50.5212 58.7834C50.5868 58.7169 54.873 58.0052 56.3476 57.2203C59.0347 55.7903 60.7059 52.9968 60.7059 50.0103V49.7509C60.6403 47.8021 58.9691 43.7048 58.9101 43.7048C56.092 36.8141 47.3164 23.232 41.4901 17.7713" fill="url(#paint1_linear_905_67)"/>
<path opacity="0.4" d="M93.6513 59.414C96.5415 59.414 98.8812 57.0395 98.8812 54.1062L100.317 28.4647C100.317 24.7266 97.3345 21.7002 93.6513 21.7002C89.968 21.7002 86.9795 24.7266 86.9795 28.4647L88.4213 54.1062C88.4213 57.0395 90.7611 59.414 93.6513 59.414" fill="url(#paint2_linear_905_67)"/>
<path d="M119.041 74.9591C118.143 73.3361 116.734 72.0391 115.069 71.3207C113.916 70.8618 110.456 70.15 110.397 70.15C106.615 69.4317 100.467 69.0459 93.6777 69.0459C87.2091 69.0459 81.3172 69.4317 77.4766 70.017C77.4111 70.0835 73.1249 70.8019 71.6503 71.5801C68.9567 73.0102 67.292 75.8038 67.292 78.797V79.0564C67.3575 81.0052 69.0222 85.0959 69.0877 85.0959C71.9059 91.9868 80.6749 105.576 86.5078 111.03C86.5078 111.03 88.0086 112.573 88.9393 113.238C90.2828 114.283 91.9475 114.801 93.6187 114.801C95.4735 114.801 97.1971 114.216 98.6127 113.112C98.8683 112.852 99.9563 111.875 100.854 110.97C106.484 105.636 115.712 91.7274 118.523 84.4507C118.975 83.3466 119.939 80.5463 119.998 79.0564C119.998 77.6263 119.683 76.2561 119.041 74.9591" fill="url(#paint3_linear_905_67)"/>
<defs>
<linearGradient id="paint0_linear_905_67" x1="34.3453" y1="107.101" x2="34.3453" y2="69.3877" gradientUnits="userSpaceOnUse">
<stop stop-color="#02AA93"/>
<stop offset="1" stop-color="#67FF80"/>
</linearGradient>
<linearGradient id="paint1_linear_905_67" x1="34.3529" y1="59.7545" x2="34.3529" y2="14" gradientUnits="userSpaceOnUse">
<stop stop-color="#02AA93"/>
<stop offset="1" stop-color="#67FF80"/>
</linearGradient>
<linearGradient id="paint2_linear_905_67" x1="93.648" y1="59.414" x2="93.648" y2="21.7002" gradientUnits="userSpaceOnUse">
<stop stop-color="#02AA93"/>
<stop offset="1" stop-color="#67FF80"/>
</linearGradient>
<linearGradient id="paint3_linear_905_67" x1="93.6449" y1="114.801" x2="93.6449" y2="69.0459" gradientUnits="userSpaceOnUse">
<stop stop-color="#02AA93"/>
<stop offset="1" stop-color="#67FF80"/>
</linearGradient>
</defs>
</svg>
