<svg width="128" height="128" viewBox="0 0 128 128" fill="none" xmlns="http://www.w3.org/2000/svg">
<path d="M120 80.3333V94.3333C119.993 101.138 117.286 107.662 112.474 112.474C107.662 117.286 101.138 119.993 94.3333 120H33.6667C26.8617 119.993 20.3376 117.286 15.5258 112.474C10.714 107.662 8.00741 101.138 8 94.3333L8 47.6667C8.00741 40.8617 10.714 34.3376 15.5258 29.5258C20.3376 24.7139 26.8617 22.0074 33.6667 22H43C44.8565 22 46.637 22.7375 47.9497 24.0503C49.2625 25.363 50 27.1435 50 29C50 30.8565 49.2625 32.637 47.9497 33.9497C46.637 35.2625 44.8565 36 43 36H33.6667C31.5501 36.007 29.4756 36.5913 27.6665 37.6899C25.8574 38.7885 24.3823 40.3599 23.4 42.2347L55.7447 74.584C57.5551 76.3419 59.8772 77.4792 62.376 77.8314C64.8747 78.1837 67.4208 77.7329 69.6467 76.544C71.2705 75.6436 73.1855 75.4251 74.9704 75.9367C76.7553 76.4482 78.2639 77.6478 79.1643 79.2717C80.0647 80.8955 80.2832 82.8105 79.7717 84.5954C79.2601 86.3803 78.0605 87.8889 76.4367 88.7893C71.5573 91.473 65.94 92.5042 60.4256 91.7286C54.9113 90.9529 49.7964 88.4122 45.8467 84.4867L22 60.6307V94.3333C22 97.4275 23.2292 100.395 25.4171 102.583C27.605 104.771 30.5725 106 33.6667 106H94.3333C97.4275 106 100.395 104.771 102.583 102.583C104.771 100.395 106 97.4275 106 94.3333V80.3333C106 78.4768 106.737 76.6963 108.05 75.3836C109.363 74.0708 111.143 73.3333 113 73.3333C114.857 73.3333 116.637 74.0708 117.95 75.3836C119.262 76.6963 120 78.4768 120 80.3333V80.3333ZM59.3333 38.3333C59.3432 30.2915 62.5422 22.5818 68.2287 16.8953C73.9151 11.2089 81.6248 8.00988 89.6667 8C129.8 9.42333 129.8 67.2667 89.6667 68.6667C81.6248 68.6568 73.9151 65.4578 68.2287 59.7713C62.5422 54.0849 59.3432 46.3752 59.3333 38.3333V38.3333ZM106 38.3333C105.981 36.4788 105.643 34.6413 105.001 32.9013L84.2347 53.668C86.6924 54.5347 89.3219 54.8008 91.9034 54.4439C94.4849 54.0871 96.9436 53.1176 99.0741 51.6167C101.204 50.1157 102.945 48.1267 104.15 45.8158C105.355 43.505 105.989 40.9394 106 38.3333V38.3333ZM73.3333 38.3333C73.3521 40.1879 73.6899 42.0254 74.332 43.7653L95.0987 22.9987C92.6409 22.1319 90.0115 21.8659 87.4299 22.2227C84.8484 22.5796 82.3897 23.549 80.2593 25.05C78.1288 26.551 76.3885 28.54 75.1836 30.8508C73.9788 33.1617 73.3443 35.7273 73.3333 38.3333V38.3333Z" fill="url(#paint0_linear_902_2)"/>
<defs>
<linearGradient id="paint0_linear_902_2" x1="103.5" y1="37.5" x2="23.038" y2="102.474" gradientUnits="userSpaceOnUse">
<stop stop-color="#F50259"/>
<stop offset="1" stop-color="#FFBB37"/>
</linearGradient>
</defs>
</svg>
