<svg width="24" height="24" viewBox="0 0 24 24" fill="none" xmlns="http://www.w3.org/2000/svg">
<path d="M10.9163 15.0605L11.6028 15.187L10.9163 15.0595V15.0605ZM16.5107 19.2688L17.1963 19.1395L16.5107 19.2698V19.2688ZM8.15907 15.706L7.47442 15.5767L8.16 15.707L8.15907 15.706ZM3.39535 12C3.39535 9.71791 4.30191 7.52927 5.91559 5.91559C7.52927 4.30191 9.71791 3.39535 12 3.39535V2C6.47628 2 2 6.47628 2 12H3.39535ZM7.07814 19.0484C4.85116 17.4902 3.39535 14.9181 3.39535 12H2C2 15.3953 3.69767 18.386 6.27907 20.1916L7.07814 19.0484ZM7.47442 15.5767L6.80372 19.1395L8.17488 19.3981L8.84465 15.8353L7.47442 15.5767ZM6.18605 12C6.18605 13.3898 6.67628 14.6651 7.4893 15.6633L8.57023 14.7823C7.92882 13.9971 7.57938 13.0139 7.5814 12H6.18605ZM12 6.18605C10.458 6.18605 8.97924 6.79859 7.88891 7.88891C6.79859 8.97924 6.18605 10.458 6.18605 12H7.5814C7.5814 10.8281 8.04693 9.70422 8.87557 8.87557C9.70422 8.04693 10.8281 7.5814 12 7.5814V6.18605ZM17.814 12C17.814 10.458 17.2014 8.97924 16.1111 7.88891C15.0207 6.79859 13.542 6.18605 12 6.18605V7.5814C13.1719 7.5814 14.2958 8.04693 15.1245 8.87557C15.9531 9.70422 16.4186 10.8281 16.4186 12H17.814ZM16.5116 15.6633C17.3557 14.6292 17.8159 13.3349 17.814 12H16.4186C16.4204 13.0136 16.071 13.9965 15.4298 14.7814L16.5116 15.6633ZM17.1963 19.1395L16.5256 15.5767L15.1544 15.8353L15.8242 19.3981L17.1963 19.1405V19.1395ZM20.6047 12C20.6047 14.9181 19.1488 17.4902 16.9219 19.0484L17.7219 20.1926C20.3033 18.3851 22 15.3953 22 12H20.6047ZM12 3.39535C14.2821 3.39535 16.4707 4.30191 18.0844 5.91559C19.698 7.52927 20.6047 9.71791 20.6047 12H22C22 6.47628 17.5237 2 12 2V3.39535ZM15.4884 12C15.4884 11.0748 15.1208 10.1875 14.4667 9.53335C13.8125 8.87915 12.9252 8.51163 12 8.51163V9.90698C12.5551 9.90698 13.0874 10.1275 13.48 10.52C13.8725 10.9126 14.093 11.4449 14.093 12H15.4884ZM13.7721 15.0028C14.2949 14.6951 14.7282 14.2561 15.0292 13.7294C15.3302 13.2028 15.4885 12.6066 15.4884 12H14.093C14.093 12.7656 13.6809 13.4363 13.0623 13.8009L13.7721 15.0028ZM14.7795 20.386L13.7702 14.933L12.3981 15.187L13.4074 20.64L14.7795 20.386ZM12 22C12.6186 22 13.2186 21.9377 13.8 21.8298L13.5442 20.4586C13.0351 20.5548 12.5181 20.6036 12 20.6047V22ZM10.1981 21.8288C10.7795 21.9377 11.3805 22 12 22V20.6047C11.4818 20.6034 10.9648 20.554 10.4558 20.4567L10.1981 21.8288ZM10.2307 14.933L9.2214 20.3851L10.5935 20.6391L11.6028 15.187L10.2307 14.933ZM8.51163 12C8.51163 13.2809 9.20372 14.3981 10.2288 15.0028L10.9377 13.8009C10.6238 13.6166 10.3636 13.3534 10.1828 13.0375C10.002 12.7217 9.90694 12.364 9.90698 12H8.51163ZM12 8.51163C11.0748 8.51163 10.1875 8.87915 9.53335 9.53335C8.87915 10.1875 8.51163 11.0748 8.51163 12H9.90698C9.90698 11.4449 10.1275 10.9126 10.52 10.52C10.9126 10.1275 11.4449 9.90698 12 9.90698V8.51163ZM11.6028 15.187C11.7163 14.5712 11.3619 14.0521 10.9377 13.8009L10.2288 15.0028C10.2322 15.0049 10.2353 15.0073 10.2381 15.0102C10.2409 15.013 10.24 15.013 10.2381 15.0093C10.2339 15.0005 10.2311 14.9911 10.2298 14.9814C10.227 14.9654 10.2279 14.949 10.2307 14.933L11.6028 15.187ZM10.4558 20.4567C10.5665 20.4781 10.6047 20.5767 10.5935 20.6391L9.2214 20.3851C9.1014 21.0307 9.50512 21.6986 10.1981 21.8288L10.4558 20.4567ZM15.8242 19.3981C15.9805 20.2279 16.9526 20.7302 17.7228 20.1916L16.9219 19.0484C16.9486 19.0306 16.9803 19.0197 17.0122 19.0166C17.0442 19.0135 17.0764 19.0183 17.106 19.0307C17.1544 19.0521 17.1879 19.0958 17.1963 19.1395L15.8242 19.3981ZM8.84558 15.8353C8.92 15.4419 8.79814 15.0605 8.57023 14.7814L7.4893 15.6633C7.48279 15.6558 7.46512 15.626 7.47442 15.5767L8.84558 15.8353ZM13.0623 13.8009C12.6381 14.0521 12.2837 14.5712 12.3981 15.187L13.7702 14.933C13.7731 14.9493 13.7731 14.966 13.7702 14.9823C13.7688 14.9917 13.766 15.0007 13.7619 15.0093C13.76 15.013 13.7591 15.013 13.7619 15.0102C13.7647 15.0073 13.7687 15.0048 13.7721 15.0028L13.0623 13.8009ZM15.4298 14.7823C15.2019 15.0614 15.0809 15.4419 15.1544 15.8353L16.5256 15.5767C16.5349 15.627 16.5181 15.6558 16.5116 15.6633L15.4298 14.7823ZM13.4074 20.64C13.4019 20.5979 13.413 20.5553 13.4386 20.5213C13.4643 20.4873 13.5021 20.4648 13.5442 20.4586L13.8 21.8298C14.493 21.7005 14.8986 21.0326 14.7795 20.386L13.4074 20.64ZM6.27907 20.1916C7.04837 20.7302 8.01767 20.227 8.17488 19.3981L6.80372 19.1405C6.80887 19.1163 6.81976 19.0937 6.83546 19.0746C6.85116 19.0554 6.87123 19.0405 6.89395 19.0307C6.9238 19.0183 6.95624 19.0136 6.98839 19.0168C7.02053 19.02 7.05137 19.0303 7.07814 19.0484L6.27907 20.1916Z" fill="url(#paint0_linear_911_26)"/>
<path d="M11.6028 15.187L10.9163 15.0605V15.0595L11.6028 15.187ZM11.6028 15.187L10.5935 20.6391M11.6028 15.187L10.2307 14.933M11.6028 15.187C11.7163 14.5712 11.3619 14.0521 10.9377 13.8009M10.5833 14.4019L10.9377 13.8009M10.9377 13.8009L10.2288 15.0028M10.9377 13.8009C10.6238 13.6166 10.3636 13.3534 10.1828 13.0375C10.002 12.7217 9.90694 12.364 9.90698 12M10.3274 21.1433L10.4558 20.4567M10.4558 20.4567C10.9648 20.554 11.4818 20.6034 12 20.6047M10.4558 20.4567L10.1981 21.8288M10.4558 20.4567C10.5665 20.4781 10.6047 20.5767 10.5935 20.6391M9.90698 20.5126L10.5935 20.6391M10.5935 20.6391L9.2214 20.3851M17.1963 19.1395L16.5107 19.2688V19.2698L17.1963 19.1395ZM17.1963 19.1395L16.5256 15.5767M17.1963 19.1395V19.1405L15.8242 19.3981M17.1963 19.1395C17.1879 19.0958 17.1544 19.0521 17.106 19.0307C17.0764 19.0183 17.0442 19.0135 17.0122 19.0166C16.9803 19.0197 16.9486 19.0306 16.9219 19.0484M17.1963 19.1395L15.8242 19.3981M17.3219 19.6205L16.9219 19.0484M16.9219 19.0484C19.1488 17.4902 20.6047 14.9181 20.6047 12M16.9219 19.0484L17.7219 20.1926C20.3033 18.3851 22 15.3953 22 12M16.9219 19.0484L17.7228 20.1916C16.9526 20.7302 15.9805 20.2279 15.8242 19.3981M7.47442 15.5767L8.15907 15.706L8.16 15.707L7.47442 15.5767ZM7.47442 15.5767L6.80372 19.1395L8.17488 19.3981M7.47442 15.5767L8.84465 15.8353L8.17488 19.3981M7.47442 15.5767C7.46512 15.626 7.48279 15.6558 7.4893 15.6633M7.47442 15.5767L8.84558 15.8353C8.92 15.4419 8.79814 15.0605 8.57023 14.7814L7.4893 15.6633M8.02977 15.2223L7.4893 15.6633M7.4893 15.6633C6.67628 14.6651 6.18605 13.3898 6.18605 12M7.4893 15.6633L8.57023 14.7823C7.92882 13.9971 7.57938 13.0139 7.5814 12M13.4167 14.4019L13.7721 15.0028M13.7721 15.0028C14.2949 14.6951 14.7282 14.2561 15.0292 13.7294C15.3302 13.2028 15.4885 12.6066 15.4884 12M13.7721 15.0028L13.0623 13.8009M13.7721 15.0028C13.7687 15.0048 13.7647 15.0073 13.7619 15.0102C13.7591 15.013 13.76 15.013 13.7619 15.0093C13.766 15.0007 13.7688 14.9917 13.7702 14.9823C13.7731 14.966 13.7731 14.9493 13.7702 14.933M13.0837 15.0595L13.7702 14.933M13.7702 14.933L14.7795 20.386M13.7702 14.933L12.3981 15.187M15.9702 15.2223L15.4298 14.7823M15.4298 14.7823C15.2019 15.0614 15.0809 15.4419 15.1544 15.8353M15.4298 14.7823L16.5116 15.6633M15.84 15.706L16.5256 15.5767M16.5256 15.5767L15.1544 15.8353M16.5256 15.5767C16.5349 15.627 16.5181 15.6558 16.5116 15.6633M14.093 20.5126L13.4074 20.64M13.4074 20.64L12.3981 15.187M13.4074 20.64L14.7795 20.386M13.4074 20.64C13.4019 20.5979 13.413 20.5553 13.4386 20.5213C13.4643 20.4873 13.5021 20.4648 13.5442 20.4586M13.6716 21.1442L13.8 21.8298M13.8 21.8298C13.2186 21.9377 12.6186 22 12 22M13.8 21.8298L13.5442 20.4586M13.8 21.8298C14.493 21.7005 14.8986 21.0326 14.7795 20.386M6.67907 19.6205L6.27907 20.1916M6.27907 20.1916C3.69767 18.386 2 15.3953 2 12M6.27907 20.1916L7.07814 19.0484M6.27907 20.1916C7.04837 20.7302 8.01767 20.227 8.17488 19.3981M3.39535 12C3.39535 9.71791 4.30191 7.52927 5.91559 5.91559C7.52927 4.30191 9.71791 3.39535 12 3.39535M3.39535 12H2M3.39535 12C3.39535 14.9181 4.85116 17.4902 7.07814 19.0484M12 3.39535V2M12 3.39535C14.2821 3.39535 16.4707 4.30191 18.0844 5.91559C19.698 7.52927 20.6047 9.71791 20.6047 12M12 2C6.47628 2 2 6.47628 2 12M12 2C17.5237 2 22 6.47628 22 12M7.07814 19.0484C7.05137 19.0303 7.02053 19.02 6.98839 19.0168C6.95624 19.0136 6.9238 19.0183 6.89395 19.0307C6.87123 19.0405 6.85116 19.0554 6.83546 19.0746C6.81976 19.0937 6.80887 19.1163 6.80372 19.1405L8.17488 19.3981M6.18605 12H7.5814M6.18605 12C6.18605 10.458 6.79859 8.97924 7.88891 7.88891C8.97924 6.79859 10.458 6.18605 12 6.18605M7.5814 12C7.5814 10.8281 8.04693 9.70422 8.87557 8.87557C9.70422 8.04693 10.8281 7.5814 12 7.5814M12 6.18605V7.5814M12 6.18605C13.542 6.18605 15.0207 6.79859 16.1111 7.88891C17.2014 8.97924 17.814 10.458 17.814 12M12 7.5814C13.1719 7.5814 14.2958 8.04693 15.1245 8.87557C15.9531 9.70422 16.4186 10.8281 16.4186 12M17.814 12H16.4186M17.814 12C17.8159 13.3349 17.3557 14.6292 16.5116 15.6633M16.4186 12C16.4204 13.0136 16.071 13.9965 15.4298 14.7814L16.5116 15.6633M15.1544 15.8353L15.8242 19.3981M20.6047 12H22M15.4884 12C15.4884 11.0748 15.1208 10.1875 14.4667 9.53335C13.8125 8.87915 12.9252 8.51163 12 8.51163M15.4884 12H14.093M12 8.51163V9.90698M12 8.51163C11.0748 8.51163 10.1875 8.87915 9.53335 9.53335C8.87915 10.1875 8.51163 11.0748 8.51163 12M12 9.90698C12.5551 9.90698 13.0874 10.1275 13.48 10.52C13.8725 10.9126 14.093 11.4449 14.093 12M12 9.90698C11.4449 9.90698 10.9126 10.1275 10.52 10.52C10.1275 10.9126 9.90698 11.4449 9.90698 12M14.093 12C14.093 12.7656 13.6809 13.4363 13.0623 13.8009M13.0623 13.8009C12.6381 14.0521 12.2837 14.5712 12.3981 15.187M12 22V20.6047M12 22C11.3805 22 10.7795 21.9377 10.1981 21.8288M13.5442 20.4586C13.0351 20.5548 12.5181 20.6036 12 20.6047M10.1981 21.8288C9.50512 21.6986 9.1014 21.0307 9.2214 20.3851M10.2307 14.933L9.2214 20.3851M10.2307 14.933C10.2279 14.949 10.227 14.9654 10.2298 14.9814C10.2311 14.9911 10.2339 15.0005 10.2381 15.0093C10.24 15.013 10.2409 15.013 10.2381 15.0102C10.2353 15.0073 10.2322 15.0049 10.2288 15.0028M8.51163 12C8.51163 13.2809 9.20372 14.3981 10.2288 15.0028M8.51163 12H9.90698" stroke="url(#paint1_linear_911_26)" stroke-width="0.6"/>
<defs>
<linearGradient id="paint0_linear_911_26" x1="12" y1="22" x2="12" y2="2" gradientUnits="userSpaceOnUse">
<stop stop-color="#5570FF"/>
<stop offset="1" stop-color="#4DD3FF"/>
</linearGradient>
<linearGradient id="paint1_linear_911_26" x1="12" y1="22" x2="12" y2="2" gradientUnits="userSpaceOnUse">
<stop stop-color="#5570FF"/>
<stop offset="1" stop-color="#4DD3FF"/>
</linearGradient>
</defs>
</svg>
