<svg width="16" height="16" viewBox="0 0 16 16" fill="none" xmlns="http://www.w3.org/2000/svg">
<path d="M4.9375 4C2.76286 4 1 5.76286 1 7.9375C1 10.1121 2.76286 11.875 4.9375 11.875C6.36548 11.8728 7.65988 11.1008 8.35072 9.89139C8.56069 9.52379 8.92715 9.24966 9.3505 9.24915L10.6245 9.24763C11.1078 9.24705 11.5 9.63874 11.5 10.1221V10.1221C11.5 10.6051 11.8915 10.9966 12.3745 10.9966H13.25C13.7332 10.9966 14.125 10.6048 14.125 10.1216V9.68066C14.125 9.43931 14.3212 9.24393 14.5625 9.24487V9.24487C14.8038 9.24581 15 9.05043 15 8.80908V7.62212C15 7.06962 14.552 6.62182 13.9995 6.62212L9.3518 6.62462C8.92782 6.62485 8.56049 6.35056 8.35008 5.98247C7.65908 4.77365 6.36504 4.00202 4.9375 4ZM4.9375 6.625C5.66238 6.625 6.25 7.21262 6.25 7.9375C6.25 8.66238 5.66238 9.25 4.9375 9.25C4.21262 9.25 3.625 8.66238 3.625 7.9375C3.625 7.21262 4.21262 6.625 4.9375 6.625Z" fill="url(#paint0_linear_905_61)"/>
<defs>
<linearGradient id="paint0_linear_905_61" x1="3.5375" y1="10.9453" x2="10.0658" y2="0.818989" gradientUnits="userSpaceOnUse">
<stop stop-color="#FE0844"/>
<stop offset="1" stop-color="#FEB302"/>
</linearGradient>
</defs>
</svg>
