<svg width="64" height="64" viewBox="0 0 64 64" fill="none" xmlns="http://www.w3.org/2000/svg">
<path fill-rule="evenodd" clip-rule="evenodd" d="M19.9851 59.3011C18.2037 59.2932 16.4706 58.7212 15.0345 57.6672C13.5668 56.6347 12.4716 55.1561 11.9119 53.4511C11.3521 51.7462 11.3577 49.9062 11.9278 48.2047L14.2138 41.1336C14.4793 40.3123 14.188 39.4134 13.4912 38.9039L7.4696 34.5011C6.02815 33.4479 4.95674 31.9658 4.40865 30.2669C3.86056 28.5679 3.86388 26.7391 4.41814 25.0421C4.9724 23.3452 6.0492 21.867 7.49447 20.8191C8.93974 19.7712 10.6794 19.2072 12.4646 19.208H19.8053C20.6746 19.208 21.4443 18.6465 21.7098 17.8188L23.9368 10.8752C24.4853 9.16877 25.5612 7.6805 27.0096 6.62469C28.458 5.56887 30.2041 5 31.9965 5C33.7889 5 35.535 5.56887 36.9834 6.62469C38.4318 7.6805 39.5077 9.16877 40.0562 10.8752L42.2916 17.8207C42.5577 18.6474 43.3269 19.208 44.1954 19.208H51.5377C53.3227 19.2077 55.0621 19.772 56.507 20.8201C57.9518 21.8682 59.0283 23.3464 59.5822 25.0432C60.1362 26.7401 60.1393 28.5687 59.5912 30.2674C59.043 31.9662 57.9717 33.4481 56.5304 34.5011L50.5108 38.9039C49.8142 39.4134 49.523 40.3122 49.7885 41.1334L52.0746 48.2047C52.6252 49.9086 52.6211 51.7433 52.0631 53.4448C51.505 55.1463 50.4216 56.6269 48.9688 57.6737C47.5159 58.7206 45.7685 59.2796 43.9779 59.2705C42.1872 59.2613 40.4456 58.6844 39.0035 57.6228L33.1863 53.3452C32.4813 52.8268 31.5211 52.8269 30.8163 53.3455L24.9988 57.6252C23.5499 58.7058 21.7926 59.2932 19.9851 59.3011ZM39.583 52.7865C40.8554 52.7808 42.0934 52.3723 43.1192 51.6194C44.1675 50.8819 44.9498 49.8258 45.3496 48.608C45.7495 47.3902 45.7455 46.0758 45.3383 44.8605L43.8325 40.2029C43.567 39.3816 43.8583 38.4826 44.5551 37.9732L48.5227 35.0722C49.5523 34.32 50.3176 33.2613 50.7091 32.0478C51.1006 30.8342 51.0982 29.5279 50.7023 28.3158C50.3064 27.1037 49.5373 26.0478 48.5049 25.2993C47.4726 24.5508 46.23 24.148 44.9548 24.1485H40.1283C39.259 24.1485 38.4893 23.5871 38.2238 22.7593L36.7604 18.1965C36.3686 16.9777 35.6001 15.9146 34.5655 15.1605C34.0743 14.8024 33.535 14.5227 32.9671 14.3277C31.9224 13.969 31.0034 14.8953 31.0033 15.9998L31.0002 46.8981C31.0002 47.5342 31.3027 48.1324 31.8151 48.5094L36.0018 51.5894C37.0367 52.3613 38.292 52.7809 39.583 52.7865Z" fill="url(#paint0_linear_906_20)"/>
<defs>
<linearGradient id="paint0_linear_906_20" x1="32" y1="59.3011" x2="32" y2="5" gradientUnits="userSpaceOnUse">
<stop stop-color="#FFA800"/>
<stop offset="1" stop-color="#FFF737"/>
</linearGradient>
</defs>
</svg>
