<svg width="64" height="64" viewBox="0 0 64 64" fill="none" xmlns="http://www.w3.org/2000/svg">
<path d="M15.0345 57.6672C16.4706 58.7212 18.2037 59.2932 19.9851 59.3011C21.7926 59.2932 23.5499 58.7058 24.9988 57.6252L30.8163 53.3455C31.5211 52.8269 32.4813 52.8268 33.1863 53.3452L39.0035 57.6228C40.4456 58.6844 42.1872 59.2613 43.9779 59.2705C45.7685 59.2796 47.5159 58.7206 48.9688 57.6737C50.4216 56.6269 51.505 55.1463 52.0631 53.4448C52.6211 51.7433 52.6252 49.9086 52.0746 48.2047L49.7885 41.1334C49.523 40.3122 49.8142 39.4134 50.5108 38.9039L56.5304 34.5011C57.9717 33.4481 59.043 31.9662 59.5912 30.2674C60.1393 28.5687 60.1362 26.7401 59.5822 25.0432C59.0283 23.3464 57.9518 21.8682 56.507 20.8201C55.0621 19.772 53.3227 19.2077 51.5377 19.208H44.1954C43.3269 19.208 42.5577 18.6474 42.2916 17.8207L40.0562 10.8752C39.5077 9.16877 38.4318 7.6805 36.9834 6.62469C35.535 5.56887 33.7889 5 31.9965 5C30.2041 5 28.458 5.56887 27.0096 6.62469C25.5612 7.6805 24.4853 9.16877 23.9368 10.8752L21.7098 17.8188C21.4443 18.6465 20.6746 19.208 19.8053 19.208H12.4646C10.6794 19.2072 8.93974 19.7712 7.49447 20.8191C6.0492 21.867 4.9724 23.3452 4.41814 25.0421C3.86388 26.7391 3.86056 28.5679 4.40865 30.2669C4.95674 31.9658 6.02815 33.4479 7.4696 34.5011L13.4912 38.9039C14.188 39.4134 14.4793 40.3123 14.2138 41.1336L11.9278 48.2047C11.3577 49.9062 11.3521 51.7462 11.9119 53.4511C12.4716 55.1561 13.5668 56.6347 15.0345 57.6672Z" fill="url(#paint0_linear_906_20)"/>
<defs>
<linearGradient id="paint0_linear_906_20" x1="32" y1="59.3011" x2="32" y2="5" gradientUnits="userSpaceOnUse">
<stop stop-color="#FFA800"/>
<stop offset="1" stop-color="#FFF737"/>
</linearGradient>
</defs>
</svg>
