<svg width="128" height="128" viewBox="0 0 128 128" fill="none" xmlns="http://www.w3.org/2000/svg">
<path fill-rule="evenodd" clip-rule="evenodd" d="M87.7066 98.5239L80.1557 90.973C77.9102 88.7275 78.1702 84.8268 80.7365 82.2605C83.3028 79.6942 87.2036 79.4341 89.4491 81.6796L97 89.2305L104.55 81.6796C106.796 79.4341 110.697 79.6942 113.263 82.2605C115.829 84.8268 116.089 88.7275 113.844 90.973L106.293 98.5239L113.844 106.075C116.089 108.32 115.829 112.221 113.263 114.787C110.697 117.354 106.796 117.614 104.55 115.368L97 107.817L89.4491 115.368C87.2036 117.614 83.3028 117.354 80.7365 114.787C78.1702 112.221 77.9102 108.32 80.1557 106.075L87.7066 98.5239Z" fill="url(#paint0_linear_904_67)" stroke="url(#paint1_linear_904_67)" stroke-width="4"/>
<path d="M59.1222 87.9577L49.3425 97.202C40.3395 106.076 25.7554 106.076 16.7522 97.202C7.74907 88.328 7.74945 73.9532 16.7522 65.0791L34.6796 47.4088C37.6537 44.4774 41.2385 42.5502 45.0269 41.5462C49.0602 40.4622 53.3377 40.5022 57.3704 41.6669C60.9961 42.6706 64.4179 44.598 67.2697 47.4088C69.2711 49.3816 70.8311 51.6311 71.9355 54.0327C72.7578 55.8208 71.9163 57.947 70.0039 58.4126C66.2304 59.3311 62.0714 58.3465 59.1222 55.4395C55.3337 51.7049 49.5487 51.1431 45.1494 53.7128C44.294 54.1543 43.5201 54.7565 42.8272 55.4395L24.8998 73.1101C20.4188 77.5269 20.4188 84.7547 24.8998 89.1719C29.3809 93.5882 36.7138 93.5882 41.1949 89.1719C46.1745 84.2217 49.1125 81.3149 50.7993 79.653C52.5811 77.8976 54.0975 79.2816 55.7518 81.1576C56.5106 82.018 57.1303 82.7267 57.8034 83.4218C59.1928 84.8562 60.5447 86.556 59.1222 87.9577Z" fill="url(#paint2_linear_904_67)" stroke="url(#paint3_linear_904_67)" stroke-width="4"/>
<path d="M60.8776 26.8998L70.6574 17.6555C79.6603 8.78169 94.2447 8.78131 103.247 17.6555C112.251 26.5295 112.251 40.9043 103.247 49.7785L85.3203 67.4488C82.3462 70.3802 78.7614 72.3073 74.973 73.3113C70.9397 74.3953 66.6622 74.3554 62.6295 73.1908C59.0038 72.187 55.582 70.2596 52.7302 67.4488C50.7287 65.4759 49.1688 63.2264 48.0644 60.825C47.2421 59.0368 48.0836 56.9106 49.996 56.445C53.7694 55.5264 57.9285 56.5112 60.8776 59.4181C64.6662 63.1527 70.4512 63.7144 74.8505 61.1447C75.7059 60.7033 76.4798 60.101 77.1727 59.4181L95.0999 41.7474C99.5809 37.3306 99.5809 30.1029 95.0999 25.6861C90.619 21.2693 83.286 21.2693 78.805 25.6861C73.8254 30.6358 70.8874 33.5427 69.2006 35.2046C67.4188 36.9599 65.9024 35.576 64.2481 33.7C63.4893 32.8395 62.8696 32.1308 62.1964 31.4358C60.807 30.0013 59.4552 28.3016 60.8776 26.8998Z" fill="url(#paint4_linear_904_67)" stroke="url(#paint5_linear_904_67)" stroke-width="4"/>
<defs>
<linearGradient id="paint0_linear_904_67" x1="96.0854" y1="68.0297" x2="97.61" y2="129.018" gradientUnits="userSpaceOnUse">
<stop stop-color="#D800BD"/>
<stop offset="0.408098" stop-color="#F92D7A"/>
<stop offset="0.590073" stop-color="#FF4A52"/>
<stop offset="1" stop-color="#FFB243"/>
</linearGradient>
<linearGradient id="paint1_linear_904_67" x1="96.0854" y1="68.0297" x2="97.61" y2="129.018" gradientUnits="userSpaceOnUse">
<stop stop-color="#D800BD"/>
<stop offset="0.408098" stop-color="#F92D7A"/>
<stop offset="0.590073" stop-color="#FF4A52"/>
<stop offset="1" stop-color="#FFB243"/>
</linearGradient>
<linearGradient id="paint2_linear_904_67" x1="41.5476" y1="103.857" x2="41.5476" y2="40.7622" gradientUnits="userSpaceOnUse">
<stop stop-color="#5570FF"/>
<stop offset="1" stop-color="#4DD3FF"/>
</linearGradient>
<linearGradient id="paint3_linear_904_67" x1="41.5476" y1="103.857" x2="41.5476" y2="40.7622" gradientUnits="userSpaceOnUse">
<stop stop-color="#5570FF"/>
<stop offset="1" stop-color="#4DD3FF"/>
</linearGradient>
<linearGradient id="paint4_linear_904_67" x1="78.4522" y1="11" x2="78.4522" y2="74.0953" gradientUnits="userSpaceOnUse">
<stop stop-color="#5570FF"/>
<stop offset="1" stop-color="#4DD3FF"/>
</linearGradient>
<linearGradient id="paint5_linear_904_67" x1="78.4522" y1="11" x2="78.4522" y2="74.0953" gradientUnits="userSpaceOnUse">
<stop stop-color="#5570FF"/>
<stop offset="1" stop-color="#4DD3FF"/>
</linearGradient>
</defs>
</svg>
