<svg width="64" height="64" viewBox="0 0 64 64" fill="none" xmlns="http://www.w3.org/2000/svg">
<path fill-rule="evenodd" clip-rule="evenodd" d="M45.4846 6.5C45.4846 4.567 43.9176 3 41.9846 3C40.0516 3 38.4846 4.567 38.4846 6.5V6.5C38.4846 6.80596 38.2366 7.05399 37.9306 7.05399H25.3006C24.9947 7.05399 24.7466 6.80596 24.7466 6.5V6.5C24.7466 4.567 23.1796 3 21.2466 3C19.3136 3 17.7466 4.567 17.7466 6.5V6.5C17.7466 6.935 17.4258 7.30137 16.9979 7.37932C14.0855 7.9098 11.4653 9.10508 9.38545 11.0821C6.41744 13.9036 5 17.8891 5 22.4737V45.7061C5 50.3348 6.40672 54.3656 9.361 57.2289C12.2979 60.0754 16.3271 61.3442 20.7481 61.3442H42.4618C46.8764 61.3442 50.9007 60.1041 53.8389 57.2986C56.8018 54.4697 58.2099 50.4795 58.2099 45.9003V22.4793C58.2229 17.8996 56.8218 13.9112 53.8577 11.0855C51.7777 9.10271 49.1526 7.90673 46.2323 7.37732C45.805 7.29987 45.4846 6.93422 45.4846 6.5V6.5ZM37.5904 14.054C38.0843 14.054 38.4846 14.4543 38.4846 14.9482V14.9482C38.4846 16.8812 40.0516 18.4482 41.9846 18.4482C43.9176 18.4482 45.4846 16.8812 45.4846 14.9482V14.9482C45.4846 14.6503 45.7619 14.4292 46.0478 14.5127C47.3251 14.8857 48.3039 15.4622 49.0277 16.1522C50.0787 17.1541 50.8991 18.6872 51.1387 20.9839C51.1971 21.5436 50.7402 22.0088 50.1774 22.0088H13.0383C12.4739 22.0088 12.0165 21.5412 12.0775 20.9802C12.3266 18.6923 13.1521 17.1596 14.2083 16.1556C14.9352 15.4646 15.9142 14.8886 17.1861 14.5154C17.4705 14.4319 17.7466 14.6518 17.7466 14.9482V14.9482C17.7466 16.8812 19.3136 18.4482 21.2466 18.4482C23.1796 18.4482 24.7466 16.8812 24.7466 14.9482V14.9482C24.7466 14.4543 25.147 14.054 25.6408 14.054H37.5904ZM13 29.0088C12.4477 29.0088 12 29.4565 12 30.0088V45.7061C12 48.9186 12.9478 50.9569 14.2328 52.2024C15.5352 53.4647 17.63 54.3442 20.7481 54.3442H42.4618C45.61 54.3442 47.7098 53.4724 49.0049 52.2358C50.2753 51.0228 51.2099 49.041 51.2099 45.9003V30.0088C51.2099 29.4565 50.7622 29.0088 50.2099 29.0088H13Z" fill="url(#paint0_linear_906_20)"/>
<path d="M30.4 35.3714C30.4 34.614 31.0141 34 31.7714 34H32.2287C32.986 34 33.6001 34.614 33.6001 35.3714V39.0286C33.6001 39.7859 34.2139 40.4 34.9715 40.4H38.6286C39.3859 40.4 40 41.0141 40 41.7714V42.2287C40 42.986 39.3859 43.6001 38.6286 43.6001H34.9715C34.2139 43.6001 33.6001 44.2139 33.6001 44.9715V48.6286C33.6001 49.3859 32.986 50 32.2287 50H31.7714C31.0141 50 30.4 49.3859 30.4 48.6286V44.9715C30.4 44.2139 29.7859 43.6001 29.0286 43.6001H25.3714C24.614 43.6001 24 42.986 24 42.2287V41.7714C24 41.0141 24.614 40.4 25.3714 40.4H29.0286C29.7859 40.4 30.4 39.7859 30.4 39.0286V35.3714Z" fill="url(#paint1_linear_906_20)" stroke="url(#paint2_linear_906_20)" stroke-width="3"/>
<defs>
<linearGradient id="paint0_linear_906_20" x1="29.2912" y1="59.7773" x2="36.4965" y2="7.22088" gradientUnits="userSpaceOnUse">
<stop stop-color="#8D01A2"/>
<stop offset="1" stop-color="#FF33DB"/>
</linearGradient>
<linearGradient id="paint1_linear_906_20" x1="32" y1="50" x2="32" y2="34" gradientUnits="userSpaceOnUse">
<stop stop-color="#02AA93"/>
<stop offset="1" stop-color="#67FF80"/>
</linearGradient>
<linearGradient id="paint2_linear_906_20" x1="32" y1="50" x2="32" y2="34" gradientUnits="userSpaceOnUse">
<stop stop-color="#02AA93"/>
<stop offset="1" stop-color="#67FF80"/>
</linearGradient>
</defs>
</svg>
