<svg width="128" height="128" viewBox="0 0 128 128" fill="none" xmlns="http://www.w3.org/2000/svg">
<path d="M53.0153 8.15846C59.2038 7.77741 65.4087 8.22071 71.6138 8.08847C75.3942 7.61405 78.657 10.7327 79.6019 13.9757C80.6874 16.931 80.8484 20.1323 81.7638 23.1232C82.0632 24.1014 82.7032 24.9352 83.5456 25.5155C84.9866 26.5081 86.5303 27.3694 88.0843 28.2116C89.5518 29.0069 91.2874 29.1667 92.8573 28.5996C95.6338 27.5964 98.3877 26.5262 101.274 25.8359C104.455 25.0193 108.292 26.1392 109.961 28.939C112.681 33.1775 115.172 37.5561 117.588 41.9657C118.894 44.7343 120.694 48.1719 118.565 50.995C116.254 54.1679 112.66 56.2064 109.84 58.9368C109.172 59.5831 108.71 60.418 108.574 61.3372C108.344 62.8973 108.382 64.5033 108.42 66.0916C108.445 67.1057 108.684 68.1222 109.307 68.9225C112.082 72.4846 116.972 74.462 118.935 78.6582C120.144 80.7738 119.757 83.3948 118.426 85.3699C115.426 90.3167 112.459 95.2862 109.246 100.108C107.109 103.257 102.49 103.701 99.1782 102.044C96.3098 100.675 92.5625 100.45 90.606 97.7668C88.4778 95.0839 91.0833 90.7363 94.6091 91.0863C95.756 91.1941 96.8463 91.5039 97.9116 91.8957C100.501 92.8477 103.351 92.0665 104.812 89.7264C105.615 88.439 106.403 87.1426 107.192 85.8466C108.679 83.401 108.232 80.2815 106.006 78.4824C102.884 75.9598 99.8271 73.3037 99.1944 69.3182C98.9293 65.7284 98.9604 62.0968 99.3303 58.523C99.3694 58.1453 99.4439 57.7707 99.5784 57.4156C100.789 54.2201 103.531 52.0635 106.243 49.9131C108.353 48.2406 108.801 45.331 107.445 43.0054C106.633 41.6129 105.814 40.2243 105.007 38.8292C103.645 36.4724 100.91 35.2877 98.3621 36.2472C94.1912 37.818 89.9354 39.5044 85.6839 37.2916C81.1718 34.4141 75.0568 32.5709 73.1009 27.2747C72.5914 25.4365 72.1675 23.5744 71.7373 21.7136C71.1239 19.0602 68.7388 17.2418 66.0155 17.2505C64.6935 17.2547 63.3715 17.2561 62.0496 17.2536C59.0033 17.2479 56.5073 19.5223 55.7608 22.4757C55.2844 24.3606 54.6244 26.1978 53.6563 27.9124C51.8565 31.14 48.3308 32.8976 45.1914 34.7797C42.9559 36.0473 40.7041 37.6261 38.0002 37.7505C34.8427 37.9483 31.9647 36.7244 29.0835 35.6366C26.7432 34.753 24.2215 35.7747 22.9077 37.9035C22.1194 39.1806 21.3388 40.4617 20.5507 41.7384C18.9758 44.2896 19.459 47.5961 21.7507 49.5293C23.1595 50.7177 24.5412 51.9317 25.8122 53.2504C28.2942 55.8479 28.738 59.4954 28.5407 62.8551C28.3518 66.2847 28.9682 70.158 26.5437 73.0589C25.1218 74.8348 23.367 76.3167 21.5639 77.7524C19.3593 79.5078 18.7628 82.5481 20.1813 84.9831C20.9676 86.3328 21.7642 87.6777 22.5484 89.0293C23.9511 91.4467 26.7824 92.626 29.3775 91.5885C32.6198 90.2922 35.8813 89.009 39.4549 89.7169C42.5368 90.4716 45.027 92.4779 47.7555 93.9247C50.7224 95.4411 53.5742 97.642 54.5193 100.839C54.9506 102.471 55.3736 104.108 55.7628 105.753C56.4275 108.561 58.8783 110.64 61.7644 110.64C63.214 110.641 64.6641 110.638 66.1144 110.636C68.9058 110.632 70.9796 108.648 71.6098 105.929C71.9485 104.467 72.5801 103.151 74.038 102.347C76.9802 100.527 81.3855 103.094 80.9827 106.407C80.9827 111.465 79.593 118.072 73.8273 119.777C73.4569 119.886 73.071 119.931 72.6849 119.942C66.6298 120.111 60.5625 119.851 54.4997 119.931C53.2051 119.948 51.905 119.61 50.8396 118.874C50.0636 118.338 49.3601 117.728 49.0047 116.86C47.5821 113.201 46.8755 109.362 46.0211 105.557C45.68 104.038 44.7253 102.733 43.3983 101.919C42.08 101.111 40.7521 100.315 39.3998 99.5607C37.9742 98.7649 36.2739 98.6605 34.7412 99.2233C31.8617 100.281 28.9903 101.368 25.9931 102.099C22.7303 102.861 19.0403 101.43 17.4295 98.6139C14.7667 94.3521 12.26 89.9973 9.86024 85.5956C8.46315 82.741 7.13994 79.148 9.37535 76.3409C11.7075 73.685 14.7296 71.6721 17.3638 69.2856C18.5264 68.2324 19.0738 66.6892 19.1363 65.1217C19.188 63.8251 19.2624 62.529 19.1979 61.2399C19.1498 60.2791 18.7776 59.3618 18.1302 58.6503C14.8698 55.0669 9.75265 52.8446 8.28231 48.063C7.35364 45.411 8.89871 42.8212 10.2712 40.5892C12.9668 36.3662 15.4323 32.011 18.2595 27.8657C20.0676 25.2448 23.7084 24.1172 26.8067 25.2293C29.3497 26.193 31.8973 27.1268 34.4594 28.0274C36.1521 28.6224 38.0228 28.4095 39.5815 27.5209C41.225 26.584 42.8716 25.6507 44.3706 24.5178C44.6237 24.3265 44.8605 24.1117 45.0565 23.8621C47.1535 21.1926 46.5494 17.5052 47.6569 14.4502C48.5444 11.8993 49.769 8.57843 53.0153 8.15846Z" fill="url(#paint0_linear_905_46)" stroke="url(#paint1_linear_905_46)" stroke-width="4"/>
<path d="M49.9875 82.256C50.5913 82.6797 51.2842 82.9316 52.002 82.9879C52.7197 83.0442 53.4389 82.9035 54.093 82.5788L82.9967 68.2462C83.752 67.8775 84.3928 67.2807 84.8423 66.5273C85.2917 65.7743 85.5309 64.8966 85.5309 64C85.5309 63.1034 85.2917 62.2258 84.8423 61.4726C84.3928 60.7194 83.752 60.1227 82.9967 59.754L54.093 45.4214C53.4302 45.0936 52.7014 44.9533 51.975 45.0137C51.2485 45.0739 50.548 45.3329 49.9392 45.7661C49.3304 46.1994 48.8332 46.7929 48.4942 47.4908C48.1552 48.1889 47.9855 48.9686 48.001 49.757V78.4223C48.012 79.1893 48.1994 79.9418 48.5462 80.6113C48.8929 81.2802 49.3883 81.8456 49.9875 82.256ZM53.2983 51.4411L78.8251 64.0896L53.2983 76.6663V51.4411Z" fill="url(#paint2_linear_905_46)" stroke="url(#paint3_linear_905_46)" stroke-width="5"/>
<defs>
<linearGradient id="paint0_linear_905_46" x1="15.9759" y1="64" x2="106.598" y2="54.0158" gradientUnits="userSpaceOnUse">
<stop stop-color="#8D01A2"/>
<stop offset="1" stop-color="#FF00D2"/>
</linearGradient>
<linearGradient id="paint1_linear_905_46" x1="15.9759" y1="64" x2="106.598" y2="54.0158" gradientUnits="userSpaceOnUse">
<stop stop-color="#8D01A2"/>
<stop offset="1" stop-color="#FF00D2"/>
</linearGradient>
<linearGradient id="paint2_linear_905_46" x1="50.6808" y1="64" x2="81.1469" y2="60.6749" gradientUnits="userSpaceOnUse">
<stop stop-color="#8D01A2"/>
<stop offset="1" stop-color="#FF00D2"/>
</linearGradient>
<linearGradient id="paint3_linear_905_46" x1="50.6808" y1="64" x2="81.1469" y2="60.6749" gradientUnits="userSpaceOnUse">
<stop stop-color="#8D01A2"/>
<stop offset="1" stop-color="#FF00D2"/>
</linearGradient>
</defs>
</svg>
