<svg width="64" height="64" viewBox="0 0 64 64" fill="none" xmlns="http://www.w3.org/2000/svg">
<path d="M53.025 12.1225L47.0451 6.07754C44.4559 3.47645 40.9401 2.00984 37.27 2H20.7501C13.1596 2.00832 7.00832 8.15949 7 15.75V48.2499C7.00832 55.8405 13.1596 61.9917 20.7501 62H43.2501C50.8405 61.9917 56.9918 55.8405 57 48.25V21.7925C57.0095 18.1696 55.5797 14.6913 53.025 12.1225ZM49.5 48.25C49.5 51.7018 46.7018 54.5 43.2501 54.5H20.7501C17.2983 54.5 14.5001 51.7018 14.5001 48.25V15.75C14.5 12.2982 17.2983 9.5 20.7501 9.5H34.5V19.5C34.5 22.2614 36.7387 24.5 39.5001 24.5H49.5V48.25V48.25Z" fill="url(#paint0_linear_906_20)"/>
<defs>
<linearGradient id="paint0_linear_906_20" x1="32" y1="62" x2="32" y2="2" gradientUnits="userSpaceOnUse">
<stop stop-color="#A93AFF"/>
<stop offset="1" stop-color="#FF81FF"/>
</linearGradient>
</defs>
</svg>
