<svg width="32" height="32" viewBox="0 0 32 32" fill="none" xmlns="http://www.w3.org/2000/svg">
<path d="M17.1261 2C13.3553 2 11.022 4.12971 10.6862 6.7178V6.7178C10.6862 7.46361 9.8649 7.91746 9.23345 7.52062L7.13102 6.19934C6.81453 6.00044 6.40985 6.00974 6.10284 6.22297V6.22297C5.56872 6.59393 5.56872 7.3839 6.10284 7.75486L9.82732 10.3416L10.866 11.063C11.209 11.3012 11.6639 11.3012 12.0069 11.063L13.0455 10.3416L16.7877 7.74258C17.3133 7.37756 17.3133 6.60026 16.7877 6.23524V6.23524C16.4727 6.01648 16.0549 6.01666 15.7402 6.23569L13.9899 7.4536C13.3955 7.86716 12.5815 7.44187 12.5815 6.7178V6.7178C12.5815 4.97229 14.5993 3.68615 17.1258 3.68554C19.6521 3.68615 22.0936 4.97257 22.0583 6.7178V7.14044C22.0583 7.66384 22.4826 8.08813 23.006 8.08813V8.08813C23.5294 8.08813 23.9537 7.66383 23.9537 7.14044V6.71724C23.9537 4.11199 20.8969 2 17.1261 2ZM22.0583 9.77363C19.9648 9.77363 18.2676 11.2829 18.2676 13.1446C18.2676 15.0065 19.9648 16.5157 22.0583 16.5157C24.1519 16.5157 25.8492 15.0065 25.8492 13.1446C25.8492 11.2829 24.1519 9.77363 22.0583 9.77363ZM10.6862 13.1446C10.1884 13.1446 9.69543 13.2318 9.23542 13.4013C8.77556 13.5706 8.35762 13.8191 8.00571 14.1321C7.65364 14.4451 7.37442 14.8166 7.18392 15.2257C6.99343 15.6347 6.89537 16.0731 6.89537 16.5157C6.89537 16.9584 6.99343 17.3968 7.18392 17.8059C7.37442 18.2148 7.65364 18.5864 8.00571 18.8995C8.35762 19.2125 8.77556 19.4608 9.23542 19.6303C9.69543 19.7996 10.1884 19.8868 10.6862 19.8868C11.184 19.8868 11.6769 19.7996 12.1368 19.6303C12.5966 19.4608 13.0145 19.2125 13.3666 18.8995C13.7186 18.5864 13.9979 18.2148 14.1884 17.8059C14.3789 17.3968 14.4769 16.9584 14.4769 16.5157C14.4769 16.0731 14.3789 15.6347 14.1884 15.2257C13.9979 14.8166 13.7186 14.4451 13.3666 14.1321C13.0145 13.8191 12.5966 13.5706 12.1368 13.4013C11.6769 13.2318 11.184 13.1446 10.6862 13.1446ZM22.088 18.2013C19.3995 18.2013 17.1628 19.9113 16.5483 22.2089C16.4659 22.5168 16.5779 22.8364 16.7917 23.0728C17.4827 23.8372 17.9791 24.6329 18.1751 25.6345C18.2812 26.1766 18.7154 26.6289 19.2676 26.6289H22.088H25.5234H26.1896C26.4895 26.6289 26.7785 26.4974 26.9468 26.2491C27.5108 25.4175 27.8137 24.4546 27.8148 23.4685C27.8148 20.5596 25.2519 18.2013 22.088 18.2013ZM21.9955 19.8868C24.0851 19.8868 25.7787 21.3017 25.7787 23.0472C25.778 23.591 25.61 24.1229 25.2939 24.5929C25.1357 24.8281 24.8581 24.9435 24.5746 24.9435H24.2647H21.9955H19.7224V24.9435C19.6946 24.9435 19.6709 24.9236 19.6656 24.8963C19.5281 24.1845 19.1741 23.5333 18.6702 22.9801C18.4347 22.7215 18.2922 22.3701 18.4216 22.0452C18.9211 20.7916 20.3259 19.8868 21.9955 19.8868ZM10.6862 21.5724C9.93941 21.5724 9.20006 21.7087 8.5102 21.9733C7.82026 22.238 7.19343 22.626 6.66543 23.1151C6.13742 23.6043 5.71858 24.1849 5.43283 24.824C5.14707 25.463 5 26.1478 5 26.8396C5.00259 27.8255 5.30374 28.7878 5.86437 29.6187C6.03254 29.8679 6.32207 30 6.62271 30H7.27297H10.6862H14.0993H14.7556C15.057 30 15.3472 29.8672 15.5151 29.6169C16.0729 28.7858 16.3714 27.8243 16.3721 26.8396C16.3721 26.1478 16.2252 25.463 15.9394 24.824C15.6537 24.1849 15.2348 23.6043 14.7069 23.1151C14.1788 22.626 13.552 22.238 12.8621 21.9733C12.1723 21.7087 11.4327 21.5724 10.6862 21.5724ZM10.6862 23.2579C11.6915 23.2579 12.6556 23.6575 13.3666 24.3687C14.0775 25.0799 14.4769 26.0445 14.4769 27.0503C14.4761 27.246 14.4601 27.441 14.4294 27.6335C14.3628 28.0505 13.973 28.3145 13.5507 28.3145H7.82155C7.39926 28.3145 7.00937 28.0505 6.94279 27.6335C6.91206 27.441 6.89615 27.246 6.89537 27.0503C6.89537 26.0445 7.29476 25.0799 8.00571 24.3687C8.71653 23.6575 9.68075 23.2579 10.6862 23.2579Z" fill="url(#paint0_linear_911_32)" stroke="url(#paint1_linear_911_32)"/>
<defs>
<linearGradient id="paint0_linear_911_32" x1="16.4074" y1="30" x2="16.4074" y2="2" gradientUnits="userSpaceOnUse">
<stop stop-color="#FD2E00"/>
<stop offset="1" stop-color="#FF9900"/>
</linearGradient>
<linearGradient id="paint1_linear_911_32" x1="16.4074" y1="30" x2="16.4074" y2="2" gradientUnits="userSpaceOnUse">
<stop stop-color="#FD2E00"/>
<stop offset="1" stop-color="#FF9900"/>
</linearGradient>
</defs>
</svg>
