<svg width="64" height="64" viewBox="0 0 64 64" fill="none" xmlns="http://www.w3.org/2000/svg">
<path fill-rule="evenodd" clip-rule="evenodd" d="M28.3585 42.3585C29.0148 41.7021 29.9051 41.3333 30.8333 41.3333C31.7616 41.3333 32.6518 41.7021 33.3082 42.3585C33.9646 43.0148 34.3333 43.9051 34.3333 44.8333V46.7C34.3296 50.2262 32.9272 53.607 30.4338 56.1004C27.9403 58.5939 24.5596 59.9963 21.0333 60H17.3C13.7738 59.9963 10.393 58.5939 7.89957 56.1004C5.40614 53.607 4.00371 50.2262 4 46.7V17.3C4.00371 13.7738 5.40614 10.393 7.89957 7.89957C10.393 5.40614 13.7738 4.00371 17.3 4H21.0333C24.5596 4.00371 27.9403 5.40614 30.4338 7.89957C32.9272 10.393 34.3296 13.7738 34.3333 17.3V19.1667C34.3333 20.0949 33.9646 20.9852 33.3082 21.6415C32.6518 22.2979 31.7616 22.6667 30.8333 22.6667C29.9051 22.6667 29.0148 22.2979 28.3585 21.6415C27.7021 20.9852 27.3333 20.0949 27.3333 19.1667V17.3C27.3333 15.6291 26.6696 14.0267 25.4881 12.8452C24.3066 11.6637 22.7042 11 21.0333 11H17.3C15.6291 11 14.0267 11.6637 12.8452 12.8452C11.6637 14.0267 11 15.6291 11 17.3V46.7C11 48.3709 11.6637 49.9733 12.8452 51.1548C14.0267 52.3363 15.6291 53 17.3 53H21.0333C22.7042 53 24.3066 52.3363 25.4881 51.1548C26.6696 49.9733 27.3333 48.3709 27.3333 46.7V44.8333C27.3333 43.9051 27.7021 43.0148 28.3585 42.3585ZM45.9423 15.5222L56.643 26.2229C58.1709 27.7569 59.0282 29.8342 59.0269 31.9993C59.0256 34.1644 58.1658 36.2407 56.636 37.7729L45.9353 48.4735C45.2787 49.1298 44.3883 49.4984 43.46 49.4982C42.5317 49.4979 41.6414 49.1289 40.9852 48.4724C40.3289 47.8158 39.9603 46.9254 39.9605 45.997C39.9607 45.0687 40.3297 44.1785 40.9863 43.5222L47.3634 37.1451C47.9941 36.5144 47.546 35.436 46.654 35.438L20.334 35.4979C19.4057 35.4979 18.5155 35.1291 17.8591 34.4727C17.2027 33.8164 16.834 32.9261 16.834 31.9979C16.834 31.0696 17.2027 30.1794 17.8591 29.523C18.5155 28.8666 19.4057 28.4979 20.334 28.4979L46.5459 28.438C47.4357 28.436 47.8799 27.3601 47.2507 26.7309L40.9933 20.4735C40.6682 20.1486 40.4103 19.7628 40.2343 19.3381C40.0583 18.9135 39.9676 18.4583 39.9675 17.9987C39.9673 17.0703 40.3359 16.1799 40.9922 15.5234C41.3171 15.1982 41.7029 14.9403 42.1276 14.7643C42.5522 14.5883 43.0073 14.4977 43.467 14.4976C43.9267 14.4975 44.3818 14.5879 44.8066 14.7637C45.2313 14.9395 45.6172 15.1972 45.9423 15.5222Z" fill="url(#paint0_linear_906_20)"/>
<defs>
<linearGradient id="paint0_linear_906_20" x1="3.20462" y1="4.55103" x2="60.9575" y2="63.0366" gradientUnits="userSpaceOnUse">
<stop stop-color="#F9D423"/>
<stop offset="0.515624" stop-color="#FF4E50"/>
<stop offset="0.991304" stop-color="#8A2387"/>
</linearGradient>
</defs>
</svg>
