<svg width="64" height="64" viewBox="0 0 64 64" fill="none" xmlns="http://www.w3.org/2000/svg">
<path d="M39.0197 60C34.9341 60.0029 30.8975 59.1116 27.1929 57.3888C23.4884 55.666 20.2057 53.1534 17.5753 50.0273C14.9449 46.9012 13.0305 43.2373 11.9664 39.2928C10.9023 35.3483 10.7143 31.2187 11.4156 27.1938C12.1169 23.1689 13.6905 19.3462 16.0259 15.994C18.3614 12.6418 21.4022 9.8413 24.9348 7.78903C28.4675 5.73675 32.4065 4.48242 36.4754 4.11405C40.5443 3.74568 44.6445 4.2722 48.4883 5.65666C49.6395 6.06972 50.6588 6.78404 51.44 7.72514C52.2212 8.66625 52.7355 9.79968 52.9295 11.0073C53.1235 12.2148 52.99 13.4523 52.5429 14.5908C52.0959 15.7292 51.3516 16.7268 50.3877 17.4797C38.4877 26.6263 38.5157 37.404 50.3877 46.5203C51.3515 47.2735 52.0955 48.2715 52.5423 49.4102C52.9891 50.5489 53.1221 51.7866 52.9277 52.9942C52.7332 54.2018 52.2183 55.3352 51.4366 56.276C50.655 57.2169 49.6352 57.9308 48.4837 58.3433C45.4456 59.4278 42.2454 59.988 39.0197 60V60ZM39.0197 11C35.9671 10.9966 32.9506 11.6588 30.1801 12.9403C27.4096 14.2218 24.9518 16.092 22.9779 18.4204C21.004 20.7488 19.5614 23.4796 18.7507 26.4225C17.94 29.3654 17.7806 32.4496 18.2836 35.4604C18.7866 38.4712 19.9399 41.3362 21.6632 43.8557C23.3865 46.3752 25.6384 48.4888 28.262 50.0491C30.8856 51.6095 33.8178 52.5791 36.8544 52.8904C39.891 53.2018 42.959 52.8474 45.8447 51.852C30.6523 40.0337 30.7037 23.9243 45.8447 12.148C43.6455 11.4035 41.3413 11.016 39.0197 11V11Z" fill="url(#paint0_linear_906_20)"/>
<defs>
<linearGradient id="paint0_linear_906_20" x1="59.0267" y1="57.4614" x2="24.9053" y2="1.22523" gradientUnits="userSpaceOnUse">
<stop stop-color="#315783"/>
<stop offset="0.428293" stop-color="#723483"/>
<stop offset="1" stop-color="#FC5185"/>
</linearGradient>
</defs>
</svg>
