<svg width="128" height="128" viewBox="0 0 128 128" fill="none" xmlns="http://www.w3.org/2000/svg">
<path d="M109.334 85.3334H88.0004C87.2931 85.3334 86.6149 85.6144 86.1146 86.1147C85.6146 86.6147 85.3336 87.2929 85.3336 88.0002C85.3336 88.7074 85.6146 89.3857 86.1146 89.8859C86.6149 90.3859 87.2931 90.6669 88.0004 90.6669H103.872C99.5004 97.2134 93.5849 102.584 86.6474 106.304C79.7096 110.025 71.9631 111.981 64.0911 112C57.1426 112.005 50.2759 110.502 43.9641 107.596C37.6526 104.69 32.0464 100.45 27.5321 95.1677C23.0179 89.8854 19.7031 83.6869 17.8162 76.9994C15.9294 70.3122 15.5155 63.2949 16.603 56.4322C16.6878 55.7484 16.5046 55.0584 16.0918 54.5067C15.6791 53.9549 15.0688 53.5844 14.3889 53.4727C13.709 53.3609 13.0123 53.5169 12.4447 53.9074C11.8771 54.2982 11.4828 54.8932 11.3443 55.5682C10.8922 58.3562 10.6657 61.1759 10.667 64.0002C10.699 93.4402 34.5604 117.301 64.0004 117.333C72.2789 117.33 80.4434 115.402 87.8484 111.7C95.2534 107.999 101.696 102.626 106.667 96.0054V109.339C106.667 110.046 106.948 110.724 107.448 111.224C107.948 111.725 108.626 112.005 109.334 112.005C110.041 112.005 110.719 111.725 111.219 111.224C111.719 110.724 112 110.046 112 109.339V87.9949C111.999 87.2887 111.717 86.6117 111.217 86.1127C110.717 85.6137 110.04 85.3334 109.334 85.3334ZM89.2644 17.0455C65.7071 4.36287 36.9124 11.2375 21.3337 32.0162V18.6669C21.3337 17.9596 21.0527 17.2813 20.5526 16.7812C20.0525 16.2811 19.3742 16.0002 18.667 16.0002C17.9598 16.0002 17.2815 16.2811 16.7814 16.7812C16.2813 17.2813 16.0003 17.9596 16.0003 18.6669V40.0002C16.0003 40.7074 16.2813 41.3857 16.7814 41.8859C17.2815 42.3859 17.9598 42.6669 18.667 42.6669H40.0004C40.7076 42.6669 41.3859 42.3859 41.8859 41.8859C42.3861 41.3857 42.6671 40.7074 42.6671 40.0002C42.6671 39.2929 42.3861 38.6147 41.8859 38.1147C41.3859 37.6144 40.7076 37.3334 40.0004 37.3334H24.1283C28.5001 30.7869 34.4159 25.4167 41.3534 21.6962C48.2911 17.9758 56.0374 16.0196 63.9096 16.0002C70.8586 15.9961 77.7259 17.4993 84.0379 20.4063C90.3496 23.3133 95.9559 27.5547 100.47 32.8382C104.983 38.1217 108.297 44.3214 110.183 51.0097C112.069 57.6979 112.481 64.7157 111.392 71.5789C111.336 71.9244 111.349 72.2779 111.429 72.6187C111.51 72.9594 111.657 73.2809 111.862 73.5649C112.066 73.8489 112.325 74.0899 112.623 74.2739C112.921 74.4579 113.252 74.5814 113.598 74.6374C113.943 74.6937 114.297 74.6809 114.637 74.6004C114.978 74.5199 115.3 74.3732 115.584 74.1684C115.868 73.9637 116.109 73.7049 116.293 73.4069C116.477 73.1092 116.6 72.7779 116.656 72.4322C117.108 69.6444 117.335 66.8244 117.334 64.0002C117.326 54.3694 114.713 44.9199 109.772 36.6534C104.83 28.3872 97.7439 21.6117 89.2644 17.0455Z" fill="url(#paint0_linear_909_67)" stroke="url(#paint1_linear_909_67)" stroke-width="8"/>
<path fill-rule="evenodd" clip-rule="evenodd" d="M80 64C80 59.7565 78.3143 55.687 75.3138 52.6862C72.3133 49.6857 68.2435 48 64 48C59.7565 48 55.6867 49.6857 52.6862 52.6862C49.6857 55.687 48 59.7565 48 64C48 68.2435 49.6857 72.3133 52.6862 75.3138C55.6867 78.3143 59.7565 80 64 80C68.2435 80 72.3133 78.3143 75.3138 75.3138C78.3143 72.3133 80 68.2435 80 64ZM53.3332 64C53.3332 61.171 54.4573 58.458 56.4575 56.4575C58.458 54.4573 61.171 53.3332 64 53.3332C66.829 53.3332 69.542 54.4573 71.5425 56.4575C73.543 58.458 74.6667 61.171 74.6667 64C74.6667 66.829 73.543 69.542 71.5425 71.5425C69.542 73.543 66.829 74.6667 64 74.6667C61.171 74.6667 58.458 73.543 56.4575 71.5425C54.4573 69.542 53.3332 66.829 53.3332 64Z" fill="url(#paint2_linear_909_67)" stroke="url(#paint3_linear_909_67)" stroke-width="8"/>
<defs>
<linearGradient id="paint0_linear_909_67" x1="64.0004" y1="117.333" x2="64.0004" y2="10.6694" gradientUnits="userSpaceOnUse">
<stop stop-color="#A93AFF"/>
<stop offset="1" stop-color="#FF81FF"/>
</linearGradient>
<linearGradient id="paint1_linear_909_67" x1="64.0004" y1="117.333" x2="64.0004" y2="10.6694" gradientUnits="userSpaceOnUse">
<stop stop-color="#A93AFF"/>
<stop offset="1" stop-color="#FF81FF"/>
</linearGradient>
<linearGradient id="paint2_linear_909_67" x1="64" y1="48" x2="64" y2="80" gradientUnits="userSpaceOnUse">
<stop stop-color="#DC18FC"/>
<stop offset="1" stop-color="#8E1EFF"/>
</linearGradient>
<linearGradient id="paint3_linear_909_67" x1="64" y1="48" x2="64" y2="80" gradientUnits="userSpaceOnUse">
<stop stop-color="#DC18FC"/>
<stop offset="1" stop-color="#8E1EFF"/>
</linearGradient>
</defs>
</svg>
