<svg width="32" height="32" viewBox="0 0 32 32" fill="none" xmlns="http://www.w3.org/2000/svg">
<path d="M3.92857 3C3.41574 3 3 3.41574 3 3.92857V28.0714C3 28.5842 3.41574 29 3.92857 29H15.0714C15.5843 29 16 28.5842 16 28.0714V27.7618C16 27.2491 15.5843 26.8333 15.0714 26.8333H6.09524C5.58239 26.8333 5.16667 26.4176 5.16667 25.9047V6.09524C5.16667 5.58239 5.58239 5.16667 6.09524 5.16667H10.7381C11.2509 5.16667 11.6667 5.58239 11.6667 6.09524V8.57143C11.6667 9.08426 12.0824 9.5 12.5952 9.5H22.5H25.9047C26.4176 9.5 26.8333 9.91574 26.8333 10.4286V15.0714C26.8333 15.5843 27.2491 16 27.7618 16H28.0714C28.5842 16 29 15.5843 29 15.0714V8.2619C29 7.74907 28.5842 7.33333 28.0714 7.33333H23.4286C22.9158 7.33333 22.5 6.91761 22.5 6.40476V3.92857C22.5 3.41574 22.0842 3 21.5714 3H20.3333H11.6667H3.92857ZM23.4286 18.1667C22.9158 18.1667 22.5 18.5824 22.5 19.0952V21.5714C22.5 22.0842 22.0842 22.5 21.5714 22.5H19.0952C18.5824 22.5 18.1667 22.9158 18.1667 23.4286V23.7382C18.1667 24.2509 18.5824 24.6667 19.0952 24.6667H21.5714C22.0842 24.6667 22.5 25.0824 22.5 25.5953V28.0714C22.5 28.5842 22.9158 29 23.4286 29H23.7382C24.2509 29 24.6667 28.5842 24.6667 28.0714V25.5953C24.6667 25.0824 25.0824 24.6667 25.5953 24.6667H28.0714C28.5842 24.6667 29 24.2509 29 23.7382V23.4286C29 22.9158 28.5842 22.5 28.0714 22.5H25.5953C25.0824 22.5 24.6667 22.0842 24.6667 21.5714V19.0952C24.6667 18.5824 24.2509 18.1667 23.7382 18.1667H23.4286Z" fill="url(#paint0_linear_909_16)" stroke="url(#paint1_linear_909_16)" stroke-width="1.5"/>
<defs>
<linearGradient id="paint0_linear_909_16" x1="16" y1="29" x2="16" y2="3" gradientUnits="userSpaceOnUse">
<stop stop-color="#5570FF"/>
<stop offset="1" stop-color="#4DD3FF"/>
</linearGradient>
<linearGradient id="paint1_linear_909_16" x1="16" y1="29" x2="16" y2="3" gradientUnits="userSpaceOnUse">
<stop stop-color="#5570FF"/>
<stop offset="1" stop-color="#4DD3FF"/>
</linearGradient>
</defs>
</svg>
