<svg width="128" height="128" viewBox="0 0 128 128" fill="none" xmlns="http://www.w3.org/2000/svg">
<path fill-rule="evenodd" clip-rule="evenodd" d="M87.334 8H94.334C101.139 8.00741 107.663 10.714 112.475 15.5258C117.287 20.3376 119.993 26.8617 120.001 33.6667V40.6667C120.001 42.5232 119.263 44.3037 117.95 45.6164C116.638 46.9292 114.857 47.6667 113.001 47.6667C111.144 47.6667 109.364 46.9292 108.051 45.6164C106.738 44.3037 106.001 42.5232 106.001 40.6667V33.6667C106.001 30.5725 104.772 27.605 102.584 25.4171C100.396 23.2292 97.4282 22 94.334 22H87.334C85.4775 22 83.6971 21.2625 82.3843 19.9497C81.0715 18.637 80.334 16.8565 80.334 15C80.334 13.1435 81.0715 11.363 82.3843 10.0503C83.6971 8.7375 85.4775 8 87.334 8ZM19.9498 45.6165C18.637 46.9292 16.8566 47.6667 15 47.6667C13.1435 47.6667 11.363 46.9292 10.0503 45.6165C8.73753 44.3037 8.00004 42.5232 8.00004 40.6667V33.6667C8.00745 26.8618 10.714 20.3376 15.5258 15.5258C20.3376 10.714 26.8618 8.00745 33.6667 8.00004H40.6667C42.5232 8.00004 44.3037 8.73753 45.6165 10.0503C46.9292 11.363 47.6667 13.1435 47.6667 15C47.6667 16.8566 46.9292 18.637 45.6165 19.9498C44.3037 21.2625 42.5232 22 40.6667 22H33.6667C30.5725 22 27.605 23.2292 25.4171 25.4171C23.2292 27.605 22 30.5725 22 33.6667V40.6667C22 42.5232 21.2625 44.3037 19.9498 45.6165ZM108.051 82.3821C109.364 81.0694 111.144 80.3319 113.001 80.3319C114.857 80.3319 116.638 81.0694 117.95 82.3821C119.263 83.6949 120.001 85.4753 120.001 87.3318V94.3318C119.993 101.137 117.287 107.661 112.475 112.473C107.663 117.284 101.139 119.991 94.334 119.998H87.334C85.4775 119.998 83.6971 119.261 82.3843 117.948C81.0715 116.635 80.334 114.855 80.334 112.998C80.334 111.142 81.0715 109.361 82.3843 108.049C83.6971 106.736 85.4775 105.998 87.334 105.998H94.334C97.4282 105.998 100.396 104.769 102.584 102.581C104.772 100.393 106.001 97.426 106.001 94.3318V87.3318C106.001 85.4753 106.738 83.6949 108.051 82.3821ZM40.6667 105.998H33.6667C30.5725 105.998 27.605 104.769 25.4171 102.581C23.2292 100.393 22 97.426 22 94.3318V87.3318C22 85.4753 21.2625 83.6949 19.9497 82.3821C18.637 81.0694 16.8565 80.3319 15 80.3319C13.1435 80.3319 11.363 81.0694 10.0503 82.3821C8.7375 83.6949 8 85.4753 8 87.3318V94.3318C8.00741 101.137 10.714 107.661 15.5258 112.473C20.3376 117.284 26.8617 119.991 33.6667 119.998H40.6667C42.5232 119.998 44.3037 119.261 45.6164 117.948C46.9292 116.635 47.6667 114.855 47.6667 112.998C47.6667 111.142 46.9292 109.361 45.6164 108.049C44.3037 106.736 42.5232 105.998 40.6667 105.998ZM63.9993 59.3348C73.0199 59.3348 80.3326 52.0221 80.3326 43.0015C80.3326 33.9808 73.0199 26.6681 63.9993 26.6681C54.9786 26.6681 47.666 33.9808 47.666 43.0015C47.666 52.0221 54.9786 59.3348 63.9993 59.3348ZM36.6267 93.2873C36.4437 92.6374 36.4049 91.9554 36.513 91.2889H36.5224C37.7613 84.9081 41.1815 79.1572 46.1966 75.0222C51.2117 70.8873 57.5091 68.6259 64.009 68.6259C70.5089 68.6259 76.8063 70.8873 81.8214 75.0222C86.8365 79.1572 90.2567 84.9081 91.4956 91.2889C91.6039 91.9561 91.5649 92.639 91.3813 93.2896C91.1978 93.9402 90.8741 94.5428 90.433 95.055C89.9919 95.5672 89.444 95.9768 88.8279 96.2549C88.2118 96.533 87.5422 96.6729 86.8663 96.6649H41.133C40.4579 96.6716 39.7894 96.5306 39.1744 96.2519C38.5594 95.9732 38.0128 95.5635 37.5727 95.0514C37.1326 94.5393 36.8098 93.9372 36.6267 93.2873Z" fill="url(#paint0_linear_904_101)"/>
<path d="M94.334 8L94.3351 7H94.334V8ZM112.475 15.5258L113.182 14.8187L113.182 14.8187L112.475 15.5258ZM120.001 33.6667H121.001L121.001 33.6656L120.001 33.6667ZM117.95 45.6164L118.658 46.3235L118.658 46.3235L117.95 45.6164ZM108.051 45.6164L108.758 44.9093L108.758 44.9093L108.051 45.6164ZM102.584 25.4171L101.877 26.1242L101.877 26.1242L102.584 25.4171ZM82.3843 19.9497L81.6772 20.6569L81.6772 20.6569L82.3843 19.9497ZM82.3843 10.0503L81.6772 9.34314L81.6772 9.34315L82.3843 10.0503ZM19.9498 45.6165L20.6569 46.3236L20.6569 46.3236L19.9498 45.6165ZM10.0503 45.6165L9.34318 46.3236L9.34318 46.3236L10.0503 45.6165ZM8.00004 33.6667L7.00004 33.6656V33.6667H8.00004ZM15.5258 15.5258L14.8187 14.8187L14.8187 14.8187L15.5258 15.5258ZM33.6667 8.00004L33.6667 7.00004L33.6656 7.00004L33.6667 8.00004ZM45.6165 10.0503L46.3236 9.34318L46.3236 9.34318L45.6165 10.0503ZM45.6165 19.9498L46.3236 20.6569L46.3236 20.6569L45.6165 19.9498ZM33.6667 22L33.6667 21L33.6667 21L33.6667 22ZM25.4171 25.4171L24.71 24.71L24.71 24.71L25.4171 25.4171ZM108.051 82.3821L107.344 81.675L108.051 82.3821ZM117.95 82.3821L118.658 81.675L118.658 81.675L117.95 82.3821ZM120.001 94.3318L121.001 94.3329V94.3318H120.001ZM112.475 112.473L111.768 111.766L111.768 111.766L112.475 112.473ZM94.334 119.998L94.334 120.998L94.3351 120.998L94.334 119.998ZM82.3843 117.948L81.6772 118.655L81.6772 118.655L82.3843 117.948ZM82.3843 108.049L81.6772 107.342L81.6772 107.342L82.3843 108.049ZM102.584 102.581L101.877 101.874L101.877 101.874L102.584 102.581ZM25.4171 102.581L26.1242 101.874L26.1242 101.874L25.4171 102.581ZM19.9497 82.3821L20.6569 81.675L20.6569 81.675L19.9497 82.3821ZM10.0503 82.3821L9.34315 81.675L9.34315 81.675L10.0503 82.3821ZM8 94.3318H7L7 94.3329L8 94.3318ZM15.5258 112.473L16.2329 111.766L16.2329 111.766L15.5258 112.473ZM33.6667 119.998L33.6656 120.998H33.6667V119.998ZM45.6164 117.948L46.3235 118.655L46.3235 118.655L45.6164 117.948ZM45.6164 108.049L46.3235 107.342L46.3235 107.342L45.6164 108.049ZM36.513 91.2889V90.2889H35.6622L35.5259 91.1287L36.513 91.2889ZM36.6267 93.2873L37.5893 93.0162L37.5893 93.0162L36.6267 93.2873ZM36.5224 91.2889V92.2889H37.3469L37.504 91.4795L36.5224 91.2889ZM46.1966 75.0222L45.5604 74.2507L45.5604 74.2507L46.1966 75.0222ZM81.8214 75.0222L82.4576 74.2507L82.4576 74.2507L81.8214 75.0222ZM91.4956 91.2889L92.4827 91.1287L92.4802 91.1134L92.4773 91.0983L91.4956 91.2889ZM88.8279 96.2549L89.2393 97.1663L89.2393 97.1663L88.8279 96.2549ZM86.8663 96.6649L86.8782 95.6649H86.8663V96.6649ZM41.133 96.6649V95.6648L41.1231 95.6649L41.133 96.6649ZM39.1744 96.2519L38.7616 97.1627L38.7616 97.1627L39.1744 96.2519ZM37.5727 95.0514L38.3311 94.3996L38.3311 94.3996L37.5727 95.0514ZM94.334 7H87.334V9H94.334V7ZM113.182 14.8187C108.183 9.81957 101.405 7.0077 94.3351 7L94.333 9C100.873 9.00712 107.143 11.6083 111.768 16.2329L113.182 14.8187ZM121.001 33.6656C120.993 26.5958 118.181 19.8178 113.182 14.8187L111.768 16.2329C116.392 20.8574 118.994 27.1276 119.001 33.6678L121.001 33.6656ZM121.001 40.6667V33.6667H119.001V40.6667H121.001ZM118.658 46.3235C120.158 44.8232 121.001 42.7884 121.001 40.6667H119.001C119.001 42.258 118.369 43.7841 117.243 44.9093L118.658 46.3235ZM113.001 48.6667C115.122 48.6667 117.157 47.8238 118.658 46.3235L117.243 44.9093C116.118 46.0345 114.592 46.6667 113.001 46.6667V48.6667ZM107.344 46.3235C108.844 47.8238 110.879 48.6667 113.001 48.6667V46.6667C111.409 46.6667 109.883 46.0345 108.758 44.9093L107.344 46.3235ZM105.001 40.6667C105.001 42.7884 105.844 44.8232 107.344 46.3235L108.758 44.9093C107.633 43.7841 107.001 42.258 107.001 40.6667H105.001ZM105.001 33.6667V40.6667H107.001V33.6667H105.001ZM101.877 26.1242C103.877 28.1246 105.001 30.8377 105.001 33.6667H107.001C107.001 30.3073 105.666 27.0854 103.291 24.71L101.877 26.1242ZM94.334 23C97.163 23 99.8761 24.1238 101.877 26.1242L103.291 24.71C100.915 22.3345 97.6935 21 94.334 21V23ZM87.334 23H94.334V21H87.334V23ZM81.6772 20.6569C83.1775 22.1571 85.2123 23 87.334 23V21C85.7427 21 84.2166 20.3679 83.0914 19.2426L81.6772 20.6569ZM79.334 15C79.334 17.1217 80.1769 19.1566 81.6772 20.6569L83.0914 19.2426C81.9662 18.1174 81.334 16.5913 81.334 15H79.334ZM81.6772 9.34315C80.1769 10.8434 79.334 12.8783 79.334 15H81.334C81.334 13.4087 81.9662 11.8826 83.0914 10.7574L81.6772 9.34315ZM87.334 7C85.2123 7 83.1775 7.84285 81.6772 9.34314L83.0914 10.7574C84.2166 9.63214 85.7427 9 87.334 9V7ZM15 48.6667C17.1218 48.6667 19.1566 47.8238 20.6569 46.3236L19.2427 44.9093C18.1175 46.0346 16.5913 46.6667 15 46.6667V48.6667ZM9.34318 46.3236C10.8435 47.8238 12.8783 48.6667 15 48.6667V46.6667C13.4087 46.6667 11.8826 46.0346 10.7574 44.9093L9.34318 46.3236ZM7.00004 40.6667C7.00004 42.7884 7.84289 44.8233 9.34318 46.3236L10.7574 44.9093C9.63218 43.7841 9.00004 42.258 9.00004 40.6667H7.00004ZM7.00004 33.6667V40.6667H9.00004V33.6667H7.00004ZM14.8187 14.8187C9.81961 19.8178 7.00774 26.5958 7.00004 33.6656L9.00004 33.6678C9.00716 27.1277 11.6084 20.8575 16.2329 16.2329L14.8187 14.8187ZM33.6656 7.00004C26.5958 7.00774 19.8178 9.81961 14.8187 14.8187L16.2329 16.2329C20.8575 11.6084 27.1277 9.00716 33.6678 9.00004L33.6656 7.00004ZM40.6667 7.00004H33.6667V9.00004H40.6667V7.00004ZM46.3236 9.34318C44.8233 7.84289 42.7884 7.00004 40.6667 7.00004V9.00004C42.258 9.00004 43.7841 9.63218 44.9093 10.7574L46.3236 9.34318ZM48.6667 15C48.6667 12.8783 47.8238 10.8435 46.3236 9.34318L44.9093 10.7574C46.0346 11.8826 46.6667 13.4087 46.6667 15H48.6667ZM46.3236 20.6569C47.8238 19.1566 48.6667 17.1218 48.6667 15H46.6667C46.6667 16.5913 46.0346 18.1175 44.9093 19.2427L46.3236 20.6569ZM40.6667 23C42.7884 23 44.8233 22.1572 46.3236 20.6569L44.9093 19.2427C43.7841 20.3679 42.258 21 40.6667 21V23ZM33.6667 23H40.6667V21H33.6667V23ZM26.1242 26.1242C28.1246 24.1238 30.8377 23 33.6667 23L33.6667 21C30.3073 21 27.0855 22.3346 24.71 24.71L26.1242 26.1242ZM23 33.6667C23 30.8377 24.1238 28.1246 26.1242 26.1242L24.71 24.71C22.3346 27.0855 21 30.3073 21 33.6667H23ZM23 40.6667V33.6667H21V40.6667H23ZM20.6569 46.3236C22.1572 44.8233 23 42.7884 23 40.6667H21C21 42.258 20.3679 43.7841 19.2427 44.9093L20.6569 46.3236ZM113.001 79.3319C110.879 79.3319 108.844 80.1747 107.344 81.675L108.758 83.0892C109.883 81.964 111.409 81.3319 113.001 81.3319V79.3319ZM118.658 81.675C117.157 80.1747 115.122 79.3319 113.001 79.3319V81.3319C114.592 81.3319 116.118 81.964 117.243 83.0892L118.658 81.675ZM121.001 87.3318C121.001 85.2101 120.158 83.1753 118.658 81.675L117.243 83.0892C118.369 84.2144 119.001 85.7406 119.001 87.3318H121.001ZM121.001 94.3318V87.3318H119.001V94.3318H121.001ZM113.182 113.18C118.181 108.181 120.993 101.403 121.001 94.3329L119.001 94.3307C118.994 100.871 116.392 107.141 111.768 111.766L113.182 113.18ZM94.3351 120.998C101.405 120.991 108.183 118.179 113.182 113.18L111.768 111.766C107.143 116.39 100.873 118.991 94.333 118.998L94.3351 120.998ZM87.334 120.998H94.334V118.998H87.334V120.998ZM81.6772 118.655C83.1775 120.156 85.2123 120.998 87.334 120.998V118.998C85.7427 118.998 84.2166 118.366 83.0914 117.241L81.6772 118.655ZM79.334 112.998C79.334 115.12 80.1769 117.155 81.6772 118.655L83.0914 117.241C81.9662 116.116 81.334 114.59 81.334 112.998H79.334ZM81.6772 107.342C80.1769 108.842 79.334 110.877 79.334 112.998H81.334C81.334 111.407 81.9662 109.881 83.0914 108.756L81.6772 107.342ZM87.334 104.998C85.2123 104.998 83.1775 105.841 81.6772 107.342L83.0914 108.756C84.2166 107.631 85.7427 106.998 87.334 106.998V104.998ZM94.334 104.998H87.334V106.998H94.334V104.998ZM101.877 101.874C99.8761 103.875 97.163 104.998 94.334 104.998V106.998C97.6935 106.998 100.915 105.664 103.291 103.288L101.877 101.874ZM105.001 94.3318C105.001 97.1608 103.877 99.8739 101.877 101.874L103.291 103.288C105.666 100.913 107.001 97.6912 107.001 94.3318H105.001ZM105.001 87.3318V94.3318H107.001V87.3318H105.001ZM107.344 81.675C105.844 83.1753 105.001 85.2101 105.001 87.3318H107.001C107.001 85.7406 107.633 84.2144 108.758 83.0892L107.344 81.675ZM33.6667 106.998H40.6667V104.998H33.6667V106.998ZM24.71 103.288C27.0854 105.664 30.3073 106.998 33.6667 106.998V104.998C30.8377 104.998 28.1246 103.875 26.1242 101.874L24.71 103.288ZM21 94.3318C21 97.6912 22.3345 100.913 24.71 103.288L26.1242 101.874C24.1238 99.8739 23 97.1608 23 94.3318H21ZM21 87.3318V94.3318H23V87.3318H21ZM19.2426 83.0892C20.3679 84.2144 21 85.7406 21 87.3318H23C23 85.2101 22.1571 83.1753 20.6569 81.675L19.2426 83.0892ZM15 81.3319C16.5913 81.3319 18.1174 81.964 19.2426 83.0892L20.6569 81.675C19.1566 80.1747 17.1217 79.3319 15 79.3319V81.3319ZM10.7574 83.0892C11.8826 81.964 13.4087 81.3319 15 81.3319V79.3319C12.8783 79.3319 10.8434 80.1747 9.34315 81.675L10.7574 83.0892ZM9 87.3318C9 85.7406 9.63214 84.2144 10.7574 83.0892L9.34315 81.675C7.84286 83.1753 7 85.2101 7 87.3318H9ZM9 94.3318V87.3318H7V94.3318H9ZM16.2329 111.766C11.6083 107.141 9.00712 100.871 9 94.3307L7 94.3329C7.0077 101.403 9.81958 108.181 14.8187 113.18L16.2329 111.766ZM33.6678 118.998C27.1276 118.991 20.8574 116.39 16.2329 111.766L14.8187 113.18C19.8178 118.179 26.5958 120.991 33.6656 120.998L33.6678 118.998ZM40.6667 118.998H33.6667V120.998H40.6667V118.998ZM44.9093 117.241C43.7841 118.366 42.258 118.998 40.6667 118.998V120.998C42.7884 120.998 44.8232 120.156 46.3235 118.655L44.9093 117.241ZM46.6667 112.998C46.6667 114.59 46.0345 116.116 44.9093 117.241L46.3235 118.655C47.8238 117.155 48.6667 115.12 48.6667 112.998H46.6667ZM44.9093 108.756C46.0345 109.881 46.6667 111.407 46.6667 112.998H48.6667C48.6667 110.877 47.8238 108.842 46.3235 107.342L44.9093 108.756ZM40.6667 106.998C42.258 106.998 43.7841 107.631 44.9093 108.756L46.3235 107.342C44.8232 105.841 42.7884 104.998 40.6667 104.998V106.998ZM79.3326 43.0015C79.3326 51.4698 72.4677 58.3348 63.9993 58.3348V60.3348C73.5722 60.3348 81.3326 52.5744 81.3326 43.0015H79.3326ZM63.9993 27.6681C72.4677 27.6681 79.3326 34.5331 79.3326 43.0015H81.3326C81.3326 33.4285 73.5722 25.6681 63.9993 25.6681V27.6681ZM48.666 43.0015C48.666 34.5331 55.5309 27.6681 63.9993 27.6681V25.6681C54.4264 25.6681 46.666 33.4285 46.666 43.0015H48.666ZM63.9993 58.3348C55.5309 58.3348 48.666 51.4698 48.666 43.0015H46.666C46.666 52.5744 54.4264 60.3348 63.9993 60.3348V58.3348ZM35.5259 91.1287C35.3945 91.939 35.4416 92.7683 35.6642 93.5584L37.5893 93.0162C37.4457 92.5066 37.4153 91.9717 37.5001 91.4491L35.5259 91.1287ZM36.5224 90.2889H36.513V92.2889H36.5224V90.2889ZM45.5604 74.2507C40.3663 78.5333 36.8239 84.4897 35.5407 91.0983L37.504 91.4795C38.6987 85.3266 41.9968 79.7811 46.8327 75.7938L45.5604 74.2507ZM64.009 67.6259C57.2769 67.6259 50.7546 69.968 45.5604 74.2507L46.8327 75.7938C51.6687 71.8065 57.7412 69.6259 64.009 69.6259V67.6259ZM82.4576 74.2507C77.2634 69.968 70.741 67.6259 64.009 67.6259V69.6259C70.2768 69.6259 76.3493 71.8065 81.1852 75.7938L82.4576 74.2507ZM92.4773 91.0983C91.1941 84.4897 87.6517 78.5333 82.4576 74.2507L81.1852 75.7938C86.0212 79.7811 89.3193 85.3266 90.514 91.4795L92.4773 91.0983ZM92.3438 93.5612C92.5669 92.7702 92.6144 91.94 92.4827 91.1287L90.5085 91.4491C90.5935 91.9723 90.5629 92.5079 90.4189 93.0181L92.3438 93.5612ZM91.1907 95.7075C91.727 95.0847 92.1206 94.3522 92.3438 93.5612L90.4189 93.0181C90.275 93.5282 90.0211 94.0008 89.6752 94.4025L91.1907 95.7075ZM89.2393 97.1663C89.9884 96.8282 90.6545 96.3303 91.1907 95.7075L89.6752 94.4025C89.3293 94.8042 88.8997 95.1253 88.4165 95.3434L89.2393 97.1663ZM86.8544 97.6648C87.6762 97.6746 88.4902 97.5045 89.2393 97.1663L88.4165 95.3434C87.9333 95.5615 87.4083 95.6713 86.8782 95.6649L86.8544 97.6648ZM41.133 97.6649H86.8663V95.6649H41.133V97.6649ZM38.7616 97.1627C39.5093 97.5016 40.3221 97.6729 41.1429 97.6648L41.1231 95.6649C40.5937 95.6702 40.0695 95.5596 39.5872 95.3411L38.7616 97.1627ZM36.8143 95.7032C37.3493 96.3257 38.0139 96.8239 38.7616 97.1627L39.5872 95.3411C39.1049 95.1225 38.6762 94.8012 38.3311 94.3996L36.8143 95.7032ZM35.6642 93.5584C35.8867 94.3486 36.2792 95.0806 36.8143 95.7032L38.3311 94.3996C37.986 93.9981 37.7328 93.5259 37.5893 93.0162L35.6642 93.5584Z" fill="url(#paint1_linear_904_101)"/>
<defs>
<linearGradient id="paint0_linear_904_101" x1="8.01641" y1="62.3398" x2="120.019" y2="62.3398" gradientUnits="userSpaceOnUse">
<stop stop-color="#A93AFF"/>
<stop offset="1" stop-color="#FF81FF"/>
</linearGradient>
<linearGradient id="paint1_linear_904_101" x1="8.01641" y1="62.3398" x2="120.019" y2="62.3398" gradientUnits="userSpaceOnUse">
<stop stop-color="#A93AFF"/>
<stop offset="1" stop-color="#FF81FF"/>
</linearGradient>
</defs>
</svg>
