<svg width="64" height="64" viewBox="0 0 64 64" fill="none" xmlns="http://www.w3.org/2000/svg">
<path d="M47.1667 4H16.8333C13.4309 4.00371 10.1688 5.35698 7.76289 7.76289C5.35698 10.1688 4.00371 13.4309 4 16.8333L4 47.1667C4.00371 50.5691 5.35698 53.8312 7.76289 56.2371C10.1688 58.643 13.4309 59.9963 16.8333 60H47.1667C50.5691 59.9963 53.8312 58.643 56.2371 56.2371C58.643 53.8312 59.9963 50.5691 60 47.1667V16.8333C59.9963 13.4309 58.643 10.1688 56.2371 7.76289C53.8312 5.35698 50.5691 4.00371 47.1667 4V4ZM11 27.3333H15.6667V36.6667H11V27.3333ZM41.3333 28.5H22.6667V11H41.3333V28.5ZM22.6667 35.5H41.3333V53H22.6667V35.5ZM48.3333 27.3333H53V36.6667H48.3333V27.3333ZM53 16.8333V20.3333H48.3333V11.119C49.6505 11.3879 50.8344 12.1035 51.6848 13.1447C52.5351 14.186 52.9997 15.489 53 16.8333V16.8333ZM15.6667 11.119V20.3333H11V16.8333C11.0003 15.489 11.4649 14.186 12.3152 13.1447C13.1656 12.1035 14.3495 11.3879 15.6667 11.119ZM11 47.1667V43.6667H15.6667V52.881C14.3495 52.6121 13.1656 51.8965 12.3152 50.8553C11.4649 49.814 11.0003 48.511 11 47.1667ZM48.3333 52.881V43.6667H53V47.1667C52.9997 48.511 52.5351 49.814 51.6848 50.8553C50.8344 51.8965 49.6505 52.6121 48.3333 52.881V52.881Z" fill="url(#paint0_linear_906_20)"/>
<defs>
<linearGradient id="paint0_linear_906_20" x1="3.19056" y1="4.55103" x2="60.9218" y2="64.0485" gradientUnits="userSpaceOnUse">
<stop stop-color="#F9D423"/>
<stop offset="0.515624" stop-color="#FF4E50"/>
<stop offset="0.991304" stop-color="#8A2387"/>
</linearGradient>
</defs>
</svg>
