<svg width="128" height="128" viewBox="0 0 128 128" fill="none" xmlns="http://www.w3.org/2000/svg">
<path fill-rule="evenodd" clip-rule="evenodd" d="M40.7168 16.0503C42.0296 14.7375 43.81 14 45.6666 14C47.5231 14 49.3035 14.7375 50.6163 16.0503C51.929 17.363 52.6665 19.1435 52.6665 21V28C52.6591 34.805 49.9526 41.3291 45.1408 46.1409C40.329 50.9527 33.8049 53.6593 27 53.6667H20C18.1435 53.6667 16.363 52.9292 15.0502 51.6164C13.7375 50.3037 13 48.5232 13 46.6667C13 44.8102 13.7375 43.0297 15.0502 41.7169C16.363 40.4042 18.1435 39.6667 20 39.6667H27C30.0941 39.6667 33.0616 38.4375 35.2495 36.2496C37.4374 34.0617 38.6666 31.0942 38.6666 28V21C38.6666 19.1435 39.4041 17.363 40.7168 16.0503ZM101.334 74.6665H108.334C110.19 74.6665 111.971 75.404 113.283 76.7168C114.596 78.0295 115.334 79.81 115.334 81.6665C115.334 83.523 114.596 85.3035 113.283 86.6162C111.971 87.929 110.19 88.6665 108.334 88.6665H101.334C98.2395 88.6665 95.272 89.8957 93.0841 92.0836C90.8962 94.2715 89.667 97.239 89.667 100.333V107.333C89.667 109.19 88.9295 110.97 87.6167 112.283C86.304 113.596 84.5235 114.333 82.667 114.333C80.8105 114.333 79.03 113.596 77.7172 112.283C76.4045 110.97 75.667 109.19 75.667 107.333V100.333C75.6744 93.5282 78.3809 87.0041 83.1928 82.1923C88.0046 77.3805 94.5287 74.6739 101.334 74.6665ZM108.334 39.6667H101.334C98.2395 39.6667 95.272 38.4375 93.0841 36.2496C90.8962 34.0617 89.667 31.0942 89.667 28V21C89.667 19.1435 88.9295 17.363 87.6167 16.0503C86.304 14.7375 84.5235 14 82.667 14C80.8105 14 79.03 14.7375 77.7172 16.0503C76.4045 17.363 75.667 19.1435 75.667 21V28C75.6744 34.805 78.3809 41.3291 83.1928 46.1409C88.0046 50.9527 94.5287 53.6593 101.334 53.6667H108.334C110.19 53.6667 111.971 52.9292 113.283 51.6164C114.596 50.3037 115.334 48.5232 115.334 46.6667C115.334 44.8102 114.596 43.0297 113.283 41.7169C111.971 40.4042 110.19 39.6667 108.334 39.6667ZM20 74.6665H27C33.8049 74.6739 40.329 77.3805 45.1408 82.1923C49.9526 87.0041 52.6591 93.5282 52.6665 100.333V107.333C52.6665 109.19 51.929 110.97 50.6163 112.283C49.3035 113.596 47.5231 114.333 45.6666 114.333C43.81 114.333 42.0296 113.596 40.7168 112.283C39.4041 110.97 38.6666 109.19 38.6666 107.333V100.333C38.6666 97.239 37.4374 94.2715 35.2495 92.0836C33.0616 89.8957 30.0941 88.6665 27 88.6665H20C18.1435 88.6665 16.363 87.929 15.0502 86.6162C13.7375 85.3035 13 83.523 13 81.6665C13 79.81 13.7375 78.0295 15.0502 76.7168C16.363 75.404 18.1435 74.6665 20 74.6665Z" fill="url(#paint0_linear_902_2)"/>
<path d="M50.6163 16.0503L52.0305 14.636L52.0305 14.636L50.6163 16.0503ZM52.6665 28L54.6665 28.0022V28H52.6665ZM45.1408 46.1409L46.555 47.5551L46.555 47.5551L45.1408 46.1409ZM27 53.6667L27 55.6667L27.0021 55.6667L27 53.6667ZM15.0502 51.6164L13.636 53.0306L13.636 53.0306L15.0502 51.6164ZM15.0502 41.7169L13.636 40.3027L13.636 40.3027L15.0502 41.7169ZM35.2495 36.2496L33.8353 34.8354L33.8353 34.8354L35.2495 36.2496ZM101.334 74.6665V72.6665L101.331 72.6665L101.334 74.6665ZM113.283 76.7168L114.698 75.3025L114.698 75.3025L113.283 76.7168ZM113.283 86.6162L111.869 85.202L111.869 85.202L113.283 86.6162ZM93.0841 92.0836L94.4983 93.4978L94.4983 93.4978L93.0841 92.0836ZM87.6167 112.283L86.2025 110.869L86.2025 110.869L87.6167 112.283ZM77.7172 112.283L79.1315 110.869L79.1315 110.869L77.7172 112.283ZM75.667 100.333L73.667 100.331V100.333H75.667ZM93.0841 36.2496L91.6699 37.6638L91.6699 37.6638L93.0841 36.2496ZM87.6167 16.0503L86.2025 17.4645L86.2025 17.4645L87.6167 16.0503ZM77.7172 16.0503L79.1315 17.4645L79.1315 17.4645L77.7172 16.0503ZM75.667 28L73.667 28L73.667 28.0022L75.667 28ZM101.334 53.6667L101.331 55.6667H101.334V53.6667ZM113.283 51.6164L114.698 53.0306L114.698 53.0306L113.283 51.6164ZM113.283 41.7169L114.698 40.3027L114.698 40.3027L113.283 41.7169ZM27 74.6665L27.0021 72.6665H27V74.6665ZM45.1408 82.1923L46.555 80.7781L46.555 80.7781L45.1408 82.1923ZM52.6665 100.333L54.6665 100.333L54.6665 100.331L52.6665 100.333ZM50.6163 112.283L52.0305 113.697L52.0305 113.697L50.6163 112.283ZM40.7168 112.283L39.3026 113.697L39.3026 113.697L40.7168 112.283ZM35.2495 92.0836L36.6637 90.6694L36.6637 90.6694L35.2495 92.0836ZM15.0502 86.6162L16.4645 85.202L16.4645 85.202L15.0502 86.6162ZM15.0502 76.7168L13.636 75.3025L13.636 75.3025L15.0502 76.7168ZM45.6666 12C43.2796 12 40.9904 12.9482 39.3026 14.636L42.131 17.4645C43.0687 16.5268 44.3405 16 45.6666 16V12ZM52.0305 14.636C50.3427 12.9482 48.0535 12 45.6666 12V16C46.9926 16 48.2644 16.5268 49.2021 17.4645L52.0305 14.636ZM54.6665 21C54.6665 18.6131 53.7183 16.3239 52.0305 14.636L49.2021 17.4645C50.1397 18.4021 50.6665 19.6739 50.6665 21H54.6665ZM54.6665 28V21H50.6665V28H54.6665ZM46.555 47.5551C51.7413 42.3687 54.6585 35.3368 54.6665 28.0022L50.6665 27.9978C50.6597 34.2731 48.1638 40.2894 43.7266 44.7267L46.555 47.5551ZM27.0021 55.6667C34.3367 55.6587 41.3686 52.7415 46.555 47.5551L43.7266 44.7267C39.2893 49.164 33.273 51.6598 26.9978 51.6667L27.0021 55.6667ZM20 55.6667H27V51.6667H20V55.6667ZM13.636 53.0306C15.3239 54.7185 17.613 55.6667 20 55.6667V51.6667C18.6739 51.6667 17.4021 51.1399 16.4645 50.2022L13.636 53.0306ZM11 46.6667C11 49.0536 11.9482 51.3428 13.636 53.0306L16.4645 50.2022C15.5268 49.2645 15 47.9928 15 46.6667H11ZM13.636 40.3027C11.9482 41.9905 11 44.2797 11 46.6667H15C15 45.3406 15.5268 44.0688 16.4645 43.1311L13.636 40.3027ZM20 37.6667C17.613 37.6667 15.3239 38.6149 13.636 40.3027L16.4645 43.1311C17.4021 42.1935 18.6739 41.6667 20 41.6667V37.6667ZM27 37.6667H20V41.6667H27V37.6667ZM33.8353 34.8354C32.0224 36.6482 29.5637 37.6667 27 37.6667V41.6667C30.6246 41.6667 34.1007 40.2268 36.6637 37.6638L33.8353 34.8354ZM36.6666 28C36.6666 30.5638 35.6481 33.0225 33.8353 34.8354L36.6637 37.6638C39.2267 35.1008 40.6666 31.6246 40.6666 28H36.6666ZM36.6666 21V28H40.6666V21H36.6666ZM39.3026 14.636C37.6148 16.3239 36.6666 18.6131 36.6666 21H40.6666C40.6666 19.6739 41.1934 18.4021 42.131 17.4645L39.3026 14.636ZM108.334 72.6665H101.334V76.6665H108.334V72.6665ZM114.698 75.3025C113.01 73.6147 110.721 72.6665 108.334 72.6665V76.6665C109.66 76.6665 110.932 77.1933 111.869 78.131L114.698 75.3025ZM117.334 81.6665C117.334 79.2796 116.385 76.9904 114.698 75.3025L111.869 78.131C112.807 79.0687 113.334 80.3404 113.334 81.6665H117.334ZM114.698 88.0305C116.385 86.3426 117.334 84.0535 117.334 81.6665H113.334C113.334 82.9926 112.807 84.2644 111.869 85.202L114.698 88.0305ZM108.334 90.6665C110.721 90.6665 113.01 89.7183 114.698 88.0305L111.869 85.202C110.932 86.1397 109.66 86.6665 108.334 86.6665V90.6665ZM101.334 90.6665H108.334V86.6665H101.334V90.6665ZM94.4983 93.4978C96.3111 91.685 98.7699 90.6665 101.334 90.6665V86.6665C97.709 86.6665 94.2329 88.1064 91.6699 90.6694L94.4983 93.4978ZM91.667 100.333C91.667 97.7694 92.6854 95.3107 94.4983 93.4978L91.6699 90.6694C89.1069 93.2324 87.667 96.7086 87.667 100.333H91.667ZM91.667 107.333V100.333H87.667V107.333H91.667ZM89.0309 113.697C90.7188 112.009 91.667 109.72 91.667 107.333H87.667C87.667 108.659 87.1402 109.931 86.2025 110.869L89.0309 113.697ZM82.667 116.333C85.0539 116.333 87.3431 115.385 89.031 113.697L86.2025 110.869C85.2648 111.806 83.9931 112.333 82.667 112.333V116.333ZM76.303 113.697C77.9909 115.385 80.28 116.333 82.667 116.333V112.333C81.3409 112.333 80.0691 111.806 79.1315 110.869L76.303 113.697ZM73.667 107.333C73.667 109.72 74.6152 112.009 76.303 113.697L79.1315 110.869C78.1938 109.931 77.667 108.659 77.667 107.333H73.667ZM73.667 100.333V107.333H77.667V100.333H73.667ZM81.7786 80.7781C76.5922 85.9644 73.675 92.9964 73.667 100.331L77.667 100.335C77.6738 94.0601 80.1697 88.0438 84.607 83.6065L81.7786 80.7781ZM101.331 72.6665C93.9969 72.6745 86.9649 75.5917 81.7786 80.7781L84.607 83.6065C89.0443 79.1692 95.0606 76.6733 101.336 76.6665L101.331 72.6665ZM101.334 41.6667H108.334V37.6667H101.334V41.6667ZM91.6699 37.6638C94.2329 40.2268 97.709 41.6667 101.334 41.6667V37.6667C98.7699 37.6667 96.3111 36.6482 94.4983 34.8354L91.6699 37.6638ZM87.667 28C87.667 31.6246 89.1069 35.1008 91.6699 37.6638L94.4983 34.8354C92.6854 33.0225 91.667 30.5638 91.667 28H87.667ZM87.667 21V28H91.667V21H87.667ZM86.2025 17.4645C87.1402 18.4021 87.667 19.6739 87.667 21H91.667C91.667 18.6131 90.7188 16.3239 89.0309 14.636L86.2025 17.4645ZM82.667 16C83.9931 16 85.2648 16.5268 86.2025 17.4645L89.031 14.636C87.3431 12.9482 85.0539 12 82.667 12V16ZM79.1315 17.4645C80.0691 16.5268 81.3409 16 82.667 16V12C80.28 12 77.9909 12.9482 76.303 14.636L79.1315 17.4645ZM77.667 21C77.667 19.6739 78.1938 18.4021 79.1315 17.4645L76.303 14.636C74.6152 16.3239 73.667 18.6131 73.667 21H77.667ZM77.667 28V21H73.667V28H77.667ZM84.607 44.7267C80.1697 40.2894 77.6738 34.2731 77.667 27.9978L73.667 28.0022C73.675 35.3368 76.5922 42.3687 81.7786 47.5551L84.607 44.7267ZM101.336 51.6667C95.0606 51.6598 89.0443 49.164 84.607 44.7267L81.7786 47.5551C86.9649 52.7415 93.9969 55.6587 101.331 55.6667L101.336 51.6667ZM108.334 51.6667H101.334V55.6667H108.334V51.6667ZM111.869 50.2022C110.932 51.1399 109.66 51.6667 108.334 51.6667V55.6667C110.721 55.6667 113.01 54.7185 114.698 53.0306L111.869 50.2022ZM113.334 46.6667C113.334 47.9928 112.807 49.2645 111.869 50.2022L114.698 53.0306C116.385 51.3428 117.334 49.0536 117.334 46.6667H113.334ZM111.869 43.1311C112.807 44.0688 113.334 45.3406 113.334 46.6667H117.334C117.334 44.2797 116.385 41.9905 114.698 40.3027L111.869 43.1311ZM108.334 41.6667C109.66 41.6667 110.932 42.1935 111.869 43.1311L114.698 40.3027C113.01 38.6149 110.721 37.6667 108.334 37.6667V41.6667ZM27 72.6665H20V76.6665H27V72.6665ZM46.555 80.7781C41.3686 75.5917 34.3367 72.6745 27.0021 72.6665L26.9978 76.6665C33.273 76.6733 39.2893 79.1692 43.7266 83.6065L46.555 80.7781ZM54.6665 100.331C54.6585 92.9964 51.7413 85.9644 46.555 80.7781L43.7266 83.6065C48.1638 88.0438 50.6597 94.0601 50.6665 100.335L54.6665 100.331ZM54.6665 107.333V100.333H50.6665V107.333H54.6665ZM52.0305 113.697C53.7183 112.009 54.6665 109.72 54.6665 107.333H50.6665C50.6665 108.659 50.1397 109.931 49.2021 110.869L52.0305 113.697ZM45.6666 116.333C48.0535 116.333 50.3427 115.385 52.0305 113.697L49.2021 110.869C48.2644 111.806 46.9926 112.333 45.6666 112.333V116.333ZM39.3026 113.697C40.9904 115.385 43.2796 116.333 45.6666 116.333V112.333C44.3405 112.333 43.0687 111.806 42.131 110.869L39.3026 113.697ZM36.6666 107.333C36.6666 109.72 37.6148 112.009 39.3026 113.697L42.131 110.869C41.1934 109.931 40.6666 108.659 40.6666 107.333H36.6666ZM36.6666 100.333V107.333H40.6666V100.333H36.6666ZM33.8353 93.4978C35.6481 95.3107 36.6666 97.7694 36.6666 100.333H40.6666C40.6666 96.7085 39.2267 93.2324 36.6637 90.6694L33.8353 93.4978ZM27 90.6665C29.5637 90.6665 32.0224 91.685 33.8353 93.4978L36.6637 90.6694C34.1007 88.1064 30.6246 86.6665 27 86.6665V90.6665ZM20 90.6665H27V86.6665H20V90.6665ZM13.636 88.0305C15.3239 89.7183 17.613 90.6665 20 90.6665V86.6665C18.6739 86.6665 17.4021 86.1397 16.4645 85.202L13.636 88.0305ZM11 81.6665C11 84.0534 11.9482 86.3426 13.636 88.0305L16.4645 85.202C15.5268 84.2644 15 82.9926 15 81.6665H11ZM13.636 75.3025C11.9482 76.9904 11 79.2796 11 81.6665H15C15 80.3404 15.5268 79.0686 16.4645 78.131L13.636 75.3025ZM20 72.6665C17.613 72.6665 15.3239 73.6147 13.636 75.3025L16.4645 78.131C17.4021 77.1933 18.6739 76.6665 20 76.6665V72.6665Z" fill="url(#paint1_linear_902_2)"/>
<defs>
<linearGradient id="paint0_linear_902_2" x1="31.548" y1="102.488" x2="122.25" y2="21.7715" gradientUnits="userSpaceOnUse">
<stop stop-color="#FE0844"/>
<stop offset="1" stop-color="#FEB302"/>
</linearGradient>
<linearGradient id="paint1_linear_902_2" x1="31.548" y1="102.488" x2="122.25" y2="21.7715" gradientUnits="userSpaceOnUse">
<stop stop-color="#FE0844"/>
<stop offset="1" stop-color="#FEB302"/>
</linearGradient>
</defs>
</svg>
