<svg width="128" height="128" viewBox="0 0 128 128" fill="none" xmlns="http://www.w3.org/2000/svg">
<path fill-rule="evenodd" clip-rule="evenodd" d="M63.9951 21C84.8306 21.1955 104.179 31.8297 115.511 49.3146C121.496 58.0855 121.496 69.6275 115.511 78.3986C104.179 95.8835 84.8306 106.518 63.9953 106.713C43.1545 106.511 23.8054 95.8662 12.4791 78.3705C6.50696 69.6057 6.50696 58.0792 12.4791 49.3146C23.8118 31.8297 43.1598 21.1955 63.9951 21ZM63.9951 92.6404C80.218 92.5201 95.263 84.1474 103.915 70.4239C106.613 66.4611 106.613 61.2519 103.915 57.2893C95.2628 43.5659 80.2178 35.1929 63.9951 35.0729C47.7721 35.1932 32.7271 43.5659 24.075 57.2893C21.3776 61.2519 21.3776 66.4611 24.075 70.4239C32.7274 84.1474 47.7724 92.5203 63.9951 92.6404ZM82.7609 63.856C82.7609 74.219 74.3601 82.6198 63.9972 82.6198C53.6342 82.6198 45.2334 74.219 45.2334 63.856C45.2334 53.4931 53.6342 45.0923 63.9972 45.0923C74.3601 45.0923 82.7609 53.4931 82.7609 63.856Z" fill="url(#paint0_linear_904_101)"/>
<path d="M115.511 49.3146L114.672 49.8585L114.679 49.8685L114.685 49.8783L115.511 49.3146ZM63.9951 21L64.0045 20L63.9951 20L63.9857 20L63.9951 21ZM115.511 78.3986L114.685 77.835L114.679 77.8448L114.672 77.8548L115.511 78.3986ZM63.9953 106.713L63.9856 107.713L63.9952 107.713L64.0047 107.713L63.9953 106.713ZM12.4791 78.3705L13.3186 77.8271L13.3122 77.8172L13.3055 77.8074L12.4791 78.3705ZM12.4791 49.3146L13.3055 49.8777L13.312 49.8682L13.3183 49.8585L12.4791 49.3146ZM103.915 70.4239L103.089 69.8613L103.079 69.8758L103.069 69.8906L103.915 70.4239ZM63.9951 92.6404L63.9877 93.6404L63.9951 93.6404L64.0025 93.6404L63.9951 92.6404ZM103.915 57.2893L103.069 57.8227L103.079 57.8375L103.089 57.852L103.915 57.2893ZM63.9951 35.0729L64.0025 34.0729L63.9951 34.0728L63.9877 34.0729L63.9951 35.0729ZM24.075 57.2893L24.9016 57.852L24.9115 57.8375L24.9209 57.8227L24.075 57.2893ZM24.075 70.4239L24.9209 69.8906L24.9115 69.8758L24.9016 69.8613L24.075 70.4239ZM116.35 48.7707C104.835 31.0042 85.1756 20.1987 64.0045 20L63.9857 22C84.4857 22.1923 103.522 32.6553 114.672 49.8585L116.35 48.7707ZM116.338 78.9623C122.554 69.8512 122.554 57.8619 116.337 48.751L114.685 49.8783C120.438 58.3092 120.438 69.4038 114.685 77.835L116.338 78.9623ZM64.0047 107.713C85.1756 107.515 104.835 96.7091 116.351 78.9425L114.672 77.8548C103.522 95.058 84.4857 105.521 63.9859 105.713L64.0047 107.713ZM11.6397 78.9139C23.1484 96.6914 42.8091 107.508 63.9856 107.713L64.005 105.713C43.4998 105.515 24.4624 95.0409 13.3186 77.8271L11.6397 78.9139ZM11.6527 48.7515C5.44908 57.8558 5.44909 69.8291 11.6527 78.9336L13.3055 77.8074C7.56482 69.3824 7.56483 58.3026 13.3055 49.8777L11.6527 48.7515ZM63.9857 20C42.8148 20.1987 23.1551 31.0042 11.64 48.7707L13.3183 49.8585C24.4684 32.6553 43.5047 22.1923 64.0045 22L63.9857 20ZM103.069 69.8906C94.5989 83.3258 79.8699 91.5227 63.9877 91.6404L64.0025 93.6404C80.5662 93.5176 95.9272 84.969 104.761 70.9573L103.069 69.8906ZM103.089 57.852C105.555 61.4751 105.555 66.2379 103.089 69.8613L104.742 70.9866C107.67 66.6843 107.67 61.0288 104.742 56.7266L103.089 57.852ZM63.9877 36.0728C79.8697 36.1904 94.5987 44.3874 103.069 57.8227L104.761 56.756C95.927 42.7443 80.566 34.1955 64.0025 34.0729L63.9877 36.0728ZM24.9209 57.8227C33.3913 44.3874 48.1203 36.1906 64.0025 36.0728L63.9877 34.0729C47.424 34.1957 32.063 42.7443 23.229 56.756L24.9209 57.8227ZM24.9016 69.8613C22.4354 66.2379 22.4354 61.4751 24.9016 57.852L23.2483 56.7266C20.3198 61.0288 20.3198 66.6843 23.2483 70.9866L24.9016 69.8613ZM64.0025 91.6404C48.1205 91.5229 33.3915 83.3258 24.9209 69.8906L23.2291 70.9573C32.0632 84.969 47.4242 93.5178 63.9877 93.6404L64.0025 91.6404ZM63.9972 83.6198C74.9124 83.6198 83.7609 74.7713 83.7609 63.856H81.7609C81.7609 73.6667 73.8078 81.6198 63.9972 81.6198V83.6198ZM44.2334 63.856C44.2334 74.7713 53.0819 83.6198 63.9972 83.6198V81.6198C54.1865 81.6198 46.2334 73.6667 46.2334 63.856H44.2334ZM63.9972 44.0923C53.0819 44.0923 44.2334 52.9408 44.2334 63.856H46.2334C46.2334 54.0454 54.1865 46.0923 63.9972 46.0923V44.0923ZM83.7609 63.856C83.7609 52.9408 74.9124 44.0923 63.9972 44.0923V46.0923C73.8078 46.0923 81.7609 54.0454 81.7609 63.856H83.7609Z" fill="url(#paint1_linear_904_101)"/>
<defs>
<linearGradient id="paint0_linear_904_101" x1="63.9999" y1="106.713" x2="63.9999" y2="21" gradientUnits="userSpaceOnUse">
<stop stop-color="#02AA93"/>
<stop offset="1" stop-color="#67FF80"/>
</linearGradient>
<linearGradient id="paint1_linear_904_101" x1="63.9999" y1="106.713" x2="63.9999" y2="21" gradientUnits="userSpaceOnUse">
<stop stop-color="#02AA93"/>
<stop offset="1" stop-color="#67FF80"/>
</linearGradient>
</defs>
</svg>
