<svg width="64" height="64" viewBox="0 0 64 64" fill="none" xmlns="http://www.w3.org/2000/svg">
<path fill-rule="evenodd" clip-rule="evenodd" d="M45.4846 6.5C45.4846 4.567 43.9176 3 41.9846 3C40.0516 3 38.4846 4.567 38.4846 6.5V6.5C38.4846 6.80596 38.2366 7.05399 37.9306 7.05399H25.3006C24.9947 7.05399 24.7466 6.80596 24.7466 6.5V6.5C24.7466 4.567 23.1796 3 21.2466 3C19.3136 3 17.7466 4.567 17.7466 6.5V6.5C17.7466 6.935 17.4258 7.30137 16.9979 7.37932C14.0855 7.9098 11.4653 9.10508 9.38545 11.0821C6.41744 13.9036 5 17.8891 5 22.4737V45.7061C5 50.3348 6.40672 54.3656 9.361 57.2289C12.2979 60.0754 16.3271 61.3442 20.7481 61.3442H42.4618C46.8764 61.3442 50.9007 60.1041 53.8389 57.2986C56.8018 54.4697 58.2099 50.4795 58.2099 45.9003V22.4793C58.2229 17.8996 56.8218 13.9112 53.8577 11.0855C51.7777 9.10271 49.1526 7.90673 46.2323 7.37732C45.805 7.29987 45.4846 6.93422 45.4846 6.5V6.5ZM37.5904 14.054C38.0843 14.054 38.4846 14.4543 38.4846 14.9482V14.9482C38.4846 16.8812 40.0516 18.4482 41.9846 18.4482C43.9176 18.4482 45.4846 16.8812 45.4846 14.9482V14.9482C45.4846 14.6503 45.7619 14.4292 46.0478 14.5127C47.3251 14.8857 48.3039 15.4622 49.0277 16.1522C50.0787 17.1541 50.8991 18.6872 51.1387 20.9839C51.1971 21.5436 50.7402 22.0088 50.1774 22.0088H13.0383C12.4739 22.0088 12.0165 21.5412 12.0775 20.9802C12.3266 18.6923 13.1521 17.1596 14.2083 16.1556C14.9352 15.4646 15.9142 14.8886 17.1861 14.5154C17.4705 14.4319 17.7466 14.6518 17.7466 14.9482V14.9482C17.7466 16.8812 19.3136 18.4482 21.2466 18.4482C23.1796 18.4482 24.7466 16.8812 24.7466 14.9482V14.9482C24.7466 14.4543 25.147 14.054 25.6408 14.054H37.5904ZM13 29.0088C12.4477 29.0088 12 29.4565 12 30.0088V45.7061C12 48.9186 12.9478 50.9569 14.2328 52.2024C15.5352 53.4647 17.63 54.3442 20.7481 54.3442H42.4618C45.61 54.3442 47.7098 53.4724 49.0049 52.2358C50.2753 51.0228 51.2099 49.041 51.2099 45.9003V30.0088C51.2099 29.4565 50.7621 29.0088 50.2099 29.0088H13ZM43.008 32.0347C41.075 32.0347 39.508 33.6017 39.508 35.5346C39.508 37.4676 41.075 39.0346 43.008 39.0346H43.0318C44.9648 39.0346 46.5318 37.4676 46.5318 35.5346C46.5318 33.6017 44.9648 32.0347 43.0318 32.0347H43.008ZM28.1167 35.5346C28.1167 33.6017 29.6837 32.0347 31.6167 32.0347H31.6405C33.5735 32.0347 35.1405 33.6017 35.1405 35.5346C35.1405 37.4676 33.5735 39.0346 31.6405 39.0346H31.6167C29.6837 39.0346 28.1167 37.4676 28.1167 35.5346ZM20.2022 32.0347C18.2692 32.0347 16.7022 33.6017 16.7022 35.5346C16.7022 37.4676 18.2692 39.0346 20.2022 39.0346H20.226C22.159 39.0346 23.726 37.4676 23.726 35.5346C23.726 33.6017 22.159 32.0347 20.226 32.0347H20.2022ZM39.508 45.5127C39.508 43.5797 41.075 42.0127 43.008 42.0127H43.0318C44.9648 42.0127 46.5318 43.5797 46.5318 45.5127C46.5318 47.4457 44.9648 49.0127 43.0318 49.0127H43.008C41.075 49.0127 39.508 47.4457 39.508 45.5127ZM31.6167 42.0127C29.6837 42.0127 28.1167 43.5797 28.1167 45.5127C28.1167 47.4457 29.6837 49.0127 31.6167 49.0127H31.6405C33.5735 49.0127 35.1405 47.4457 35.1405 45.5127C35.1405 43.5797 33.5735 42.0127 31.6405 42.0127H31.6167ZM16.7022 45.5127C16.7022 43.5797 18.2692 42.0127 20.2022 42.0127H20.226C22.159 42.0127 23.726 43.5797 23.726 45.5127C23.726 47.4457 22.159 49.0127 20.226 49.0127H20.2022C18.2692 49.0127 16.7022 47.4457 16.7022 45.5127Z" fill="url(#paint0_linear_906_20)"/>
<defs>
<linearGradient id="paint0_linear_906_20" x1="29.2912" y1="59.7773" x2="36.4965" y2="7.22088" gradientUnits="userSpaceOnUse">
<stop stop-color="#8D01A2"/>
<stop offset="1" stop-color="#FF33DB"/>
</linearGradient>
</defs>
</svg>
