<svg width="64" height="64" viewBox="0 0 64 64" fill="none" xmlns="http://www.w3.org/2000/svg">
<path fill-rule="evenodd" clip-rule="evenodd" d="M10 13.1754C10 11.3971 11.4222 10 13.1222 10H21.286C22.986 10 24.4082 11.3971 24.4082 13.1754V21.41C24.4082 23.1866 22.9852 24.5854 21.286 24.5854H13.1222C11.423 24.5854 10 23.1866 10 21.41V13.1754ZM13.1222 4C8.05965 4 4 8.13235 4 13.1754V21.41C4 26.4496 8.05884 30.5854 13.1222 30.5854H21.286C26.3494 30.5854 30.4082 26.4496 30.4082 21.41V13.1754C30.4082 8.13235 26.3485 4 21.286 4H13.1222ZM39.5918 13.1754C39.5918 11.3971 41.014 10 42.714 10H50.8803C52.577 10 54 11.3962 54 13.1754V21.41C54 23.1874 52.5762 24.5854 50.8803 24.5854H42.714C41.0148 24.5854 39.5918 23.1866 39.5918 21.41V13.1754ZM42.714 4C37.6514 4 33.5918 8.13235 33.5918 13.1754V21.41C33.5918 26.4496 37.6506 30.5854 42.714 30.5854H50.8803C55.942 30.5854 60 26.4488 60 21.41V13.1754C60 8.13317 55.9412 4 50.8803 4H42.714ZM13.1222 39.4136C11.423 39.4136 10 40.8098 10 42.5915V50.8236C10 52.6019 11.4222 53.999 13.1222 53.999H21.286C22.986 53.999 24.4082 52.6019 24.4082 50.8236V42.5915C24.4082 40.8098 22.9852 39.4136 21.286 39.4136H13.1222ZM4 42.5915C4 37.5467 8.05884 33.4136 13.1222 33.4136H21.286C26.3494 33.4136 30.4082 37.5467 30.4082 42.5915V50.8236C30.4082 55.8666 26.3485 59.999 21.286 59.999H13.1222C8.05965 59.999 4 55.8666 4 50.8236V42.5915ZM39.5918 42.5915C39.5918 40.8098 41.0148 39.4136 42.714 39.4136H50.8803C52.5762 39.4136 54 40.809 54 42.5915V50.8236C54 52.6027 52.577 53.999 50.8803 53.999H42.714C41.014 53.999 39.5918 52.6019 39.5918 50.8236V42.5915ZM42.714 33.4136C37.6506 33.4136 33.5918 37.5467 33.5918 42.5915V50.8236C33.5918 55.8666 37.6514 59.999 42.714 59.999H50.8803C55.9412 59.999 60 55.8658 60 50.8236V42.5915C60 37.5476 55.942 33.4136 50.8803 33.4136H42.714Z" fill="url(#paint0_linear_906_20)"/>
<defs>
<linearGradient id="paint0_linear_906_20" x1="57.4629" y1="4.96246" x2="6.27624" y2="58.775" gradientUnits="userSpaceOnUse">
<stop stop-color="#D800BD"/>
<stop offset="0.408098" stop-color="#F92D7A"/>
<stop offset="0.590073" stop-color="#FF4A52"/>
<stop offset="1" stop-color="#FFB243"/>
</linearGradient>
</defs>
</svg>
