<svg width="128" height="128" viewBox="0 0 128 128" fill="none" xmlns="http://www.w3.org/2000/svg">
<path d="M115.519 49.2749C111.889 43.9905 107.568 39.216 102.67 35.0792L115.885 21.8687C118.553 19.0434 118.427 14.5897 115.601 11.9212C112.886 9.35693 108.641 9.36001 105.93 11.928L90.7024 27.1604C82.4128 23.0181 73.2619 20.8932 63.9952 20.9585C43.1583 21.1579 23.8094 31.7915 12.4715 49.2749C6.50951 58.0433 6.50951 69.5639 12.4715 78.3325C16.1014 83.6169 20.4229 88.3914 25.3207 92.5282L12.1056 105.753C9.35657 108.502 9.35657 112.959 12.1056 115.707C14.8545 118.456 19.3115 118.456 22.0603 115.707L37.288 100.475C45.5776 104.617 54.7286 106.742 63.9952 106.677C84.8322 106.478 104.181 95.8441 115.519 78.3606C121.494 69.5859 121.494 58.0497 115.519 49.2749ZM24.0776 70.3855C21.3762 66.4237 21.3762 61.2118 24.0776 57.2501C32.7281 43.5261 47.7727 35.1524 63.9952 35.0324C69.4622 35.0058 74.8898 35.9593 80.0205 37.8471L71.323 46.54C61.7835 42.4903 50.7671 46.9409 46.7176 56.4804C44.7283 61.1663 44.7283 66.4596 46.7176 71.1454L35.2851 82.5827C30.9722 79.0874 27.1963 74.9779 24.0776 70.3855ZM103.913 70.3855C95.2621 84.1095 80.2176 92.4831 63.9952 92.6032C58.5283 92.6298 53.1006 91.6763 47.9699 89.7885L56.6674 81.0909C66.207 85.1406 77.2234 80.69 81.2729 71.1505C83.2621 66.4646 83.2621 61.1714 81.2729 56.4855L92.7053 45.0531C97.018 48.5484 100.794 52.6579 103.913 57.2503C106.614 61.2118 106.614 66.4237 103.913 70.3855Z" fill="url(#paint0_linear_904_101)" stroke="url(#paint1_linear_904_101)" stroke-width="2"/>
<defs>
<linearGradient id="paint0_linear_904_101" x1="111.016" y1="96.3011" x2="79.6589" y2="1.02237" gradientUnits="userSpaceOnUse">
<stop stop-color="#FF3649"/>
<stop offset="1" stop-color="#FF3678"/>
</linearGradient>
<linearGradient id="paint1_linear_904_101" x1="111.016" y1="96.3011" x2="79.6589" y2="1.02237" gradientUnits="userSpaceOnUse">
<stop stop-color="#FF3649"/>
<stop offset="1" stop-color="#FF3678"/>
</linearGradient>
</defs>
</svg>
