<svg width="128" height="128" viewBox="0 0 128 128" fill="none" xmlns="http://www.w3.org/2000/svg">
<path fill-rule="evenodd" clip-rule="evenodd" d="M70.1017 22.3966C47.137 19.0172 25.7809 34.8943 22.4016 57.859C21.9499 61.3413 19.0026 63.9595 15.4914 63.9974C15.1411 63.993 14.7918 63.9627 14.4461 63.9065C10.6084 63.2822 8.00326 59.6648 8.62756 55.8268C10.211 45.001 14.9355 34.8775 22.2158 26.7104C42.766 3.65673 78.1141 1.62732 101.168 22.1775L107.213 16.1322C108.085 15.2607 109.267 14.7709 110.5 14.7707C113.068 14.7703 115.151 16.8518 115.151 19.42V40.7462C115.151 43.3145 113.07 45.3964 110.501 45.3964H89.1751C87.9424 45.3962 86.7601 44.9064 85.8884 44.0349C84.0719 42.2191 84.0715 39.2746 85.8873 37.4584L91.3047 32.0409C85.2867 26.8926 77.9368 23.5495 70.1017 22.3966ZM105.594 70.1346C106.046 66.6524 108.993 64.0342 112.504 63.9963C112.856 64.0004 113.208 64.0312 113.555 64.0881C117.392 64.715 119.995 68.3341 119.368 72.1717C117.785 83.0014 113.058 93.1283 105.774 101.297C85.2216 124.346 49.8762 126.369 26.828 105.816L20.7827 111.862C19.911 112.733 18.7287 113.223 17.496 113.223C14.9277 113.223 12.8453 111.142 12.8447 108.574V87.2476C12.8447 84.6794 14.9266 82.5975 17.4949 82.5975H38.8206C40.0533 82.5977 41.2356 83.0875 42.1073 83.959C43.9238 85.7747 43.9242 88.7192 42.1084 90.5354L36.6909 95.9529C42.709 101.101 50.0589 104.444 57.894 105.597C80.8587 108.976 102.215 93.0993 105.594 70.1346Z" fill="url(#paint0_linear_904_101)"/>
<path d="M22.4016 57.859L21.4122 57.7135L21.411 57.7219L21.4099 57.7304L22.4016 57.859ZM70.1017 22.3966L69.9561 23.3859L69.9561 23.3859L70.1017 22.3966ZM15.4914 63.9974L15.4789 64.9973L15.4905 64.9975L15.5022 64.9973L15.4914 63.9974ZM14.4461 63.9065L14.6067 62.9195L14.6067 62.9195L14.4461 63.9065ZM8.62756 55.8268L9.61459 55.9874L9.61587 55.9794L9.61703 55.9715L8.62756 55.8268ZM22.2158 26.7104L22.9623 27.3758L22.9623 27.3758L22.2158 26.7104ZM101.168 22.1775L100.502 22.924L101.207 23.5522L101.875 22.8846L101.168 22.1775ZM107.213 16.1322L106.506 15.425L106.506 15.4251L107.213 16.1322ZM110.5 14.7707L110.5 13.7707L110.5 13.7707L110.5 14.7707ZM115.151 19.42L116.151 19.42L116.151 19.4198L115.151 19.42ZM89.1751 45.3964L89.1749 46.3964H89.1751V45.3964ZM85.8884 44.0349L86.5954 43.3277L86.5953 43.3277L85.8884 44.0349ZM85.8873 37.4584L85.1802 36.7513L85.1801 36.7514L85.8873 37.4584ZM91.3047 32.0409L92.0118 32.748L92.7762 31.9837L91.9548 31.281L91.3047 32.0409ZM112.504 63.9963L112.516 62.9964L112.505 62.9962L112.494 62.9964L112.504 63.9963ZM105.594 70.1346L106.583 70.2802L106.585 70.2717L106.586 70.2633L105.594 70.1346ZM113.555 64.0881L113.393 65.0749L113.394 65.075L113.555 64.0881ZM119.368 72.1717L118.381 72.0104L118.38 72.0187L118.379 72.027L119.368 72.1717ZM105.774 101.297L105.028 100.632L105.028 100.632L105.774 101.297ZM26.828 105.816L27.4935 105.07L26.7886 104.441L26.1209 105.109L26.828 105.816ZM20.7827 111.862L21.4897 112.569L21.4898 112.569L20.7827 111.862ZM17.496 113.223L17.4961 114.223L17.4961 114.223L17.496 113.223ZM12.8447 108.574L11.8447 108.574L11.8447 108.574L12.8447 108.574ZM38.8206 82.5975L38.8208 81.5975H38.8206V82.5975ZM42.1073 83.959L41.4003 84.6662L41.4004 84.6662L42.1073 83.959ZM42.1084 90.5354L42.8155 91.2425L42.8156 91.2425L42.1084 90.5354ZM36.6909 95.9529L35.9838 95.2458L35.2195 96.0101L36.0409 96.7128L36.6909 95.9529ZM57.894 105.597L57.7484 106.587L57.7484 106.587L57.894 105.597ZM23.3909 58.0046C26.6899 35.5863 47.5378 20.087 69.9561 23.3859L70.2473 21.4072C46.7362 17.9475 24.872 34.2023 21.4122 57.7135L23.3909 58.0046ZM15.5022 64.9973C19.5118 64.954 22.8775 61.9642 23.3933 57.9877L21.4099 57.7304C21.0223 60.7184 18.4933 62.9649 15.4806 62.9974L15.5022 64.9973ZM14.2856 64.8935C14.6805 64.9578 15.0792 64.9923 15.4789 64.9973L15.5038 62.9975C15.2029 62.9937 14.9032 62.9677 14.6067 62.9195L14.2856 64.8935ZM7.64053 55.6662C6.92757 60.0493 9.90264 64.1805 14.2856 64.8935L14.6067 62.9195C11.3141 62.3838 9.07895 59.2803 9.61459 55.9874L7.64053 55.6662ZM21.4694 26.045C14.0588 34.3581 9.24982 44.6627 7.63809 55.6821L9.61703 55.9715C11.1721 45.3393 15.8122 35.3969 22.9623 27.3758L21.4694 26.045ZM101.833 21.431C78.3672 0.513353 42.387 2.57904 21.4694 26.045L22.9623 27.3758C43.145 4.73441 77.8609 2.74129 100.502 22.924L101.833 21.431ZM106.506 15.4251L100.461 21.4704L101.875 22.8846L107.921 16.8394L106.506 15.4251ZM110.5 13.7707C109.002 13.771 107.566 14.3661 106.506 15.425L107.92 16.8394C108.605 16.1554 109.533 15.7709 110.5 15.7707L110.5 13.7707ZM116.151 19.4198C116.151 16.2993 113.62 13.7702 110.5 13.7707L110.5 15.7707C112.516 15.7704 114.151 17.4043 114.151 19.4203L116.151 19.4198ZM116.151 40.7462V19.42H114.151V40.7462H116.151ZM110.501 46.3964C113.622 46.3964 116.151 43.8668 116.151 40.7462H114.151C114.151 42.7622 112.517 44.3964 110.501 44.3964V46.3964ZM89.1751 46.3964H110.501V44.3964H89.1751V46.3964ZM85.1813 44.7421C86.2405 45.801 87.6771 46.3961 89.1749 46.3964L89.1752 44.3964C88.2077 44.3962 87.2796 44.0118 86.5954 43.3277L85.1813 44.7421ZM85.1801 36.7514C82.9738 38.9582 82.9743 42.5359 85.1814 44.7421L86.5953 43.3277C85.1695 41.9023 85.1692 39.591 86.5945 38.1654L85.1801 36.7514ZM90.5976 31.3338L85.1802 36.7513L86.5944 38.1655L92.0118 32.748L90.5976 31.3338ZM69.9561 23.3859C77.6048 24.5114 84.7798 27.775 90.6547 32.8008L91.9548 31.281C85.7936 26.0103 78.2688 22.5876 70.2473 21.4072L69.9561 23.3859ZM112.494 62.9964C108.484 63.0397 105.118 66.0295 104.602 70.006L106.586 70.2633C106.973 67.2753 109.502 65.0288 112.515 64.9962L112.494 62.9964ZM113.717 63.1012C113.32 63.0362 112.919 63.0011 112.516 62.9964L112.493 64.9962C112.794 64.9998 113.095 65.0261 113.393 65.0749L113.717 63.1012ZM120.355 72.3329C121.071 67.9503 118.099 63.8171 113.716 63.1012L113.394 65.075C116.686 65.6128 118.919 68.7179 118.381 72.0104L120.355 72.3329ZM106.521 101.963C113.935 93.6478 118.746 83.3397 120.358 72.3163L118.379 72.027C116.824 82.663 112.182 92.6089 105.028 100.632L106.521 101.963ZM26.1624 106.563C49.6229 127.483 85.6004 125.423 106.521 101.963L105.028 100.632C84.8428 123.268 50.1295 125.255 27.4935 105.07L26.1624 106.563ZM21.4898 112.569L27.5351 106.523L26.1209 105.109L20.0756 111.154L21.4898 112.569ZM17.4961 114.223C18.9939 114.223 20.4305 113.628 21.4897 112.569L20.0757 111.154C19.3914 111.838 18.4634 112.223 17.4958 112.223L17.4961 114.223ZM11.8447 108.574C11.8455 111.695 14.3756 114.224 17.4961 114.223L17.4958 112.223C15.4798 112.223 13.8452 110.589 13.8447 108.574L11.8447 108.574ZM11.8447 87.2476V108.574H13.8447V87.2476H11.8447ZM17.4949 81.5975C14.3743 81.5975 11.8447 84.1271 11.8447 87.2476H13.8447C13.8447 85.2317 15.4789 83.5975 17.4949 83.5975V81.5975ZM38.8206 81.5975H17.4949V83.5975H38.8206V81.5975ZM42.8144 83.2518C41.7552 82.1928 40.3186 81.5977 38.8208 81.5975L38.8204 83.5975C39.788 83.5976 40.7161 83.9821 41.4003 84.6662L42.8144 83.2518ZM42.8156 91.2425C45.0219 89.0356 45.0214 85.458 42.8143 83.2517L41.4004 84.6662C42.8262 86.0915 42.8265 88.4028 41.4012 89.8284L42.8156 91.2425ZM37.3981 96.66L42.8155 91.2425L41.4013 89.8283L35.9838 95.2458L37.3981 96.66ZM58.0395 104.608C50.3909 103.482 43.2159 100.219 37.341 95.193L36.0409 96.7128C42.2021 101.984 49.7269 105.406 57.7484 106.587L58.0395 104.608ZM104.605 69.989C101.306 92.4073 80.4579 107.907 58.0395 104.608L57.7484 106.587C81.2595 110.046 103.124 93.7913 106.583 70.2802L104.605 69.989Z" fill="url(#paint1_linear_904_101)"/>
<defs>
<linearGradient id="paint0_linear_904_101" x1="6.9318" y1="9.10206" x2="122.421" y2="126.985" gradientUnits="userSpaceOnUse">
<stop stop-color="#F9D423"/>
<stop offset="0.515624" stop-color="#FF4E50"/>
<stop offset="0.991304" stop-color="#8A2387"/>
</linearGradient>
<linearGradient id="paint1_linear_904_101" x1="6.9318" y1="9.10206" x2="122.421" y2="126.985" gradientUnits="userSpaceOnUse">
<stop stop-color="#F9D423"/>
<stop offset="0.515624" stop-color="#FF4E50"/>
<stop offset="0.991304" stop-color="#8A2387"/>
</linearGradient>
</defs>
</svg>
