<svg width="16" height="16" viewBox="0 0 16 16" fill="none" xmlns="http://www.w3.org/2000/svg">
<g clip-path="url(#clip0_911_41)">
<path d="M2 1C1.44772 1 1 1.44772 1 2V14C1 14.5523 1.44772 15 2 15H14C14.5523 15 15 14.5523 15 14V2C15 1.44772 14.5523 1 14 1H2ZM2.16667 4.33333C2.16667 3.78105 2.61438 3.33333 3.16667 3.33333H3.5C4.05228 3.33333 4.5 3.78105 4.5 4.33333V12.8333C4.5 13.3856 4.05228 13.8333 3.5 13.8333H3.16667C2.61438 13.8333 2.16667 13.3856 2.16667 12.8333V4.33333ZM5.66667 4.33333C5.66667 3.78105 6.11438 3.33333 6.66667 3.33333H12.8333C13.3856 3.33333 13.8333 3.78105 13.8333 4.33333V12.8333C13.8333 13.3856 13.3856 13.8333 12.8333 13.8333H6.66667C6.11438 13.8333 5.66667 13.3856 5.66667 12.8333V4.33333Z" fill="url(#paint0_linear_911_41)" stroke="url(#paint1_linear_911_41)" stroke-width="0.6"/>
<path d="M8.66569 8.23004L7.67574 7.24009C7.48048 7.04483 7.48048 6.72825 7.67574 6.53298L7.81716 6.39156C8.01242 6.1963 8.329 6.1963 8.52427 6.39156L9.51422 7.38151C9.70948 7.57677 10.026 7.57677 10.2213 7.38151L11.2112 6.39156C11.4065 6.1963 11.7231 6.1963 11.9183 6.39156L12.0598 6.53298C12.255 6.72825 12.255 7.04483 12.0598 7.24009L11.0698 8.23004C10.8745 8.4253 10.8745 8.74189 11.0698 8.93715L12.0598 9.9271C12.255 10.1223 12.255 10.4389 12.0598 10.6342L11.9183 10.7756C11.7231 10.9709 11.4065 10.9709 11.2112 10.7756L10.2213 9.78568C10.026 9.59041 9.70948 9.59041 9.51422 9.78568L8.52427 10.7756C8.329 10.9709 8.01242 10.9709 7.81716 10.7756L7.67574 10.6342C7.48048 10.4389 7.48048 10.1223 7.67574 9.9271L8.66569 8.93715C8.86095 8.74189 8.86095 8.4253 8.66569 8.23004Z" fill="url(#paint2_linear_911_41)" stroke="url(#paint3_linear_911_41)"/>
</g>
<defs>
<linearGradient id="paint0_linear_911_41" x1="14.527" y1="1.40016" x2="9.06638" y2="15.1117" gradientUnits="userSpaceOnUse">
<stop stop-color="#FE0F7C"/>
<stop offset="1" stop-color="#DF0066"/>
</linearGradient>
<linearGradient id="paint1_linear_911_41" x1="14.527" y1="1.40016" x2="9.06638" y2="15.1117" gradientUnits="userSpaceOnUse">
<stop stop-color="#FE0F7C"/>
<stop offset="1" stop-color="#DF0066"/>
</linearGradient>
<linearGradient id="paint2_linear_911_41" x1="9.8457" y1="4.60555" x2="12.3461" y2="10.4156" gradientUnits="userSpaceOnUse">
<stop stop-color="#FE0F7C"/>
<stop offset="1" stop-color="#DF0066"/>
</linearGradient>
<linearGradient id="paint3_linear_911_41" x1="9.8457" y1="4.60555" x2="12.3461" y2="10.4156" gradientUnits="userSpaceOnUse">
<stop stop-color="#FE0F7C"/>
<stop offset="1" stop-color="#DF0066"/>
</linearGradient>
<clipPath id="clip0_911_41">
<rect width="16" height="16" fill="white"/>
</clipPath>
</defs>
</svg>
