<svg width="128" height="128" viewBox="0 0 128 128" fill="none" xmlns="http://www.w3.org/2000/svg">
<path fill-rule="evenodd" clip-rule="evenodd" d="M31.3333 29.6667C31.3333 36.11 26.11 41.3333 19.6667 41.3333C13.2233 41.3333 8 36.11 8 29.6667C8 23.2233 13.2233 18 19.6667 18C26.11 18 31.3333 23.2233 31.3333 29.6667ZM113.001 36.668H45.334C43.4775 36.668 41.697 35.9305 40.3842 34.6177C39.0715 33.305 38.334 31.5245 38.334 29.668C38.334 27.8115 39.0715 26.031 40.3842 24.7182C41.697 23.4055 43.4775 22.668 45.334 22.668H113.001C114.857 22.668 116.638 23.4055 117.95 24.7182C119.263 26.031 120.001 27.8115 120.001 29.668C120.001 31.5245 119.263 33.305 117.95 34.6177C116.638 35.9305 114.857 36.668 113.001 36.668ZM45.334 59.332H113.001C114.857 59.332 116.638 60.0695 117.95 61.3823C119.263 62.695 120.001 64.4755 120.001 66.332C120.001 68.1885 119.263 69.969 117.95 71.2818C116.638 72.5945 114.857 73.332 113.001 73.332H45.334C43.4775 73.332 41.697 72.5945 40.3842 71.2818C39.0715 69.969 38.334 68.1885 38.334 66.332C38.334 64.4755 39.0715 62.695 40.3842 61.3823C41.697 60.0695 43.4775 59.332 45.334 59.332ZM113.001 94H45.334C43.4775 94 41.697 94.7375 40.3842 96.0503C39.0715 97.363 38.334 99.1435 38.334 101C38.334 102.857 39.0715 104.637 40.3842 105.95C41.697 107.262 43.4775 108 45.334 108H113.001C114.857 108 116.638 107.262 117.95 105.95C119.263 104.637 120.001 102.857 120.001 101C120.001 99.1435 119.263 97.363 117.95 96.0503C116.638 94.7375 114.857 94 113.001 94ZM19.6667 75.6653C26.11 75.6653 31.3333 70.442 31.3333 63.9987C31.3333 57.5554 26.11 52.332 19.6667 52.332C13.2233 52.332 8 57.5554 8 63.9987C8 70.442 13.2233 75.6653 19.6667 75.6653ZM31.3333 98.6666C31.3333 105.11 26.11 110.333 19.6667 110.333C13.2233 110.333 8 105.11 8 98.6666C8 92.2233 13.2233 87 19.6667 87C26.11 87 31.3333 92.2233 31.3333 98.6666Z" fill="url(#paint0_linear_902_2)"/>
<path d="M40.3842 24.7182L38.97 23.304L38.97 23.304L40.3842 24.7182ZM117.95 24.7182L119.365 23.304L119.365 23.304L117.95 24.7182ZM117.95 34.6177L119.365 36.0319L119.365 36.0319L117.95 34.6177ZM117.95 61.3823L119.365 59.9681L119.365 59.9681L117.95 61.3823ZM117.95 71.2818L119.365 72.696L119.365 72.696L117.95 71.2818ZM40.3842 71.2818L38.97 72.696L38.97 72.696L40.3842 71.2818ZM40.3842 61.3823L38.97 59.9681L38.97 59.9681L40.3842 61.3823ZM40.3842 96.0503L38.97 94.636L38.97 94.636L40.3842 96.0503ZM40.3842 105.95L38.97 107.364L38.97 107.364L40.3842 105.95ZM117.95 105.95L119.365 107.364L119.365 107.364L117.95 105.95ZM117.95 96.0503L119.365 94.636L119.365 94.636L117.95 96.0503ZM19.6667 43.3333C27.2146 43.3333 33.3333 37.2146 33.3333 29.6667H29.3333C29.3333 35.0054 25.0054 39.3333 19.6667 39.3333V43.3333ZM6 29.6667C6 37.2146 12.1188 43.3333 19.6667 43.3333V39.3333C14.3279 39.3333 10 35.0054 10 29.6667H6ZM19.6667 16C12.1188 16 6 22.1188 6 29.6667H10C10 24.3279 14.3279 20 19.6667 20V16ZM33.3333 29.6667C33.3333 22.1188 27.2146 16 19.6667 16V20C25.0054 20 29.3333 24.3279 29.3333 29.6667H33.3333ZM45.334 38.668H113.001V34.668H45.334V38.668ZM38.97 36.0319C40.6579 37.7198 42.947 38.668 45.334 38.668V34.668C44.0079 34.668 42.7361 34.1412 41.7984 33.2035L38.97 36.0319ZM36.334 29.668C36.334 32.0549 37.2822 34.3441 38.97 36.0319L41.7984 33.2035C40.8608 32.2658 40.334 30.9941 40.334 29.668H36.334ZM38.97 23.304C37.2822 24.9918 36.334 27.281 36.334 29.668H40.334C40.334 28.3419 40.8608 27.0701 41.7984 26.1324L38.97 23.304ZM45.334 20.668C42.947 20.668 40.6579 21.6162 38.97 23.304L41.7984 26.1324C42.7361 25.1948 44.0079 24.668 45.334 24.668V20.668ZM113.001 20.668H45.334V24.668H113.001V20.668ZM119.365 23.304C117.677 21.6162 115.388 20.668 113.001 20.668V24.668C114.327 24.668 115.599 25.1948 116.536 26.1324L119.365 23.304ZM122.001 29.668C122.001 27.281 121.052 24.9918 119.365 23.304L116.536 26.1324C117.474 27.0701 118.001 28.3419 118.001 29.668H122.001ZM119.365 36.0319C121.052 34.3441 122.001 32.0549 122.001 29.668H118.001C118.001 30.994 117.474 32.2658 116.536 33.2035L119.365 36.0319ZM113.001 38.668C115.388 38.668 117.677 37.7198 119.365 36.0319L116.536 33.2035C115.599 34.1412 114.327 34.668 113.001 34.668V38.668ZM113.001 57.332H45.334V61.332H113.001V57.332ZM119.365 59.9681C117.677 58.2802 115.388 57.332 113.001 57.332V61.332C114.327 61.332 115.599 61.8588 116.536 62.7965L119.365 59.9681ZM122.001 66.332C122.001 63.9451 121.052 61.6559 119.365 59.9681L116.536 62.7965C117.474 63.7342 118.001 65.006 118.001 66.332H122.001ZM119.365 72.696C121.052 71.0082 122.001 68.719 122.001 66.332H118.001C118.001 67.6581 117.474 68.9299 116.536 69.8676L119.365 72.696ZM113.001 75.332C115.388 75.332 117.677 74.3838 119.365 72.696L116.536 69.8676C115.599 70.8052 114.327 71.332 113.001 71.332V75.332ZM45.334 75.332H113.001V71.332H45.334V75.332ZM38.97 72.696C40.6579 74.3838 42.947 75.332 45.334 75.332V71.332C44.0079 71.332 42.7361 70.8052 41.7984 69.8676L38.97 72.696ZM36.334 66.332C36.334 68.719 37.2822 71.0082 38.97 72.696L41.7984 69.8676C40.8608 68.9299 40.334 67.6581 40.334 66.332H36.334ZM38.97 59.9681C37.2822 61.6559 36.334 63.9451 36.334 66.332H40.334C40.334 65.0059 40.8608 63.7342 41.7984 62.7965L38.97 59.9681ZM45.334 57.332C42.947 57.332 40.6579 58.2802 38.97 59.9681L41.7984 62.7965C42.7361 61.8588 44.0079 61.332 45.334 61.332V57.332ZM45.334 96H113.001V92H45.334V96ZM41.7984 97.4645C42.7361 96.5268 44.0079 96 45.334 96V92C42.947 92 40.6578 92.9482 38.97 94.636L41.7984 97.4645ZM40.334 101C40.334 99.6739 40.8608 98.4022 41.7985 97.4645L38.97 94.636C37.2822 96.3239 36.334 98.6131 36.334 101H40.334ZM41.7985 104.536C40.8608 103.598 40.334 102.326 40.334 101H36.334C36.334 103.387 37.2822 105.676 38.97 107.364L41.7985 104.536ZM45.334 106C44.0079 106 42.7361 105.473 41.7984 104.536L38.97 107.364C40.6578 109.052 42.947 110 45.334 110V106ZM113.001 106H45.334V110H113.001V106ZM116.536 104.536C115.598 105.473 114.327 106 113.001 106V110C115.388 110 117.677 109.052 119.365 107.364L116.536 104.536ZM118.001 101C118.001 102.326 117.474 103.598 116.536 104.536L119.365 107.364C121.052 105.676 122.001 103.387 122.001 101H118.001ZM116.536 97.4645C117.474 98.4022 118.001 99.6739 118.001 101H122.001C122.001 98.613 121.052 96.3239 119.365 94.636L116.536 97.4645ZM113.001 96C114.327 96 115.598 96.5268 116.536 97.4645L119.365 94.636C117.677 92.9482 115.388 92 113.001 92V96ZM29.3333 63.9987C29.3333 69.3374 25.0054 73.6653 19.6667 73.6653V77.6653C27.2146 77.6653 33.3333 71.5465 33.3333 63.9987H29.3333ZM19.6667 54.332C25.0054 54.332 29.3333 58.6599 29.3333 63.9987H33.3333C33.3333 56.4508 27.2146 50.332 19.6667 50.332V54.332ZM10 63.9987C10 58.6599 14.3279 54.332 19.6667 54.332V50.332C12.1188 50.332 6 56.4508 6 63.9987H10ZM19.6667 73.6653C14.3279 73.6653 10 69.3374 10 63.9987H6C6 71.5465 12.1188 77.6653 19.6667 77.6653V73.6653ZM19.6667 112.333C27.2146 112.333 33.3333 106.215 33.3333 98.6666H29.3333C29.3333 104.005 25.0054 108.333 19.6667 108.333V112.333ZM6 98.6666C6 106.215 12.1188 112.333 19.6667 112.333V108.333C14.3279 108.333 10 104.005 10 98.6666H6ZM19.6667 85C12.1188 85 6 91.1188 6 98.6666H10C10 93.3279 14.3279 89 19.6667 89V85ZM33.3333 98.6666C33.3333 91.1188 27.2146 85 19.6667 85V89C25.0054 89 29.3333 93.3279 29.3333 98.6666H33.3333Z" fill="url(#paint1_linear_902_2)"/>
<defs>
<linearGradient id="paint0_linear_902_2" x1="120.001" y1="65.9239" x2="36.4751" y2="78.0346" gradientUnits="userSpaceOnUse">
<stop stop-color="#BE41B4"/>
<stop offset="1" stop-color="#FE1FE8"/>
</linearGradient>
<linearGradient id="paint1_linear_902_2" x1="120.001" y1="65.9239" x2="36.4751" y2="78.0346" gradientUnits="userSpaceOnUse">
<stop stop-color="#BE41B4"/>
<stop offset="1" stop-color="#FE1FE8"/>
</linearGradient>
</defs>
</svg>
