<svg width="64" height="64" viewBox="0 0 64 64" fill="none" xmlns="http://www.w3.org/2000/svg">
<path d="M15.0833 30.375C15.0833 29.4136 15.4653 28.4916 16.1451 27.8117C16.8249 27.1319 17.7469 26.75 18.7083 26.75H45.2917C46.2531 26.75 47.1751 27.1319 47.8549 27.8117C48.5347 28.4916 48.9167 29.4136 48.9167 30.375C48.9167 31.3364 48.5347 32.2584 47.8549 32.9383C47.1751 33.6181 46.2531 34 45.2917 34H18.7083C17.7469 34 16.8249 33.6181 16.1451 32.9383C15.4653 32.2584 15.0833 31.3364 15.0833 30.375ZM18.7083 46.0833H35.625C36.5864 46.0833 37.5084 45.7014 38.1883 45.0216C38.8681 44.3418 39.25 43.4197 39.25 42.4583C39.25 41.4969 38.8681 40.5749 38.1883 39.8951C37.5084 39.2153 36.5864 38.8333 35.625 38.8333H18.7083C17.7469 38.8333 16.8249 39.2153 16.1451 39.8951C15.4653 40.5749 15.0833 41.4969 15.0833 42.4583C15.0833 43.4197 15.4653 44.3418 16.1451 45.0216C16.8249 45.7014 17.7469 46.0833 18.7083 46.0833ZM61 18.2917V44.875C60.9962 48.399 59.5946 51.7776 57.1027 54.2694C54.6109 56.7612 51.2323 58.1628 47.7083 58.1667H16.2917C12.7677 58.1628 9.38912 56.7612 6.89728 54.2694C4.40544 51.7776 3.00384 48.399 3 44.875L3 18.2917C3.00384 14.7677 4.40544 11.3891 6.89728 8.89728C9.38912 6.40544 12.7677 5.00384 16.2917 5H47.7083C51.2323 5.00384 54.6109 6.40544 57.1027 8.89728C59.5946 11.3891 60.9962 14.7677 61 18.2917ZM22.3333 13.4583C22.3333 14.1753 22.5459 14.8761 22.9443 15.4723C23.3426 16.0684 23.9087 16.533 24.5711 16.8074C25.2335 17.0818 25.9624 17.1536 26.6655 17.0137C27.3687 16.8738 28.0146 16.5286 28.5216 16.0216C29.0286 15.5146 29.3738 14.8687 29.5137 14.1655C29.6536 13.4624 29.5818 12.7335 29.3074 12.0711C29.033 11.4087 28.5684 10.8426 27.9723 10.4443C27.3761 10.0459 26.6753 9.83333 25.9583 9.83333C24.9969 9.83333 24.0749 10.2153 23.3951 10.8951C22.7153 11.5749 22.3333 12.4969 22.3333 13.4583ZM10.25 13.4583C10.25 14.1753 10.4626 14.8761 10.8609 15.4723C11.2592 16.0684 11.8254 16.533 12.4878 16.8074C13.1502 17.0818 13.879 17.1536 14.5822 17.0137C15.2854 16.8738 15.9313 16.5286 16.4383 16.0216C16.9452 15.5146 17.2905 14.8687 17.4303 14.1655C17.5702 13.4624 17.4984 12.7335 17.2241 12.0711C16.9497 11.4087 16.4851 10.8426 15.8889 10.4443C15.2928 10.0459 14.592 9.83333 13.875 9.83333C12.9136 9.83333 11.9916 10.2153 11.3117 10.8951C10.6319 11.5749 10.25 12.4969 10.25 13.4583ZM53.75 23.9167C53.75 22.8121 52.8546 21.9167 51.75 21.9167H12.25C11.1454 21.9167 10.25 22.8121 10.25 23.9167V44.875C10.25 46.4773 10.8865 48.0141 12.0196 49.1471C13.1526 50.2801 14.6893 50.9167 16.2917 50.9167H47.7083C49.3107 50.9167 50.8474 50.2801 51.9804 49.1471C53.1135 48.0141 53.75 46.4773 53.75 44.875V23.9167Z" fill="url(#paint0_linear_906_20)"/>
<defs>
<linearGradient id="paint0_linear_906_20" x1="32" y1="58.1667" x2="32" y2="5" gradientUnits="userSpaceOnUse">
<stop stop-color="#A93AFF"/>
<stop offset="1" stop-color="#FF81FF"/>
</linearGradient>
</defs>
</svg>
