<svg width="128" height="128" viewBox="0 0 128 128" fill="none" xmlns="http://www.w3.org/2000/svg">
<path fill-rule="evenodd" clip-rule="evenodd" d="M87.3329 8H94.3329C101.138 8.00741 107.662 10.714 112.474 15.5258C117.286 20.3376 119.992 26.8617 119.999 33.6667V40.6667C119.999 42.5232 119.262 44.3037 117.949 45.6164C116.636 46.9292 114.856 47.6667 113 47.6667C111.143 47.6667 109.363 46.9292 108.05 45.6164C106.737 44.3037 106 42.5232 106 40.6667V33.6667C106 30.5725 104.77 27.605 102.582 25.4171C100.395 23.2292 97.4271 22 94.3329 22H87.3329C85.4764 22 83.696 21.2625 82.3832 19.9497C81.0705 18.637 80.333 16.8565 80.333 15C80.333 13.1435 81.0705 11.363 82.3832 10.0503C83.696 8.7375 85.4764 8 87.3329 8ZM33.6667 8.00004H40.6667C42.5232 8.00004 44.3037 8.73753 45.6165 10.0503C46.9292 11.363 47.6667 13.1435 47.6667 15C47.6667 16.8566 46.9292 18.637 45.6165 19.9498C44.3037 21.2625 42.5232 22 40.6667 22H33.6667C30.5725 22 27.605 23.2292 25.4171 25.4171C23.2292 27.605 22 30.5725 22 33.6667V40.6667C22 42.5232 21.2625 44.3037 19.9498 45.6165C18.637 46.9292 16.8566 47.6667 15 47.6667C13.1435 47.6667 11.363 46.9292 10.0503 45.6165C8.73753 44.3037 8.00004 42.5232 8.00004 40.6667V33.6667C8.00745 26.8618 10.714 20.3376 15.5258 15.5258C20.3376 10.714 26.8618 8.00745 33.6667 8.00004ZM108.05 82.3843C109.363 81.0715 111.143 80.334 113 80.334C114.856 80.334 116.636 81.0715 117.949 82.3843C119.262 83.6971 119.999 85.4775 119.999 87.334V94.334C119.992 101.139 117.286 107.663 112.474 112.475C107.662 117.287 101.138 119.993 94.3329 120.001H87.3329C85.4764 120.001 83.696 119.263 82.3832 117.95C81.0705 116.638 80.333 114.857 80.333 113.001C80.333 111.144 81.0705 109.364 82.3832 108.051C83.696 106.738 85.4764 106.001 87.3329 106.001H94.3329C97.4271 106.001 100.395 104.772 102.582 102.584C104.77 100.396 106 97.4282 106 94.334V87.334C106 85.4775 106.737 83.6971 108.05 82.3843ZM40.6667 106.001H33.6667C30.5725 106.001 27.605 104.772 25.4171 102.584C23.2292 100.396 22 97.4282 22 94.334V87.334C22 85.4775 21.2625 83.6971 19.9497 82.3843C18.637 81.0715 16.8565 80.334 15 80.334C13.1435 80.334 11.363 81.0715 10.0503 82.3843C8.7375 83.6971 8 85.4775 8 87.334V94.334C8.00741 101.139 10.714 107.663 15.5258 112.475C20.3376 117.287 26.8617 119.993 33.6667 120.001H40.6667C42.5232 120.001 44.3037 119.263 45.6164 117.95C46.9292 116.638 47.6667 114.857 47.6667 113.001C47.6667 111.144 46.9292 109.364 45.6164 108.051C44.3037 106.738 42.5232 106.001 40.6667 106.001Z" fill="url(#paint0_linear_904_98)"/>
<path d="M94.3329 8L94.3351 6H94.3329V8ZM119.999 33.6667H121.999V33.6645L119.999 33.6667ZM33.6667 8.00004V6.00003L33.6645 6.00004L33.6667 8.00004ZM8.00004 33.6667L6.00004 33.6645V33.6667H8.00004ZM119.999 94.334L121.999 94.3362V94.334H119.999ZM94.3329 120.001V122.001H94.3351L94.3329 120.001ZM8 94.334H6V94.3362L8 94.334ZM33.6667 120.001L33.6645 122.001H33.6667V120.001ZM94.3329 6H87.3329V10H94.3329V6ZM113.888 14.1116C108.702 8.9252 101.67 6.00799 94.3351 6L94.3307 10C100.606 10.0068 106.622 12.5027 111.06 16.94L113.888 14.1116ZM121.999 33.6645C121.992 26.3299 119.074 19.2979 113.888 14.1116L111.06 16.94C115.497 21.3773 117.993 27.3936 117.999 33.6688L121.999 33.6645ZM121.999 40.6667V33.6667H117.999V40.6667H121.999ZM119.363 47.0306C121.051 45.3428 121.999 43.0536 121.999 40.6667H117.999C117.999 41.9927 117.473 43.2645 116.535 44.2022L119.363 47.0306ZM113 49.6667C115.386 49.6667 117.676 48.7185 119.363 47.0306L116.535 44.2022C115.597 45.1399 114.326 45.6667 113 45.6667V49.6667ZM106.636 47.0306C108.323 48.7185 110.613 49.6667 113 49.6667V45.6667C111.673 45.6667 110.402 45.1399 109.464 44.2022L106.636 47.0306ZM104 40.6667C104 43.0536 104.948 45.3428 106.636 47.0306L109.464 44.2022C108.526 43.2645 108 41.9928 108 40.6667H104ZM104 33.6667V40.6667H108V33.6667H104ZM101.168 26.8313C102.981 28.6441 104 31.1029 104 33.6667H108C108 30.042 106.56 26.5659 103.997 24.0029L101.168 26.8313ZM94.3329 24C96.8967 24 99.3554 25.0184 101.168 26.8313L103.997 24.0029C101.434 21.4399 97.9575 20 94.3329 20V24ZM87.3329 24H94.3329V20H87.3329V24ZM80.969 21.364C82.6568 23.0518 84.946 24 87.3329 24V20C86.0069 20 84.7351 19.4732 83.7974 18.5355L80.969 21.364ZM78.333 15C78.333 17.3869 79.2812 19.6761 80.969 21.364L83.7974 18.5355C82.8597 17.5979 82.333 16.3261 82.333 15H78.333ZM80.969 8.63604C79.2812 10.3239 78.333 12.6131 78.333 15H82.333C82.333 13.6739 82.8597 12.4021 83.7974 11.4645L80.969 8.63604ZM87.3329 6C84.946 6 82.6568 6.94821 80.969 8.63604L83.7974 11.4645C84.7351 10.5268 86.0069 10 87.3329 10V6ZM40.6667 6.00004L33.6667 6.00003V10H40.6667V6.00004ZM47.0307 8.63608C45.3428 6.94826 43.0537 6.00004 40.6667 6.00004V10C41.9928 10 43.2646 10.5268 44.2022 11.4645L47.0307 8.63608ZM49.6667 15C49.6667 12.6131 48.7185 10.3239 47.0307 8.63608L44.2022 11.4645C45.1399 12.4022 45.6667 13.674 45.6667 15H49.6667ZM47.0307 21.364C48.7185 19.6762 49.6667 17.387 49.6667 15H45.6667C45.6667 16.3261 45.1399 17.5979 44.2022 18.5356L47.0307 21.364ZM40.6667 24C43.0537 24 45.3428 23.0518 47.0307 21.364L44.2022 18.5356C43.2646 19.4733 41.9928 20 40.6667 20V24ZM33.6667 24H40.6667V20H33.6667V24ZM26.8313 26.8313C28.6442 25.0185 31.1029 24 33.6667 24V20C30.0421 20 26.5659 21.4399 24.0029 24.0029L26.8313 26.8313ZM24 33.6667C24 31.1029 25.0185 28.6442 26.8313 26.8313L24.0029 24.0029C21.4399 26.5659 20 30.0421 20 33.6667H24ZM24 40.6667V33.6667H20V40.6667H24ZM21.364 47.0307C23.0518 45.3428 24 43.0537 24 40.6667H20C20 41.9928 19.4733 43.2646 18.5356 44.2022L21.364 47.0307ZM15 49.6667C17.387 49.6667 19.6762 48.7185 21.364 47.0307L18.5356 44.2022C17.5979 45.1399 16.3261 45.6667 15 45.6667V49.6667ZM8.63607 47.0307C10.3239 48.7185 12.6131 49.6667 15 49.6667V45.6667C13.674 45.6667 12.4022 45.1399 11.4645 44.2022L8.63607 47.0307ZM6.00004 40.6667C6.00004 43.0537 6.94825 45.3428 8.63607 47.0307L11.4645 44.2022C10.5268 43.2646 10 41.9928 10 40.6667H6.00004ZM6.00004 33.6667V40.6667H10V33.6667H6.00004ZM14.1116 14.1116C8.92523 19.298 6.00803 26.3299 6.00004 33.6645L10 33.6689C10.0069 27.3936 12.5027 21.3773 16.94 16.94L14.1116 14.1116ZM33.6645 6.00004C26.3299 6.00803 19.298 8.92523 14.1116 14.1116L16.94 16.94C21.3773 12.5027 27.3936 10.0069 33.6689 10L33.6645 6.00004ZM113 78.334C110.613 78.334 108.323 79.2823 106.636 80.9701L109.464 83.7985C110.402 82.8608 111.673 82.334 113 82.334V78.334ZM119.363 80.9701C117.676 79.2823 115.386 78.334 113 78.334V82.334C114.326 82.334 115.597 82.8608 116.535 83.7985L119.363 80.9701ZM121.999 87.334C121.999 84.9471 121.051 82.6579 119.363 80.9701L116.535 83.7985C117.473 84.7362 117.999 86.008 117.999 87.334H121.999ZM121.999 94.334V87.334H117.999V94.334H121.999ZM113.888 113.889C119.074 108.703 121.992 101.671 121.999 94.3362L117.999 94.3319C117.993 100.607 115.497 106.623 111.06 111.061L113.888 113.889ZM94.3351 122.001C101.67 121.993 108.702 119.076 113.888 113.889L111.06 111.061C106.622 115.498 100.606 117.994 94.3307 118.001L94.3351 122.001ZM87.3329 122.001H94.3329V118.001H87.3329V122.001ZM80.969 119.365C82.6568 121.052 84.946 122.001 87.3329 122.001V118.001C86.0069 118.001 84.7351 117.474 83.7974 116.536L80.969 119.365ZM78.333 113.001C78.333 115.388 79.2812 117.677 80.969 119.365L83.7974 116.536C82.8597 115.599 82.333 114.327 82.333 113.001H78.333ZM80.969 106.637C79.2812 108.325 78.333 110.614 78.333 113.001H82.333C82.333 111.675 82.8597 110.403 83.7974 109.465L80.969 106.637ZM87.3329 104.001C84.946 104.001 82.6568 104.949 80.969 106.637L83.7974 109.465C84.7351 108.527 86.0069 108.001 87.3329 108.001V104.001ZM94.3329 104.001H87.3329V108.001H94.3329V104.001ZM101.168 101.169C99.3554 102.982 96.8967 104.001 94.3329 104.001V108.001C97.9575 108.001 101.434 106.561 103.997 103.998L101.168 101.169ZM104 94.334C104 96.8978 102.981 99.3566 101.168 101.169L103.997 103.998C106.56 101.435 108 97.9587 108 94.334H104ZM104 87.334V94.334H108V87.334H104ZM106.636 80.9701C104.948 82.6579 104 84.9471 104 87.334H108C108 86.008 108.526 84.7362 109.464 83.7985L106.636 80.9701ZM33.6667 108.001H40.6667V104.001H33.6667V108.001ZM24.0029 103.998C26.5659 106.561 30.042 108.001 33.6667 108.001V104.001C31.1029 104.001 28.6442 102.982 26.8313 101.169L24.0029 103.998ZM20 94.334C20 97.9587 21.4399 101.435 24.0029 103.998L26.8313 101.169C25.0184 99.3566 24 96.8978 24 94.334H20ZM20 87.334V94.334H24V87.334H20ZM18.5355 83.7985C19.4732 84.7362 20 86.008 20 87.334H24C24 84.9471 23.0518 82.6579 21.364 80.9701L18.5355 83.7985ZM15 82.334C16.3261 82.334 17.5979 82.8608 18.5355 83.7985L21.364 80.9701C19.6761 79.2823 17.3869 78.334 15 78.334V82.334ZM11.4645 83.7985C12.4021 82.8608 13.6739 82.334 15 82.334V78.334C12.6131 78.334 10.3239 79.2823 8.63604 80.9701L11.4645 83.7985ZM10 87.334C10 86.008 10.5268 84.7362 11.4645 83.7985L8.63604 80.9701C6.94821 82.6579 6 84.9471 6 87.334H10ZM10 94.334V87.334H6V94.334H10ZM16.94 111.061C12.5027 106.623 10.0068 100.607 10 94.3319L6 94.3362C6.00799 101.671 8.9252 108.703 14.1116 113.889L16.94 111.061ZM33.6688 118.001C27.3936 117.994 21.3773 115.498 16.94 111.061L14.1116 113.889C19.2979 119.076 26.3299 121.993 33.6645 122.001L33.6688 118.001ZM40.6667 118.001H33.6667V122.001H40.6667V118.001ZM44.2022 116.536C43.2645 117.474 41.9927 118.001 40.6667 118.001V122.001C43.0536 122.001 45.3428 121.052 47.0306 119.365L44.2022 116.536ZM45.6667 113.001C45.6667 114.327 45.1399 115.599 44.2022 116.536L47.0306 119.365C48.7185 117.677 49.6667 115.388 49.6667 113.001H45.6667ZM44.2022 109.465C45.1399 110.403 45.6667 111.675 45.6667 113.001H49.6667C49.6667 110.614 48.7185 108.325 47.0306 106.637L44.2022 109.465ZM40.6667 108.001C41.9928 108.001 43.2645 108.527 44.2022 109.465L47.0306 106.637C45.3428 104.949 43.0536 104.001 40.6667 104.001V108.001Z" fill="url(#paint1_linear_904_98)"/>
<path d="M58.175 36C69.8363 36 79.4707 45.538 79.4707 57.1989C79.4707 61.2616 78.2113 65.0262 76.1902 68.2558L75.6205 69.1233L89.8175 83.3361C90.8169 84.3023 91.2227 85.7302 90.8809 87.0779C90.5392 88.426 89.502 89.4871 88.1636 89.8589C86.9921 90.1841 85.7474 89.938 84.7936 89.2156L84.4036 88.8769L70.2066 74.6641C66.7903 77.0185 62.6103 78.3978 58.175 78.3978C46.5138 78.3978 37 68.8598 37 57.1989C37 45.538 46.5138 36 58.175 36ZM58.175 39.8544C48.5355 39.8544 40.85 47.5593 40.85 57.1989C40.85 66.8379 48.5355 74.5437 58.175 74.5437C67.8148 74.5437 75.5001 66.8379 75.5001 57.1989C75.5001 47.5593 67.8148 39.8544 58.175 39.8544Z" fill="url(#paint2_linear_904_98)" stroke="url(#paint3_linear_904_98)" stroke-width="10"/>
<defs>
<linearGradient id="paint0_linear_904_98" x1="63.9995" y1="120.001" x2="63.9995" y2="8" gradientUnits="userSpaceOnUse">
<stop stop-color="#A93AFF"/>
<stop offset="1" stop-color="#FF81FF"/>
</linearGradient>
<linearGradient id="paint1_linear_904_98" x1="63.9995" y1="122.001" x2="63.9995" y2="6" gradientUnits="userSpaceOnUse">
<stop stop-color="#A93AFF"/>
<stop offset="1" stop-color="#FF81FF"/>
</linearGradient>
<linearGradient id="paint2_linear_904_98" x1="64" y1="90" x2="64" y2="36" gradientUnits="userSpaceOnUse">
<stop stop-color="#A93AFF"/>
<stop offset="1" stop-color="#FF81FF"/>
</linearGradient>
<linearGradient id="paint3_linear_904_98" x1="64" y1="90" x2="64" y2="36" gradientUnits="userSpaceOnUse">
<stop stop-color="#A93AFF"/>
<stop offset="1" stop-color="#FF81FF"/>
</linearGradient>
</defs>
</svg>
