<svg width="16" height="16" viewBox="0 0 16 16" fill="none" xmlns="http://www.w3.org/2000/svg">
<path d="M3 2C2.44772 2 2 2.44772 2 3V5V6V7V9.99997V11V13C2 13.5523 2.44772 14 3 14H13C13.5523 14 14 13.5523 14 13V11V9.99997V7V6V5V3C14 2.44772 13.5523 2 13 2H3Z" stroke="url(#paint0_linear_647_29)" stroke-width="1.6"/>
<path d="M3 2C2.44772 2 2 2.44772 2 3V5V6V7V9.99997V11V13C2 13.5523 2.44772 14 3 14H13C13.5523 14 14 13.5523 14 13V11V9.99997V7V6V5V3C14 2.44772 13.5523 2 13 2H3Z" stroke="url(#paint1_linear_647_29)" stroke-width="1.6"/>
<path d="M11.0003 3.71423C10.7634 3.71423 10.5713 3.9063 10.5713 4.14323C10.5713 4.38016 10.7634 4.57223 11.0003 4.57223H11.8566C12.0935 4.57223 12.2856 4.38016 12.2856 4.14323C12.2856 3.9063 12.0935 3.71423 11.8566 3.71423H11.0003Z" fill="url(#paint2_linear_647_29)"/>
<path d="M11.0003 3.71423C10.7634 3.71423 10.5713 3.9063 10.5713 4.14323C10.5713 4.38016 10.7634 4.57223 11.0003 4.57223H11.8566C12.0935 4.57223 12.2856 4.38016 12.2856 4.14323C12.2856 3.9063 12.0935 3.71423 11.8566 3.71423H11.0003Z" stroke="url(#paint3_linear_647_29)" stroke-width="0.4"/>
<path d="M11.0003 3.71423C10.7634 3.71423 10.5713 3.9063 10.5713 4.14323C10.5713 4.38016 10.7634 4.57223 11.0003 4.57223H11.8566C12.0935 4.57223 12.2856 4.38016 12.2856 4.14323C12.2856 3.9063 12.0935 3.71423 11.8566 3.71423H11.0003Z" stroke="url(#paint4_linear_647_29)" stroke-width="0.4"/>
<path d="M4.14244 6.28564C3.90575 6.28564 3.71387 6.47752 3.71387 6.71422C3.71387 6.95091 3.90575 7.14279 4.14244 7.14279H11.8567C12.0934 7.14279 12.2853 6.95091 12.2853 6.71422C12.2853 6.47752 12.0934 6.28564 11.8567 6.28564H4.14244Z" fill="url(#paint5_linear_647_29)"/>
<path d="M4.14244 6.28564C3.90575 6.28564 3.71387 6.47752 3.71387 6.71422C3.71387 6.95091 3.90575 7.14279 4.14244 7.14279H11.8567C12.0934 7.14279 12.2853 6.95091 12.2853 6.71422C12.2853 6.47752 12.0934 6.28564 11.8567 6.28564H4.14244Z" stroke="url(#paint6_linear_647_29)" stroke-width="0.4"/>
<path d="M4.14244 6.28564C3.90575 6.28564 3.71387 6.47752 3.71387 6.71422C3.71387 6.95091 3.90575 7.14279 4.14244 7.14279H11.8567C12.0934 7.14279 12.2853 6.95091 12.2853 6.71422C12.2853 6.47752 12.0934 6.28564 11.8567 6.28564H4.14244Z" stroke="url(#paint7_linear_647_29)" stroke-width="0.4"/>
<path d="M10.9999 7.99994C10.7632 7.99994 10.5713 8.19182 10.5713 8.42851C10.5713 8.6652 10.7632 8.85708 10.9999 8.85708H11.857C12.0937 8.85708 12.2856 8.6652 12.2856 8.42851C12.2856 8.19182 12.0937 7.99994 11.857 7.99994H10.9999Z" fill="url(#paint8_linear_647_29)"/>
<path d="M10.9999 7.99994C10.7632 7.99994 10.5713 8.19182 10.5713 8.42851C10.5713 8.6652 10.7632 8.85708 10.9999 8.85708H11.857C12.0937 8.85708 12.2856 8.6652 12.2856 8.42851C12.2856 8.19182 12.0937 7.99994 11.857 7.99994H10.9999Z" stroke="url(#paint9_linear_647_29)" stroke-width="0.4"/>
<path d="M10.9999 7.99994C10.7632 7.99994 10.5713 8.19182 10.5713 8.42851C10.5713 8.6652 10.7632 8.85708 10.9999 8.85708H11.857C12.0937 8.85708 12.2856 8.6652 12.2856 8.42851C12.2856 8.19182 12.0937 7.99994 11.857 7.99994H10.9999Z" stroke="url(#paint10_linear_647_29)" stroke-width="0.4"/>
<path d="M4.14244 9.71423C3.90575 9.71423 3.71387 9.90611 3.71387 10.1428C3.71387 10.3794 3.90575 10.5713 4.14244 10.5713H11.8567C12.0934 10.5713 12.2853 10.3794 12.2853 10.1428C12.2853 9.90611 12.0934 9.71423 11.8567 9.71423H4.14244Z" fill="url(#paint11_linear_647_29)" stroke="url(#paint12_linear_647_29)" stroke-width="0.4"/>
<path d="M10.9999 11.4285C10.7632 11.4285 10.5713 11.6204 10.5713 11.857C10.5713 12.0937 10.7632 12.2856 10.9999 12.2856H11.857C12.0937 12.2856 12.2856 12.0937 12.2856 11.857C12.2856 11.6204 12.0937 11.4285 11.857 11.4285H10.9999Z" fill="url(#paint13_linear_647_29)"/>
<path d="M10.9999 11.4285C10.7632 11.4285 10.5713 11.6204 10.5713 11.857C10.5713 12.0937 10.7632 12.2856 10.9999 12.2856H11.857C12.0937 12.2856 12.2856 12.0937 12.2856 11.857C12.2856 11.6204 12.0937 11.4285 11.857 11.4285H10.9999Z" stroke="url(#paint14_linear_647_29)" stroke-width="0.4"/>
<path d="M10.9999 11.4285C10.7632 11.4285 10.5713 11.6204 10.5713 11.857C10.5713 12.0937 10.7632 12.2856 10.9999 12.2856H11.857C12.0937 12.2856 12.2856 12.0937 12.2856 11.857C12.2856 11.6204 12.0937 11.4285 11.857 11.4285H10.9999Z" stroke="url(#paint15_linear_647_29)" stroke-width="0.4"/>
<defs>
<linearGradient id="paint0_linear_647_29" x1="7.99999" y1="97.9991" x2="7.99999" y2="-46" gradientUnits="userSpaceOnUse">
<stop stop-color="#FDA700"/>
<stop offset="1" stop-color="#FFDE00"/>
</linearGradient>
<linearGradient id="paint1_linear_647_29" x1="7.99999" y1="97.9991" x2="7.99999" y2="-46" gradientUnits="userSpaceOnUse">
<stop stop-color="#FDA700"/>
<stop offset="1" stop-color="#FFDE00"/>
</linearGradient>
<linearGradient id="paint2_linear_647_29" x1="11.4284" y1="10.5782" x2="11.4284" y2="0.282234" gradientUnits="userSpaceOnUse">
<stop stop-color="#FDA700"/>
<stop offset="1" stop-color="#FFDE00"/>
</linearGradient>
<linearGradient id="paint3_linear_647_29" x1="11.4284" y1="10.5782" x2="11.4284" y2="0.282234" gradientUnits="userSpaceOnUse">
<stop stop-color="#FDA700"/>
<stop offset="1" stop-color="#FFDE00"/>
</linearGradient>
<linearGradient id="paint4_linear_647_29" x1="11.4284" y1="10.5782" x2="11.4284" y2="0.282234" gradientUnits="userSpaceOnUse">
<stop stop-color="#FDA700"/>
<stop offset="1" stop-color="#FFDE00"/>
</linearGradient>
<linearGradient id="paint5_linear_647_29" x1="7.99958" y1="13.1428" x2="7.99958" y2="2.85707" gradientUnits="userSpaceOnUse">
<stop stop-color="#FDA700"/>
<stop offset="1" stop-color="#FFDE00"/>
</linearGradient>
<linearGradient id="paint6_linear_647_29" x1="7.99958" y1="13.1428" x2="7.99958" y2="2.85707" gradientUnits="userSpaceOnUse">
<stop stop-color="#FDA700"/>
<stop offset="1" stop-color="#FFDE00"/>
</linearGradient>
<linearGradient id="paint7_linear_647_29" x1="7.99958" y1="13.1428" x2="7.99958" y2="2.85707" gradientUnits="userSpaceOnUse">
<stop stop-color="#FDA700"/>
<stop offset="1" stop-color="#FFDE00"/>
</linearGradient>
<linearGradient id="paint8_linear_647_29" x1="11.4284" y1="14.857" x2="11.4284" y2="4.57137" gradientUnits="userSpaceOnUse">
<stop stop-color="#FDA700"/>
<stop offset="1" stop-color="#FFDE00"/>
</linearGradient>
<linearGradient id="paint9_linear_647_29" x1="11.4284" y1="14.857" x2="11.4284" y2="4.57137" gradientUnits="userSpaceOnUse">
<stop stop-color="#FDA700"/>
<stop offset="1" stop-color="#FFDE00"/>
</linearGradient>
<linearGradient id="paint10_linear_647_29" x1="11.4284" y1="14.857" x2="11.4284" y2="4.57137" gradientUnits="userSpaceOnUse">
<stop stop-color="#FDA700"/>
<stop offset="1" stop-color="#FFDE00"/>
</linearGradient>
<linearGradient id="paint11_linear_647_29" x1="7.99958" y1="16.5711" x2="7.99958" y2="6.2858" gradientUnits="userSpaceOnUse">
<stop stop-color="#FDA700"/>
<stop offset="1" stop-color="#FFDE00"/>
</linearGradient>
<linearGradient id="paint12_linear_647_29" x1="7.99958" y1="16.5711" x2="7.99958" y2="6.2858" gradientUnits="userSpaceOnUse">
<stop stop-color="#FDA700"/>
<stop offset="1" stop-color="#FFDE00"/>
</linearGradient>
<linearGradient id="paint13_linear_647_29" x1="11.4284" y1="18.2855" x2="11.4284" y2="7.99988" gradientUnits="userSpaceOnUse">
<stop stop-color="#FDA700"/>
<stop offset="1" stop-color="#FFDE00"/>
</linearGradient>
<linearGradient id="paint14_linear_647_29" x1="11.4284" y1="18.2855" x2="11.4284" y2="7.99988" gradientUnits="userSpaceOnUse">
<stop stop-color="#FDA700"/>
<stop offset="1" stop-color="#FFDE00"/>
</linearGradient>
<linearGradient id="paint15_linear_647_29" x1="11.4284" y1="18.2855" x2="11.4284" y2="7.99988" gradientUnits="userSpaceOnUse">
<stop stop-color="#FDA700"/>
<stop offset="1" stop-color="#FFDE00"/>
</linearGradient>
</defs>
</svg>
