<svg width="48" height="48" viewBox="0 0 48 48" fill="none" xmlns="http://www.w3.org/2000/svg">
<path fill-rule="evenodd" clip-rule="evenodd" d="M48 24.5608V12.6C48 11.327 47.4943 10.1061 46.594 9.20594C45.6939 8.30571 44.473 7.8 43.2 7.8H24.4734C24.1703 7.8 23.8795 7.67959 23.6652 7.46527L19.5347 3.33473C19.3204 3.12041 19.0297 3 18.7266 3H4.8C2.136 3 0 5.136 0 7.8V36.6C0 37.873 0.505714 39.0939 1.40589 39.994C2.30606 40.8943 3.52696 41.4 4.8 41.4H25.287C25.9863 41.4 26.5132 40.778 26.4511 40.0815C26.4192 39.7243 26.4 39.3646 26.4 39C26.4 31.056 32.856 24.6 40.8 24.6C42.7286 24.6 44.5546 24.9842 46.2222 25.6684C47.0369 26.0027 48 25.4414 48 24.5608ZM37.0139 33.2329L37.2012 30.3319C37.2713 29.5983 38.0372 28.9948 38.8095 29.435C40.4151 30.3752 41.9302 31.4456 43.3954 32.5915C45.203 34.02 46.6554 35.3662 47.6833 36.4411C48.1299 36.909 48.0874 37.6481 47.6611 38.0946C47.3667 38.4028 47.0623 38.7009 46.7578 38.999C46.0971 39.6356 45.322 40.3351 44.4362 41.0732C42.9322 42.305 41.3884 43.4907 39.7396 44.5223C39.6945 44.5497 39.6495 44.5772 39.6044 44.6047C39.3315 44.7712 39.0588 44.9376 38.78 45.0944C38.062 45.4994 37.2815 44.9929 37.2076 44.2511L37.0545 42.0873L36.9982 40.9532L36.7897 40.9578C35.1833 41.0217 33.6422 41.6111 32.4031 42.6353C32.0578 42.9255 31.7369 43.2433 31.4434 43.5857C30.2596 44.9938 30.0658 44.8287 29.8084 43.1263C29.7457 42.7138 29.7143 42.2958 29.7143 41.8742C29.7143 37.5983 32.8174 34.1067 36.9124 33.6268L36.9954 33.6176L37.0139 33.2329Z" fill="url(#paint0_linear_666_48)"/>
<defs>
<linearGradient id="paint0_linear_666_48" x1="-1.20659e-06" y1="45.2379" x2="55.3433" y2="17.8255" gradientUnits="userSpaceOnUse">
<stop stop-color="#0357D1"/>
<stop offset="1" stop-color="#27CDFC"/>
</linearGradient>
</defs>
</svg>
