<svg width="48" height="48" viewBox="0 0 48 48" fill="none" xmlns="http://www.w3.org/2000/svg">
<path fill-rule="evenodd" clip-rule="evenodd" d="M26.8571 25.8573V40.1679C26.8571 40.7991 26.3455 41.3129 25.7143 41.3129H4.78912C3.51896 41.3129 2.30083 40.8083 1.4027 39.9102C0.504571 39.0121 0 37.7939 0 36.5238V7.78914C0 5.13115 2.13115 3 4.78912 3H18.6831C18.9862 3 19.2769 3.12041 19.4912 3.33473L23.6109 7.45438C23.8251 7.66869 24.1159 7.78914 24.419 7.78914H43.1021C44.3722 7.78914 45.5903 8.29371 46.4885 9.19177C47.3866 10.0899 47.8912 11.3081 47.8912 12.5783V23.513C47.8912 24.1407 47.3855 24.6509 46.7579 24.6554C39.4714 24.708 31.6819 24.7136 27.9968 24.7142C27.3656 24.7143 26.8571 25.2261 26.8571 25.8573ZM33.3334 28.1429H46.6666C47.0203 28.1429 47.3594 28.2833 47.6095 28.5334C47.8595 28.7834 48 29.1225 48 29.4762V32.1429C48 32.4965 47.8595 32.8357 47.6095 33.0857C47.3594 33.3357 47.0203 33.4762 46.6666 33.4762H33.3334C32.9797 33.4762 32.6406 33.3357 32.3905 33.0857C32.1405 32.8357 32 32.4965 32 32.1429V29.4762C32 29.1225 32.1405 28.7834 32.3905 28.5334C32.6406 28.2833 32.9797 28.1429 33.3334 28.1429ZM33.3334 34.8095H36C36.3536 34.8095 36.6928 34.9499 36.9429 35.2C37.1929 35.4501 37.3334 35.7893 37.3334 36.1429V42.8095C37.3334 43.1632 37.1929 43.5023 36.9429 43.7523C36.6928 44.0024 36.3536 44.1429 36 44.1429H33.3334C32.9797 44.1429 32.6406 44.0024 32.3905 43.7523C32.1405 43.5023 32 43.1632 32 42.8095V36.1429C32 35.7893 32.1405 35.4501 32.3905 35.2C32.6406 34.9499 32.9797 34.8095 33.3334 34.8095ZM40 34.8095H46.6666C47.0203 34.8095 47.3594 34.9499 47.6095 35.2C47.8595 35.4501 48 35.7893 48 36.1429V42.8095C48 43.1632 47.8595 43.5023 47.6095 43.7523C47.3594 44.0024 47.0203 44.1429 46.6666 44.1429H40C39.6464 44.1429 39.3072 44.0024 39.0571 43.7523C38.8071 43.5023 38.6666 43.1632 38.6666 42.8095V36.1429C38.6666 35.7893 38.8071 35.4501 39.0571 35.2C39.3072 34.9499 39.6464 34.8095 40 34.8095Z" fill="url(#paint0_linear_666_46)"/>
<defs>
<linearGradient id="paint0_linear_666_46" x1="1.71429" y1="4.54672" x2="38.9715" y2="42.399" gradientUnits="userSpaceOnUse">
<stop offset="0.185028" stop-color="#A93AFF"/>
<stop offset="1" stop-color="#FF81FF"/>
</linearGradient>
</defs>
</svg>
