<svg width="48" height="48" viewBox="0 0 48 48" fill="none" xmlns="http://www.w3.org/2000/svg">
<path d="M46.8835 12.3767V24.0593C46.8835 24.9194 45.9428 25.4677 45.147 25.1412C43.5182 24.4729 41.7347 24.0976 39.851 24.0976C32.0917 24.0976 25.7859 30.4034 25.7859 38.1626C25.7859 38.5187 25.8047 38.8701 25.8358 39.2188C25.8965 39.8993 25.3818 40.5068 24.6988 40.5068H4.68835C3.44492 40.5068 2.25242 40.0128 1.37318 39.1335C0.493951 38.2544 0 37.0619 0 35.8184V7.68835C0 5.08631 2.08631 3 4.68835 3H18.291C18.5871 3 18.871 3.11761 19.0803 3.32695L23.1148 7.3614C23.3241 7.57074 23.6081 7.68835 23.9041 7.68835H42.1951C43.4385 7.68835 44.6311 8.1823 45.5102 9.06159C46.3895 9.94076 46.8835 11.1333 46.8835 12.3767Z" fill="url(#paint0_linear_666_50)"/>
<path fill-rule="evenodd" clip-rule="evenodd" d="M30.1396 34.8138C30.1396 30.8065 33.3881 27.558 37.3954 27.558C41.4027 27.558 44.6512 30.8065 44.6512 34.8138C44.6512 38.8211 41.4027 42.0696 37.3954 42.0696C33.3881 42.0696 30.1396 38.8211 30.1396 34.8138Z" fill="url(#paint1_linear_666_50)"/>
<path fill-rule="evenodd" clip-rule="evenodd" d="M40.8397 38.2584C41.7115 37.3865 42.0089 36.2702 42.8807 37.1421L47.3458 41.6072C48.2177 42.479 48.2177 43.8927 47.3458 44.7645C46.474 45.6364 45.0603 45.6364 44.1885 44.7645L39.7234 40.2994C38.8515 39.4276 39.9678 39.1302 40.8397 38.2584Z" fill="url(#paint2_linear_666_50)"/>
<defs>
<linearGradient id="paint0_linear_666_50" x1="36.837" y1="30.8767" x2="2.95267" y2="-0.217614" gradientUnits="userSpaceOnUse">
<stop stop-color="#DC18FC"/>
<stop offset="1" stop-color="#8E1EFF"/>
</linearGradient>
<linearGradient id="paint1_linear_666_50" x1="40.1861" y1="38.7207" x2="-2.47289" y2="10.0071" gradientUnits="userSpaceOnUse">
<stop stop-color="#DC18FC"/>
<stop offset="1" stop-color="#8E1EFF"/>
</linearGradient>
<linearGradient id="paint2_linear_666_50" x1="40.1858" y1="38.7207" x2="-2.47321" y2="10.0071" gradientUnits="userSpaceOnUse">
<stop stop-color="#DC18FC"/>
<stop offset="1" stop-color="#8E1EFF"/>
</linearGradient>
</defs>
</svg>
