<svg width="48" height="48" viewBox="0 0 48 48" fill="none" xmlns="http://www.w3.org/2000/svg">
<path d="M39.7486 18.4057L20.5714 37.5829V39.5714H4.57143C3.35901 39.5714 2.19625 39.0898 1.33894 38.2324C0.481636 37.3752 0 36.2124 0 34.9999V7.57143C0 5.03428 2.03428 3 4.57143 3H18.2857L22.8572 7.57143H41.1428C42.3553 7.57143 43.518 8.05306 44.3753 8.91032C45.2327 9.76767 45.7143 10.9305 45.7143 12.1429V17.0571C45.12 16.8514 44.4799 16.7142 43.8171 16.7142C42.2857 16.7142 40.8457 17.3086 39.7486 18.4057ZM25.1428 39.48V44.1428H29.8057L43.8171 30.1542L39.1542 25.4686L25.1428 39.48ZM47.6571 24.6457L44.64 21.6286C44.1829 21.1714 43.4285 21.1714 42.9942 21.6286L40.7543 23.8685L45.4171 28.5314L47.6571 26.2914C48.1143 25.8572 48.1143 25.1029 47.6571 24.6457Z" fill="url(#paint0_linear_666_37)"/>
<defs>
<linearGradient id="paint0_linear_666_37" x1="0.545454" y1="4.09091" x2="43.6363" y2="41.7273" gradientUnits="userSpaceOnUse">
<stop offset="0.0836618" stop-color="#1199F7"/>
<stop offset="1" stop-color="#3ADFEA"/>
</linearGradient>
</defs>
</svg>
