<svg width="48" height="48" viewBox="0 0 48 48" fill="none" xmlns="http://www.w3.org/2000/svg">
<path fill-rule="evenodd" clip-rule="evenodd" d="M4.75161 3C3.4914 3 2.28282 3.46836 1.39172 4.30204C0.500613 5.13572 0 6.26643 0 7.44543V37.0816C0 38.2606 0.500613 39.3913 1.39172 40.225C2.28282 41.0587 3.4914 41.5271 4.75161 41.5271H28.4987C29.5367 41.5271 30.0355 40.2534 29.2735 39.5485L26.6322 37.105C22.8306 33.5186 22.9889 28.8061 25.9985 26.0201C26.7273 25.3384 27.5509 24.8049 28.5013 24.4492C29.9097 23.9041 31.4593 23.7624 32.9539 24.042C34.4484 24.3217 35.8206 25.0101 36.8965 26.0201L37.2268 26.3202C37.6667 26.7198 38.3396 26.715 38.7736 26.309L39.0825 26.0201C39.8112 25.3384 40.6664 24.8049 41.6168 24.4492C43.0223 23.9004 44.5701 23.7539 46.0645 24.0282C46.7801 24.1597 47.5161 23.6543 47.5161 22.9268V13.3727C47.5161 12.1936 47.0155 11.063 46.1244 10.2293C45.2333 9.39558 44.0247 8.92722 42.7645 8.92722H24.8643C24.5749 8.92722 24.2961 8.81723 24.0848 8.61945L18.4072 3.30778C18.1959 3.11002 17.9172 3 17.6277 3H4.75161ZM46.1244 40.225C46.1167 40.2322 46.109 40.2393 46.1013 40.2465C46.0425 40.3008 46.0008 40.2503 46.0597 40.196L46.0775 40.1796C46.1344 40.1271 46.181 40.1721 46.1244 40.225ZM44.0279 29.5069C44.9816 29.6821 45.8587 30.117 46.5488 30.757C46.5532 30.7611 46.5557 30.7668 46.5557 30.7728C46.5557 30.7789 46.5583 30.7847 46.5627 30.7889C48.4831 32.5736 48.6016 35.5866 46.1703 37.8801L39.6423 43.9026C39.2049 44.3062 38.5307 44.3057 38.0938 43.9016L31.5852 37.8801C29.151 35.5839 29.2524 32.5663 31.1795 30.7824C31.646 30.3459 32.1735 30.0043 32.782 29.7766C33.6838 29.4275 34.6761 29.3367 35.633 29.5158C36.5901 29.6949 37.4687 30.1357 38.1576 30.7824L38.1687 30.7923C38.5634 31.1513 39.1677 31.1468 39.5573 30.7824C40.0239 30.3459 40.5715 30.0043 41.1801 29.7766C42.08 29.4251 43.0711 29.3314 44.0279 29.5069Z" fill="url(#paint0_linear_666_35)"/>
<defs>
<linearGradient id="paint0_linear_666_35" x1="1.40966e-07" y1="5.36726" x2="36.0617" y2="38.5811" gradientUnits="userSpaceOnUse">
<stop stop-color="#FB4884"/>
<stop offset="1" stop-color="#E8313E"/>
</linearGradient>
</defs>
</svg>
