<svg width="48" height="48" viewBox="0 0 48 48" fill="none" xmlns="http://www.w3.org/2000/svg">
<path d="M48 12.6V24.5608C48 25.4414 47.0369 26.0027 46.2222 25.6685C44.5546 24.9842 42.7286 24.6 40.8 24.6C32.856 24.6 26.4 31.056 26.4 39C26.4 39.3646 26.4192 39.7243 26.4511 40.0814C26.5133 40.7781 25.9863 41.4 25.287 41.4H4.8C3.52696 41.4 2.30606 40.8943 1.40589 39.9941C0.505715 39.0939 0 37.873 0 36.6V7.8C0 5.136 2.136 3 4.8 3H18.7266C19.0297 3 19.3205 3.12041 19.5347 3.33473L23.6653 7.46527C23.8795 7.67959 24.1703 7.8 24.4734 7.8H43.2C44.473 7.8 45.6939 8.30571 46.5941 9.20594C47.4943 10.1061 48 11.327 48 12.6Z" fill="url(#paint0_linear_666_27)"/>
<path fill-rule="evenodd" clip-rule="evenodd" d="M40 29.2857C35.5817 29.2857 32 32.8674 32 37.2857C32 41.704 35.5817 45.2857 40 45.2857C44.4183 45.2857 48 41.704 48 37.2857C48 32.8674 44.4183 29.2857 40 29.2857ZM39.4286 32.1429C38.7974 32.1429 38.2857 32.6545 38.2857 33.2857V38.2381C38.2857 38.8693 38.7974 39.3809 39.4286 39.3809H44.381C45.0121 39.3809 45.5239 38.8693 45.5239 38.2381V38.0475C45.5239 37.4163 45.0121 36.9047 44.381 36.9047H40.7618V33.2857C40.7618 32.6545 40.2502 32.1429 39.619 32.1429H39.4286Z" fill="url(#paint1_linear_666_27)"/>
<defs>
<linearGradient id="paint0_linear_666_27" x1="8" y1="9.28571" x2="38.4722" y2="52.0714" gradientUnits="userSpaceOnUse">
<stop offset="0.0913572" stop-color="#FDA700"/>
<stop offset="1" stop-color="#FFDE00"/>
</linearGradient>
<linearGradient id="paint1_linear_666_27" x1="1.14286" y1="4.71428" x2="48" y2="45.2857" gradientUnits="userSpaceOnUse">
<stop stop-color="#FDA700"/>
<stop offset="1" stop-color="#FFDE00"/>
</linearGradient>
</defs>
</svg>
