<svg width="48" height="48" viewBox="0 0 48 48" fill="none" xmlns="http://www.w3.org/2000/svg">
<path fill-rule="evenodd" clip-rule="evenodd" d="M26.4167 40.5584V36.0373V33.227V26.4824C26.4167 25.8616 26.9169 25.3582 27.5377 25.3581C31.1624 25.3575 38.8242 25.352 45.9912 25.3003C46.6085 25.2958 47.1059 24.794 47.1059 24.1767V13.4212C47.1059 12.1719 46.6096 10.9737 45.7261 10.0902C44.8427 9.20691 43.6446 8.71061 42.3953 8.71061H24.0185C23.7204 8.71061 23.4345 8.59213 23.2237 8.38133L19.1716 4.32924C18.9608 4.11844 18.6748 4 18.3767 4H4.71059C2.09621 4 0 6.09621 0 8.71061V36.974C0 38.2234 0.496297 39.4216 1.3797 40.3049C2.2631 41.1884 3.46126 41.6847 4.71059 41.6847H25.2926C25.9135 41.6847 26.4167 41.1793 26.4167 40.5584ZM35.783 28.9074C36.0862 28.5797 36.5123 28.3933 36.9587 28.3933H41.0554C41.5018 28.3933 41.928 28.5797 42.2311 28.9074L43.0949 29.8412C43.2581 30.0177 43.4877 30.1181 43.728 30.1181H45.9058C46.479 30.1181 46.9789 30.3266 47.3856 30.7333C47.7918 31.1395 48 31.6393 48 32.2123V42.5603C48 43.1333 47.7918 43.6331 47.3858 44.0399C46.979 44.4459 46.4787 44.6546 45.9058 44.6546H32.1084C31.5354 44.6546 31.0357 44.4464 30.6295 44.0401C30.2227 43.6334 30.0141 43.1334 30.0141 42.5603V32.2123C30.0141 31.6392 30.2227 31.1395 30.6295 30.7333C31.0356 30.3266 31.5353 30.1181 32.1084 30.1181H34.2861C34.5265 30.1181 34.756 30.0177 34.9192 29.8412L35.783 28.9074ZM35.9962 34.3758C36.8211 33.5515 37.8318 33.1362 39.0066 33.1362C40.1813 33.1362 41.192 33.5515 42.0169 34.3758C42.8412 35.2006 43.2567 36.2116 43.2567 37.3863C43.2567 38.5611 42.8414 39.5718 42.0171 40.3966C41.1922 41.221 40.1813 41.6363 39.0066 41.6363C37.8318 41.6363 36.8211 41.2212 35.9962 40.3969C35.1719 39.5719 34.7564 38.5611 34.7564 37.3863C34.7564 36.2116 35.1719 35.2006 35.9962 34.3758ZM39.0071 34.8608C38.3081 34.8608 37.7031 35.1063 37.2151 35.5943C36.7271 36.0823 36.4816 36.6873 36.4816 37.3863C36.4816 38.0852 36.7271 38.6904 37.2151 39.1782C37.7031 39.6662 38.3081 39.9117 39.0071 39.9117C39.706 39.9117 40.311 39.6662 40.799 39.1782C41.287 38.6904 41.5325 38.0852 41.5325 37.3863C41.5325 36.6873 41.287 36.0823 40.799 35.5943C40.311 35.1063 39.706 34.8608 39.0071 34.8608Z" fill="url(#paint0_linear_666_17)"/>
<defs>
<linearGradient id="paint0_linear_666_17" x1="4.49647" y1="8.49647" x2="34.2856" y2="33.7891" gradientUnits="userSpaceOnUse">
<stop stop-color="#FD2E00"/>
<stop offset="1" stop-color="#FF9900"/>
</linearGradient>
</defs>
</svg>
