<svg width="48" height="48" viewBox="0 0 48 48" fill="none" xmlns="http://www.w3.org/2000/svg">
<path fill-rule="evenodd" clip-rule="evenodd" d="M48 24.5608V12.6C48 11.327 47.4943 10.1061 46.5941 9.20594C45.6939 8.30571 44.473 7.8 43.2 7.8H24.4734C24.1703 7.8 23.8795 7.67959 23.6653 7.46527L19.5347 3.33473C19.3205 3.12041 19.0297 3 18.7266 3H4.8C2.136 3 0 5.136 0 7.8V36.6C0 37.873 0.505715 39.0939 1.40589 39.9941C2.30606 40.8943 3.52696 41.4 4.8 41.4H25.287C25.9863 41.4 26.5133 40.7781 26.4511 40.0815C26.4192 39.7243 26.4 39.3646 26.4 39C26.4 31.056 32.856 24.6 40.8 24.6C42.7286 24.6 44.5546 24.9842 46.2222 25.6685C47.0369 26.0027 48 25.4414 48 24.5608ZM37.1594 44.2472L47.1286 38.2657C47.8685 37.8218 47.8685 36.7496 47.1286 36.3057L37.1594 30.3242C36.3977 29.8672 35.4286 30.4159 35.4286 31.3042V43.2672C35.4286 44.1555 36.3977 44.7042 37.1594 44.2472Z" fill="url(#paint0_linear_666_25)"/>
<defs>
<linearGradient id="paint0_linear_666_25" x1="-2.2219e-07" y1="5.28571" x2="34.8571" y2="37.8571" gradientUnits="userSpaceOnUse">
<stop stop-color="#FB4884"/>
<stop offset="1" stop-color="#E8313E"/>
</linearGradient>
</defs>
</svg>
