<svg width="48" height="48" viewBox="0 0 48 48" fill="none" xmlns="http://www.w3.org/2000/svg">
<path fill-rule="evenodd" clip-rule="evenodd" d="M48 24.5608V12.6C48 11.327 47.4943 10.1061 46.5941 9.20594C45.6939 8.30571 44.473 7.8 43.2 7.8H24.4734C24.1703 7.8 23.8795 7.67959 23.6653 7.46527L19.5347 3.33473C19.3205 3.12041 19.0297 3 18.7266 3H4.8C2.136 3 0 5.136 0 7.8V36.6C0 37.873 0.505715 39.0939 1.40589 39.9941C2.30606 40.8943 3.52696 41.4 4.8 41.4H25.287C25.9863 41.4 26.5133 40.7781 26.4511 40.0815C26.4192 39.7243 26.4 39.3646 26.4 39C26.4 31.056 32.856 24.6 40.8 24.6C42.7286 24.6 44.5546 24.9842 46.2222 25.6685C47.0369 26.0027 48 25.4414 48 24.5608ZM37.0261 35.173C37.7542 35.4702 38.527 35.6565 39.3192 35.7246V36.6049H36.8671C36.8915 36.1249 36.9443 35.6469 37.0261 35.173ZM42.975 35.1751C42.2455 35.4713 41.4723 35.6568 40.6808 35.7249V36.6049H43.1329C43.1083 36.1258 43.056 35.6482 42.975 35.1751ZM37.0795 39.7163C37.792 39.4321 38.5464 39.2534 39.3192 39.1873V37.9665H36.8671C36.8967 38.5538 36.9675 39.139 37.0795 39.7163ZM42.9205 39.7163C42.208 39.4321 41.4536 39.2534 40.6808 39.187V37.9665H43.1329C43.1033 38.5538 43.0325 39.1386 42.9205 39.7163ZM37.4291 41.0395C38.0289 40.7863 38.6656 40.6222 39.3192 40.5549V43.7501C39.1843 43.6816 39.0584 43.6006 38.9413 43.5053C38.7405 43.3385 38.56 43.1479 38.4 42.9401C38.2094 42.6917 38.0425 42.4262 37.8995 42.1504C37.7154 41.791 37.5575 41.4201 37.4291 41.0395ZM42.5705 41.0409C41.9711 40.7873 41.3344 40.6225 40.6808 40.5549V43.7501C40.8157 43.6816 40.9416 43.6006 41.0587 43.5053C41.2595 43.3385 41.44 43.1479 41.6 42.9401C41.7906 42.6917 41.9575 42.4262 42.1005 42.1504C42.2846 41.7913 42.4422 41.4209 42.5705 41.0409ZM37.3307 33.8283C37.9584 34.1062 38.6295 34.2856 39.3192 34.357V30.8214C39.1843 30.8898 39.0584 30.9709 38.9413 31.0662C38.7405 31.2329 38.56 31.4235 38.4 31.6313C38.2094 31.8798 38.0425 32.1453 37.8995 32.421C37.6678 32.8735 37.4775 33.3439 37.3307 33.8283ZM42.6703 33.8318C42.0411 34.1079 41.3698 34.2858 40.6808 34.357V30.8214C40.8157 30.8898 40.9416 30.9709 41.0587 31.0662C41.2595 31.2329 41.44 31.4235 41.6 31.6313C41.7906 31.8798 41.9575 32.1453 42.1005 32.421C42.3329 32.8749 42.5235 33.3466 42.6703 33.8318ZM45.4989 33.5679C46.1093 34.4718 46.4905 35.5149 46.6032 36.6049H44.4963C44.4643 35.908 44.3799 35.2136 44.2427 34.5296C44.6195 34.2989 44.9763 34.0322 45.3106 33.7351L45.4989 33.5679ZM45.3533 41.2133C46.0483 40.2624 46.4817 39.1417 46.6032 37.9665H44.4963C44.4606 38.7427 44.3601 39.5159 44.1941 40.2746C44.1893 40.2975 44.1845 40.3202 44.1791 40.3431C44.5958 40.5919 44.9882 40.8843 45.3533 41.2133ZM34.6475 41.2142C33.952 40.2631 33.5183 39.1424 33.3968 37.9665H35.5037C35.5394 38.7427 35.6399 39.5159 35.8059 40.2746C35.8107 40.2978 35.8155 40.3206 35.8213 40.3438C35.4042 40.5926 35.0121 40.8854 34.6475 41.2142ZM35.5618 42.2246C35.9721 42.5919 36.4239 42.9048 36.9058 43.1563C36.8275 43.0311 36.7554 42.9017 36.6877 42.7699C36.5113 42.4231 36.3547 42.067 36.2213 41.7027C35.9912 41.8614 35.7712 42.0357 35.5618 42.2246ZM44.4389 42.2239C44.2295 42.0357 44.0088 41.8617 43.7787 41.7031C43.6453 42.0673 43.4887 42.4234 43.3123 42.7699C43.2446 42.9017 43.1725 43.0311 43.0942 43.1563C43.5765 42.9048 44.0282 42.5915 44.4389 42.2239ZM35.3875 32.5249C35.8373 32.0854 36.3462 31.7143 36.8994 31.4259C36.8235 31.5479 36.7534 31.6735 36.6877 31.8015C36.4671 32.2355 36.2771 32.6835 36.1235 33.1438C35.8658 32.9552 35.6191 32.7493 35.3875 32.5249ZM44.4051 32.7173C44.2355 32.868 44.0592 33.0096 43.8741 33.1379C43.7213 32.6794 43.5319 32.2331 43.3123 31.8015C43.2456 31.6718 43.1747 31.5445 43.0976 31.4209C43.6535 31.7089 44.1675 32.0799 44.6247 32.5225L44.4051 32.7173ZM32.7506 36.0262C33.1121 36.1275 33.4883 35.9173 33.5898 35.5563L33.6272 35.4168C33.7307 35.0559 33.5207 34.6801 33.1592 34.5776C32.7976 34.4752 32.4201 34.6865 32.3166 35.0491L32.2792 35.1853C32.1777 35.5479 32.3891 35.9247 32.7506 36.0262ZM32 37.2857C32 36.9098 32.6101 36.6049 33.3617 36.6049H35.5037C35.5357 35.907 35.6201 35.2136 35.7569 34.5282C35.3093 34.2545 34.8898 33.9315 34.5035 33.5662C34.4585 33.6315 34.415 33.6983 34.3728 33.7657C34.1736 34.0833 33.7533 34.1793 33.4349 33.9801C33.1166 33.781 33.0195 33.3616 33.2187 33.044C34.6792 30.7087 37.2459 29.2891 40 29.2857C42.1208 29.2857 44.1566 30.1299 45.6578 31.6279C47.1558 33.1291 48 35.1649 48 37.2857C48 39.4065 47.1558 41.4423 45.6578 42.9435C44.1566 44.4415 42.1208 45.2857 40 45.2857C37.8792 45.2857 35.8434 44.4415 34.3422 42.9435C32.8442 41.4423 32 39.4065 32 37.2857Z" fill="url(#paint0_linear_666_2)"/>
<defs>
<linearGradient id="paint0_linear_666_2" x1="4.08196e-07" y1="45.2857" x2="55.368" y2="17.8921" gradientUnits="userSpaceOnUse">
<stop stop-color="#0357D1"/>
<stop offset="1" stop-color="#27CDFC"/>
</linearGradient>
</defs>
</svg>
