<svg width="48" height="48" viewBox="0 0 48 48" fill="none" xmlns="http://www.w3.org/2000/svg">
<path fill-rule="evenodd" clip-rule="evenodd" d="M31.9098 39.7871C31.9098 40.3949 31.4171 40.8875 30.8094 40.8875H4.61094C3.38804 40.8875 2.21523 40.4017 1.35051 39.5369C0.485799 38.6723 0 37.4994 0 36.2765V8.61096C0 6.05186 2.05186 4 4.61094 4H17.988C18.2798 4 18.5597 4.11593 18.766 4.32228L22.7324 8.28865C22.9387 8.49499 23.2186 8.61096 23.5105 8.61096H41.4984C42.7213 8.61096 43.8941 9.09676 44.7588 9.96141C45.6236 10.8262 46.1094 11.999 46.1094 13.2219V21.6517C46.1094 22.6869 44.5798 23.34 43.5995 23.0074C43.0223 22.8116 42.4018 22.7057 41.7561 22.7057C38.6933 22.7057 36.3111 25.2013 36.3111 28.1507C36.3111 29.0116 36.5083 29.8278 36.8599 30.5563C37.2188 31.3001 36.9537 32.3328 36.2058 32.6831C34.7061 33.3856 33.3424 34.3813 32.2101 35.6109C32.1728 35.6513 32.139 35.6949 32.1085 35.7405L32.0945 35.7614C31.974 35.9422 31.9098 36.1546 31.9098 36.3718V39.7871ZM42.0112 33.0056C43.9593 33.0056 45.4746 31.4183 45.4746 29.4702C45.4746 27.522 43.8873 26.0067 41.9391 26.0067C39.991 26.0067 38.4757 27.5941 38.4757 29.4702C38.4757 31.4183 40.063 33.0056 42.0112 33.0056ZM47.9278 36.9018L47.7836 36.6854C46.3405 35.0981 44.3201 34.16 42.1556 34.2322C39.991 34.16 37.8985 35.0981 36.4554 36.6854L36.3111 36.9018V42.3855C36.3111 43.0349 36.8162 43.6121 37.5377 43.6121H46.7733C47.4228 43.6121 48 43.0349 48 42.3855V36.9018H47.9278Z" fill="url(#paint0_linear_666_21)"/>
<defs>
<linearGradient id="paint0_linear_666_21" x1="45.1429" y1="40.0193" x2="8.21675" y2="0.13085" gradientUnits="userSpaceOnUse">
<stop stop-color="#C350F9"/>
<stop offset="0.892704" stop-color="#6D44E2"/>
</linearGradient>
</defs>
</svg>
