<svg width="48" height="48" viewBox="0 0 48 48" fill="none" xmlns="http://www.w3.org/2000/svg">
<path fill-rule="evenodd" clip-rule="evenodd" d="M47.9999 16.6571V10.6C47.9999 9.32695 47.4942 8.10604 46.5939 7.20587C45.6938 6.3057 44.4729 5.79999 43.1999 5.79999H24.4733C24.1702 5.79999 23.8795 5.67958 23.6652 5.46526L20.2042 2.0042C19.5612 1.36122 18.6891 1 17.7798 1H4.79999C2.13599 1 0 3.13599 0 5.79999V34.5999C0 35.8729 0.505713 37.0939 1.40588 37.9941C2.30605 38.8942 3.52695 39.3999 4.79999 39.3999H25.4772C26.0578 39.3999 26.5396 38.9624 26.6595 38.3944C27.465 34.5757 30.2598 31.4795 33.9211 30.3047C34.4287 30.1419 34.7999 29.6858 34.7999 29.1525V18.9428C34.7999 18.3116 35.3116 17.8 35.9428 17.8H46.857C47.4882 17.8 47.9999 17.2883 47.9999 16.6571ZM39.6 23.7428V33.3557C39.6 34.18 38.7381 34.7439 37.9198 34.6442C37.6166 34.6071 37.3102 34.5932 37.0031 34.6029C36.111 34.6311 35.2365 34.8581 34.4431 35.2671C33.6499 35.6763 32.9578 36.2572 32.4174 36.9676C31.8771 37.678 31.5021 38.5 31.3196 39.3737C31.1372 40.2474 31.152 41.1509 31.363 42.0182C31.574 42.8854 31.9758 43.6948 32.5392 44.387C33.1026 45.0793 33.8133 45.6372 34.6196 46.02C35.426 46.4029 36.3075 46.6009 37.2 46.5999C38.7913 46.5999 40.3175 45.9678 41.4426 44.8425C42.5679 43.7173 43.2 42.1912 43.2 40.5999V28.5428C43.2 27.9116 43.7117 27.3999 44.3429 27.3999H46.8571C47.4883 27.3999 48 26.8883 48 26.2571V23.7428C48 23.1116 47.4883 22.5999 46.8571 22.5999H40.7429C40.1117 22.5999 39.6 23.1116 39.6 23.7428Z" fill="url(#paint0_linear_666_33)"/>
<defs>
<linearGradient id="paint0_linear_666_33" x1="1.71428" y1="2.71428" x2="42.857" y2="40.4285" gradientUnits="userSpaceOnUse">
<stop offset="0.185028" stop-color="#A93AFF"/>
<stop offset="1" stop-color="#FF81FF"/>
</linearGradient>
</defs>
</svg>
