<svg width="48" height="48" viewBox="0 0 48 48" fill="none" xmlns="http://www.w3.org/2000/svg">
<path d="M4.8 5C3.52696 5 2.30606 5.47237 1.40589 6.31319C0.505715 7.15401 0 8.29441 0 9.48354V39.3736C0 40.5627 0.505715 41.7031 1.40589 42.544C2.30606 43.3848 3.52696 43.8571 4.8 43.8571H43.2C44.473 43.8571 45.6939 43.3848 46.5941 42.544C47.4943 41.7031 48 40.5627 48 39.3736V15.4615C48 14.2725 47.4943 11.9891 46.5941 11.1483C45.6939 10.3075 44.473 9.8352 43.2 9.8352H25.5537C24.9806 9.8352 24.4282 9.61977 24.0064 9.23177L20.0613 5.60336C19.6394 5.21535 19.0871 5 18.5139 5H4.8Z" fill="url(#paint0_linear_665_91)"/>
<defs>
<linearGradient id="paint0_linear_665_91" x1="0" y1="24.4286" x2="49.1429" y2="25.5714" gradientUnits="userSpaceOnUse">
<stop stop-color="#AC3E00"/>
<stop offset="1" stop-color="#FF620A"/>
</linearGradient>
</defs>
</svg>
