<svg width="48" height="48" viewBox="0 0 48 48" fill="none" xmlns="http://www.w3.org/2000/svg">
<path d="M25.1429 38.5714C25.1429 39.1237 24.6951 39.5714 24.1429 39.5714H4.57143C3.35901 39.5714 2.19625 39.0898 1.33894 38.2325C0.481631 37.3752 0 36.2124 0 35V7.57143C0 5.03429 2.03429 3 4.57143 3H17.8715C18.1367 3 18.3911 3.10536 18.5786 3.29289L22.5643 7.27854C22.7518 7.46607 23.0061 7.57143 23.2714 7.57143H41.1429C42.3553 7.57143 43.518 8.05306 44.3753 8.91037C45.2327 9.76768 45.7143 10.9304 45.7143 12.1429V17.042C45.7143 17.875 44.7318 18.3691 43.993 17.9842C42.4153 17.1623 40.6556 16.7224 38.8571 16.7143C32.9143 16.7143 27.8857 21.4229 27.8857 27V27.0886C27.8857 27.3806 27.7558 27.6554 27.5451 27.8575C26.126 29.2191 25.1429 31.1363 25.1429 33.1714V38.5714ZM48 33.4V41.4C48 42.7714 46.6286 44.1429 45.0286 44.1429H32.4571C31.0857 44.1429 29.7143 42.7714 29.7143 41.1714V33.1714C29.7143 32.1291 30.5064 31.0868 31.4887 30.6466C31.9927 30.4207 32.4571 29.9809 32.4571 29.4286V27C32.4571 23.8 35.6571 21.2857 38.8571 21.2857C42.0571 21.2857 45.2571 23.8 45.2571 27V29.4286C45.2571 29.9809 45.7225 30.4194 46.2246 30.6493C47.2073 31.0993 48 32.1836 48 33.4ZM42.2857 27C42.2857 25.1714 40.6857 24.0286 38.8571 24.0286C37.0286 24.0286 35.4286 25.1714 35.4286 27V29.4286C35.4286 29.9809 35.8763 30.4286 36.4286 30.4286H41.2857C41.838 30.4286 42.2857 29.9809 42.2857 29.4286V27Z" fill="url(#paint0_linear_660_44)"/>
<defs>
<linearGradient id="paint0_linear_660_44" x1="4.21682e-08" y1="5.27087" x2="34.6453" y2="37.856" gradientUnits="userSpaceOnUse">
<stop stop-color="#FB4884"/>
<stop offset="1" stop-color="#E8313E"/>
</linearGradient>
</defs>
</svg>
