<svg width="48" height="48" viewBox="0 0 48 48" fill="none" xmlns="http://www.w3.org/2000/svg">
<path fill-rule="evenodd" clip-rule="evenodd" d="M27.932 32.6991L31.3116 40.4253H4.55311C3.3456 40.4253 2.18795 39.9456 1.33378 39.0917C0.479614 38.2379 0 37.0797 0 35.8721V8.55317C0 6.02616 2.02667 4 4.55311 4H17.7626C18.0512 4 18.3271 4.11448 18.5308 4.31824L22.4473 8.23492C22.651 8.43868 22.928 8.55317 23.2155 8.55317H40.9781C42.1855 8.55317 43.3442 9.03287 44.1984 9.88671C45.0515 10.7406 45.5311 11.8988 45.5311 13.1064V23.8992C45.3327 23.6891 45.0515 23.5579 44.7407 23.5579H34.1945C33.594 23.5579 33.108 24.0444 33.108 24.6445V29.7577C33.108 30.3578 32.621 30.8442 32.0214 30.8442H28.7003C27.7325 30.8442 27.2475 32.0145 27.932 32.6991ZM34.7057 44.2024C34.1409 44.2024 33.6831 43.7445 33.6831 43.1797C33.6831 42.6149 34.1409 42.157 34.7057 42.157H46.9773C47.5421 42.157 48 42.6149 48 43.1797C48 43.7445 47.5421 44.2024 46.9773 44.2024H34.7057ZM45.3769 32.9534C46.3449 32.9534 46.8296 34.1237 46.1452 34.8083L41.6098 39.3435C41.1855 39.7678 40.4976 39.7678 40.0732 39.3435L35.5379 34.8083C34.8534 34.1237 35.3382 32.9534 36.3062 32.9534H36.6871C37.2872 32.9534 37.7736 32.4669 37.7736 31.8669V27.9041C37.7736 27.304 38.2601 26.8176 38.8602 26.8176H42.8229C43.423 26.8176 43.9095 27.304 43.9095 27.9041V31.8669C43.9095 32.4669 44.3959 32.9534 44.996 32.9534H45.3769Z" fill="url(#paint0_linear_666_6)"/>
<defs>
<linearGradient id="paint0_linear_666_6" x1="4.24936e-07" y1="5.11673" x2="44.1132" y2="40.3036" gradientUnits="userSpaceOnUse">
<stop stop-color="#37CE90"/>
<stop offset="1" stop-color="#9FF66A"/>
</linearGradient>
</defs>
</svg>
