<svg width="48" height="48" viewBox="0 0 48 48" fill="none" xmlns="http://www.w3.org/2000/svg">
<path fill-rule="evenodd" clip-rule="evenodd" d="M48 24.5608V12.6C48 11.327 47.4943 10.1061 46.5941 9.20594C45.6939 8.30571 44.473 7.8 43.2 7.8H24.4734C24.1703 7.8 23.8795 7.67954 23.6653 7.46527L19.5347 3.33473C19.3205 3.12041 19.0297 3 18.7266 3H4.8C2.136 3 0 5.136 0 7.8V36.6C0 37.873 0.505715 39.0939 1.40589 39.9941C2.30606 40.8943 3.52696 41.4 4.8 41.4H25.287C25.9863 41.4 26.5133 40.7781 26.4511 40.0815C26.4192 39.7243 26.4 39.3646 26.4 39C26.4 31.056 32.856 24.6 40.8 24.6C42.7286 24.6 44.5546 24.9842 46.2222 25.6685C47.0369 26.0027 48 25.4414 48 24.5608ZM33.6805 43.6062C34.0383 43.964 34.4686 44.1429 34.9714 44.1429H38.6286V37.7429H42.2857V44.1429H45.9429C46.4457 44.1429 46.8763 43.964 47.2347 43.6062C47.5926 43.2478 47.7714 42.8171 47.7714 42.3143V34.0857C47.7714 33.7962 47.7069 33.5219 47.5776 33.2629C47.4478 33.0038 47.2686 32.7905 47.04 32.6229L41.5543 28.5086C41.3866 28.3866 41.2114 28.2952 41.0286 28.2343C40.8457 28.1734 40.6552 28.1429 40.4571 28.1429C40.2591 28.1429 40.0686 28.1734 39.8857 28.2343C39.7029 28.2952 39.5277 28.3866 39.36 28.5086L33.8743 32.6229C33.6457 32.7905 33.4669 33.0038 33.3376 33.2629C33.2078 33.5219 33.1429 33.7962 33.1429 34.0857V42.3143C33.1429 42.8171 33.3221 43.2478 33.6805 43.6062Z" fill="url(#paint0_linear_666_15)"/>
<defs>
<linearGradient id="paint0_linear_666_15" x1="-3.24928e-07" y1="4.14286" x2="45.1429" y2="40.1429" gradientUnits="userSpaceOnUse">
<stop stop-color="#37CE90"/>
<stop offset="1" stop-color="#9FF66A"/>
</linearGradient>
</defs>
</svg>
