<svg width="128" height="128" viewBox="0 0 128 128" fill="none" xmlns="http://www.w3.org/2000/svg">
<path d="M94.6846 14C91.2368 14 87.9302 15.3696 85.4922 17.8076C83.0542 20.2456 81.6846 23.5522 81.6846 27C81.6846 30.4478 83.0542 33.7544 85.4922 36.1924C87.9302 38.6304 91.2368 40 94.6846 40C98.1324 40 101.439 38.6304 103.877 36.1924C106.315 33.7544 107.685 30.4478 107.685 27C107.685 23.5522 106.315 20.2456 103.877 17.8076C101.439 15.3696 98.1324 14 94.6846 14Z" fill="url(#paint0_linear_704_2)"/>
<path d="M43.1784 50.6777C43.8425 49.931 44.7893 49.5532 45.7574 49.5264C46.7254 49.4998 47.7173 49.8244 48.4917 50.4647L73.5098 74.153C75.0318 75.4334 77.2954 75.4334 78.8174 74.153L88.5633 62.7608C90.1121 61.2673 92.3277 61.4801 93.8766 62.7608L118.883 89.9491C119.601 90.6206 120.007 91.5462 120 92.5108V101.9C120 103.821 118.227 105.526 116.235 105.526H11.759C9.54403 105.526 8 104.034 8 101.9V88.8784C8 88.0252 8.43942 87.1758 8.88076 86.5354L43.1784 50.6777Z" stroke="url(#paint1_linear_704_2)" stroke-width="12"/>
<defs>
<linearGradient id="paint0_linear_704_2" x1="106.806" y1="14.7432" x2="96.665" y2="40.2075" gradientUnits="userSpaceOnUse">
<stop stop-color="#FE0F7C"/>
<stop offset="1" stop-color="#DF0066"/>
</linearGradient>
<linearGradient id="paint1_linear_704_2" x1="24.86" y1="92.926" x2="59.6215" y2="52.8533" gradientUnits="userSpaceOnUse">
<stop stop-color="#F502A3"/>
<stop offset="1" stop-color="#FFBB37"/>
</linearGradient>
</defs>
</svg>
