<svg width="128" height="128" viewBox="0 0 128 128" fill="none" xmlns="http://www.w3.org/2000/svg">
<path fill-rule="evenodd" clip-rule="evenodd" d="M113.427 28.9053V46.4195C113.427 49.225 112.014 51.7992 109.648 53.3057L108.623 53.958L109.647 54.6098C112.014 56.1178 113.427 58.6925 113.427 61.4975V79.0106C113.427 81.8156 112.014 84.3901 109.647 85.8977L102.167 90.6597V117.812C102.167 119.021 101.188 120 99.9803 120H27.4551C19.5659 120 13.9805 113.381 14.0068 105.794C14.0245 99.3968 14.0015 26.0335 14 22.8673C13.9952 15.0565 19.0518 8 27.454 8H55.1894C56.3972 8 57.3768 8.97934 57.3768 10.1875C57.3768 11.3957 56.3972 12.375 55.1894 12.375H31.6083V93.0878H97.7919V12.375H74.4015C73.1935 12.375 72.2139 11.3957 72.2139 10.1875C72.2139 8.97934 73.1935 8 74.4015 8H99.9793C101.187 8 102.167 8.97934 102.167 10.1875V17.2568L109.648 22.019C112.014 23.5258 113.427 26.1001 113.427 28.9053ZM18.3905 96.6088C20.7475 94.4566 23.8527 93.1974 27.0395 93.0979C27.0666 93.0971 27.0937 93.0958 27.1206 93.0944C27.1581 93.0926 27.1955 93.0907 27.2333 93.0903V12.3806C21.3284 12.526 18.3875 17.5186 18.3905 22.8665C18.3923 26.0334 18.3949 84.2298 18.3905 96.6088ZM18.3796 106.408C18.3037 111.398 22.4619 115.625 27.4551 115.625H97.7926V109.042H29.4208C28.2128 109.042 27.2333 108.063 27.2333 106.855C27.2333 105.647 28.2128 104.668 29.4208 104.668H97.7924V97.4631L27.4538 97.4633C22.5203 97.4633 18.4494 101.476 18.3796 106.408ZM107.298 82.2074C108.396 81.5079 109.052 80.3126 109.052 79.0106V61.4973C109.052 60.1953 108.396 59.0001 107.297 58.3001L104.55 56.552L102.168 58.0675V85.4727L107.298 82.2074ZM107.298 49.615C108.397 48.9161 109.052 47.7215 109.052 46.4195V28.9053C109.052 27.6035 108.397 26.4089 107.298 25.7098L102.167 22.4437V52.8812L107.298 49.615ZM65.0254 12.3687C64.0924 12.4356 63.2048 11.8885 62.8449 11.0253C62.44 10.037 62.8171 8.86144 63.7403 8.3126C65.3997 7.32625 67.4912 8.90716 66.9717 10.7709C66.7266 11.6496 65.9374 12.3032 65.0254 12.3687Z" fill="url(#paint0_linear_720_28)" stroke="url(#paint1_linear_720_28)" stroke-width="4"/>
<path fill-rule="evenodd" clip-rule="evenodd" d="M41.3833 62.5784L42.4646 59.7392H49.8988L50.968 62.5721C51.4039 63.7269 52.7313 64.3282 53.8877 63.8918C55.0586 63.45 55.6492 62.143 55.2076 60.9721L48.694 43.7115L48.691 43.7037C48.6838 43.6852 48.6766 43.6665 48.6691 43.6482C48.2565 42.6466 47.2904 42 46.2072 42H46.2038C45.1193 42.0014 44.1534 42.6509 43.7429 43.6546L43.7386 43.6652C43.7332 43.6787 43.7278 43.6922 43.7227 43.706L37.149 60.9658C36.7036 62.1351 37.2904 63.4439 38.4597 63.8893C39.629 64.335 40.9378 63.748 41.3833 62.5784ZM46.1991 49.9347L48.189 55.2079H44.1906L46.1991 49.9347ZM75.2003 62.8519C75.5963 63.5828 76.3609 64.038 77.1922 64.038H88.8708C90.1219 64.038 91.1364 63.0236 91.1364 61.7723C91.1364 60.521 90.1219 59.5067 88.8708 59.5067H81.3725L90.4971 45.5027C90.9509 44.8062 90.9867 43.9172 90.5906 43.1863C90.1946 42.4554 89.43 42.0002 88.5987 42.0002H77.5508C76.2998 42.0002 75.2852 43.0145 75.2852 44.2659C75.2852 45.5172 76.2998 46.5315 77.5508 46.5315H84.4184L75.2938 60.5355C74.84 61.232 74.8042 62.121 75.2003 62.8519ZM69.9522 55.2847H60.9415C59.6905 55.2847 58.6759 54.2704 58.6759 53.0191C58.6759 51.7678 59.6905 50.7535 60.9415 50.7535H69.9522C71.2032 50.7535 72.2178 51.7678 72.2178 53.0191C72.2178 54.2704 71.2032 55.2847 69.9522 55.2847Z" fill="url(#paint2_linear_720_28)"/>
<path d="M42.4647 59.7392V59.2392H42.1201L41.9975 59.5612L42.4647 59.7392ZM49.8989 59.7392L50.3667 59.5626L50.2447 59.2392H49.8989V59.7392ZM48.6941 43.7115L49.1619 43.5349L49.1604 43.5311L48.6941 43.7115ZM43.743 43.6546L43.2802 43.4653L43.2791 43.4681L43.743 43.6546ZM43.7228 43.706L44.1901 43.884L44.1927 43.8769L43.7228 43.706ZM48.1891 55.2079V55.7079H48.9122L48.6569 55.0314L48.1891 55.2079ZM46.1992 49.9347L46.667 49.7581L46.2013 48.5242L45.7319 49.7567L46.1992 49.9347ZM44.1907 55.2079L43.7234 55.0299L43.4652 55.7079H44.1907V55.2079ZM81.3726 59.5067L80.9537 59.2338L80.45 60.0067H81.3726V59.5067ZM84.4185 46.5315L84.8374 46.8044L85.3411 46.0315H84.4185V46.5315ZM41.9975 59.5612L40.9161 62.4005L41.8506 62.7564L42.932 59.9171L41.9975 59.5612ZM49.8989 59.2392H42.4647V60.2392H49.8989V59.2392ZM51.4359 62.3956L50.3667 59.5626L49.4311 59.9157L50.5003 62.7486L51.4359 62.3956ZM53.7113 63.424C52.8135 63.7628 51.7743 63.2923 51.4359 62.3956L50.5003 62.7486C51.0336 64.1615 52.6494 64.8936 54.0643 64.3596L53.7113 63.424ZM54.7399 61.1486C55.0841 62.0612 54.6237 63.0797 53.7113 63.424L54.0643 64.3596C55.4936 63.8203 56.2145 62.2248 55.6756 60.7957L54.7399 61.1486ZM48.2263 43.888L54.7399 61.1486L55.6756 60.7957L49.1619 43.5349L48.2263 43.888ZM48.2247 43.884L48.2277 43.8918L49.1604 43.5311L49.1574 43.5233L48.2247 43.884ZM48.2068 43.8387C48.2118 43.8509 48.2172 43.8646 48.2247 43.884L49.1574 43.5233C49.1506 43.5057 49.1414 43.4818 49.1313 43.4574L48.2068 43.8387ZM46.2073 42.5C47.088 42.5 47.8715 43.0244 48.2068 43.8387L49.1313 43.4574C48.6415 42.2684 47.493 41.5 46.2073 41.5V42.5ZM46.2039 42.5H46.2073V41.5H46.2039V42.5ZM44.2058 43.8439C44.5396 43.0279 45.3222 42.5011 46.2039 42.5V41.5C44.9165 41.5016 43.7675 42.274 43.2802 43.4653L44.2058 43.8439ZM44.2025 43.852L44.2069 43.841L43.2791 43.4681L43.2748 43.4788L44.2025 43.852ZM44.1927 43.8769C44.1944 43.8724 44.1966 43.8668 44.2025 43.852L43.2748 43.4788C43.2699 43.491 43.2614 43.512 43.2529 43.5351L44.1927 43.8769ZM37.6164 61.1438L44.1901 43.884L43.2556 43.5281L36.6819 60.7878L37.6164 61.1438ZM38.6379 63.4221C37.7266 63.075 37.2693 62.055 37.6164 61.1438L36.6819 60.7878C36.1381 62.2151 36.8545 63.8129 38.2818 64.3566L38.6379 63.4221ZM40.9161 62.4005C40.5689 63.312 39.5489 63.7694 38.6379 63.4221L38.2818 64.3566C39.7093 64.9006 41.3069 64.1839 41.8506 62.7564L40.9161 62.4005ZM48.6569 55.0314L46.667 49.7581L45.7314 50.1112L47.7213 55.3844L48.6569 55.0314ZM44.1907 55.7079H48.1891V54.7079H44.1907V55.7079ZM45.7319 49.7567L43.7234 55.0299L44.6579 55.3859L46.6664 50.1126L45.7319 49.7567ZM77.1923 63.538C76.5444 63.538 75.9486 63.1832 75.64 62.6137L74.7608 63.0901C75.2442 63.9824 76.1776 64.538 77.1923 64.538V63.538ZM88.8709 63.538H77.1923V64.538H88.8709V63.538ZM90.6365 61.7723C90.6365 62.7475 89.8459 63.538 88.8709 63.538V64.538C90.3981 64.538 91.6365 63.2998 91.6365 61.7723H90.6365ZM88.8709 60.0067C89.8459 60.0067 90.6365 60.7972 90.6365 61.7723H91.6365C91.6365 60.2449 90.3981 59.0067 88.8709 59.0067V60.0067ZM81.3726 60.0067H88.8709V59.0067H81.3726V60.0067ZM90.0783 45.2297L80.9537 59.2338L81.7915 59.7797L90.9161 45.7756L90.0783 45.2297ZM90.1511 43.4245C90.4598 43.9942 90.4319 44.687 90.0783 45.2297L90.9161 45.7756C91.4701 44.9254 91.5137 43.8402 91.0304 42.9481L90.1511 43.4245ZM88.5988 42.5002C89.2467 42.5002 89.8425 42.855 90.1511 43.4245L91.0304 42.9481C90.5469 42.0558 89.6135 41.5002 88.5988 41.5002V42.5002ZM77.5509 42.5002H88.5988V41.5002H77.5509V42.5002ZM75.7853 44.2659C75.7853 43.2907 76.576 42.5002 77.5509 42.5002V41.5002C76.0238 41.5002 74.7853 42.7384 74.7853 44.2659H75.7853ZM77.5509 46.0315C76.576 46.0315 75.7853 45.241 75.7853 44.2659H74.7853C74.7853 45.7933 76.0238 47.0315 77.5509 47.0315V46.0315ZM84.4185 46.0315H77.5509V47.0315H84.4185V46.0315ZM75.7128 60.8085L84.8374 46.8044L83.9996 46.2585L74.875 60.2626L75.7128 60.8085ZM75.64 62.6137C75.3313 62.044 75.3592 61.3512 75.7128 60.8085L74.875 60.2626C74.321 61.1128 74.2774 62.198 74.7608 63.0901L75.64 62.6137ZM60.9416 55.7847H69.9523V54.7847H60.9416V55.7847ZM58.176 53.0191C58.176 54.5466 59.4144 55.7847 60.9416 55.7847V54.7847C59.9667 54.7847 59.176 53.9942 59.176 53.0191H58.176ZM60.9416 50.2535C59.4144 50.2535 58.176 51.4916 58.176 53.0191H59.176C59.176 52.044 59.9667 51.2535 60.9416 51.2535V50.2535ZM69.9523 50.2535H60.9416V51.2535H69.9523V50.2535ZM72.7179 53.0191C72.7179 51.4916 71.4794 50.2535 69.9523 50.2535V51.2535C70.9272 51.2535 71.7179 52.044 71.7179 53.0191H72.7179ZM69.9523 55.7847C71.4794 55.7847 72.7179 54.5466 72.7179 53.0191H71.7179C71.7179 53.9942 70.9272 54.7847 69.9523 54.7847V55.7847Z" fill="url(#paint3_linear_720_28)"/>
<defs>
<linearGradient id="paint0_linear_720_28" x1="63.7135" y1="120" x2="63.7135" y2="8" gradientUnits="userSpaceOnUse">
<stop stop-color="#5570FF"/>
<stop offset="1" stop-color="#4DD3FF"/>
</linearGradient>
<linearGradient id="paint1_linear_720_28" x1="63.7135" y1="120" x2="63.7135" y2="8" gradientUnits="userSpaceOnUse">
<stop stop-color="#5570FF"/>
<stop offset="1" stop-color="#4DD3FF"/>
</linearGradient>
<linearGradient id="paint2_linear_720_28" x1="42.0359" y1="53.0192" x2="81.9039" y2="53.0192" gradientUnits="userSpaceOnUse">
<stop stop-color="#5570FF"/>
<stop offset="1" stop-color="#4DD3FF"/>
</linearGradient>
<linearGradient id="paint3_linear_720_28" x1="42.036" y1="53.0192" x2="81.904" y2="53.0192" gradientUnits="userSpaceOnUse">
<stop stop-color="#5570FF"/>
<stop offset="1" stop-color="#4DD3FF"/>
</linearGradient>
</defs>
</svg>
