<svg width="128" height="128" viewBox="0 0 128 128" fill="none" xmlns="http://www.w3.org/2000/svg">
<path fill-rule="evenodd" clip-rule="evenodd" d="M6 31C6 25.4772 10.4772 21 16 21H32.9283V108H16C10.4772 108 6 103.523 6 98V31ZM95.0711 108V21H112C117.523 21 122 25.4772 122 31V98C122 103.523 117.523 108 112 108H95.0711ZM101.803 38.1607V28.6964C101.803 27.5919 102.699 26.6964 103.803 26.6964H113.268C114.372 26.6964 115.268 27.5919 115.268 28.6964V38.1607C115.268 39.2653 114.372 40.1607 113.268 40.1607H103.803C102.699 40.1607 101.803 39.2653 101.803 38.1607ZM101.803 49.4107V58.875C101.803 59.9796 102.699 60.875 103.803 60.875H113.268C114.372 60.875 115.268 59.9796 115.268 58.875V49.4107C115.268 48.3061 114.372 47.4107 113.268 47.4107H103.803C102.699 47.4107 101.803 48.3061 101.803 49.4107ZM101.803 79.5893V70.125C101.803 69.0204 102.699 68.125 103.803 68.125H113.268C114.372 68.125 115.268 69.0204 115.268 70.125V79.5893C115.268 80.6939 114.372 81.5893 113.268 81.5893H103.803C102.699 81.5893 101.803 80.6939 101.803 79.5893ZM101.803 90.8393V100.304C101.803 101.408 102.699 102.304 103.803 102.304H113.268C114.372 102.304 115.268 101.408 115.268 100.304V90.8393C115.268 89.7347 114.372 88.8393 113.268 88.8393H103.803C102.699 88.8393 101.803 89.7347 101.803 90.8393ZM12.7319 38.1607V28.6964C12.7319 27.5919 13.6273 26.6964 14.7319 26.6964H24.1961C25.3007 26.6964 26.1961 27.5919 26.1961 28.6964V38.1607C26.1961 39.2653 25.3007 40.1607 24.1961 40.1607H14.7319C13.6273 40.1607 12.7319 39.2653 12.7319 38.1607ZM12.7319 49.4107V58.875C12.7319 59.9796 13.6273 60.875 14.7319 60.875H24.1961C25.3007 60.875 26.1961 59.9796 26.1961 58.875V49.4107C26.1961 48.3061 25.3007 47.4107 24.1961 47.4107H14.7319C13.6273 47.4107 12.7319 48.3061 12.7319 49.4107ZM12.7319 79.5893V70.125C12.7319 69.0204 13.6273 68.125 14.7319 68.125H24.1961C25.3007 68.125 26.1961 69.0204 26.1961 70.125V79.5893C26.1961 80.6939 25.3007 81.5893 24.1961 81.5893H14.7319C13.6273 81.5893 12.7319 80.6939 12.7319 79.5893ZM12.7319 90.8393V100.304C12.7319 101.408 13.6273 102.304 14.7319 102.304H24.1961C25.3007 102.304 26.1961 101.408 26.1961 100.304V90.8393C26.1961 89.7347 25.3007 88.8393 24.1961 88.8393H14.7319C13.6273 88.8393 12.7319 89.7347 12.7319 90.8393ZM49.5 49.3524C49.5 47.5334 50.421 45.8547 51.9106 44.9586C53.4002 44.0629 55.2285 44.0872 56.6969 45.0229L80.4574 60.1704C81.8887 61.083 82.7647 62.7263 82.7647 64.4999C82.7647 66.2735 81.8887 67.9168 80.4577 68.8294L56.6972 83.9769C55.2345 84.9093 53.4065 84.9406 51.9109 84.0412C50.421 83.1451 49.5 81.4664 49.5 79.6474V49.3524Z" fill="url(#paint0_linear_706_2)"/>
<defs>
<linearGradient id="paint0_linear_706_2" x1="64" y1="21" x2="64" y2="108" gradientUnits="userSpaceOnUse">
<stop offset="0.119792" stop-color="#7730F6"/>
<stop offset="0.84375" stop-color="#39D9FD"/>
</linearGradient>
</defs>
</svg>
