<svg width="64" height="64" viewBox="0 0 64 64" fill="none" xmlns="http://www.w3.org/2000/svg">
<path fill-rule="evenodd" clip-rule="evenodd" d="M11.0077 14.5045C10.9587 14.0411 11.0123 13.5726 11.1646 13.1322C11.317 12.6919 11.5644 12.2904 11.8893 11.9564C12.2142 11.6224 12.6087 11.3639 13.0446 11.1994C13.4806 11.0349 13.9474 10.9684 14.412 11.0045C15.3403 11.0045 16.2305 10.6358 16.8869 9.97938C17.5433 9.323 17.912 8.43276 17.912 7.5045C17.912 6.57624 17.5433 5.68601 16.8869 5.02963C16.2305 4.37325 15.3403 4.0045 14.412 4.0045C13.0263 3.96314 11.647 4.20718 10.3596 4.72147C9.07222 5.23576 7.90437 6.00931 6.92861 6.99404C5.95284 7.97878 5.19002 9.15366 4.68753 10.4457C4.18505 11.7377 3.95364 13.1193 4.00769 14.5045C4.00769 15.4328 4.37644 16.323 5.03281 16.9794C5.68919 17.6358 6.57943 18.0045 7.50769 18.0045C8.43594 18.0045 9.32618 17.6358 9.98256 16.9794C10.6389 16.323 11.0077 15.4328 11.0077 14.5045ZM46.9373 5.02963C47.5937 4.37325 48.4839 4.0045 49.4122 4.0045C50.7978 3.96314 52.1772 4.20718 53.4646 4.72147C54.752 5.23576 55.9198 6.00931 56.8956 6.99404C57.8713 7.97878 58.6342 9.15366 59.1366 10.4457C59.6391 11.7377 59.8705 13.1193 59.8165 14.5045C59.8165 15.4328 59.4477 16.323 58.7914 16.9794C58.135 17.6358 57.2447 18.0045 56.3165 18.0045C55.3882 18.0045 54.498 17.6358 53.8416 16.9794C53.1852 16.323 52.8165 15.4328 52.8165 14.5045C52.8655 14.0411 52.8119 13.5726 52.6595 13.1322C52.5072 12.6919 52.2598 12.2904 51.9349 11.9564C51.61 11.6224 51.2155 11.3639 50.7796 11.1994C50.3436 11.0349 49.8767 10.9684 49.4122 11.0045C48.4839 11.0045 47.5937 10.6358 46.9373 9.97938C46.2809 9.323 45.9122 8.43276 45.9122 7.5045C45.9122 6.57624 46.2809 5.68601 46.9373 5.02963ZM35.4123 7.50456V8.06552C35.4123 8.56609 35.7828 8.98741 36.2763 9.07129C40.408 9.77358 44.3089 11.4808 47.6326 14.0483C51.1871 16.7941 53.9564 20.427 55.6622 24.5821C57.3681 28.7371 57.9503 33.2679 57.3504 37.7192C56.7938 41.8497 55.2376 45.7768 52.823 49.162C52.5092 49.602 52.5821 50.2096 52.9563 50.5995C53.5946 51.2645 54.1182 52.0337 54.5034 52.8761C55.0233 54.0135 55.2772 55.2544 55.2456 56.5046C55.2456 57.4328 54.8769 58.3231 54.2205 58.9794C53.5641 59.6358 52.6739 60.0046 51.7456 60.0046C50.8174 60.0046 49.9271 59.6358 49.2707 58.9794C48.6144 58.3231 48.2456 57.4328 48.2456 56.5046C48.2809 56.1569 48.1933 55.8079 47.9981 55.518C47.8969 55.3678 47.77 55.2383 47.6246 55.1348C47.3682 54.9525 47.0295 55.0299 46.774 55.2135C42.4459 58.3239 37.247 60.0008 31.9088 60.0008C26.5716 60.0008 21.3736 58.3245 17.046 55.2152C16.7891 55.0307 16.4481 54.9536 16.1916 55.1387C16.0483 55.2421 15.9234 55.3708 15.8237 55.5198C15.6299 55.8095 15.5433 56.1578 15.5789 56.5046C15.5789 57.4328 15.2102 58.3231 14.5538 58.9794C13.8974 59.6358 13.0072 60.0046 12.0789 60.0046C11.1507 60.0046 10.2604 59.6358 9.60407 58.9794C8.94769 58.3231 8.57894 57.4328 8.57894 56.5046C8.54737 55.2544 8.80121 54.0135 9.32116 52.8761C9.70631 52.0337 10.23 51.2645 10.8683 50.5995C11.2425 50.2096 11.3153 49.602 11.0015 49.162C8.58699 45.7768 7.03074 41.8497 6.47412 37.7192C5.87427 33.2679 6.4565 28.7371 8.16231 24.5821C9.86812 20.427 12.6374 16.7941 16.192 14.0483C19.5157 11.4808 23.4165 9.77358 27.5482 9.07129C28.0417 8.98741 28.4123 8.56609 28.4123 8.06552V7.50456C28.4123 6.5763 28.781 5.68607 29.4374 5.02969C30.0938 4.37331 30.984 4.00456 31.9123 4.00456C32.8405 4.00456 33.7308 4.37331 34.3871 5.02969C35.0435 5.68607 35.4123 6.5763 35.4123 7.50456ZM16.3915 23.9673C14.3404 27.037 13.2456 30.646 13.2456 34.3379C13.2512 39.2869 15.2196 44.0316 18.7191 47.5311C22.2186 51.0306 26.9633 52.999 31.9123 53.0046C35.6042 53.0046 39.2132 51.9098 42.2829 49.8587C45.3526 47.8075 47.7452 44.8922 49.158 41.4813C50.5709 38.0704 50.9405 34.3172 50.2203 30.6962C49.5 27.0752 47.7222 23.7491 45.1116 21.1386C42.501 18.528 39.1749 16.7502 35.554 16.0299C31.933 15.3096 28.1797 15.6793 24.7689 17.0921C21.358 18.505 18.4426 20.8975 16.3915 23.9673ZM35.4824 23.8379V32.4747C35.4824 32.7399 35.5878 32.9943 35.7753 33.1818L38.9824 36.3889C39.6199 37.049 39.9727 37.9331 39.9647 38.8508C39.9568 39.7685 39.5887 40.6463 38.9398 41.2953C38.2908 41.9442 37.413 42.3123 36.4953 42.3203C35.5776 42.3282 34.6935 41.9755 34.0334 41.3379L29.8497 37.1543C28.9745 36.2793 28.4827 35.0925 28.4824 33.8549V23.8379C28.4824 22.9097 28.8512 22.0194 29.5075 21.3631C30.1639 20.7067 31.0541 20.3379 31.9824 20.3379C32.9107 20.3379 33.8009 20.7067 34.4573 21.3631C35.1136 22.0194 35.4824 22.9097 35.4824 23.8379Z" fill="url(#paint0_linear_914_23)"/>
<defs>
<linearGradient id="paint0_linear_914_23" x1="31.9121" y1="60.0046" x2="31.9121" y2="4" gradientUnits="userSpaceOnUse">
<stop stop-color="#5570FF"/>
<stop offset="1" stop-color="#4DD3FF"/>
</linearGradient>
</defs>
</svg>
