<svg width="128" height="128" viewBox="0 0 128 128" fill="none" xmlns="http://www.w3.org/2000/svg">
<path fill-rule="evenodd" clip-rule="evenodd" d="M21 16H107.532C116.369 16 123.532 23.1634 123.532 32V96.4264C123.532 105.263 116.369 112.426 107.532 112.426H21C12.1634 112.426 5 105.263 5 96.4264V32C5 23.1634 12.1635 16 21 16ZM21 28C18.7909 28 17 29.7909 17 32V96.4264C17 98.6356 18.7909 100.426 21 100.426H107.532C109.742 100.426 111.532 98.6356 111.532 96.4264V32C111.532 29.7909 109.742 28 107.532 28H21Z" fill="url(#paint0_linear_723_2)"/>
<path fill-rule="evenodd" clip-rule="evenodd" d="M40 37C40 36.4477 40.4477 36 41 36H47C47.5523 36 48 36.4477 48 37V43C48 43.5523 48.4477 44 49 44H52C56.7312 44 60.7677 46.733 62.7167 50.6967C63.0214 51.3162 62.5412 52 61.8508 52H52H49C48.4477 52 48 52.4477 48 53V59C48 59.5523 48.4477 60 49 60H52C58.648 60 64 65.352 64 72C64 78.648 58.648 84 52 84H49C48.4477 84 48 84.4477 48 85V91C48 91.5523 47.5523 92 47 92H41C40.4477 92 40 91.5523 40 91V85C40 84.4477 39.5523 84 39 84H36C31.2688 84 27.2323 81.267 25.2833 77.3033C24.9786 76.6838 25.4588 76 26.1492 76H36H39C39.5523 76 40 75.5523 40 75V69C40 68.4477 39.5523 68 39 68H36C29.352 68 24 62.648 24 56C24 49.352 29.352 44 36 44H39C39.5523 44 40 43.5523 40 43V37ZM39 52H36C33.6456 52 32 53.6456 32 56C32 58.3544 33.6456 60 36 60H39C39.5523 60 40 59.5523 40 59V53C40 52.4477 39.5523 52 39 52ZM49 68C48.4477 68 48 68.4477 48 69V75C48 75.5523 48.4477 76 49 76H52C54.3544 76 56 74.3544 56 72C56 69.6456 54.3544 68 52 68H49ZM73 80H101C102.105 80 103 80.8954 103 82V86C103 87.1046 102.105 88 101 88H73C71.8954 88 71 87.1046 71 86V82C71 80.8954 71.8954 80 73 80Z" fill="url(#paint1_linear_723_2)"/>
<defs>
<linearGradient id="paint0_linear_723_2" x1="140.489" y1="108.055" x2="97.3433" y2="-8.44822" gradientUnits="userSpaceOnUse">
<stop stop-color="#315783"/>
<stop offset="0.428293" stop-color="#723483"/>
<stop offset="1" stop-color="#FC5185"/>
</linearGradient>
<linearGradient id="paint1_linear_723_2" x1="22.8581" y1="36.551" x2="76.7944" y2="114.968" gradientUnits="userSpaceOnUse">
<stop stop-color="#F9D423"/>
<stop offset="0.515624" stop-color="#FF4E50"/>
<stop offset="0.991304" stop-color="#8A2387"/>
</linearGradient>
</defs>
</svg>
