<svg width="128" height="128" viewBox="0 0 128 128" fill="none" xmlns="http://www.w3.org/2000/svg">
<path fill-rule="evenodd" clip-rule="evenodd" d="M25.0557 8.05252C16.0261 8.17321 8.02746 16.1903 8.02042 25.2229C8.0071 41.1943 8.00763 57.1684 8.00817 73.1435C8.00849 82.7382 8.00881 92.3333 8.00613 101.928C7.80713 109.094 12.4712 116.337 19.3251 118.644C21.97 119.354 23.8541 117.046 24.5722 114.809C24.1598 113.19 23.5981 111.416 21.9202 110.705C18.8986 109.201 16.4385 106.147 16.5665 102.646C16.5765 90.4994 16.5739 78.3516 16.5714 66.2029C16.5685 52.5483 16.5656 38.8926 16.5806 25.237C16.5024 20.1811 21.5007 16.0695 26.4207 16.4388C36.7795 16.4475 47.1394 16.4456 57.4995 16.4436H57.5009C72.462 16.4408 87.4234 16.4379 102.382 16.4673C107.324 16.4956 111.796 20.9266 111.561 25.9259C111.583 51.2836 111.59 76.6487 111.561 102.013C111.633 105.095 110.075 108.135 107.516 109.853C104.967 111.664 101.853 111.579 98.8234 111.497C97.9328 111.472 97.0492 111.448 96.1899 111.473C96.2014 103.871 96.1977 96.2683 96.1941 88.6654V88.6599C96.1887 77.564 96.1833 66.4677 96.2254 55.3739L96.593 55.3889C98.7471 55.4777 100.912 55.567 103.05 55.2177C100.653 54.9852 98.2562 55.1207 95.8589 55.2562C93.5709 55.3856 91.2828 55.5149 88.9947 55.3242C86.4494 55.1112 83.8969 55.0899 81.3445 55.1679C83.0661 55.5245 84.8203 55.4852 86.5694 55.446C86.9801 55.4368 87.3905 55.4277 87.8002 55.4236C87.8334 67.8929 87.8287 80.3621 87.8239 92.8314C87.8216 99.0522 87.8192 105.273 87.8215 111.494H87.8106H87.8055C80.7011 111.501 73.6037 111.507 66.5062 111.486C66.4849 103.334 66.4919 95.1895 66.5062 87.0375C65.038 86.9587 63.5697 86.9196 62.1025 86.9211C63.7901 86.9057 65.4794 86.9438 67.1686 87.0337C67.7997 87.0302 68.4456 87.0643 69.096 87.0988C71.0412 87.2018 73.0273 87.3069 74.7811 86.4116C77.5135 84.7647 76.9642 80.2409 73.9535 79.2443C72.4485 78.8727 70.8948 78.9057 69.345 78.9386C68.5953 78.9545 67.8464 78.9704 67.1044 78.9404C67.1044 74.8926 67.1052 70.8447 67.106 66.7969C67.1076 58.7013 67.1091 50.6056 67.1044 42.5099C67.3327 40.2904 65.5991 38.0427 63.2947 37.9508C61.1186 37.7176 58.9498 39.5836 58.9782 41.7748C58.9212 48.8614 58.9293 55.9479 58.9375 63.0344C58.9436 68.3458 58.9498 73.6572 58.9284 78.9686C58.2048 78.9929 57.4742 78.9731 56.7428 78.9533C55.1305 78.9096 53.5139 78.8659 51.958 79.2938C49.1113 80.3823 48.6405 84.6022 51.1519 86.3127C52.8303 87.3364 54.8095 87.214 56.7465 87.0943C57.2275 87.0646 57.7066 87.0349 58.1771 87.0231L58.1734 87.0233C58.3379 92.263 58.3174 97.5056 58.2968 102.749V102.751C58.2854 105.665 58.274 108.579 58.2944 111.494C52.2011 111.507 46.1151 111.515 40.029 111.479C40.0445 105.174 40.041 98.8689 40.0375 92.5632C40.0331 84.5971 40.0287 76.6293 40.0627 68.6601C42.3637 68.5351 44.6718 68.5001 46.9751 68.5472C49.4764 67.5787 50.3815 64.0633 48.55 62.0545C47.0717 60.3803 44.9041 60.4959 42.7877 60.6088C41.8841 60.657 40.9896 60.7047 40.1623 60.6124C40.1532 58.1609 40.1582 55.7094 40.1632 53.2578C40.17 49.9198 40.1768 46.5817 40.1481 43.2436C40.1765 41.3999 39.6206 39.2548 37.8177 38.4155C35.3876 36.9519 31.9313 39.0109 31.9669 41.8375C31.8998 45.3093 31.9114 48.781 31.923 52.2516C31.9324 55.049 31.9417 57.846 31.9099 60.6412C31.0941 60.7256 30.2009 60.6741 29.2941 60.6219C27.0401 60.4921 24.7017 60.3574 23.2586 62.2913C21.6479 64.3503 22.7382 67.2558 24.7622 68.5615C27.0449 68.4155 29.326 68.5384 31.6079 68.6613L31.6856 68.6655C31.7675 77.5863 31.7548 86.5092 31.742 95.4319C31.7325 102.114 31.7229 108.797 31.7532 115.478C31.6038 117.941 33.8719 120.241 36.3675 119.964C44.58 119.939 52.7934 119.958 61.0071 119.976C75.7968 120.009 90.588 120.042 105.375 119.823C113.347 118.218 120.05 111.011 119.986 102.71C120.008 76.89 120.001 51.0636 119.986 25.237C119.916 18.2354 115.131 11.6243 108.575 9.2029C105.753 8.05956 102.667 7.96018 99.6594 8.00992C88.7827 8.03163 77.9058 8.02484 67.0296 8.01804C53.0369 8.0093 39.0451 8.00056 25.0557 8.05252ZM95.5004 40.1055C94.2266 37.3418 89.7935 37.1603 88.349 39.8613C87.6091 41.407 87.6769 43.118 87.7443 44.8184C87.7767 45.6364 87.8091 46.4519 87.7513 47.2453C86.9473 47.3237 86.0872 47.2831 85.2184 47.2421C83.1501 47.1444 81.0324 47.0443 79.5041 48.5433C77.5543 50.5813 78.5363 54.2384 81.2617 55.0619C83.8163 54.9852 86.3708 55.0062 88.9183 55.2155C91.2083 55.4029 93.4983 55.2758 95.7882 55.1487C98.1874 55.0155 100.587 54.8823 102.986 55.1109C105.029 53.8964 106.423 51.1885 104.821 49.0738C103.433 47.0213 101.02 47.1279 98.6875 47.231C97.7205 47.2737 96.7671 47.3159 95.906 47.2034C95.8693 46.446 95.8976 45.6748 95.9259 44.9017C95.9855 43.2743 96.0455 41.6386 95.5004 40.1055Z" fill="url(#paint0_linear_705_127)"/>
<path d="M25.0557 8.05273L25.0501 6.55274L25.0429 6.55277L25.0356 6.55287L25.0557 8.05273ZM8.00611 101.928L9.50553 101.97L9.5061 101.949L9.50611 101.929L8.00611 101.928ZM19.3251 118.644L18.8465 120.066L18.891 120.081L18.9364 120.093L19.3251 118.644ZM24.5722 114.809L26.0004 115.268L26.1323 114.857L26.0258 114.439L24.5722 114.809ZM21.9202 110.705L21.2516 112.048L21.2928 112.068L21.3352 112.086L21.9202 110.705ZM16.5665 102.646L18.0655 102.701L18.0664 102.674L18.0665 102.647L16.5665 102.646ZM16.5806 25.2372L18.0806 25.2388L18.0807 25.2264L18.0805 25.214L16.5806 25.2372ZM26.4207 16.439L26.3084 17.9348L26.3639 17.939H26.4195L26.4207 16.439ZM102.382 16.4675L102.391 14.9675H102.385L102.382 16.4675ZM111.561 25.9261L110.063 25.8558L110.061 25.8915V25.9273L111.561 25.9261ZM111.561 102.013L110.061 102.012V102.03L110.062 102.048L111.561 102.013ZM107.516 109.853L106.68 108.608L106.663 108.619L106.647 108.631L107.516 109.853ZM98.8234 111.497L98.8643 109.997H98.8438H98.8234V111.497ZM98.8234 111.497L98.7822 112.996L98.8026 112.997H98.8231L98.8234 111.497ZM96.1899 111.473L94.6899 111.47L94.6875 113.016L96.2323 112.972L96.1899 111.473ZM96.2254 55.3741L96.2869 53.8753L94.7313 53.8115L94.7254 55.3684L96.2254 55.3741ZM96.593 55.3891L96.5315 56.8879L96.5622 56.8891H96.593V55.3891ZM96.593 55.3891L96.6548 53.8904L96.6239 53.8891H96.593V55.3891ZM103.05 55.2179L103.292 56.6983L103.195 53.725L103.05 55.2179ZM81.3445 55.1681L81.2986 53.6688L81.0403 56.637L81.3445 55.1681ZM87.8002 55.4238L89.3002 55.4198L89.2962 53.9089L87.7853 53.9239L87.8002 55.4238ZM87.8215 111.494V112.994H89.3221L89.3215 111.493L87.8215 111.494ZM87.8055 111.494V109.994H87.8041L87.8055 111.494ZM66.5062 111.486L65.0062 111.49L65.0101 112.982L66.5017 112.986L66.5062 111.486ZM66.5062 87.0377L68.0062 87.0404L68.0087 85.6162L66.5866 85.5399L66.5062 87.0377ZM62.1025 86.9213L62.0888 85.4214L62.104 88.4213L62.1025 86.9213ZM67.1686 87.0339L67.0889 88.5318L67.1329 88.5341L67.177 88.5339L67.1686 87.0339ZM74.7811 86.4118L75.4631 87.7478L75.5101 87.7238L75.5554 87.6965L74.7811 86.4118ZM73.9535 79.2445L74.4249 77.8205L74.3696 77.8022L74.313 77.7882L73.9535 79.2445ZM69.345 78.9388V80.4388H69.3609L69.3768 80.4384L69.345 78.9388ZM69.345 78.9388L69.3448 77.4388H69.3289L69.313 77.4391L69.345 78.9388ZM67.1044 78.9406H65.6044V80.3813L67.0439 80.4394L67.1044 78.9406ZM67.1044 42.5101L65.6123 42.3567L65.6044 42.4336V42.511L67.1044 42.5101ZM63.2947 37.951L63.1348 39.4425L63.1848 39.4479L63.235 39.4499L63.2947 37.951ZM58.9782 41.775L60.4782 41.7871L60.4783 41.7713L60.4781 41.7555L58.9782 41.775ZM58.9284 78.9688L58.9787 80.468L60.4226 80.4195L60.4284 78.9749L58.9284 78.9688ZM51.958 79.294L51.5602 77.8477L51.4901 77.867L51.4222 77.8929L51.958 79.294ZM51.1519 86.3129L50.3075 87.5527L50.3386 87.5739L50.3708 87.5935L51.1519 86.3129ZM58.1771 87.0233L58.2546 88.5213L58.1395 85.5238L58.1771 87.0233ZM58.1734 87.0235L58.0959 85.5255L56.628 85.6015L56.6741 87.0706L58.1734 87.0235ZM58.2968 102.749L56.7968 102.743V102.749H58.2968ZM58.2968 102.751L59.7968 102.757V102.751H58.2968ZM58.2944 111.494L58.2977 112.994L59.8049 112.99L59.7943 111.483L58.2944 111.494ZM40.029 111.479L38.529 111.476L38.5253 112.971L40.0202 112.979L40.029 111.479ZM40.0627 68.6603L39.9813 67.1625L38.5687 67.2393L38.5627 68.6539L40.0627 68.6603ZM46.9751 68.5474L46.9444 70.0471L47.2405 70.0532L47.5167 69.9462L46.9751 68.5474ZM48.55 62.0547L47.4256 63.0475L47.4335 63.0565L47.4416 63.0653L48.55 62.0547ZM42.7877 60.609V62.109H42.8276L42.8676 62.1069L42.7877 60.609ZM42.7877 60.609L42.7876 59.109H42.7476L42.7077 59.1112L42.7877 60.609ZM40.1623 60.6126L38.6623 60.6182L38.6672 61.9551L39.9959 62.1034L40.1623 60.6126ZM40.1481 43.2438L38.6482 43.2207L38.648 43.2387L38.6481 43.2567L40.1481 43.2438ZM37.8177 38.4157L37.0438 39.7006L37.1122 39.7418L37.1846 39.7755L37.8177 38.4157ZM31.9669 41.8377L33.4666 41.8667L33.467 41.8428L33.4667 41.8189L31.9669 41.8377ZM31.923 52.2518H33.423V52.2468L31.923 52.2518ZM31.923 52.2518L30.423 52.2521V52.2571L31.923 52.2518ZM31.9099 60.6414L32.0642 62.1334L33.3946 61.9958L33.4098 60.6585L31.9099 60.6414ZM23.2586 62.2915L24.44 63.2156L24.4505 63.2022L24.4607 63.1886L23.2586 62.2915ZM24.7622 68.5617L23.949 69.8222L24.3645 70.0902L24.8579 70.0587L24.7622 68.5617ZM31.6856 68.6657L33.1855 68.6519L33.1726 67.2436L31.7663 67.1679L31.6856 68.6657ZM31.742 95.4321L30.242 95.43V95.4321H31.742ZM31.742 95.4321L33.242 95.4349V95.4328L31.742 95.4321ZM31.7532 115.478L33.2504 115.568L33.2534 115.52L33.2532 115.471L31.7532 115.478ZM36.3675 119.964L36.3629 118.464L36.2822 118.465L36.2019 118.473L36.3675 119.964ZM61.0071 119.976L61.0037 121.476H61.0071V119.976ZM61.0071 119.976L61.0111 118.476H61.0077L61.0071 119.976ZM105.375 119.823L105.398 121.323L105.536 121.321L105.672 121.294L105.375 119.823ZM119.986 102.71L118.486 102.708L118.487 102.721L119.986 102.71ZM119.986 25.2372L121.486 25.2363V25.2292V25.2221L119.986 25.2372ZM108.575 9.20311L108.012 10.5933L108.033 10.6021L108.055 10.6102L108.575 9.20311ZM99.6594 8.01013L99.6624 9.51013L99.6733 9.51011L99.6843 9.50993L99.6594 8.01013ZM88.349 39.8615L87.0263 39.1541L87.0105 39.1836L86.996 39.2138L88.349 39.8615ZM95.5004 40.1057L96.9137 39.6032L96.891 39.5393L96.8627 39.4778L95.5004 40.1057ZM87.7513 47.2455L87.897 48.7384L89.1556 48.6156L89.2474 47.3543L87.7513 47.2455ZM79.5041 48.5435L78.4538 47.4726L78.4367 47.4893L78.4202 47.5066L79.5041 48.5435ZM81.2617 55.0621L80.8278 56.498L81.0621 56.5688L81.3067 56.5614L81.2617 55.0621ZM102.986 55.1111L102.843 56.6043L103.331 56.6508L103.752 56.4005L102.986 55.1111ZM104.821 49.074L103.579 49.9144L103.601 49.9476L103.625 49.9796L104.821 49.074ZM95.906 47.2036L94.4078 47.2761L94.4684 48.5285L95.7117 48.6909L95.906 47.2036ZM9.5204 25.2243C9.52679 17.0209 16.8571 9.66245 25.0757 9.5526L25.0356 6.55287C15.195 6.68439 6.52809 15.3601 6.5204 25.2219L9.5204 25.2243ZM9.50815 73.1437C9.50761 57.1684 9.50708 41.195 9.5204 25.2243L6.5204 25.2219C6.50708 41.1941 6.50761 57.1687 6.50815 73.1438L9.50815 73.1437ZM9.50611 101.929C9.50879 92.3336 9.50847 82.7383 9.50815 73.1437L6.50815 73.1438C6.50847 82.7385 6.50879 92.3334 6.50611 101.928L9.50611 101.929ZM19.8038 117.223C13.6231 115.142 9.32338 108.529 9.50553 101.97L6.50669 101.887C6.29084 109.658 11.3193 117.532 18.8465 120.066L19.8038 117.223ZM23.144 114.351C22.8459 115.28 22.3228 116.152 21.6922 116.695C21.1061 117.2 20.473 117.399 19.7139 117.196L18.9364 120.093C20.8221 120.599 22.4535 119.999 23.6501 118.968C24.8024 117.976 25.5804 116.576 26.0004 115.268L23.144 114.351ZM21.3352 112.086C22.2446 112.471 22.6829 113.469 23.1187 115.18L26.0258 114.439C25.6366 112.911 24.9516 110.36 22.5051 109.324L21.3352 112.086ZM15.0675 102.591C14.9118 106.852 17.8757 110.367 21.2516 112.048L22.5887 109.362C19.9214 108.034 17.9653 105.442 18.0655 102.701L15.0675 102.591ZM15.0714 66.2034C15.0739 78.3522 15.0765 90.4993 15.0665 102.645L18.0665 102.647C18.0765 90.5 18.0739 78.3513 18.0714 66.2027L15.0714 66.2034ZM15.0806 25.2355C15.0656 38.8923 15.0685 52.5489 15.0714 66.2034L18.0714 66.2027C18.0685 52.548 18.0656 38.8933 18.0806 25.2388L15.0806 25.2355ZM26.533 14.9432C23.6285 14.7252 20.7631 15.8264 18.6418 17.672C16.5156 19.5218 15.0337 22.2141 15.0808 25.2604L18.0805 25.214C18.0494 23.2044 19.0275 21.3129 20.6109 19.9353C22.1992 18.5534 24.293 17.7835 26.3084 17.9348L26.533 14.9432ZM57.4995 14.9438C47.1393 14.9458 36.7798 14.9477 26.422 14.939L26.4195 17.939C36.7791 17.9477 47.1398 17.9458 57.4998 17.9438L57.4995 14.9438ZM57.5009 14.9438H57.4995L57.4998 17.9438H57.5009V14.9438ZM102.385 14.9675C87.4245 14.9381 72.4617 14.941 57.5009 14.9438V17.9438C72.4622 17.941 87.4224 17.9381 102.379 17.9675L102.385 14.9675ZM113.06 25.9964C113.337 20.0949 108.133 15.0004 102.391 14.9675L102.374 17.9675C106.514 17.9912 110.255 21.7588 110.063 25.8558L113.06 25.9964ZM113.061 102.015C113.09 76.6492 113.083 51.2831 113.061 25.9248L110.061 25.9273C110.083 51.2846 110.09 76.6485 110.061 102.012L113.061 102.015ZM108.352 111.099C111.342 109.091 113.144 105.567 113.061 101.979L110.062 102.048C110.121 104.624 108.809 107.178 106.68 108.608L108.352 111.099ZM98.7822 112.996C101.708 113.076 105.359 113.226 108.385 111.076L106.647 108.631C104.575 110.103 101.997 110.083 98.8643 109.997L98.7822 112.996ZM96.2323 112.972C97.0428 112.949 97.8837 112.972 98.7822 112.996L98.8643 109.997C97.9816 109.973 97.0557 109.947 96.1474 109.973L96.2323 112.972ZM94.6941 88.6656C94.6977 96.2688 94.7014 103.87 94.6899 111.47L97.6899 111.475C97.7014 103.872 97.6977 96.2675 97.6941 88.6649L94.6941 88.6656ZM94.6941 88.6601V88.6656L97.6941 88.6649V88.6601H94.6941ZM94.7254 55.3684C94.6833 66.466 94.6887 77.5647 94.6941 88.6601H97.6941C97.6887 77.5637 97.6833 66.4699 97.7254 55.3798L94.7254 55.3684ZM96.6548 53.8904L96.2869 53.8753L96.1639 56.8728L96.5315 56.8879L96.6548 53.8904ZM102.809 53.7376C100.846 54.0581 98.8349 53.9803 96.6548 53.8904L96.5315 56.8879C98.6596 56.9756 100.978 57.0763 103.292 56.6983L102.809 53.7376ZM95.9436 56.754C98.3601 56.6174 100.642 56.4913 102.905 56.7109L103.195 53.725C100.665 53.4794 98.1523 53.6244 95.7743 53.7588L95.9436 56.754ZM88.8696 56.8192C91.2796 57.02 93.6731 56.8824 95.9436 56.754L95.7743 53.7588C93.4688 53.8891 91.2855 54.0101 89.1193 53.8296L88.8696 56.8192ZM81.3903 56.6674C83.9053 56.5906 86.3978 56.6123 88.8696 56.8192L89.1193 53.8296C86.5004 53.6103 83.8885 53.5897 81.2986 53.6688L81.3903 56.6674ZM86.5358 53.9466C84.7576 53.9864 83.1753 54.0155 81.6487 53.6993L81.0403 56.637C82.9568 57.0339 84.883 56.9844 86.603 56.9459L86.5358 53.9466ZM87.7853 53.9239C87.3648 53.928 86.945 53.9375 86.5358 53.9466L86.603 56.9459C87.0153 56.9366 87.4163 56.9277 87.8151 56.9237L87.7853 53.9239ZM89.3239 92.8322C89.3287 80.3633 89.3334 67.8917 89.3002 55.4198L86.3002 55.4278C86.3334 67.8944 86.3287 80.3614 86.3239 92.8311L89.3239 92.8322ZM89.3215 111.493C89.3192 105.273 89.3216 99.0531 89.3239 92.8322L86.3239 92.8311C86.3216 99.0517 86.3192 105.273 86.3215 111.494L89.3215 111.493ZM87.8106 112.994H87.8215V109.994H87.8106V112.994ZM87.8055 112.994H87.8106V109.994H87.8055V112.994ZM66.5017 112.986C73.6027 113.007 80.703 113.001 87.807 112.994L87.8041 109.994C80.6992 110.001 73.6047 110.007 66.5107 109.986L66.5017 112.986ZM65.0062 87.0351C64.9919 95.1877 64.9849 103.335 65.0062 111.49L68.0062 111.482C67.9849 103.334 67.9919 95.1916 68.0062 87.0404L65.0062 87.0351ZM62.104 88.4213C63.5435 88.4198 64.9844 88.4582 66.4258 88.5356L66.5866 85.5399C65.0915 85.4597 63.5959 85.4197 62.1009 85.4213L62.104 88.4213ZM67.2484 85.536C65.5285 85.4445 63.8081 85.4057 62.0888 85.4214L62.1161 88.4212C63.7721 88.4061 65.4302 88.4435 67.0889 88.5318L67.2484 85.536ZM69.1753 85.6011C68.5331 85.5671 67.8428 85.5301 67.1602 85.5339L67.177 88.5339C67.7566 88.5306 68.3581 88.562 69.0167 88.5969L69.1753 85.6011ZM74.099 85.0758C72.7651 85.7568 71.2017 85.7083 69.1753 85.6011L69.0167 88.5969C70.8808 88.6956 73.2895 88.8574 75.4631 87.7478L74.099 85.0758ZM73.4821 80.6685C74.3222 80.9466 74.9123 81.7497 75.0312 82.7597C75.1499 83.767 74.7646 84.6703 74.0067 85.1271L75.5554 87.6965C77.5299 86.5064 78.2362 84.3244 78.0106 82.4089C77.7854 80.4961 76.5955 78.539 74.4249 77.8205L73.4821 80.6685ZM69.3768 80.4384C70.9616 80.4048 72.3141 80.3848 73.594 80.7008L74.313 77.7882C72.5829 77.3611 70.8279 77.407 69.313 77.4391L69.3768 80.4384ZM67.0439 80.4394C67.8398 80.4715 68.6352 80.4542 69.3768 80.4384L69.313 77.4391C68.5553 77.4552 67.8529 77.4696 67.1649 77.4419L67.0439 80.4394ZM65.606 66.7967C65.6052 70.8445 65.6044 74.8926 65.6044 78.9406H68.6044C68.6044 74.8929 68.6052 70.8452 68.606 66.7973L65.606 66.7967ZM65.6044 42.511C65.6091 50.606 65.6076 58.701 65.606 66.7967L68.606 66.7973C68.6076 58.7018 68.6091 50.6056 68.6044 42.5093L65.6044 42.511ZM63.235 39.4499C64.5861 39.5037 65.7614 40.9072 65.6123 42.3567L68.5966 42.6636C68.904 39.674 66.6121 36.582 63.3544 36.4522L63.235 39.4499ZM60.4781 41.7555C60.4705 41.1708 60.7595 40.5547 61.299 40.0814C61.8399 39.6068 62.5205 39.3767 63.1348 39.4425L63.4546 36.4596C61.8927 36.2922 60.4009 36.8784 59.3205 37.8263C58.2386 38.7755 57.4575 40.188 57.4784 41.7945L60.4781 41.7555ZM60.4375 63.0329C60.4293 55.9452 60.4212 48.8656 60.4782 41.7871L57.4783 41.7629C57.4212 48.8575 57.4294 55.951 57.4375 63.0363L60.4375 63.0329ZM60.4284 78.9749C60.4498 73.6589 60.4436 68.3436 60.4375 63.0329L57.4375 63.0363C57.4436 68.3484 57.4498 73.6559 57.4284 78.9628L60.4284 78.9749ZM56.7022 80.453C57.4257 80.4726 58.202 80.4941 58.9787 80.468L58.8781 77.4697C58.2076 77.4922 57.5228 77.4741 56.7834 77.4541L56.7022 80.453ZM52.3558 80.7403C53.6603 80.3815 55.0501 80.4082 56.7022 80.453L56.7834 77.4541C55.2108 77.4115 53.3674 77.3506 51.5602 77.8477L52.3558 80.7403ZM51.9963 85.0732C51.2844 84.5883 50.927 83.6996 51.0361 82.7396C51.145 81.7808 51.69 81.0024 52.4937 80.6951L51.4222 77.8929C49.3793 78.6741 48.2656 80.5499 48.0552 82.4009C47.8451 84.2505 48.5079 86.327 50.3075 87.5527L51.9963 85.0732ZM56.6544 85.5973C54.6176 85.7233 53.14 85.7685 51.9329 85.0323L50.3708 87.5935C52.5205 88.9046 55.0023 88.7052 56.8394 88.5916L56.6544 85.5973ZM58.1395 85.5238C57.6368 85.5364 57.1304 85.5679 56.6544 85.5973L56.8394 88.5916C57.3254 88.5615 57.7764 88.5339 58.2147 88.5229L58.1395 85.5238ZM58.2509 88.5215L58.2546 88.5213L58.0995 85.5253L58.0959 85.5255L58.2509 88.5215ZM59.7968 102.755C59.8174 97.5161 59.8381 92.247 59.6727 86.9765L56.6741 87.0706C56.8377 92.2794 56.8173 97.4955 56.7968 102.743L59.7968 102.755ZM59.7968 102.751V102.749H56.7968L59.7968 102.751ZM59.7968 102.751L56.7968 102.749V102.751H59.7968ZM59.7943 111.483C59.774 108.578 59.7854 105.672 59.7968 102.757L56.7969 102.745C56.7855 105.658 56.774 108.58 56.7944 111.504L59.7943 111.483ZM40.0202 112.979C46.1129 113.015 52.2041 113.007 58.2977 112.994L58.291 109.994C52.1981 110.007 46.1174 110.015 40.0378 109.979L40.0202 112.979ZM38.5375 92.5634C38.541 98.8695 38.5445 105.173 38.529 111.476L41.529 111.483C41.5445 105.175 41.541 98.8681 41.5375 92.5627L38.5375 92.5634ZM38.5627 68.6539C38.5287 76.6274 38.5331 84.5979 38.5375 92.5634L41.5375 92.5627C41.5331 84.596 41.5287 76.6317 41.5626 68.6667L38.5627 68.6539ZM47.0057 67.0477C44.6669 66.9999 42.3214 67.0354 39.9813 67.1625L40.144 70.1581C42.4061 70.0352 44.6767 70.0007 46.9444 70.0471L47.0057 67.0477ZM47.4416 63.0653C47.9632 63.6375 48.1425 64.4786 47.9314 65.3304C47.7193 66.1861 47.1575 66.8683 46.4334 67.1486L47.5167 69.9462C49.294 69.2581 50.4354 67.6983 50.8433 66.0519C51.2522 64.4017 50.9683 62.4807 49.6584 61.0441L47.4416 63.0653ZM42.8676 62.1069C45.156 61.9848 46.5064 62.0065 47.4256 63.0475L49.6744 61.0619C47.6371 58.7545 44.6521 59.0074 42.7077 59.1112L42.8676 62.1069ZM39.9959 62.1034C40.9688 62.2119 41.9919 62.1536 42.8676 62.1069L42.7077 59.1112C41.7761 59.1609 41.0104 59.198 40.3286 59.1219L39.9959 62.1034ZM38.6632 53.255C38.6582 55.7058 38.6532 58.1616 38.6623 60.6182L41.6623 60.6071C41.6532 58.1606 41.6582 55.7134 41.6632 53.2611L38.6632 53.255ZM38.6481 43.2567C38.6768 46.5855 38.67 49.9156 38.6632 53.255L41.6632 53.2611C41.67 49.9244 41.6768 46.5783 41.648 43.2309L38.6481 43.2567ZM37.1846 39.7755C38.1377 40.2192 38.6744 41.52 38.6482 43.2207L41.6479 43.2669C41.6785 41.2801 41.1035 38.2908 38.4508 37.0558L37.1846 39.7755ZM33.4667 41.8189C33.4571 41.0507 33.9286 40.2816 34.7288 39.8104C35.5269 39.3404 36.3996 39.3126 37.0438 39.7006L38.5916 37.1307C36.8057 36.0552 34.7352 36.3251 33.2065 37.2254C31.6799 38.1244 30.4411 39.7981 30.467 41.8566L33.4667 41.8189ZM33.423 52.2468C33.4114 48.7734 33.3999 45.3186 33.4666 41.8667L30.4671 41.8088C30.3997 45.3004 30.4114 48.7894 30.423 52.2571L33.423 52.2468ZM33.4098 60.6585C33.4418 57.8504 33.4324 55.0424 33.423 52.2468L30.423 52.2571C30.4324 55.0564 30.4417 57.842 30.41 60.6243L33.4098 60.6585ZM29.2078 62.1196C30.086 62.1702 31.1057 62.2326 32.0642 62.1334L31.7556 59.1493C31.0825 59.219 30.3158 59.1785 29.3803 59.1246L29.2078 62.1196ZM24.4607 63.1886C24.9035 62.5952 25.4724 62.2995 26.2427 62.1583C27.0798 62.0049 28.0401 62.0524 29.2078 62.1196L29.3803 59.1246C28.294 59.062 26.9582 58.9772 25.7019 59.2075C24.3787 59.45 23.0568 60.0539 22.0564 61.3943L24.4607 63.1886ZM25.5753 67.3013C24.8685 66.8453 24.3152 66.0947 24.0908 65.3011C23.8738 64.5332 23.978 63.8064 24.44 63.2156L22.0771 61.3673C20.9285 62.8356 20.7725 64.591 21.204 66.1172C21.6281 67.6174 22.6319 68.9725 23.949 69.8222L25.5753 67.3013ZM31.6886 67.1637C29.4215 67.0415 27.0521 66.9121 24.6664 67.0648L24.8579 70.0587C27.0378 69.9192 29.2305 70.0356 31.5272 70.1593L31.6886 67.1637ZM31.7663 67.1679L31.6886 67.1637L31.5272 70.1593L31.6049 70.1635L31.7663 67.1679ZM33.242 95.4349C33.2548 86.5135 33.2675 77.582 33.1855 68.6519L30.1856 68.6795C30.2675 77.5909 30.2548 86.5059 30.242 95.43L33.242 95.4349ZM33.2532 115.471C33.223 108.795 33.2325 102.118 33.242 95.4349L30.242 95.43C30.2325 102.112 30.2229 108.798 30.2532 115.484L33.2532 115.471ZM36.2019 118.473C34.6866 118.642 33.154 117.159 33.2504 115.568L30.2559 115.387C30.0536 118.722 33.0572 121.841 36.533 121.455L36.2019 118.473ZM61.0111 118.476C52.7981 118.458 44.5801 118.439 36.3629 118.464L36.372 121.464C44.5799 121.439 52.7894 121.458 61.0037 121.476L61.0111 118.476ZM105.353 118.323C90.5807 118.542 75.8029 118.509 61.0111 118.476L61.0037 121.476C75.7913 121.509 90.5953 121.542 105.398 121.323L105.353 118.323ZM118.487 102.721C118.544 110.209 112.443 116.869 105.079 118.353L105.672 121.294C114.25 119.566 121.556 111.813 121.486 102.698L118.487 102.721ZM118.486 25.238C118.501 51.0644 118.508 76.89 118.486 102.708L121.486 102.711C121.508 76.8905 121.501 51.0632 121.486 25.2363L118.486 25.238ZM108.055 10.6102C114.044 12.8222 118.423 18.8909 118.487 25.2523L121.486 25.2221C121.409 17.5804 116.218 10.4269 109.095 7.79602L108.055 10.6102ZM99.6843 9.50993C102.677 9.46043 105.494 9.57339 108.012 10.5933L109.138 7.81286C106.012 6.54615 102.657 6.46035 99.6346 6.51034L99.6843 9.50993ZM67.0287 9.51825C77.9046 9.52505 88.7834 9.53184 99.6624 9.51013L99.6565 6.51014C88.782 6.53184 77.9071 6.52505 67.0306 6.51825L67.0287 9.51825ZM25.0612 9.55272C39.0469 9.50078 53.0354 9.50951 67.0287 9.51825L67.0306 6.51825C53.0384 6.50951 39.0434 6.50077 25.0501 6.55274L25.0612 9.55272ZM89.6717 40.5689C90.0627 39.8377 90.9168 39.396 91.9336 39.4333C92.9531 39.4708 93.7901 39.9785 94.1381 40.7335L96.8627 39.4778C95.9368 37.4691 93.9204 36.5043 92.0438 36.4354C90.1645 36.3663 88.0798 37.1843 87.0263 39.1541L89.6717 40.5689ZM89.2431 44.7592C89.1729 42.9873 89.1496 41.6631 89.702 40.5092L86.996 39.2138C86.0686 41.1513 86.1809 43.2492 86.2455 44.878L89.2431 44.7592ZM89.2474 47.3543C89.3123 46.4623 89.2749 45.5613 89.2431 44.7592L86.2455 44.878C86.2786 45.7118 86.3059 46.4418 86.2553 47.1366L89.2474 47.3543ZM85.1477 48.7406C85.9927 48.7805 86.9652 48.8293 87.897 48.7384L87.6057 45.7526C86.9294 45.8185 86.1817 45.7861 85.2892 45.7439L85.1477 48.7406ZM80.5544 49.6144C81.5369 48.6508 82.9255 48.6356 85.1477 48.7406L85.2892 45.7439C83.3746 45.6535 80.528 45.4383 78.4538 47.4726L80.5544 49.6144ZM81.6956 53.6262C80.0197 53.1198 79.4275 50.7934 80.588 49.5804L78.4202 47.5066C75.6811 50.3697 77.053 55.3574 80.8278 56.498L81.6956 53.6262ZM89.0411 53.7208C86.4214 53.5055 83.808 53.485 81.2167 53.5628L81.3067 56.5614C83.8245 56.4859 86.3201 56.5073 88.7954 56.7107L89.0411 53.7208ZM95.7051 53.6512C93.3979 53.7793 91.2114 53.8984 89.0411 53.7208L88.7954 56.7107C91.2051 56.9079 93.5986 56.7727 95.8714 56.6466L95.7051 53.6512ZM103.128 53.6178C100.598 53.3767 98.0854 53.519 95.7051 53.6512L95.8714 56.6466C98.2895 56.5123 100.576 56.3882 102.843 56.6043L103.128 53.6178ZM103.625 49.9796C104.067 50.5627 104.12 51.2137 103.863 51.9105C103.589 52.6513 102.974 53.3731 102.219 53.8217L103.752 56.4005C105.04 55.6346 106.143 54.3952 106.677 52.9498C107.227 51.4604 107.177 49.7 106.017 48.1683L103.625 49.9796ZM98.7538 48.7297C99.9631 48.6763 100.956 48.6407 101.81 48.8142C102.592 48.973 103.155 49.2881 103.579 49.9144L106.064 48.2335C105.099 46.8073 103.762 46.1495 102.407 45.8743C101.125 45.6137 99.7448 45.683 98.6213 45.7327L98.7538 48.7297ZM95.7117 48.6909C96.7273 48.8236 97.8186 48.7711 98.7538 48.7297L98.6213 45.7327C97.6224 45.7768 96.807 45.8085 96.1003 45.7162L95.7117 48.6909ZM94.4269 44.847C94.399 45.6085 94.3675 46.4441 94.4078 47.2761L97.4042 47.131C97.3712 46.4482 97.3961 45.7415 97.4249 44.9569L94.4269 44.847ZM94.0871 40.6082C94.5197 41.8251 94.4885 43.166 94.4269 44.847L97.4249 44.9569C97.4826 43.383 97.5712 41.4525 96.9137 39.6032L94.0871 40.6082Z" fill="url(#paint1_linear_705_127)"/>
<defs>
<linearGradient id="paint0_linear_705_127" x1="18.4186" y1="63.9999" x2="100.899" y2="63.9999" gradientUnits="userSpaceOnUse">
<stop stop-color="#5570FF"/>
<stop offset="1" stop-color="#4DD3FF"/>
</linearGradient>
<linearGradient id="paint1_linear_705_127" x1="17.1977" y1="64" x2="101.888" y2="64" gradientUnits="userSpaceOnUse">
<stop stop-color="#5570FF"/>
<stop offset="1" stop-color="#4DD3FF"/>
</linearGradient>
</defs>
</svg>
