<svg width="128" height="128" viewBox="0 0 128 128" fill="none" xmlns="http://www.w3.org/2000/svg">
<path d="M48.0584 6.07289C41.8726 6.38719 36.1483 10.5467 33.8078 16.2576C32.2251 20.295 32.3951 20.7939 32.4848 23.7669C32.5463 25.8037 34.2193 27.5093 36.257 27.4989L37.2525 27.4938C39.0533 27.4847 40.4852 26.0637 40.4231 24.264C40.3067 20.8902 40.1902 22.1997 41.0491 19.3741C41.1348 19.092 41.2474 18.8147 41.3989 18.5618C42.5612 16.623 44.2598 14.9074 46.5002 14.3049C48.7304 13.7414 51.0306 13.785 53.3219 13.8285C54.2116 13.8454 55.1002 13.8621 55.9829 13.8434C59.8716 13.856 63.7604 13.8537 67.6488 13.8514H67.6493L67.8368 13.8512C72.124 13.8485 76.4119 13.8459 80.6991 13.8633C83.2042 13.8547 85.7085 13.8535 88.2136 13.8523H88.2511C91.5787 13.8506 94.9056 13.8489 98.2325 13.8299C100.255 13.8238 102.289 13.856 104.289 14.2019C104.717 14.2759 105.126 14.4333 105.492 14.6681C106.792 15.5045 107.97 16.5244 108.989 17.6914C109.236 17.9736 109.432 18.2965 109.562 18.648C110.529 21.2677 110.488 24.0716 110.448 26.844L110.448 26.8452V26.8486L110.447 26.9212L110.447 26.9248C110.437 27.6772 110.426 28.4273 110.437 29.1705C110.394 39.6486 110.406 50.1269 110.419 60.6044V60.6058V60.6077C110.437 76.013 110.456 91.4183 110.296 106.821L110.296 106.824C109.728 110.502 106.553 113.664 102.814 114.025C101.174 114.17 99.5309 114.15 97.8879 114.13L97.8284 114.129C96.9053 114.118 95.9816 114.107 95.0585 114.126L95.0559 114.126C95.055 114.126 95.054 114.126 95.053 114.126C85.8057 114.093 76.5617 114.106 67.3156 114.12L65.6077 114.122C62.2125 114.126 58.8172 114.131 55.4214 114.133C54.7664 114.127 54.1099 114.134 53.4529 114.141L53.3631 114.142L53.272 114.143C51.1209 114.168 48.485 114.077 46.2621 113.71C46.2107 113.701 46.0534 113.627 46.007 113.603C45.7373 113.465 45.9458 113.575 45.6809 113.428C42.9621 111.922 41.2538 109.963 40.5619 106.743C40.2917 105.485 40.4575 105.145 40.4281 103.732C40.438 103.063 39.8855 102.521 39.2165 102.522L33.9336 102.526C33.0499 102.527 32.4453 102.979 32.4481 103.863C32.4502 104.49 32.4775 105.412 32.5519 106.763C32.556 106.837 32.5583 106.914 32.5583 106.989L32.5583 107.352C32.5583 108.536 33.373 111.043 34.1421 112.661C35.9744 116.112 38.89 118.967 42.4409 120.625C43.9787 121.187 45.5505 121.709 47.1886 121.843C47.1891 121.843 47.1896 121.843 47.1901 121.843C47.1905 121.843 47.191 121.843 47.1914 121.843C58.6078 122.024 70.0322 122.007 81.4559 121.988H81.4579C88.1606 121.978 94.8632 121.967 101.564 121.996C107.415 122.124 113.006 118.787 116.042 113.845C117.954 110.722 118.449 106.99 118.362 103.386C118.328 97.9658 118.342 92.5438 118.356 87.1205V87.1168V87.1042C118.377 78.9719 118.397 70.19 118.255 62.041C118.405 55.43 118.382 48.8122 118.358 42.1944V42.1889C118.341 37.5433 118.324 32.8978 118.368 28.2544C118.361 27.6234 118.364 26.9872 118.367 26.3483L118.368 26.2338V26.2265V26.2265C118.387 22.7127 118.406 19.1237 116.87 15.8963C115.321 12.2318 112.277 9.46056 108.841 7.55793C108.653 7.45382 108.456 7.36792 108.252 7.29926C106.093 6.57111 103.855 5.98717 101.556 6.0191C99.1674 6.00702 96.7787 6.01403 94.39 6.02105L94.39 6.02105L94.3512 6.02116C91.463 6.02965 88.5754 6.03813 85.6872 6.01257C82.7187 6.01011 79.7508 6.01399 76.783 6.01788L76.7188 6.01797C71.6525 6.02461 66.5876 6.03124 61.5199 6.00601C59.6896 6.03056 57.8593 6.02062 56.0291 6.01067C53.3722 5.99624 50.7152 5.98181 48.0584 6.07289Z" fill="url(#paint0_linear_721_15)" stroke="url(#paint1_linear_721_15)" stroke-width="3"/>
<mask id="path-2-inside-1_721_15" fill="white">
<path fill-rule="evenodd" clip-rule="evenodd" d="M72.1787 40.1784C72.1787 39.0343 73.2606 38.1069 74.5954 38.1069H98.762C100.097 38.1069 101.179 39.0343 101.179 40.1784V46.3926C101.179 47.5367 100.097 48.4641 98.762 48.4641H74.5954C73.2606 48.4641 72.1787 47.5367 72.1787 46.3926V40.1784ZM74.5952 58.8214C73.2604 58.8214 72.1786 59.7488 72.1786 60.8929V67.1071C72.1786 68.2513 73.2604 69.1786 74.5952 69.1786H98.7619C100.097 69.1786 101.179 68.2513 101.179 67.1071V60.8929C101.179 59.7488 100.097 58.8214 98.7619 58.8214H74.5952ZM72.1786 81.6071C72.1786 80.463 73.2604 79.5357 74.5952 79.5357H98.7619C100.097 79.5357 101.179 80.463 101.179 81.6071V87.8214C101.179 88.9655 100.097 89.8929 98.7619 89.8929H74.5952C73.2604 89.8929 72.1786 88.9655 72.1786 87.8214V81.6071Z"/>
</mask>
<path fill-rule="evenodd" clip-rule="evenodd" d="M72.1787 40.1784C72.1787 39.0343 73.2606 38.1069 74.5954 38.1069H98.762C100.097 38.1069 101.179 39.0343 101.179 40.1784V46.3926C101.179 47.5367 100.097 48.4641 98.762 48.4641H74.5954C73.2606 48.4641 72.1787 47.5367 72.1787 46.3926V40.1784ZM74.5952 58.8214C73.2604 58.8214 72.1786 59.7488 72.1786 60.8929V67.1071C72.1786 68.2513 73.2604 69.1786 74.5952 69.1786H98.7619C100.097 69.1786 101.179 68.2513 101.179 67.1071V60.8929C101.179 59.7488 100.097 58.8214 98.7619 58.8214H74.5952ZM72.1786 81.6071C72.1786 80.463 73.2604 79.5357 74.5952 79.5357H98.7619C100.097 79.5357 101.179 80.463 101.179 81.6071V87.8214C101.179 88.9655 100.097 89.8929 98.7619 89.8929H74.5952C73.2604 89.8929 72.1786 88.9655 72.1786 87.8214V81.6071Z" fill="url(#paint2_linear_721_15)"/>
<path d="M74.5954 37.1069C72.8584 37.1069 71.1787 38.343 71.1787 40.1784H73.1787C73.1787 39.7256 73.6627 39.1069 74.5954 39.1069V37.1069ZM98.762 37.1069H74.5954V39.1069H98.762V37.1069ZM102.179 40.1784C102.179 38.343 100.499 37.1069 98.762 37.1069V39.1069C99.6947 39.1069 100.179 39.7256 100.179 40.1784H102.179ZM102.179 46.3926V40.1784H100.179V46.3926H102.179ZM98.762 49.4641C100.499 49.4641 102.179 48.228 102.179 46.3926H100.179C100.179 46.8454 99.6947 47.4641 98.762 47.4641V49.4641ZM74.5954 49.4641H98.762V47.4641H74.5954V49.4641ZM71.1787 46.3926C71.1787 48.228 72.8584 49.4641 74.5954 49.4641V47.4641C73.6627 47.4641 73.1787 46.8454 73.1787 46.3926H71.1787ZM71.1787 40.1784V46.3926H73.1787V40.1784H71.1787ZM73.1786 60.8929C73.1786 60.4401 73.6626 59.8214 74.5952 59.8214V57.8214C72.8583 57.8214 71.1786 59.0575 71.1786 60.8929H73.1786ZM73.1786 67.1071V60.8929H71.1786V67.1071H73.1786ZM74.5952 68.1786C73.6625 68.1786 73.1786 67.5599 73.1786 67.1071H71.1786C71.1786 68.9426 72.8583 70.1786 74.5952 70.1786V68.1786ZM98.7619 68.1786H74.5952V70.1786H98.7619V68.1786ZM100.179 67.1071C100.179 67.5599 99.6946 68.1786 98.7619 68.1786V70.1786C100.499 70.1786 102.179 68.9426 102.179 67.1071H100.179ZM100.179 60.8929V67.1071H102.179V60.8929H100.179ZM98.7619 59.8214C99.6946 59.8214 100.179 60.4401 100.179 60.8929H102.179C102.179 59.0575 100.499 57.8214 98.7619 57.8214V59.8214ZM74.5952 59.8214H98.7619V57.8214H74.5952V59.8214ZM74.5952 78.5357C72.8583 78.5357 71.1786 79.7717 71.1786 81.6071H73.1786C73.1786 81.1544 73.6625 80.5357 74.5952 80.5357V78.5357ZM98.7619 78.5357H74.5952V80.5357H98.7619V78.5357ZM102.179 81.6071C102.179 79.7717 100.499 78.5357 98.7619 78.5357V80.5357C99.6946 80.5357 100.179 81.1544 100.179 81.6071H102.179ZM102.179 87.8214V81.6071H100.179V87.8214H102.179ZM98.7619 90.8929C100.499 90.8929 102.179 89.6569 102.179 87.8214H100.179C100.179 88.2742 99.6946 88.8929 98.7619 88.8929V90.8929ZM74.5952 90.8929H98.7619V88.8929H74.5952V90.8929ZM71.1786 87.8214C71.1786 89.6569 72.8583 90.8929 74.5952 90.8929V88.8929C73.6625 88.8929 73.1786 88.2742 73.1786 87.8214H71.1786ZM71.1786 81.6071V87.8214H73.1786V81.6071H71.1786Z" fill="url(#paint3_linear_721_15)" mask="url(#path-2-inside-1_721_15)"/>
<path fill-rule="evenodd" clip-rule="evenodd" d="M28.9749 56.0101V43.0268C28.9749 39.1657 32.5521 36.0357 36.9647 36.0357C41.3774 36.0357 44.9545 39.1657 44.9545 43.0268V56.0101H57.9375C61.7986 56.0101 64.9286 59.5873 64.9286 63.9999C64.9286 68.4126 61.7986 71.9897 57.9375 71.9897H44.9545V84.9732C44.9545 88.8343 41.3774 91.9643 36.9647 91.9643C32.5521 91.9643 28.9749 88.8343 28.9749 84.9732V71.9897H15.9911C12.13 71.9897 9 68.4126 9 63.9999C9 59.5873 12.13 56.0101 15.9911 56.0101H28.9749Z" fill="url(#paint4_linear_721_15)"/>
<defs>
<linearGradient id="paint0_linear_721_15" x1="75.403" y1="122" x2="75.403" y2="5.99999" gradientUnits="userSpaceOnUse">
<stop stop-color="#02AA93"/>
<stop offset="1" stop-color="#67FF80"/>
</linearGradient>
<linearGradient id="paint1_linear_721_15" x1="75.403" y1="122" x2="75.403" y2="5.99999" gradientUnits="userSpaceOnUse">
<stop stop-color="#02AA93"/>
<stop offset="1" stop-color="#67FF80"/>
</linearGradient>
<linearGradient id="paint2_linear_721_15" x1="86.6787" y1="89.8926" x2="86.6787" y2="38.1069" gradientUnits="userSpaceOnUse">
<stop stop-color="#02AA93"/>
<stop offset="1" stop-color="#67FF80"/>
</linearGradient>
<linearGradient id="paint3_linear_721_15" x1="86.6787" y1="89.8926" x2="86.6787" y2="38.1069" gradientUnits="userSpaceOnUse">
<stop stop-color="#02AA93"/>
<stop offset="1" stop-color="#67FF80"/>
</linearGradient>
<linearGradient id="paint4_linear_721_15" x1="36.9643" y1="36.0356" x2="36.9643" y2="91.9642" gradientUnits="userSpaceOnUse">
<stop stop-color="#97EB0E"/>
<stop offset="1" stop-color="#19B90B"/>
</linearGradient>
</defs>
</svg>
