<svg width="128" height="128" viewBox="0 0 128 128" fill="none" xmlns="http://www.w3.org/2000/svg">
<path d="M64 120C33.0712 120 8 94.9288 8 64C8 39.8824 23.2442 19.3284 44.621 11.4447C45.888 10.9774 47.2 11.9387 47.2 13.2891V21.1127C47.2 21.9267 46.7047 22.6558 45.96 22.9845C36.8893 26.9891 29.3896 33.896 24.6547 42.6366C19.7058 51.7725 18.0849 62.3441 20.0694 72.5431C22.0539 82.742 27.5204 91.9345 35.5339 98.5482C43.5473 105.162 53.6098 108.786 64 108.8C72.9252 108.8 81.647 106.135 89.0479 101.146C96.0758 96.4091 101.609 89.7819 105.016 82.0419C105.345 81.2962 106.074 80.8 106.889 80.8H114.711C116.061 80.8 117.023 82.112 116.555 83.379C108.672 104.756 88.1176 120 64 120ZM119.871 67.797C119.802 68.8219 118.938 69.6 117.911 69.6H60.4C59.2954 69.6 58.4 68.7046 58.4 67.6V10.0894C58.4 9.06216 59.1781 8.198 60.203 8.12853C61.4587 8.04342 62.7255 8 64 8C94.9288 8 120 33.0712 120 64C120 65.2745 119.957 66.5413 119.871 67.797ZM71.8427 19.8883C70.6573 19.6772 69.6 20.6117 69.6 21.8157V56.4C69.6 57.5046 70.4954 58.4 71.6 58.4H106.184C107.388 58.4 108.323 57.3427 108.112 56.1573C106.507 47.1453 102.176 38.8205 95.6779 32.3221C89.1795 25.8238 80.8547 21.4931 71.8427 19.8883Z" fill="url(#paint0_linear_697_18)" stroke="url(#paint1_linear_697_18)" stroke-width="2"/>
<defs>
<linearGradient id="paint0_linear_697_18" x1="111.037" y1="14.8749" x2="13.4412" y2="120.399" gradientUnits="userSpaceOnUse">
<stop stop-color="#D800BD"/>
<stop offset="0.408098" stop-color="#F92D7A"/>
<stop offset="0.590073" stop-color="#FF4A52"/>
<stop offset="1" stop-color="#FFB243"/>
</linearGradient>
<linearGradient id="paint1_linear_697_18" x1="111.037" y1="14.8749" x2="13.4412" y2="120.399" gradientUnits="userSpaceOnUse">
<stop stop-color="#D800BD"/>
<stop offset="0.408098" stop-color="#F92D7A"/>
<stop offset="0.590073" stop-color="#FF4A52"/>
<stop offset="1" stop-color="#FFB243"/>
</linearGradient>
</defs>
</svg>
