<svg width="128" height="128" viewBox="0 0 128 128" fill="none" xmlns="http://www.w3.org/2000/svg">
<path fill-rule="evenodd" clip-rule="evenodd" d="M25.0557 8.05252C16.0261 8.17321 8.02746 16.1903 8.02042 25.2229C8.0071 41.1943 8.00763 57.1684 8.00817 73.1435C8.00849 82.7382 8.00881 92.3333 8.00613 101.928C7.80713 109.094 12.4712 116.337 19.3251 118.644C21.97 119.354 23.8541 117.046 24.5722 114.809C24.1598 113.19 23.5981 111.416 21.9202 110.705C18.8986 109.201 16.4385 106.147 16.5665 102.646C16.5765 90.4994 16.5739 78.3516 16.5714 66.2029C16.5685 52.5483 16.5656 38.8926 16.5806 25.237C16.5024 20.1811 21.5007 16.0695 26.4207 16.4388C36.7795 16.4475 47.1394 16.4456 57.4995 16.4436H57.5009C72.462 16.4408 87.4234 16.4379 102.382 16.4673C107.324 16.4956 111.796 20.9266 111.561 25.9259C111.583 51.2836 111.59 76.6487 111.561 102.013C111.633 105.095 110.075 108.135 107.516 109.853C104.967 111.664 101.853 111.579 98.8234 111.497C97.9328 111.472 97.0492 111.448 96.1899 111.473C96.2014 103.871 96.1977 96.2683 96.1941 88.6654V88.6599C96.1887 77.564 96.1833 66.4677 96.2254 55.3739L96.593 55.3889C98.7471 55.4777 100.912 55.567 103.05 55.2177C100.653 54.9852 98.2562 55.1207 95.8589 55.2562C93.5709 55.3856 91.2828 55.5149 88.9947 55.3242C86.4494 55.1112 83.8969 55.0899 81.3445 55.1679C83.0661 55.5245 84.8203 55.4852 86.5694 55.446C86.9801 55.4368 87.3905 55.4277 87.8002 55.4236C87.8334 67.8929 87.8287 80.3621 87.8239 92.8314C87.8216 99.0522 87.8192 105.273 87.8215 111.494H87.8106H87.8055C80.7011 111.501 73.6037 111.507 66.5062 111.486C66.4849 103.334 66.4919 95.1895 66.5062 87.0375C65.038 86.9587 63.5697 86.9196 62.1025 86.9211C63.7901 86.9057 65.4794 86.9438 67.1686 87.0337C67.7997 87.0302 68.4456 87.0643 69.096 87.0988C71.0412 87.2018 73.0273 87.3069 74.7811 86.4116C77.5135 84.7647 76.9642 80.2409 73.9535 79.2443C72.4485 78.8727 70.8948 78.9057 69.345 78.9386C68.5953 78.9545 67.8464 78.9704 67.1044 78.9404C67.1044 74.8926 67.1052 70.8447 67.106 66.7969C67.1076 58.7013 67.1091 50.6056 67.1044 42.5099C67.3327 40.2904 65.5991 38.0427 63.2947 37.9508C61.1186 37.7176 58.9498 39.5836 58.9782 41.7748C58.9212 48.8614 58.9293 55.9479 58.9375 63.0344C58.9436 68.3458 58.9498 73.6572 58.9284 78.9686C58.2048 78.9929 57.4742 78.9731 56.7428 78.9533C55.1305 78.9096 53.5139 78.8659 51.958 79.2938C49.1113 80.3823 48.6405 84.6022 51.1519 86.3127C52.8303 87.3364 54.8095 87.214 56.7465 87.0943C57.2275 87.0646 57.7066 87.0349 58.1771 87.0231L58.1734 87.0233C58.3379 92.263 58.3174 97.5056 58.2968 102.749V102.751C58.2854 105.665 58.274 108.579 58.2944 111.494C52.2011 111.507 46.1151 111.515 40.029 111.479C40.0445 105.174 40.041 98.8689 40.0375 92.5632C40.0331 84.5971 40.0287 76.6293 40.0627 68.6601C42.3637 68.5351 44.6718 68.5001 46.9751 68.5472C49.4764 67.5787 50.3815 64.0633 48.55 62.0545C47.0717 60.3803 44.9041 60.4959 42.7877 60.6088C41.8841 60.657 40.9896 60.7047 40.1623 60.6124C40.1532 58.1609 40.1582 55.7094 40.1632 53.2578C40.17 49.9198 40.1768 46.5817 40.1481 43.2436C40.1765 41.3999 39.6206 39.2548 37.8177 38.4155C35.3876 36.9519 31.9313 39.0109 31.9669 41.8375C31.8998 45.3093 31.9114 48.781 31.923 52.2516C31.9324 55.049 31.9417 57.846 31.9099 60.6412C31.0941 60.7256 30.2009 60.6741 29.2941 60.6219C27.0401 60.4921 24.7017 60.3574 23.2586 62.2913C21.6479 64.3503 22.7382 67.2558 24.7622 68.5615C27.0449 68.4155 29.326 68.5384 31.6079 68.6613L31.6856 68.6655C31.7675 77.5863 31.7548 86.5092 31.742 95.4319C31.7325 102.114 31.7229 108.797 31.7532 115.478C31.6038 117.941 33.8719 120.241 36.3675 119.964C44.58 119.939 52.7934 119.958 61.0071 119.976C75.7968 120.009 90.588 120.042 105.375 119.823C113.347 118.218 120.05 111.011 119.986 102.71C120.008 76.89 120.001 51.0636 119.986 25.237C119.916 18.2354 115.131 11.6243 108.575 9.2029C105.753 8.05956 102.667 7.96018 99.6594 8.00992C88.7827 8.03163 77.9058 8.02484 67.0296 8.01804C53.0369 8.0093 39.0451 8.00056 25.0557 8.05252ZM95.5004 40.1055C94.2266 37.3418 89.7935 37.1603 88.349 39.8613C87.6091 41.407 87.6769 43.118 87.7443 44.8184C87.7767 45.6364 87.8091 46.4519 87.7513 47.2453C86.9473 47.3237 86.0872 47.2831 85.2184 47.2421C83.1501 47.1444 81.0324 47.0443 79.5041 48.5433C77.5543 50.5813 78.5363 54.2384 81.2617 55.0619C83.8163 54.9852 86.3708 55.0062 88.9183 55.2155C91.2083 55.4029 93.4983 55.2758 95.7882 55.1487C98.1874 55.0155 100.587 54.8823 102.986 55.1109C105.029 53.8964 106.423 51.1885 104.821 49.0738C103.433 47.0213 101.02 47.1279 98.6875 47.231C97.7205 47.2737 96.7671 47.3159 95.906 47.2034C95.8693 46.446 95.8976 45.6748 95.9259 44.9017C95.9855 43.2743 96.0455 41.6386 95.5004 40.1055Z" fill="url(#paint0_linear_705_127)" stroke="url(#paint1_linear_705_127)" stroke-width="3"/>
<defs>
<linearGradient id="paint0_linear_705_127" x1="18.4186" y1="63.9999" x2="100.899" y2="63.9999" gradientUnits="userSpaceOnUse">
<stop stop-color="#5570FF"/>
<stop offset="1" stop-color="#4DD3FF"/>
</linearGradient>
<linearGradient id="paint1_linear_705_127" x1="18.4186" y1="63.9999" x2="100.899" y2="63.9999" gradientUnits="userSpaceOnUse">
<stop stop-color="#5570FF"/>
<stop offset="1" stop-color="#4DD3FF"/>
</linearGradient>
</defs>
</svg>
