<svg width="128" height="128" viewBox="0 0 128 128" fill="none" xmlns="http://www.w3.org/2000/svg">
<path d="M38.3334 8.00026C42.4429 7.98303 46.512 8.81142 50.2877 10.4339C54.0634 12.0564 57.4649 14.4384 60.2807 17.4316L98.3606 55.4881C102.274 59.3774 105.377 64.0047 107.489 69.1018C109.602 74.1989 110.682 79.6646 110.667 85.1821V85.1821C110.667 87.6981 107.625 88.9581 105.846 87.179L102.252 83.5857C101.578 82.9113 101.176 82.017 101.059 81.0705C100.171 73.8957 96.9053 67.2076 91.7619 62.0868L53.5887 23.9322C51.6363 21.8424 49.2739 20.1778 46.649 19.0424C44.0241 17.907 41.1933 17.3253 38.3334 17.3336C26.7554 17.3336 17.3335 26.7556 17.3335 38.3335C17.3335 44.1482 19.6761 49.5615 24.0348 53.6868L33.0543 62.7152C33.3527 63.0139 33.7166 63.239 34.1172 63.3725L42.5081 66.1695C43.8873 66.6292 43.5566 68.6668 42.1028 68.6668V68.6668C40.9613 68.6668 40.3894 70.0469 41.1964 70.8543L56.3732 86.039C56.6719 86.3378 57.036 86.563 57.4368 86.6967L65.8695 89.51C67.2444 89.9687 66.9145 92.0001 65.4651 92.0001V92.0001C64.3221 92.0001 63.7825 93.3578 64.6698 94.0783C70.4428 98.7663 77.6821 101.349 85.182 101.333V101.333C88.7071 101.333 90.4725 97.0713 87.9799 94.5786L54.1958 60.7946C52.6337 59.2325 52.6337 56.6998 54.1958 55.1377L55.1376 54.1959C56.6997 52.6338 59.2324 52.6338 60.7945 54.1959L117.171 110.573C118.734 112.135 118.734 114.668 117.171 116.23L116.23 117.172C114.668 118.734 112.135 118.734 110.573 117.172L105.239 111.838C104.489 111.088 103.472 110.667 102.411 110.667H85.182C79.6644 110.682 74.1986 109.603 69.1014 107.49C64.0042 105.378 59.377 102.275 55.488 98.3607L17.5341 60.3741C14.5141 57.5539 12.1086 54.1408 10.4681 50.3483C8.82758 46.5558 7.98741 42.4656 8.00014 38.3335C8.00014 21.6082 21.6081 8.00026 38.3334 8.00026Z" fill="url(#paint0_linear_720_55)"/>
<defs>
<linearGradient id="paint0_linear_720_55" x1="18.4186" y1="63.9999" x2="100.899" y2="63.9999" gradientUnits="userSpaceOnUse">
<stop stop-color="#5570FF"/>
<stop offset="1" stop-color="#4DD3FF"/>
</linearGradient>
</defs>
</svg>
