<svg width="128" height="128" viewBox="0 0 128 128" fill="none" xmlns="http://www.w3.org/2000/svg">
<path d="M12.0286 20.4916C14.4007 15.0349 19.9207 10.9573 25.9779 11.0243C32.9675 11.0094 39.9644 10.9722 46.9614 11.0467C49.3484 10.92 51.4147 13.2085 51.1611 15.5642C51.0864 17.7931 48.9904 19.6269 46.7749 19.5076C39.86 19.5822 32.9449 19.4256 26.0301 19.5598C22.0989 19.5151 19.3016 23.2647 19.4359 26.9846C17.2577 24.4798 14.2664 22.9144 12.0286 20.4916Z" fill="url(#paint0_linear_714_48)"/>
<path d="M76.3374 15.4449C76.1881 13.2234 78.068 11.0318 80.3431 11.0616C87.5639 10.9498 94.7922 11.0243 102.013 11.0243C108.876 10.9349 115.067 16.1605 116.693 22.728C117.26 29.0569 116.842 35.4232 116.969 41.7669C116.171 41.6551 115.373 41.5433 114.582 41.4315C114.455 40.6786 114.329 39.9182 114.202 39.1653C112.829 38.1589 111.464 37.1376 110.159 36.0494C109.741 34.9461 109.234 33.8726 108.562 32.9035C108.331 30.0632 108.786 27.1634 108.19 24.368C107.473 21.6545 104.855 19.6045 102.043 19.5598C94.8443 19.4182 87.646 19.6045 80.4549 19.4927C78.2842 19.5151 76.3821 17.5918 76.3374 15.4449Z" fill="url(#paint1_linear_714_48)"/>
<path d="M11.3344 22.7802C11.5359 22.0049 11.7973 21.252 12.0286 20.4916C14.2664 22.9144 17.2577 24.4798 19.4359 26.9846C19.6522 36.8917 19.428 46.8063 19.5548 56.7208C18.1673 55.6772 16.6232 54.8646 15.1985 53.8731C13.6394 52.2704 12.5429 50.2801 11.0659 48.6028C11.1853 40.0003 10.7004 31.3603 11.3344 22.7802Z" fill="url(#paint2_linear_714_48)"/>
<path d="M75.3807 26.8578C77.1261 25.1731 80.1175 25.0464 81.9972 26.5969C84.5783 28.7364 86.9056 31.1591 89.3971 33.3955C90.9188 34.8715 92.7538 36.1761 93.5968 38.1888C93.7832 39.8883 93.7086 41.7595 92.463 43.0789C89.6656 46.3142 86.6147 49.3333 83.7428 52.509C83.4518 51.9499 83.1608 51.3908 82.87 50.8316C82.2509 50.869 81.6318 50.8987 81.0126 50.936C80.2965 49.1619 79.3118 47.5069 78.1482 45.9863C79.9981 44.0033 81.8481 42.0204 83.6458 39.9927C82.2433 38.3677 80.662 36.8991 78.9463 35.6094C77.2157 37.3241 75.5671 39.0982 73.9185 40.8874C71.636 39.2174 68.1524 38.2932 67.481 35.1846C70.1814 32.4711 72.6356 29.5191 75.3807 26.8578Z" fill="url(#paint3_linear_714_48)"/>
<path d="M108.562 32.9035C109.234 33.8726 109.741 34.9461 110.159 36.0494C111.464 37.1376 112.829 38.1589 114.202 39.1653C114.329 39.9182 114.455 40.6786 114.582 41.4315C115.373 41.5433 116.171 41.6551 116.969 41.7669C116.969 49.6837 116.969 57.5929 116.969 65.5097C113.783 63.3627 111.456 60.2691 108.517 57.839C108.495 49.5272 108.421 41.2153 108.562 32.9035Z" fill="url(#paint4_linear_714_48)"/>
<path d="M54.8829 48.7443C59.0676 44.2121 63.326 39.7468 67.481 35.1846C68.1524 38.2932 71.636 39.2174 73.9185 40.8874C69.6741 45.4421 65.4157 49.9893 61.1713 54.5514C60.3358 54.1414 59.5003 53.7314 58.6649 53.314C58.2918 53.4557 57.9264 53.6048 57.5534 53.7464C56.7925 52.0095 55.9049 50.3396 54.8829 48.7443Z" fill="url(#paint5_linear_714_48)"/>
<path d="M65.2214 59.8294C69.5331 55.2223 73.8291 50.5931 78.1482 45.9863C79.3118 47.5069 80.2965 49.1619 81.0126 50.936C81.6318 50.8987 82.2509 50.869 82.87 50.8316C83.1608 51.3908 83.4518 51.9499 83.7428 52.509C79.6251 56.9072 75.5315 61.3203 71.4138 65.7185C69.4221 63.6833 67.3623 61.7153 65.2214 59.8294Z" fill="url(#paint6_linear_714_48)"/>
<path d="M11.0659 48.6028C12.5429 50.2801 13.6394 52.2704 15.1985 53.8731C16.6232 54.8646 18.1673 55.6772 19.5548 56.7208C19.4802 65.6065 19.5475 74.4925 19.5177 83.3782C16.0788 81.3432 13.4009 78.3464 11.0437 75.1708C11.0512 66.3148 11.0212 57.4588 11.0659 48.6028Z" fill="url(#paint7_linear_714_48)"/>
<path d="M45.1477 108.426C52.9951 108.448 60.8425 108.358 68.6972 108.47C70.6442 110.983 74.1949 111.594 75.7391 114.501C76.7013 115.276 77.6497 116.059 78.5822 116.864C69.6381 116.909 60.6942 116.894 51.7503 116.872C51.1162 115.045 49.6981 113.756 48.1166 112.742C47.9525 111.989 47.7884 111.236 47.6244 110.491C47.1394 110.729 46.662 110.968 46.1772 111.214C45.8341 110.282 45.491 109.35 45.1477 108.426Z" fill="url(#paint8_linear_714_48)"/>
<path d="M43.0977 61.3724C47.0215 57.1606 50.9442 52.9487 54.8829 48.7443C55.9049 50.3396 56.7925 52.0095 57.5534 53.7464C57.9264 53.6048 58.2918 53.4557 58.6649 53.314C59.5003 53.7314 60.3358 54.1414 61.1713 54.5514C57.1953 58.7932 53.2501 63.0647 49.2667 67.3062C47.9688 64.63 45.9548 62.4086 43.0977 61.3724Z" fill="url(#paint9_linear_714_48)"/>
<path d="M54.1385 71.7045C57.8383 67.7536 61.5233 63.7877 65.2232 59.8294C67.3642 61.7153 69.4221 63.6833 71.4138 65.7185C67.7438 69.6469 64.0887 73.5904 60.4111 77.5116C58.4941 75.4019 56.4286 73.419 54.1385 71.7045Z" fill="url(#paint10_linear_714_48)"/>
<path d="M108.517 57.839C111.456 60.2691 113.783 63.3627 116.969 65.5097C116.969 73.3742 116.969 81.2463 116.969 89.1183C115.648 88.5444 114.254 88.0821 113.127 87.1726C111.904 85.1599 111.591 81.8426 108.495 82.0811C108.495 74.0004 108.458 65.9197 108.517 57.839Z" fill="url(#paint11_linear_714_48)"/>
<path d="M36.9211 69.9824C37.1225 66.1583 41.024 64.2051 43.0977 61.3724C45.9548 62.4086 47.9688 64.63 49.2667 67.3062C48.0061 68.6927 46.5662 69.9527 45.5293 71.533C45.0295 73.076 44.9772 74.7236 44.7535 76.3263C46.6408 76.1399 48.5205 75.9311 50.4078 75.7075C51.6536 74.3731 52.9001 73.0387 54.1385 71.7045C56.4286 73.419 58.4941 75.4019 60.4111 77.5116C58.3075 79.5243 56.6589 82.1185 54.2123 83.7138C48.0134 84.6082 41.7772 85.5476 35.5188 85.8382C35.213 84.7873 35.1308 83.7287 35.2873 82.6552C35.8393 78.4284 36.4137 74.2092 36.9211 69.9824Z" fill="url(#paint12_linear_714_48)"/>
<path d="M35.1906 96.5504C34.497 93.8519 36.3768 90.6539 39.353 90.7732C55.5178 90.6614 71.6901 90.7732 87.8623 90.7136C89.6973 90.6539 91.8606 90.818 92.9498 92.54C94.3297 94.3513 93.6807 96.871 92.2858 98.4813C90.6298 99.0775 88.8694 99.331 87.1089 99.2789C71.1978 99.1895 55.2867 99.3384 39.3756 99.2117C37.5106 99.331 36.2201 97.8922 35.1906 96.5504Z" fill="url(#paint13_linear_714_48)"/>
<path d="M11.0437 75.1708C13.4009 78.3464 16.0788 81.3432 19.5177 83.3782C19.5624 89.5656 19.4592 95.7528 19.5636 101.94C19.586 105.362 22.5922 108.366 26.0087 108.381C32.3865 108.493 38.7719 108.388 45.1497 108.426C45.493 109.35 45.8361 110.282 46.1792 111.214C46.664 110.968 47.1414 110.729 47.6264 110.491C47.7905 111.236 47.9545 111.989 48.1186 112.742C49.7001 113.756 51.1162 115.045 51.7503 116.872C42.8958 116.864 34.0413 116.961 25.1869 116.842C17.5559 116.581 10.9467 109.618 11.0586 101.992C11.0139 93.0542 11.0586 84.1088 11.0437 75.1708Z" fill="url(#paint14_linear_714_48)"/>
<path d="M108.495 82.0811C111.591 81.8426 111.904 85.1599 113.127 87.1726C114.254 88.0821 115.648 88.5444 116.969 89.1183C116.924 93.673 117.051 98.2278 116.917 102.783C116.79 106.502 114.97 109.984 112.426 112.637C110.83 111.027 109.233 109.41 107.674 107.762C107.48 107.881 107.085 108.127 106.891 108.254C106.644 107.978 106.16 107.427 105.921 107.158C107.249 105.712 108.457 103.99 108.45 101.948C108.562 95.328 108.443 88.7009 108.495 82.0811Z" fill="url(#paint15_linear_714_48)"/>
<path d="M101.32 108.418C102.953 108.493 104.466 107.814 105.921 107.158C106.16 107.427 106.644 107.978 106.891 108.254C107.085 108.127 107.48 107.881 107.674 107.762C109.233 109.41 110.83 111.027 112.426 112.637C109.614 115.202 105.951 116.916 102.095 116.879C94.262 116.909 86.422 116.894 78.5822 116.864C77.6497 116.059 76.7031 115.276 75.7408 114.501C74.1967 111.594 70.6442 110.983 68.6972 108.47C79.5659 108.351 90.4435 108.47 101.32 108.418Z" fill="url(#paint16_linear_714_48)"/>
<path d="M12.0286 20.4916C14.4007 15.0349 19.9207 10.9573 25.9779 11.0243C32.9675 11.0094 39.9644 10.9722 46.9614 11.0467C49.3484 10.92 51.4147 13.2085 51.1611 15.5642C51.0864 17.7931 48.9904 19.6269 46.7749 19.5076C39.86 19.5822 32.9449 19.4256 26.0301 19.5598C22.0989 19.5151 19.3016 23.2647 19.4359 26.9846M12.0286 20.4916C14.2664 22.9144 17.2577 24.4798 19.4359 26.9846M12.0286 20.4916C11.7973 21.252 11.5359 22.0049 11.3344 22.7802C10.7004 31.3603 11.1853 40.0003 11.0659 48.6028M19.4359 26.9846C19.6522 36.8917 19.428 46.8063 19.5548 56.7208M116.969 41.7669C116.842 35.4232 117.26 29.0569 116.693 22.728C115.067 16.1605 108.876 10.9349 102.013 11.0243C94.7922 11.0243 87.5639 10.9498 80.3431 11.0616C78.068 11.0318 76.1881 13.2234 76.3374 15.4449C76.3821 17.5918 78.2842 19.5151 80.4549 19.4927C87.646 19.6045 94.8443 19.4182 102.043 19.5598C104.855 19.6045 107.473 21.6545 108.19 24.368C108.786 27.1634 108.331 30.0632 108.562 32.9035M116.969 41.7669C116.171 41.6551 115.373 41.5433 114.582 41.4315C114.455 40.6786 114.329 39.9182 114.202 39.1653C112.829 38.1589 111.464 37.1376 110.159 36.0494C109.741 34.9461 109.234 33.8726 108.562 32.9035M116.969 41.7669C116.969 49.6837 116.969 57.5929 116.969 65.5097M108.562 32.9035C108.421 41.2153 108.495 49.5272 108.517 57.839M19.5548 56.7208C18.1673 55.6772 16.6232 54.8646 15.1985 53.8731C13.6394 52.2704 12.5429 50.2801 11.0659 48.6028M19.5548 56.7208C19.4802 65.6065 19.5475 74.4925 19.5177 83.3782M11.0659 48.6028C11.0212 57.4588 11.0512 66.3148 11.0437 75.1708M83.7428 52.509C86.6147 49.3333 89.6656 46.3142 92.463 43.0789C93.7086 41.7595 93.7832 39.8883 93.5968 38.1888C92.7538 36.1761 90.9188 34.8715 89.3971 33.3955C86.9056 31.1591 84.5783 28.7364 81.9972 26.5969C80.1175 25.0464 77.1261 25.1731 75.3807 26.8578C72.6356 29.5191 70.1814 32.4711 67.481 35.1846M83.7428 52.509C83.4518 51.9499 83.1608 51.3908 82.87 50.8316C82.2509 50.869 81.6318 50.8987 81.0126 50.936C80.2965 49.1619 79.3118 47.5069 78.1482 45.9863M83.7428 52.509C79.6251 56.9072 75.5315 61.3203 71.4138 65.7185M78.1482 45.9863C79.9981 44.0033 81.8481 42.0204 83.6458 39.9927C82.2433 38.3677 80.662 36.8991 78.9463 35.6094C77.2157 37.3241 75.5671 39.0982 73.9185 40.8874M78.1482 45.9863C73.8291 50.5931 69.5331 55.2223 65.2214 59.8294C67.3623 61.7153 69.4221 63.6833 71.4138 65.7185M73.9185 40.8874C71.636 39.2174 68.1524 38.2932 67.481 35.1846M73.9185 40.8874C69.6741 45.4421 65.4157 49.9893 61.1713 54.5514M67.481 35.1846C63.326 39.7468 59.0676 44.2121 54.8829 48.7443M116.969 65.5097C113.783 63.3627 111.456 60.2691 108.517 57.839M116.969 65.5097C116.969 73.3742 116.969 81.2463 116.969 89.1183M108.517 57.839C108.458 65.9197 108.495 74.0004 108.495 82.0811M54.8829 48.7443C55.9049 50.3396 56.7925 52.0095 57.5534 53.7464C57.9264 53.6048 58.2918 53.4557 58.6649 53.314C59.5003 53.7314 60.3358 54.1414 61.1713 54.5514M54.8829 48.7443C50.9442 52.9487 47.0215 57.1606 43.0977 61.3724M61.1713 54.5514C57.1953 58.7932 53.2501 63.0647 49.2667 67.3062M71.4138 65.7185C69.4221 63.6833 67.3642 61.7153 65.2232 59.8294C61.5233 63.7877 57.8383 67.7536 54.1385 71.7045M71.4138 65.7185C67.7438 69.6469 64.0887 73.5904 60.4111 77.5116M19.5177 83.3782C16.0788 81.3432 13.4009 78.3464 11.0437 75.1708M19.5177 83.3782C19.5624 89.5656 19.4592 95.7528 19.5636 101.94C19.586 105.362 22.5922 108.366 26.0087 108.381C32.3865 108.493 38.7719 108.388 45.1497 108.426C45.493 109.35 45.8361 110.282 46.1792 111.214C46.664 110.968 47.1414 110.729 47.6264 110.491C47.7905 111.236 47.9545 111.989 48.1186 112.742C49.7001 113.756 51.1162 115.045 51.7503 116.872M11.0437 75.1708C11.0586 84.1088 11.0139 93.0542 11.0586 101.992C10.9467 109.618 17.5559 116.581 25.1869 116.842C34.0413 116.961 42.8958 116.864 51.7503 116.872M68.6972 108.47C60.8425 108.358 52.9951 108.448 45.1477 108.426C45.491 109.35 45.8341 110.282 46.1772 111.214C46.662 110.968 47.1394 110.729 47.6244 110.491C47.7884 111.236 47.9525 111.989 48.1166 112.742C49.6981 113.756 51.1162 115.045 51.7503 116.872M68.6972 108.47C70.6442 110.983 74.1949 111.594 75.7391 114.501C76.7013 115.276 77.6497 116.059 78.5822 116.864M68.6972 108.47C70.6442 110.983 74.1967 111.594 75.7408 114.501C76.7031 115.276 77.6497 116.059 78.5822 116.864M68.6972 108.47C79.5659 108.351 90.4435 108.47 101.32 108.418C102.953 108.493 104.466 107.814 105.921 107.158M78.5822 116.864C69.6381 116.909 60.6942 116.894 51.7503 116.872M78.5822 116.864C86.422 116.894 94.262 116.909 102.095 116.879C105.951 116.916 109.614 115.202 112.426 112.637M43.0977 61.3724C45.9548 62.4086 47.9688 64.63 49.2667 67.3062M43.0977 61.3724C41.024 64.2051 37.1225 66.1583 36.9211 69.9824C36.4137 74.2092 35.8393 78.4284 35.2873 82.6552C35.1308 83.7287 35.213 84.7873 35.5188 85.8382C41.7772 85.5476 48.0134 84.6082 54.2123 83.7138C56.6589 82.1185 58.3075 79.5243 60.4111 77.5116M49.2667 67.3062C48.0061 68.6927 46.5662 69.9527 45.5293 71.533C45.0295 73.076 44.9772 74.7236 44.7535 76.3263C46.6408 76.1399 48.5205 75.9311 50.4078 75.7075C51.6536 74.3731 52.9001 73.0387 54.1385 71.7045M54.1385 71.7045C56.4286 73.419 58.4941 75.4019 60.4111 77.5116M116.969 89.1183C115.648 88.5444 114.254 88.0821 113.127 87.1726C111.904 85.1599 111.591 81.8426 108.495 82.0811M116.969 89.1183C116.924 93.673 117.051 98.2278 116.917 102.783C116.79 106.502 114.97 109.984 112.426 112.637M108.495 82.0811C108.443 88.7009 108.562 95.328 108.45 101.948C108.457 103.99 107.249 105.712 105.921 107.158M112.426 112.637C110.83 111.027 109.233 109.41 107.674 107.762C107.48 107.881 107.085 108.127 106.891 108.254C106.644 107.978 106.16 107.427 105.921 107.158M35.1906 96.5504C34.497 93.8519 36.3768 90.6539 39.353 90.7732C55.5178 90.6614 71.6901 90.7732 87.8623 90.7136C89.6973 90.6539 91.8606 90.818 92.9498 92.54C94.3297 94.3513 93.6807 96.871 92.2858 98.4813C90.6298 99.0775 88.8694 99.331 87.1089 99.2789C71.1978 99.1895 55.2867 99.3384 39.3756 99.2117C37.5106 99.331 36.2201 97.8922 35.1906 96.5504Z" stroke="url(#paint17_linear_714_48)" stroke-width="3"/>
<defs>
<linearGradient id="paint0_linear_714_48" x1="64" y1="116.902" x2="64" y2="11" gradientUnits="userSpaceOnUse">
<stop stop-color="#5570FF"/>
<stop offset="1" stop-color="#4DD3FF"/>
</linearGradient>
<linearGradient id="paint1_linear_714_48" x1="64" y1="116.902" x2="64" y2="11" gradientUnits="userSpaceOnUse">
<stop stop-color="#5570FF"/>
<stop offset="1" stop-color="#4DD3FF"/>
</linearGradient>
<linearGradient id="paint2_linear_714_48" x1="64" y1="116.902" x2="64" y2="11" gradientUnits="userSpaceOnUse">
<stop stop-color="#5570FF"/>
<stop offset="1" stop-color="#4DD3FF"/>
</linearGradient>
<linearGradient id="paint3_linear_714_48" x1="64" y1="116.902" x2="64" y2="11" gradientUnits="userSpaceOnUse">
<stop stop-color="#5570FF"/>
<stop offset="1" stop-color="#4DD3FF"/>
</linearGradient>
<linearGradient id="paint4_linear_714_48" x1="64" y1="116.902" x2="64" y2="11" gradientUnits="userSpaceOnUse">
<stop stop-color="#5570FF"/>
<stop offset="1" stop-color="#4DD3FF"/>
</linearGradient>
<linearGradient id="paint5_linear_714_48" x1="64" y1="116.902" x2="64" y2="11" gradientUnits="userSpaceOnUse">
<stop stop-color="#5570FF"/>
<stop offset="1" stop-color="#4DD3FF"/>
</linearGradient>
<linearGradient id="paint6_linear_714_48" x1="64" y1="116.902" x2="64" y2="11" gradientUnits="userSpaceOnUse">
<stop stop-color="#5570FF"/>
<stop offset="1" stop-color="#4DD3FF"/>
</linearGradient>
<linearGradient id="paint7_linear_714_48" x1="64" y1="116.902" x2="64" y2="11" gradientUnits="userSpaceOnUse">
<stop stop-color="#5570FF"/>
<stop offset="1" stop-color="#4DD3FF"/>
</linearGradient>
<linearGradient id="paint8_linear_714_48" x1="64" y1="116.902" x2="64" y2="11" gradientUnits="userSpaceOnUse">
<stop stop-color="#5570FF"/>
<stop offset="1" stop-color="#4DD3FF"/>
</linearGradient>
<linearGradient id="paint9_linear_714_48" x1="64" y1="116.902" x2="64" y2="11" gradientUnits="userSpaceOnUse">
<stop stop-color="#5570FF"/>
<stop offset="1" stop-color="#4DD3FF"/>
</linearGradient>
<linearGradient id="paint10_linear_714_48" x1="64" y1="116.902" x2="64" y2="11" gradientUnits="userSpaceOnUse">
<stop stop-color="#5570FF"/>
<stop offset="1" stop-color="#4DD3FF"/>
</linearGradient>
<linearGradient id="paint11_linear_714_48" x1="64" y1="116.902" x2="64" y2="11" gradientUnits="userSpaceOnUse">
<stop stop-color="#5570FF"/>
<stop offset="1" stop-color="#4DD3FF"/>
</linearGradient>
<linearGradient id="paint12_linear_714_48" x1="64" y1="116.902" x2="64" y2="11" gradientUnits="userSpaceOnUse">
<stop stop-color="#5570FF"/>
<stop offset="1" stop-color="#4DD3FF"/>
</linearGradient>
<linearGradient id="paint13_linear_714_48" x1="64" y1="116.902" x2="64" y2="11" gradientUnits="userSpaceOnUse">
<stop stop-color="#5570FF"/>
<stop offset="1" stop-color="#4DD3FF"/>
</linearGradient>
<linearGradient id="paint14_linear_714_48" x1="64" y1="116.902" x2="64" y2="11" gradientUnits="userSpaceOnUse">
<stop stop-color="#5570FF"/>
<stop offset="1" stop-color="#4DD3FF"/>
</linearGradient>
<linearGradient id="paint15_linear_714_48" x1="64" y1="116.902" x2="64" y2="11" gradientUnits="userSpaceOnUse">
<stop stop-color="#5570FF"/>
<stop offset="1" stop-color="#4DD3FF"/>
</linearGradient>
<linearGradient id="paint16_linear_714_48" x1="64" y1="116.902" x2="64" y2="11" gradientUnits="userSpaceOnUse">
<stop stop-color="#5570FF"/>
<stop offset="1" stop-color="#4DD3FF"/>
</linearGradient>
<linearGradient id="paint17_linear_714_48" x1="64" y1="116.902" x2="64" y2="11" gradientUnits="userSpaceOnUse">
<stop stop-color="#5570FF"/>
<stop offset="1" stop-color="#4DD3FF"/>
</linearGradient>
</defs>
</svg>
