<svg width="128" height="128" viewBox="0 0 128 128" fill="none" xmlns="http://www.w3.org/2000/svg">
<path d="M31.0982 11L31.0982 5L31.0934 5L31.0982 11ZM26.7031 13.6093L21.484 10.6495L21.4837 10.65L26.7031 13.6093ZM55.1017 11L55.1066 5H55.1017V11ZM59.4968 13.6093L64.7163 10.65L64.716 10.6495L59.4968 13.6093ZM71.4961 34.7729L76.7156 31.8137L76.7155 31.8136L71.4961 34.7729ZM71.4961 40.1361L76.7155 43.0954L76.7156 43.0953L71.4961 40.1361ZM59.4968 61.2998L64.716 64.2596L64.7163 64.2591L59.4968 61.2998ZM55.1017 63.9091L55.1017 69.9091L55.1066 69.9091L55.1017 63.9091ZM31.0982 63.9091L31.0934 69.9091H31.0982V63.9091ZM26.7031 61.2998L21.4837 64.2591L21.484 64.2596L26.7031 61.2998ZM14.7039 40.1361L9.48437 43.0954L9.48443 43.0954L14.7039 40.1361ZM14.7039 34.7729L9.48443 31.8136L9.48437 31.8137L14.7039 34.7729ZM71.6754 40.0637L66.4563 37.1039L66.456 37.1044L71.6754 40.0637ZM76.0705 37.4544L76.0705 31.4544L76.0657 31.4544L76.0705 37.4544ZM59.6762 61.2274L54.4567 58.2681L54.4567 58.2681L59.6762 61.2274ZM59.6762 66.5906L54.4567 69.5498L54.4567 69.5499L59.6762 66.5906ZM71.6754 87.7542L66.456 90.7135L66.4563 90.714L71.6754 87.7542ZM76.0705 90.3635L76.0657 96.3635H76.0705V90.3635ZM100.074 90.3635L100.074 96.3635L100.079 96.3635L100.074 90.3635ZM104.469 87.7542L109.688 90.714L109.689 90.7135L104.469 87.7542ZM116.468 66.5906L121.688 69.5499L121.688 69.5498L116.468 66.5906ZM116.468 61.2274L121.688 58.2681L121.688 58.2681L116.468 61.2274ZM104.469 40.0637L109.689 37.1044L109.688 37.1039L104.469 40.0637ZM100.074 37.4544L100.079 31.4544H100.074V37.4544ZM26.8683 66.7002L21.6492 63.7404L21.6489 63.7409L26.8683 66.7002ZM31.2634 64.0909L31.2634 58.0909L31.2586 58.0909L31.2634 64.0909ZM14.869 87.8639L9.6496 84.9046L9.64955 84.9046L14.869 87.8639ZM14.869 93.2271L9.64955 96.1863L9.6496 96.1864L14.869 93.2271ZM26.8683 114.391L21.6489 117.35L21.6492 117.351L26.8683 114.391ZM31.2634 117L31.2586 123H31.2634V117ZM55.2669 117L55.2669 123L55.2718 123L55.2669 117ZM59.662 114.391L64.8811 117.351L64.8814 117.35L59.662 114.391ZM71.6613 93.2271L76.8807 96.1864L76.8808 96.1863L71.6613 93.2271ZM71.6613 87.8639L76.8808 84.9047L76.8807 84.9046L71.6613 87.8639ZM59.662 66.7002L64.8814 63.7409L64.8811 63.7404L59.662 66.7002ZM55.2669 64.0909L55.2718 58.0909H55.2669V64.0909ZM31.0934 5C27.055 5.00325 23.4285 7.22066 21.484 10.6495L31.9223 16.5691C31.81 16.7672 31.5268 16.9997 31.103 17L31.0934 5ZM55.1017 5H31.0982V17H55.1017V5ZM64.716 10.6495C62.7715 7.22066 59.1449 5.00325 55.1066 5L55.0969 17C54.6731 16.9997 54.39 16.7672 54.2777 16.5691L64.716 10.6495ZM76.7155 31.8136L64.7163 10.65L54.2774 16.5686L66.2767 37.7322L76.7155 31.8136ZM76.7156 43.0953C78.6948 39.6045 78.6947 35.3046 76.7156 31.8137L66.2766 37.7321C66.2203 37.6327 66.2 37.5361 66.2 37.4545C66.2 37.373 66.2203 37.2763 66.2766 37.1769L76.7156 43.0953ZM64.7163 64.2591L76.7155 43.0954L66.2767 37.1768L54.2774 58.3405L64.7163 64.2591ZM55.1066 69.9091C59.1449 69.9058 62.7715 67.6884 64.716 64.2596L54.2777 58.34C54.39 58.1419 54.6731 57.9094 55.0969 57.9091L55.1066 69.9091ZM31.0982 69.9091H55.1017V57.9091H31.0982V69.9091ZM21.484 64.2596C23.4285 67.6884 27.055 69.9058 31.0934 69.9091L31.103 57.9091C31.5268 57.9094 31.81 58.1419 31.9223 58.34L21.484 64.2596ZM9.48443 43.0954L21.4837 64.2591L31.9226 58.3405L19.9233 37.1768L9.48443 43.0954ZM9.48437 31.8137C7.50521 35.3046 7.50521 39.6045 9.48437 43.0954L19.9234 37.1769C19.9797 37.2763 20 37.373 20 37.4545C20 37.5361 19.9797 37.6328 19.9234 37.7321L9.48437 31.8137ZM21.4837 10.65L9.48443 31.8136L19.9233 37.7322L31.9226 16.5686L21.4837 10.65ZM76.8946 43.0235C76.7823 43.2216 76.4991 43.4541 76.0753 43.4544L76.0657 31.4544C72.0273 31.4577 68.4008 33.6751 66.4563 37.1039L76.8946 43.0235ZM64.8956 64.1867L76.8949 43.023L66.456 37.1044L54.4567 58.2681L64.8956 64.1867ZM64.8956 63.6314C64.952 63.7307 64.9723 63.8274 64.9723 63.909C64.9723 63.9906 64.952 64.0872 64.8956 64.1866L54.4567 58.2681C52.4775 61.759 52.4775 66.0589 54.4567 69.5498L64.8956 63.6314ZM76.8949 84.7949L64.8956 63.6313L54.4567 69.5499L66.456 90.7135L76.8949 84.7949ZM76.0753 84.3635C76.4991 84.3638 76.7823 84.5963 76.8946 84.7944L66.4563 90.714C68.4008 94.1428 72.0273 96.3602 76.0657 96.3635L76.0753 84.3635ZM100.074 84.3635H76.0705V96.3635H100.074V84.3635ZM99.2499 84.7944C99.3623 84.5963 99.6454 84.3638 100.069 84.3635L100.079 96.3635C104.117 96.3602 107.744 94.1428 109.688 90.714L99.2499 84.7944ZM111.249 63.6313L99.2497 84.7949L109.689 90.7135L121.688 69.5499L111.249 63.6313ZM111.249 64.1866C111.193 64.0872 111.172 63.9905 111.172 63.909C111.172 63.8274 111.193 63.7307 111.249 63.6314L121.688 69.5498C123.667 66.0589 123.667 61.759 121.688 58.2681L111.249 64.1866ZM99.2497 43.023L111.249 64.1867L121.688 58.2681L109.689 37.1044L99.2497 43.023ZM100.069 43.4544C99.6454 43.4541 99.3623 43.2216 99.2499 43.0235L109.688 37.1039C107.744 33.6751 104.117 31.4577 100.079 31.4544L100.069 43.4544ZM76.0705 43.4544H100.074V31.4544H76.0705V43.4544ZM32.0875 69.66C31.9751 69.8581 31.692 70.0906 31.2682 70.0909L31.2586 58.0909C27.2202 58.0942 23.5937 60.3116 21.6492 63.7404L32.0875 69.66ZM20.0885 90.8232L32.0878 69.6595L21.6489 63.7409L9.6496 84.9046L20.0885 90.8232ZM20.0885 90.2679C20.1449 90.3672 20.1652 90.4639 20.1652 90.5455C20.1652 90.627 20.1449 90.7237 20.0885 90.8231L9.64955 84.9046C7.67039 88.3955 7.67039 92.6954 9.64955 96.1863L20.0885 90.2679ZM32.0878 111.431L20.0885 90.2678L9.6496 96.1864L21.6489 117.35L32.0878 111.431ZM31.2682 111C31.692 111 31.9751 111.233 32.0875 111.431L21.6492 117.351C23.5937 120.779 27.2202 122.997 31.2586 123L31.2682 111ZM55.2669 111H31.2634V123H55.2669V111ZM54.4428 111.431C54.5552 111.233 54.8383 111 55.2621 111L55.2718 123C59.3101 122.997 62.9366 120.779 64.8811 117.351L54.4428 111.431ZM66.4418 90.2678L54.4426 111.431L64.8814 117.35L76.8807 96.1864L66.4418 90.2678ZM66.4418 90.8231C66.3854 90.7237 66.3651 90.627 66.3651 90.5455C66.3651 90.4639 66.3854 90.3673 66.4418 90.2679L76.8808 96.1863C78.8599 92.6954 78.8599 88.3955 76.8808 84.9047L66.4418 90.8231ZM54.4426 69.6595L66.4418 90.8232L76.8807 84.9046L64.8814 63.7409L54.4426 69.6595ZM55.2621 70.0909C54.8383 70.0906 54.5552 69.8581 54.4428 69.66L64.8811 63.7404C62.9366 60.3116 59.3101 58.0942 55.2718 58.0909L55.2621 70.0909ZM31.2634 70.0909H55.2669V58.0909H31.2634V70.0909Z" fill="url(#paint0_linear_721_49)"/>
<defs>
<linearGradient id="paint0_linear_721_49" x1="14" y1="64" x2="117.172" y2="64" gradientUnits="userSpaceOnUse">
<stop stop-color="#02AA93"/>
<stop offset="1" stop-color="#67FF80"/>
</linearGradient>
</defs>
</svg>
