<svg width="128" height="128" viewBox="0 0 128 128" fill="none" xmlns="http://www.w3.org/2000/svg">
<path d="M28.79 18.45C29.4471 17.6816 30.263 17.0648 31.1814 16.6418C32.0998 16.2189 33.0989 15.9999 34.11 16H93.89C94.9011 15.9999 95.9002 16.2189 96.8186 16.6418C97.737 17.0648 98.5529 17.6816 99.21 18.45L117.473 39.758C119.104 41.6608 120 44.084 120 46.59V48.375C120 51.8398 118.918 55.2182 116.905 58.038C114.891 60.8578 112.047 62.9779 108.77 64.1022C105.492 65.2264 101.946 65.2987 98.6253 64.3089C95.3049 63.319 92.3766 61.3164 90.25 58.581C88.6971 60.5814 86.7068 62.1998 84.4318 63.3125C82.157 64.4251 79.6574 65.0023 77.125 65C74.5924 65.0028 72.0929 64.4258 69.8179 63.3132C67.5427 62.2005 65.5526 60.5818 64 58.581C62.4474 60.5818 60.4573 62.2005 58.1821 63.3132C55.9071 64.4258 53.4076 65.0028 50.875 65C48.3424 65.0028 45.8429 64.4258 43.5679 63.3132C41.2927 62.2005 39.3026 60.5818 37.75 58.581C35.6234 61.3164 32.6951 63.319 29.3747 64.3089C26.0544 65.2987 22.5076 65.2264 19.2303 64.1022C15.9529 62.9779 13.1088 60.8578 11.0953 58.038C9.08179 55.2182 7.99962 51.8398 8 48.375V46.59C8.00009 44.084 8.8964 41.6608 10.527 39.758L28.797 18.443L28.79 18.45ZM41.25 48.375C41.25 50.9277 42.2641 53.3758 44.0691 55.1809C45.8742 56.9859 48.3223 58 50.875 58C53.4277 58 55.8758 56.9859 57.6809 55.1809C59.4859 53.3758 60.5 50.9277 60.5 48.375C60.5 47.4468 60.8687 46.5566 61.5252 45.9002C62.1816 45.2437 63.0718 44.875 64 44.875C64.9282 44.875 65.8184 45.2437 66.4748 45.9002C67.1313 46.5566 67.5 47.4468 67.5 48.375C67.5 50.9277 68.5141 53.3758 70.3191 55.1809C72.1242 56.9859 74.5723 58 77.125 58C79.6777 58 82.1258 56.9859 83.9309 55.1809C85.7359 53.3758 86.75 50.9277 86.75 48.375C86.75 47.4468 87.1187 46.5566 87.7751 45.9002C88.4316 45.2437 89.3218 44.875 90.25 44.875C91.1782 44.875 92.0684 45.2437 92.7249 45.9002C93.3813 46.5566 93.75 47.4468 93.75 48.375C93.75 50.9277 94.7641 53.3758 96.5691 55.1809C98.3742 56.9859 100.822 58 103.375 58C105.928 58 108.376 56.9859 110.181 55.1809C111.986 53.3758 113 50.9277 113 48.375V46.59C113 45.7558 112.702 44.949 112.16 44.315L93.89 23H34.11L15.84 44.315C15.2978 44.949 14.9999 45.7558 15 46.59V48.375C15 50.9277 16.0141 53.3758 17.8191 55.1809C19.6241 56.9859 22.0723 58 24.625 58C27.1777 58 29.6258 56.9859 31.4309 55.1809C33.2359 53.3758 34.25 50.9277 34.25 48.375C34.25 47.4468 34.6187 46.5566 35.2752 45.9002C35.9316 45.2437 36.8218 44.875 37.75 44.875C38.6782 44.875 39.5684 45.2437 40.2248 45.9002C40.8813 46.5566 41.25 47.4468 41.25 48.375ZM19.5 70.75C20.4283 70.75 21.3185 71.1187 21.9749 71.7752C22.6313 72.4316 23 73.3218 23 74.25V105.5H30V79.25C30 77.3934 30.7375 75.613 32.0503 74.3003C33.363 72.9875 35.1434 72.25 37 72.25H58C59.8566 72.25 61.637 72.9875 62.9497 74.3003C64.2625 75.613 65 77.3934 65 79.25V105.5H107V74.25C107 73.3218 107.369 72.4316 108.025 71.7752C108.682 71.1187 109.572 70.75 110.5 70.75C111.428 70.75 112.318 71.1187 112.975 71.7752C113.631 72.4316 114 73.3218 114 74.25V105.5H117.5C118.428 105.5 119.318 105.869 119.975 106.525C120.631 107.182 121 108.072 121 109C121 109.928 120.631 110.818 119.975 111.475C119.318 112.131 118.428 112.5 117.5 112.5H12.5C11.5717 112.5 10.6815 112.131 10.0251 111.475C9.36875 110.818 9 109.928 9 109C9 108.072 9.36875 107.182 10.0251 106.525C10.6815 105.869 11.5717 105.5 12.5 105.5H16V74.25C16 73.3218 16.3687 72.4316 17.0251 71.7752C17.6815 71.1187 18.5717 70.75 19.5 70.75ZM37 105.5H58V79.25H37V105.5Z" fill="url(#paint0_linear_723_12)" stroke="url(#paint1_linear_723_12)" stroke-width="4"/>
<defs>
<linearGradient id="paint0_linear_723_12" x1="6.36667" y1="16.9495" x2="104.162" y2="134.97" gradientUnits="userSpaceOnUse">
<stop stop-color="#F9D423"/>
<stop offset="0.515624" stop-color="#FF4E50"/>
<stop offset="0.991304" stop-color="#8A2387"/>
</linearGradient>
<linearGradient id="paint1_linear_723_12" x1="6.36667" y1="16.9495" x2="104.162" y2="134.97" gradientUnits="userSpaceOnUse">
<stop stop-color="#F9D423"/>
<stop offset="0.515624" stop-color="#FF4E50"/>
<stop offset="0.991304" stop-color="#8A2387"/>
</linearGradient>
</defs>
</svg>
