<svg width="64" height="64" viewBox="0 0 64 64" fill="none" xmlns="http://www.w3.org/2000/svg">
<path d="M41.1536 27.3106C43.7286 27.3106 45.816 25.2232 45.816 22.6482C45.816 20.0733 43.7286 17.9858 41.1536 17.9858C38.5786 17.9858 36.4912 20.0733 36.4912 22.6482C36.4912 25.2232 38.5786 27.3106 41.1536 27.3106Z" fill="url(#paint0_linear_914_2)"/>
<path d="M24.8352 27.3106C27.4102 27.3106 29.4976 25.2232 29.4976 22.6482C29.4976 20.0733 27.4102 17.9858 24.8352 17.9858C22.2603 17.9858 20.1729 20.0733 20.1729 22.6482C20.1729 25.2232 22.2603 27.3106 24.8352 27.3106Z" fill="url(#paint1_linear_914_2)"/>
<path d="M22.5042 43.6305C25.0792 43.6305 27.1666 41.543 27.1666 38.9681C27.1666 36.3931 25.0792 34.3057 22.5042 34.3057C19.9292 34.3057 17.8418 36.3931 17.8418 38.9681C17.8418 41.543 19.9292 43.6305 22.5042 43.6305Z" fill="url(#paint2_linear_914_2)"/>
<path d="M59.8874 29.4753C59.209 22.7099 56.1183 16.4145 51.1803 11.7403C46.2424 7.06602 39.7871 4.3251 32.9946 4.01861C29.2785 3.883 25.5726 4.48965 22.0937 5.80309C18.6147 7.11653 15.4326 9.1104 12.7333 11.6681C10.034 14.2258 7.87171 17.296 6.37291 20.6992C4.8741 24.1024 4.06885 27.7702 4.00422 31.4883C3.9396 35.2063 4.61691 38.9 5.99655 42.3532C7.37618 45.8064 9.43045 48.9499 12.0392 51.5998C14.648 54.2498 17.759 56.3531 21.1901 57.7866C24.6213 59.2201 28.3039 59.9552 32.0225 59.9488C32.8104 59.9488 33.5821 59.8975 34.3537 59.8346C35.2334 59.7617 36.0529 59.3588 36.6478 58.7067C37.2428 58.0547 37.5692 57.2018 37.5614 56.3191L37.4915 48.3348C37.48 47.0118 37.8625 45.7154 38.5902 44.6106C39.318 43.5057 40.3581 42.6424 41.5781 42.1307C42.7981 41.6189 44.1428 41.4819 45.441 41.7369C46.7391 41.9919 47.932 42.6275 48.8678 43.5628L49.1009 43.7959C49.7579 44.4539 50.5697 44.9363 51.4618 45.1986C52.3539 45.4609 53.2976 45.4948 54.2062 45.2972C55.1001 45.1052 55.9316 44.6919 56.6244 44.0952C57.3171 43.4985 57.8491 42.7376 58.1716 41.882C59.6811 37.9311 60.268 33.6876 59.8874 29.4753V29.4753ZM52.3133 37.3222C50.2737 35.8039 47.8509 34.8849 45.3175 34.6687C42.7841 34.4525 40.2406 34.9477 37.9733 36.0984C35.706 37.2491 33.8048 39.0098 32.4837 41.1823C31.1627 43.3548 30.4741 45.8529 30.4956 48.3954L30.5352 52.9016C25.1157 52.5134 20.0581 50.0379 16.4269 45.9961C12.7957 41.9543 10.8741 36.6614 11.0665 31.2314C11.2589 25.8014 13.5503 20.6578 17.4585 16.8832C21.3667 13.1085 26.5868 10.9972 32.0202 10.9936C32.2533 10.9936 32.5144 10.9936 32.7615 11.0076C37.8529 11.2378 42.6914 13.2923 46.393 16.7957C50.0946 20.2991 52.412 25.0174 52.9217 30.0884C53.1425 32.5167 52.9366 34.9649 52.3133 37.3222V37.3222Z" fill="url(#paint3_linear_914_2)"/>
<defs>
<linearGradient id="paint0_linear_914_2" x1="45.501" y1="18.2524" x2="41.8639" y2="27.3851" gradientUnits="userSpaceOnUse">
<stop stop-color="#FE0F7C"/>
<stop offset="1" stop-color="#DF0066"/>
</linearGradient>
<linearGradient id="paint1_linear_914_2" x1="24.8352" y1="27.3106" x2="24.8352" y2="17.9858" gradientUnits="userSpaceOnUse">
<stop stop-color="#FDA700"/>
<stop offset="1" stop-color="#FFDE00"/>
</linearGradient>
<linearGradient id="paint2_linear_914_2" x1="17.8432" y1="38.8299" x2="27.1681" y2="38.8299" gradientUnits="userSpaceOnUse">
<stop stop-color="#A93AFF"/>
<stop offset="1" stop-color="#FF81FF"/>
</linearGradient>
<linearGradient id="paint3_linear_914_2" x1="14.15" y1="53.3438" x2="64.6088" y2="9.27732" gradientUnits="userSpaceOnUse">
<stop stop-color="#FE0844"/>
<stop offset="1" stop-color="#FEB302"/>
</linearGradient>
</defs>
</svg>
