<svg width="128" height="128" viewBox="0 0 128 128" fill="none" xmlns="http://www.w3.org/2000/svg">
<path d="M101.333 58.6669H112M106.667 53.3335V64.0002M64.0002 16.0002H66.0962C59.2446 22.3666 54.8406 30.9327 53.6497 40.2094C52.4587 49.486 54.5562 58.8868 59.5774 66.7774C64.5986 74.6681 72.2261 80.5497 81.134 83.4C90.0419 86.2503 99.667 85.889 108.336 82.3789C105.001 90.4028 99.551 97.371 92.5665 102.54C85.5819 107.709 77.3252 110.886 68.677 111.73C60.0288 112.575 51.3135 111.056 43.4609 107.336C35.6082 103.615 28.9127 97.8332 24.0886 90.606C19.2645 83.3789 16.4927 74.9777 16.0689 66.2987C15.645 57.6197 17.5851 48.9884 21.6821 41.3256C25.7791 33.6628 31.8794 27.2558 39.3322 22.7881C46.785 18.3204 55.3108 15.9596 64.0002 15.9575V16.0002ZM90.6668 21.3335C90.6668 24.1625 91.7906 26.8756 93.791 28.876C95.7914 30.8764 98.5045 32.0002 101.333 32.0002C98.5045 32.0002 95.7914 33.124 93.791 35.1244C91.7906 37.1248 90.6668 39.8379 90.6668 42.6669C90.6668 39.8379 89.543 37.1248 87.5426 35.1244C85.5422 33.124 82.8291 32.0002 80.0002 32.0002C82.8291 32.0002 85.5422 30.8764 87.5426 28.876C89.543 26.8756 90.6668 24.1625 90.6668 21.3335Z" stroke="url(#paint0_linear_725_2)" stroke-width="10" stroke-linecap="round" stroke-linejoin="round"/>
<defs>
<linearGradient id="paint0_linear_725_2" x1="96" y1="34.5" x2="25.5074" y2="96.5084" gradientUnits="userSpaceOnUse">
<stop stop-color="#F9D423"/>
<stop offset="0.515624" stop-color="#FF4E50"/>
<stop offset="0.991304" stop-color="#8A2387"/>
</linearGradient>
</defs>
</svg>
