<svg width="128" height="128" viewBox="0 0 128 128" fill="none" xmlns="http://www.w3.org/2000/svg">
<path d="M112.685 43.6276C112.262 43.9864 111.84 44.344 111.425 44.7044C111.366 42.7508 111.391 40.7923 111.416 38.8339C111.458 35.5129 111.501 32.1914 111.132 28.8911C109.858 28.0511 108.278 27.5244 106.925 28.5644C104.33 30.056 101.734 31.547 99.1382 33.038L99.1172 33.0501L99.1162 33.0507C90.1292 38.2128 81.1402 43.3759 72.1717 48.5711C69.5517 46.9977 66.8982 45.4911 64.2317 44.0044C68.5437 41.5219 72.8557 39.041 77.1677 36.5604L77.1687 36.5596C84.8757 32.1258 92.5817 27.6926 100.285 23.2511C100.649 23.0429 101.014 22.827 101.381 22.6099C103.517 21.3467 105.715 20.0462 108.258 20.0177C113.192 19.7111 118.425 23.4177 118.978 28.4644M112.685 43.6276C114.829 41.8097 117.006 39.9641 118.532 37.5977M112.685 43.6276C112.262 43.9864 111.841 44.344 111.426 44.7044C111.406 61.7842 111.412 78.8577 111.419 95.9377C111.426 97.1242 111.299 98.5977 110.046 99.1577C108.917 99.8672 107.679 99.2137 106.626 98.6587C106.522 98.6037 106.419 98.5492 106.319 98.4977C102.775 96.4407 99.2232 94.4007 95.6717 92.3607C92.1202 90.3207 88.5687 88.2812 85.0257 86.2242M118.532 37.5977C118.81 35.9216 118.818 34.2206 118.825 32.5167C118.831 31.1641 118.837 29.8097 118.978 28.4644M118.532 37.5977C118.81 35.9216 118.818 34.2206 118.826 32.5167C118.831 31.1641 118.837 29.8097 118.978 28.4644M118.978 28.4644C119.058 28.6777 119.219 29.1111 119.292 29.3244C119.363 41.5233 119.357 53.7247 119.35 65.9252C119.345 75.4877 119.34 85.0502 119.372 94.6112C119.379 97.0112 119.326 99.5312 118.146 101.691C115.906 106.178 110.199 108.584 105.452 106.838C103.541 106.084 101.777 105.037 100.012 103.99C99.0617 103.426 98.1117 102.862 97.1387 102.344C93.6587 100.358 90.1857 98.3577 86.7187 96.3377C86.7022 96.3277 86.6807 96.3152 86.6572 96.3012C86.6342 96.2877 86.6087 96.2732 86.5832 96.2582L86.5822 96.2577L86.5072 96.2142C86.4837 96.2002 86.4622 96.1877 86.4457 96.1777L85.7047 95.7587C83.5242 94.5262 81.3447 93.2947 79.2187 91.9712M85.0257 86.2242C84.7272 86.3467 84.4227 86.4592 84.1172 86.5722C83.2067 86.9082 82.2892 87.2472 81.5257 87.8512C80.6987 88.7387 80.1962 89.8462 79.6977 90.9447C79.5407 91.2902 79.3847 91.6347 79.2187 91.9712M85.0257 86.2242C83.1122 85.1387 81.2067 84.0367 79.3017 82.9347C77.5567 81.9252 75.8112 80.9152 74.0582 79.9177C73.3982 79.5577 72.7382 79.2042 72.0782 78.8577C69.4982 80.2577 66.9447 81.7042 64.4647 83.2712C65.9917 84.3512 67.5847 85.3377 69.1917 86.2977C70.5702 87.0607 71.9332 87.8522 73.2962 88.6432C75.2547 89.7802 77.2137 90.9172 79.2187 91.9712M63.1057 52.5847C63.4097 52.7622 63.7142 52.9402 64.0182 53.1177C61.5817 54.7032 59.0477 56.1297 56.5147 57.5557C54.2657 58.8222 52.0172 60.0877 49.8381 61.4642C48.7029 61.9937 48.6056 63.1927 48.516 64.2962C48.504 64.4432 48.4922 64.5892 48.4781 64.7312C51.2857 66.9827 54.4382 68.7162 57.5927 70.4512C59.7717 71.6492 61.9512 72.8477 64.0182 74.2177C61.4847 75.8042 58.9447 77.3842 56.2912 78.7712C53.7577 77.4212 51.2767 75.9887 48.7944 74.5552L48.7931 74.5542C47.9777 74.0832 47.1623 73.6122 46.3447 73.1442C44.1047 71.8977 42.2114 69.9642 41.3247 67.5312C39.6047 63.2312 41.0781 57.8577 44.9381 55.2177C46.5892 54.0992 48.33 53.1227 50.0715 52.1457C51.6207 51.2767 53.1702 50.4077 54.6582 49.4377C54.9982 49.2044 55.6782 48.7244 56.0182 48.4844C58.3917 49.8306 60.7497 51.2082 63.1057 52.5847Z" stroke="url(#paint0_linear_735_27)" stroke-width="8"/>
<path d="M18.2981 21.0644C13.1914 21.6444 8.87805 26.3444 9.03805 31.5377C9.02695 43.0266 9.0261 54.5157 9.0253 66.0042C9.02465 75.1957 9.02395 84.3867 9.01805 93.5777C9.0169 93.9272 9.01305 94.2767 9.0092 94.6262C8.99045 96.3262 8.97165 98.0292 9.2647 99.7042C9.58105 94.4272 9.57755 89.1387 9.57405 83.8507C9.5711 79.3317 9.5681 74.8137 9.7647 70.3042C10.3341 68.2602 11.7563 66.6572 13.1666 65.0672C13.7708 64.3862 14.3729 63.7077 14.9047 62.9977L14.905 62.9987C14.3733 63.7082 13.7715 64.3867 13.1675 65.0672C11.7572 66.6572 10.335 68.2602 9.7656 70.3042C9.569 74.8137 9.572 79.3317 9.575 83.8507C9.57845 89.1387 9.58195 94.4272 9.2656 99.7042C9.5456 102.604 11.499 105.064 13.759 106.771C14.3455 107.051 14.9454 107.311 15.5519 107.551C18.5852 108.791 22.1184 108.584 24.9384 106.904C30.059 103.988 35.1604 101.039 40.2619 98.0902C48.3046 93.4402 56.3477 88.7907 64.4652 84.2712C66.9452 82.7042 69.4987 81.2577 72.0787 79.8577C73.7442 78.7997 75.4642 77.8312 77.1832 76.8637C79.3852 75.6237 81.5862 74.3842 83.6717 72.9577C86.8787 70.6577 88.0917 66.5442 87.7117 62.7442C87.0387 60.0777 85.5317 57.5442 83.1852 56.0312C81.4927 54.9337 79.7377 53.9442 77.9827 52.9537C76.7092 52.2357 75.4352 51.5172 74.1852 50.7577C73.5117 50.3644 72.8386 49.9711 72.1716 49.5711C69.5517 47.9977 66.8987 46.4911 64.2317 45.0044C64.0602 44.9091 63.8887 44.8138 63.7172 44.7185C62.4502 44.0141 61.1862 43.3116 59.9122 42.6246C53.0522 38.5579 46.1256 34.5911 39.1723 30.6777C37.5456 32.7377 36.0256 34.8844 34.6656 37.1311C37.9308 39.0397 41.211 40.923 44.4912 42.8063C48.1424 44.9026 51.7942 46.9992 55.4252 49.1308L56.0187 49.4844C58.3922 50.8307 60.7502 52.2082 63.1062 53.5847C63.4102 53.7627 63.7142 53.9402 64.0187 54.1177C65.5187 54.9442 67.0051 55.7977 68.4851 56.6642C69.9716 57.5212 71.4622 58.3712 72.9522 59.2212C74.4422 60.0712 75.9317 60.9212 77.4187 61.7777C78.5587 62.4442 79.9987 63.3312 79.8052 64.8777C79.7942 66.1507 78.7027 66.8202 77.7142 67.4272C77.5222 67.5452 77.3342 67.6607 77.1587 67.7777C75.5442 68.6857 73.9397 69.6122 72.3352 70.5387C69.5797 72.1302 66.8247 73.7222 64.0187 75.2177C61.4852 76.8042 58.9452 78.3842 56.2917 79.7712C51.8902 82.2982 47.492 84.8332 43.0934 87.3687C37.106 90.8202 31.1178 94.2722 25.1184 97.7042C23.8584 98.4242 22.6184 99.2042 21.4451 100.064C20.0053 100.558 18.4055 100.551 17.3256 99.3442C17.0323 98.1242 16.9123 96.8712 16.9123 95.6177C16.9123 93.5127 16.9195 91.4077 16.9268 89.3022C16.9446 84.1182 16.9624 78.9327 16.8723 73.7512L16.8714 73.7462C16.9653 65.0187 16.9471 56.2907 16.9289 47.5614C16.9187 42.6631 16.9085 37.7641 16.9181 32.8644C16.9328 32.674 16.9412 32.4731 16.9498 32.2671C16.9959 31.1678 17.0481 29.9227 18.0981 29.3444C19.4528 28.4244 20.9683 29.2673 22.2225 29.9648C22.2952 30.0053 22.3671 30.0453 22.4381 30.0844C26.4981 32.4577 30.5714 34.8177 34.6647 37.131C36.0247 34.8844 37.5447 32.7377 39.1714 30.6777C36.5263 29.074 33.8389 27.5386 31.1511 26.0029C29.3136 24.953 27.4759 23.903 25.6514 22.831C23.4647 21.4977 20.8781 20.6777 18.2981 21.0644Z" fill="url(#paint1_linear_735_27)"/>
<path d="M15.5519 107.551C14.9454 107.311 14.3455 107.051 13.759 106.771C11.499 105.064 9.5456 102.604 9.2656 99.7042C9.58195 94.4272 9.57845 89.1387 9.575 83.8507C9.572 79.3317 9.569 74.8137 9.7656 70.3042C10.335 68.2602 11.7572 66.6572 13.1675 65.0672C13.7715 64.3867 14.3733 63.7082 14.905 62.9987L14.9047 62.9977C14.3729 63.7077 13.7708 64.3862 13.1666 65.0672C11.7563 66.6572 10.3341 68.2602 9.7647 70.3042C9.5681 74.8137 9.5711 79.3317 9.57405 83.8507C9.57755 89.1387 9.58105 94.4272 9.2647 99.7042C8.97165 98.0292 8.99045 96.3262 9.0092 94.6262C9.01305 94.2767 9.0169 93.9272 9.01805 93.5777C9.02395 84.3867 9.02465 75.1957 9.0253 66.0042C9.0261 54.5157 9.02695 43.0266 9.03805 31.5377C8.87805 26.3444 13.1914 21.6444 18.2981 21.0644C20.8781 20.6777 23.4647 21.4977 25.6514 22.831C27.4759 23.903 29.3136 24.953 31.1511 26.0029C33.8389 27.5386 36.5263 29.074 39.1714 30.6777C37.5447 32.7377 36.0247 34.8844 34.6647 37.131C30.5714 34.8177 26.4981 32.4577 22.4381 30.0844C22.3671 30.0453 22.2952 30.0053 22.2225 29.9648C20.9683 29.2673 19.4528 28.4244 18.0981 29.3444C17.0481 29.9227 16.9959 31.1678 16.9498 32.2671C16.9412 32.4731 16.9328 32.674 16.9181 32.8644C16.9085 37.7641 16.9187 42.6631 16.9289 47.5614C16.9471 56.2907 16.9653 65.0187 16.8714 73.7462L16.8723 73.7512C16.9624 78.9327 16.9446 84.1182 16.9268 89.3022C16.9195 91.4077 16.9123 93.5127 16.9123 95.6177C16.9123 96.8712 17.0323 98.1242 17.3256 99.3442C18.4055 100.551 20.0053 100.558 21.4451 100.064M15.5519 107.551C18.5852 108.791 22.1184 108.584 24.9384 106.904C30.059 103.988 35.1604 101.039 40.2619 98.0902C48.3046 93.4402 56.3477 88.7907 64.4652 84.2712C66.9452 82.7042 69.4987 81.2577 72.0787 79.8577C73.7442 78.7997 75.4642 77.8312 77.1832 76.8637C79.3852 75.6237 81.5862 74.3842 83.6717 72.9577C86.8787 70.6577 88.0917 66.5442 87.7117 62.7442C87.0387 60.0777 85.5317 57.5442 83.1852 56.0312C81.4927 54.9337 79.7377 53.9442 77.9827 52.9537C76.7092 52.2357 75.4352 51.5172 74.1852 50.7577C73.5117 50.3644 72.8386 49.9711 72.1716 49.5711C69.5517 47.9977 66.8987 46.4911 64.2317 45.0044C64.0602 44.9091 63.8887 44.8138 63.7172 44.7185C62.4502 44.0141 61.1862 43.3116 59.9122 42.6246M59.9122 42.6246C53.0522 38.5579 46.1256 34.5911 39.1723 30.6777C37.5456 32.7377 36.0256 34.8844 34.6656 37.1311C37.9308 39.0397 41.211 40.923 44.4912 42.8063C48.1424 44.9026 51.7942 46.9992 55.4252 49.1308M55.4252 49.1308L56.0187 49.4844C58.3922 50.8307 60.7502 52.2082 63.1062 53.5847C63.4102 53.7627 63.7142 53.9402 64.0187 54.1177C65.5187 54.9442 67.0051 55.7977 68.4851 56.6642C69.9716 57.5212 71.4622 58.3712 72.9522 59.2212C74.4422 60.0712 75.9317 60.9212 77.4187 61.7777C78.5587 62.4442 79.9987 63.3312 79.8052 64.8777C79.7942 66.1507 78.7027 66.8202 77.7142 67.4272C77.5222 67.5452 77.3342 67.6607 77.1587 67.7777C75.5442 68.6857 73.9397 69.6122 72.3352 70.5387C69.5797 72.1302 66.8247 73.7222 64.0187 75.2177C61.4852 76.8042 58.9452 78.3842 56.2917 79.7712C51.8902 82.2982 47.492 84.8332 43.0934 87.3687C37.106 90.8202 31.1178 94.2722 25.1184 97.7042C23.8584 98.4242 22.6184 99.2042 21.4451 100.064" stroke="url(#paint2_linear_735_27)" stroke-width="6"/>
<defs>
<linearGradient id="paint0_linear_735_27" x1="62.0236" y1="54.6354" x2="116.229" y2="48.1184" gradientUnits="userSpaceOnUse">
<stop stop-color="#0357D1"/>
<stop offset="1" stop-color="#27CDFC"/>
</linearGradient>
<linearGradient id="paint1_linear_735_27" x1="48.3895" y1="108.346" x2="48.3895" y2="20.9684" gradientUnits="userSpaceOnUse">
<stop stop-color="#5558FF"/>
<stop offset="1" stop-color="#00C0FF"/>
</linearGradient>
<linearGradient id="paint2_linear_735_27" x1="48.3895" y1="108.346" x2="48.3895" y2="20.9684" gradientUnits="userSpaceOnUse">
<stop stop-color="#5558FF"/>
<stop offset="1" stop-color="#00C0FF"/>
</linearGradient>
</defs>
</svg>
