<svg width="128" height="128" viewBox="0 0 128 128" fill="none" xmlns="http://www.w3.org/2000/svg">
<path fill-rule="evenodd" clip-rule="evenodd" d="M76.3405 50.4434V49.9434V12.6978V12.1603L76.8767 12.1991C97.9273 13.7246 114.812 29.7939 116.416 49.9036L116.459 50.4434H115.918H76.8405H76.3405ZM73.1589 8C71.618 8 70.4102 9.1848 70.4102 10.5964V54.1519C70.4102 55.5633 71.618 56.7482 73.1589 56.7482H118.856C120.397 56.7482 121.605 55.5633 121.605 54.1519C121.605 28.7758 99.841 8 73.1589 8ZM57.1948 70.4411H94.427C96.221 70.4411 97.676 71.8275 97.676 73.5373C97.676 98.1902 79.8248 120.189 53.9461 120.189C28.0508 120.189 7 99.1764 7 73.5373C7 47.8845 27.0709 27.092 53.9461 27.092C55.7403 27.092 57.1948 28.4783 57.1948 30.1882V70.4411ZM13.4973 73.5373C13.4973 95.8467 30.5397 113.997 53.9461 113.997C76.1459 113.997 89.3999 97.502 91.0562 76.6317H53.9461C52.1522 76.6337 50.6976 75.2474 50.6976 73.5373V33.4013C28.8029 34.98 13.4973 52.3781 13.4973 73.5373Z" fill="url(#paint0_linear_697_20)" stroke="url(#paint1_linear_697_20)" stroke-width="6"/>
<defs>
<linearGradient id="paint0_linear_697_20" x1="51.5118" y1="68.1013" x2="87.2281" y2="38.8101" gradientUnits="userSpaceOnUse">
<stop stop-color="#0072FF"/>
<stop offset="1" stop-color="#00E5A1"/>
</linearGradient>
<linearGradient id="paint1_linear_697_20" x1="51.5118" y1="68.1013" x2="87.2281" y2="38.8101" gradientUnits="userSpaceOnUse">
<stop stop-color="#0072FF"/>
<stop offset="1" stop-color="#00E5A1"/>
</linearGradient>
</defs>
</svg>
