<svg width="64" height="64" viewBox="0 0 64 64" fill="none" xmlns="http://www.w3.org/2000/svg">
<path d="M59.6289 12.2851C59.6261 12.2851 59.6236 12.2868 59.6227 12.2894L59.4493 12.7727C55.6268 23.3782 51.9737 33.4045 43.6488 42.1328C43.4946 42.2944 43.397 42.5034 43.3707 42.7253C42.6736 48.6127 39.9702 54.0848 35.7096 58.2175C34.5194 59.3504 32.9408 59.9848 31.2977 59.9907C29.627 59.9907 28.0247 59.327 26.8433 58.1456C25.6619 56.9642 24.9982 55.3619 24.9982 53.6912V50.5841C24.9982 50.1647 24.7348 49.7934 24.3499 49.6268C23.5094 49.2628 22.7125 48.806 21.9741 48.265C21.5528 47.9563 20.9639 47.9755 20.5947 48.345L16.9746 51.967C16.318 52.6236 15.4276 52.9924 14.4991 52.9924C13.5706 52.9924 12.6802 52.6236 12.0237 51.967C11.3671 51.3105 10.9983 50.42 10.9983 49.4916C10.9983 48.5631 11.3671 47.6726 12.0237 47.0161L15.662 43.3778C16.0256 43.0142 16.0503 42.4365 15.7544 42.0161C14.8019 40.6629 14.1315 39.1315 13.7836 37.5134C13.6789 37.0267 13.2613 36.6593 12.7634 36.6593H10.2995C8.62874 36.6593 7.02645 35.9956 5.84507 34.8142C4.66369 33.6329 4 32.0306 4 30.3599C4.00645 28.7175 4.64086 27.1398 5.77318 25.9502C8.20255 23.4681 11.0989 21.4911 14.2954 20.1329C17.3822 18.8213 20.6901 18.1118 24.0411 18.0413C24.2722 18.0365 24.4962 17.9545 24.6749 17.8079C32.7156 11.212 41.74 7.96448 51.2297 4.54138L51.7149 4.36639C52.8198 3.96825 54.0152 3.89279 55.1614 4.14882C56.3076 4.40486 57.3573 4.98182 58.1877 5.81227C59.0182 6.64273 59.5951 7.69238 59.8512 8.83857C60.1069 9.98325 60.0319 11.177 59.6352 12.2807C59.6342 12.2833 59.6317 12.2851 59.6289 12.2851V12.2851ZM51.7305 13.5372C52.0203 12.7417 51.2494 11.9715 50.4542 12.262C41.1304 15.6677 32.9796 19.0533 25.9315 26.0949C24.325 27.9085 22.8283 29.8165 21.4495 31.8087C20.715 32.853 20.3733 34.1233 20.4848 35.3951C20.5962 36.667 21.1536 37.8585 22.0585 38.7591L25.3808 42.0722C26.282 42.9742 27.4725 43.5292 28.7428 43.6393C30.013 43.7494 31.2814 43.4076 32.3243 42.6741C34.314 41.3033 36.1784 39.7589 37.8958 38.0592C44.9372 31.0113 48.333 22.8607 51.7305 13.5372Z" fill="url(#paint0_linear_911_49)"/>
<defs>
<linearGradient id="paint0_linear_911_49" x1="32" y1="59.9907" x2="32" y2="4" gradientUnits="userSpaceOnUse">
<stop stop-color="#5570FF"/>
<stop offset="1" stop-color="#4DD3FF"/>
</linearGradient>
</defs>
</svg>
