<svg width="64" height="64" viewBox="0 0 64 64" fill="none" xmlns="http://www.w3.org/2000/svg">
<path d="M47.1667 4H16.8333C13.4309 4.00371 10.1688 5.35698 7.76289 7.76289C5.35698 10.1688 4.00371 13.4309 4 16.8333L4 35.5C4.00371 38.9025 5.35698 42.1645 7.76289 44.5704C10.1688 46.9764 13.4309 48.3296 16.8333 48.3333H26.5C27.6046 48.3333 28.5 49.2288 28.5 50.3333V51C28.5 52.1046 27.6046 53 26.5 53H22.6667C21.7384 53 20.8482 53.3688 20.1918 54.0251C19.5354 54.6815 19.1667 55.5717 19.1667 56.5C19.1667 57.4283 19.5354 58.3185 20.1918 58.9749C20.8482 59.6312 21.7384 60 22.6667 60H41.3333C42.2616 60 43.1518 59.6312 43.8082 58.9749C44.4646 58.3185 44.8333 57.4283 44.8333 56.5C44.8333 55.5717 44.4646 54.6815 43.8082 54.0251C43.1518 53.3688 42.2616 53 41.3333 53H37.5C36.3954 53 35.5 52.1046 35.5 51V50.3333C35.5 49.2288 36.3954 48.3333 37.5 48.3333H47.1667C50.5691 48.3296 53.8312 46.9764 56.2371 44.5704C58.643 42.1645 59.9963 38.9025 60 35.5V16.8333C59.9963 13.4309 58.643 10.1688 56.2371 7.76289C53.8312 5.35698 50.5691 4.00371 47.1667 4ZM16.8333 11H47.1667C48.7138 11 50.1975 11.6146 51.2915 12.7085C52.3854 13.8025 53 15.2862 53 16.8333V32.3333C53 33.4379 52.1046 34.3333 51 34.3333H13C11.8954 34.3333 11 33.4379 11 32.3333V16.8333C11 15.2862 11.6146 13.8025 12.7085 12.7085C13.8025 11.6146 15.2862 11 16.8333 11Z" fill="url(#paint0_linear_914_23)"/>
<defs>
<linearGradient id="paint0_linear_914_23" x1="3.19056" y1="4.55103" x2="60.9218" y2="64.0485" gradientUnits="userSpaceOnUse">
<stop stop-color="#F9D423"/>
<stop offset="0.515624" stop-color="#FF4E50"/>
<stop offset="0.991304" stop-color="#8A2387"/>
</linearGradient>
</defs>
</svg>
