<svg width="128" height="128" viewBox="0 0 128 128" fill="none" xmlns="http://www.w3.org/2000/svg">
<path fill-rule="evenodd" clip-rule="evenodd" d="M113.427 28.9053V46.4195C113.427 49.225 112.014 51.7992 109.648 53.3057L108.623 53.958L109.647 54.6098C112.014 56.1178 113.427 58.6925 113.427 61.4975V79.0106C113.427 81.8156 112.014 84.3901 109.647 85.8977L102.167 90.6597V117.812C102.167 119.021 101.188 120 99.9803 120H27.4551C19.5659 120 13.9805 113.381 14.0068 105.794C14.0245 99.3968 14.0015 26.0335 14 22.8673C13.9952 15.0565 19.0518 8 27.454 8H55.1894C56.3972 8 57.3768 8.97934 57.3768 10.1875C57.3768 11.3957 56.3972 12.375 55.1894 12.375H31.6083V93.0878H97.7919V12.375H74.4015C73.1935 12.375 72.2139 11.3957 72.2139 10.1875C72.2139 8.97934 73.1935 8 74.4015 8H99.9793C101.187 8 102.167 8.97934 102.167 10.1875V17.2568L109.648 22.019C112.014 23.5258 113.427 26.1001 113.427 28.9053ZM18.3905 96.6088C20.7475 94.4566 23.8527 93.1974 27.0395 93.0979C27.0666 93.0971 27.0937 93.0958 27.1206 93.0944C27.1581 93.0926 27.1955 93.0907 27.2333 93.0903V12.3806C21.3284 12.526 18.3875 17.5186 18.3905 22.8665C18.3923 26.0334 18.3949 84.2298 18.3905 96.6088ZM18.3796 106.408C18.3037 111.398 22.4619 115.625 27.4551 115.625H97.7926V109.042H29.4208C28.2128 109.042 27.2333 108.063 27.2333 106.855C27.2333 105.647 28.2128 104.668 29.4208 104.668H97.7924V97.4631L27.4538 97.4633C22.5203 97.4633 18.4494 101.476 18.3796 106.408ZM107.298 82.2074C108.396 81.5079 109.052 80.3126 109.052 79.0106V61.4973C109.052 60.1953 108.396 59.0001 107.297 58.3001L104.55 56.552L102.168 58.0675V85.4727L107.298 82.2074ZM107.298 49.615C108.397 48.9161 109.052 47.7215 109.052 46.4195V28.9053C109.052 27.6035 108.397 26.4089 107.298 25.7098L102.167 22.4437V52.8812L107.298 49.615ZM65.0254 12.3687C64.0924 12.4356 63.2048 11.8885 62.8449 11.0253C62.44 10.037 62.8171 8.86144 63.7403 8.3126C65.3997 7.32625 67.4912 8.90716 66.9717 10.7709C66.7266 11.6496 65.9374 12.3032 65.0254 12.3687Z" fill="url(#paint0_linear_720_28)" stroke="url(#paint1_linear_720_28)" stroke-width="4"/>
<path fill-rule="evenodd" clip-rule="evenodd" d="M58.9428 44.5378L57.569 48.145C57.003 49.631 55.3402 50.3768 53.8546 49.8105C52.369 49.2446 51.6234 47.5818 52.1893 46.0962L60.5413 24.1675C60.5477 24.1501 60.5547 24.1327 60.5615 24.1156L60.5669 24.1022C61.0885 22.827 62.3156 22.0018 63.6935 22H63.6978C65.074 22 66.3015 22.8215 66.8257 24.0941C66.8338 24.1139 66.8417 24.1342 66.8495 24.1543L66.8535 24.1646L66.8573 24.1745L75.1329 46.1042C75.694 47.5918 74.9436 49.2524 73.456 49.8137C71.9867 50.3681 70.3003 49.6042 69.7465 48.137L68.388 44.5378H58.9428ZM66.2155 38.7806L63.6873 32.0809L61.1355 38.7806H66.2155ZM54.4062 84.2402C54.9937 85.3247 56.1281 86 57.3614 86H71.5555C73.4116 86 74.9168 84.4951 74.9168 82.6386C74.9168 80.7822 73.4116 79.2773 71.5555 79.2773H63.5634L74.0412 63.1963C74.7145 62.163 74.7675 60.844 74.1801 59.7598C73.5925 58.6753 72.458 58 71.2248 58H57.7972C55.9412 58 54.4359 59.5049 54.4359 61.3614C54.4359 63.2178 55.9412 64.7227 57.7972 64.7227H65.0228L54.545 80.8037C53.8716 81.837 53.8186 83.156 54.4062 84.2402Z" fill="url(#paint2_linear_720_28)"/>
<defs>
<linearGradient id="paint0_linear_720_28" x1="63.7135" y1="120" x2="63.7135" y2="8" gradientUnits="userSpaceOnUse">
<stop stop-color="#02AA93"/>
<stop offset="1" stop-color="#67FF80"/>
</linearGradient>
<linearGradient id="paint1_linear_720_28" x1="63.7135" y1="120" x2="63.7135" y2="8" gradientUnits="userSpaceOnUse">
<stop stop-color="#02AA93"/>
<stop offset="1" stop-color="#67FF80"/>
</linearGradient>
<linearGradient id="paint2_linear_720_28" x1="63.6595" y1="86" x2="63.6595" y2="22" gradientUnits="userSpaceOnUse">
<stop stop-color="#02AA93"/>
<stop offset="1" stop-color="#67FF80"/>
</linearGradient>
</defs>
</svg>
