<svg width="128" height="128" viewBox="0 0 128 128" fill="none" xmlns="http://www.w3.org/2000/svg">
<path d="M31.3225 39.6296C31.3225 23.7688 45.8821 11.0001 63.9674 11.0001C82.0527 11.0001 96.6123 23.7688 96.6123 39.6296V51.5797C96.6123 56.0871 100.266 59.741 104.774 59.741C109.281 59.741 112.935 63.3949 112.935 67.9022V108.839C112.935 113.346 109.281 117 104.774 117H23.1612C18.6539 117 15 113.346 15 108.839V66.8984C15 62.9455 18.2045 59.741 22.1574 59.741H23.1612C27.6686 59.741 31.3225 56.0871 31.3225 51.5797V39.6296Z" stroke="url(#paint0_linear_735_2)" stroke-width="10"/>
<path d="M71.5 86.2257C77.2987 83.6914 80.8421 78.1541 80.8421 71.421C80.8421 62.352 73.4901 55 64.421 55C55.352 55 48 62.352 48 71.421C48 77.9418 51.493 83.5749 57 86.2257C56.3027 87.4002 56.2101 88.7718 56.2101 90.2368V99.1316C56.2101 103.477 59.7329 107 64.0785 107C68.4241 107 71.9469 103.477 71.9469 99.1316V90.2368C71.9469 88.8743 72.1095 87.3432 71.5 86.2257Z" fill="url(#paint1_linear_735_2)"/>
<defs>
<linearGradient id="paint0_linear_735_2" x1="63.9674" y1="117" x2="63.9674" y2="11.0001" gradientUnits="userSpaceOnUse">
<stop stop-color="#5570FF"/>
<stop offset="1" stop-color="#4DD3FF"/>
</linearGradient>
<linearGradient id="paint1_linear_735_2" x1="64.421" y1="107" x2="64.421" y2="55" gradientUnits="userSpaceOnUse">
<stop stop-color="#5570FF"/>
<stop offset="1" stop-color="#4DD3FF"/>
</linearGradient>
</defs>
</svg>
