<svg width="64" height="64" viewBox="0 0 64 64" fill="none" xmlns="http://www.w3.org/2000/svg">
<path d="M53.25 17.5H47.5C47.2238 17.5 47 17.2761 47 17C47 13.0218 45.4196 9.20643 42.6066 6.39339C39.7936 3.58036 35.9782 2 32 2C28.0218 2 24.2064 3.58036 21.3934 6.39339C18.5804 9.20643 17 13.0218 17 17C17 17.2761 16.7762 17.5 16.5 17.5H10.75C8.438 17.5279 6.2286 18.4587 4.59366 20.0936C2.95873 21.7286 2.02789 23.938 2 26.25V48.25C2.03197 51.8868 3.4909 55.3656 6.06262 57.9374C8.63439 60.5091 12.1132 61.9681 15.75 62H48.25C51.8868 61.9681 55.3656 60.5091 57.9374 57.9374C60.5091 55.3656 61.9681 51.8868 62 48.25V26.25C61.9721 23.938 61.0413 21.7286 59.4064 20.0936C57.7714 18.4587 55.562 17.5279 53.25 17.5ZM24.5 17C24.5 15.0109 25.2902 13.1032 26.6967 11.6967C28.1032 10.2902 30.0109 9.5 32 9.5C33.9891 9.5 35.8968 10.2902 37.3032 11.6967C38.7098 13.1032 39.5 15.0109 39.5 17C39.5 17.2761 39.2762 17.5 39 17.5H25C24.7238 17.5 24.5 17.2761 24.5 17ZM54.5 48.25C54.508 49.073 54.3518 49.8893 54.0406 50.6512C53.7293 51.4131 53.2693 52.1054 52.6873 52.6873C52.1054 53.2693 51.4131 53.7293 50.6512 54.0406C49.8893 54.3518 49.073 54.508 48.25 54.5H15.75C14.927 54.508 14.1107 54.3518 13.3488 54.0406C12.5869 53.7293 11.8946 53.2693 11.3127 52.6873C10.7307 52.1054 10.2707 51.4131 9.95943 50.6512C9.64818 49.8893 9.49196 49.073 9.5 48.25V26.25C9.48982 26.0831 9.51511 25.9161 9.57425 25.7598C9.6335 25.6035 9.72521 25.4616 9.84339 25.3434C9.96157 25.2253 10.1035 25.1335 10.2599 25.0743C10.4161 25.0151 10.5832 24.9897 10.75 25H15.9286C16.5203 25 17 25.4797 17 26.0715V28.25C17 29.2446 17.395 30.1984 18.0983 30.9017C18.8016 31.6049 19.7554 32 20.75 32C21.7446 32 22.6984 31.6049 23.4017 30.9017C24.1049 30.1984 24.5 29.2446 24.5 28.25V26.0715C24.5 25.4797 24.9797 25 25.5714 25H38.4286C39.0203 25 39.5 25.4797 39.5 26.0715V28.25C39.5 29.2446 39.895 30.1984 40.5983 30.9017C41.3016 31.6049 42.2554 32 43.25 32C44.2446 32 45.1984 31.6049 45.9017 30.9017C46.6049 30.1984 47 29.2446 47 28.25V26.0715C47 25.4797 47.4797 25 48.0714 25H53.25C53.4168 24.9897 53.5839 25.0151 53.7401 25.0743C53.8965 25.1335 54.0384 25.2253 54.1566 25.3434C54.2748 25.4616 54.3665 25.6035 54.4257 25.7598C54.4849 25.9161 54.5102 26.0831 54.5 26.25V48.25Z" fill="url(#paint0_linear_914_2)"/>
<defs>
<linearGradient id="paint0_linear_914_2" x1="32" y1="62" x2="32" y2="2" gradientUnits="userSpaceOnUse">
<stop stop-color="#9000FF"/>
<stop offset="1" stop-color="#FF00FF"/>
</linearGradient>
</defs>
</svg>
